  0
SECTION
  2
HEADER
  9
$ACADVER
  1
AC1024
  9
$ACADMAINTVER
 70
6
  9
$DWGCODEPAGE
  3
ANSI_1252
  9
$LASTSAVEDBY
  1
ezdxf
  9
$INSBASE
 10
0.0
 20
0.0
 30
0.0
  9
$EXTMIN
 10
1e+20
 20
1e+20
 30
1e+20
  9
$EXTMAX
 10
-1e+20
 20
-1e+20
 30
-1e+20
  9
$LIMMIN
 10
0.0
 20
0.0
  9
$LIMMAX
 10
420.0
 20
297.0
  9
$ORTHOMODE
 70
0
  9
$REGENMODE
 70
1
  9
$FILLMODE
 70
1
  9
$QTEXTMODE
 70
0
  9
$MIRRTEXT
 70
1
  9
$LTSCALE
 40
1.0
  9
$ATTMODE
 70
1
  9
$TEXTSIZE
 40
2.5
  9
$TRACEWID
 40
1.0
  9
$TEXTSTYLE
  7
Standard
  9
$CLAYER
  8
0
  9
$CELTYPE
  6
ByLayer
  9
$CECOLOR
 62
256
  9
$CELTSCALE
 40
1.0
  9
$DISPSILH
 70
0
  9
$DIMSCALE
 40
1.0
  9
$DIMASZ
 40
2.5
  9
$DIMEXO
 40
0.625
  9
$DIMDLI
 40
3.75
  9
$DIMRND
 40
0.0
  9
$DIMDLE
 40
0.0
  9
$DIMEXE
 40
1.25
  9
$DIMTP
 40
0.0
  9
$DIMTM
 40
0.0
  9
$DIMTXT
 40
2.5
  9
$DIMCEN
 40
2.5
  9
$DIMTSZ
 40
0.0
  9
$DIMTOL
 70
0
  9
$DIMLIM
 70
0
  9
$DIMTIH
 70
0
  9
$DIMTOH
 70
0
  9
$DIMSE1
 70
0
  9
$DIMSE2
 70
0
  9
$DIMTAD
 70
1
  9
$DIMZIN
 70
8
  9
$DIMBLK
  1

  9
$DIMASO
 70
1
  9
$DIMSHO
 70
1
  9
$DIMPOST
  1

  9
$DIMAPOST
  1

  9
$DIMALT
 70
0
  9
$DIMALTD
 70
3
  9
$DIMALTF
 40
0.03937007874
  9
$DIMLFAC
 40
1.0
  9
$DIMTOFL
 70
1
  9
$DIMTVP
 40
0.0
  9
$DIMTIX
 70
0
  9
$DIMSOXD
 70
0
  9
$DIMSAH
 70
0
  9
$DIMBLK1
  1

  9
$DIMBLK2
  1

  9
$DIMSTYLE
  2
ISO-25
  9
$DIMCLRD
 70
0
  9
$DIMCLRE
 70
0
  9
$DIMCLRT
 70
0
  9
$DIMTFAC
 40
1.0
  9
$DIMGAP
 40
0.625
  9
$DIMJUST
 70
0
  9
$DIMSD1
 70
0
  9
$DIMSD2
 70
0
  9
$DIMTOLJ
 70
0
  9
$DIMTZIN
 70
8
  9
$DIMALTZ
 70
0
  9
$DIMALTTZ
 70
0
  9
$DIMUPT
 70
0
  9
$DIMDEC
 70
2
  9
$DIMTDEC
 70
2
  9
$DIMALTU
 70
2
  9
$DIMALTTD
 70
3
  9
$DIMTXSTY
  7
Standard
  9
$DIMAUNIT
 70
0
  9
$DIMADEC
 70
0
  9
$DIMALTRND
 40
0.0
  9
$DIMAZIN
 70
0
  9
$DIMDSEP
 70
44
  9
$DIMATFIT
 70
3
  9
$DIMFRAC
 70
0
  9
$DIMLDRBLK
  1

  9
$DIMLUNIT
 70
2
  9
$DIMLWD
 70
-2
  9
$DIMLWE
 70
-2
  9
$DIMTMOVE
 70
0
  9
$DIMFXL
 40
1.0
  9
$DIMFXLON
 70
0
  9
$DIMJOGANG
 40
0.785398163397
  9
$DIMTFILL
 70
0
  9
$DIMTFILLCLR
 70
0
  9
$DIMARCSYM
 70
0
  9
$DIMLTYPE
  6

  9
$DIMLTEX1
  6

  9
$DIMLTEX2
  6

  9
$DIMTXTDIRECTION
 70
0
  9
$LUNITS
 70
2
  9
$LUPREC
 70
4
  9
$SKETCHINC
 40
1.0
  9
$FILLETRAD
 40
10.0
  9
$AUNITS
 70
0
  9
$AUPREC
 70
2
  9
$MENU
  1
.
  9
$ELEVATION
 40
0.0
  9
$PELEVATION
 40
0.0
  9
$THICKNESS
 40
0.0
  9
$LIMCHECK
 70
0
  9
$CHAMFERA
 40
0.0
  9
$CHAMFERB
 40
0.0
  9
$CHAMFERC
 40
0.0
  9
$CHAMFERD
 40
0.0
  9
$SKPOLY
 70
0
  9
$TDCREATE
 40
2461324.635092593
  9
$TDUCREATE
 40
2458532.153996898
  9
$TDUPDATE
 40
2461324.635092593
  9
$TDUUPDATE
 40
2458532.1544311
  9
$TDINDWG
 40
0.0
  9
$TDUSRTIMER
 40
0.0
  9
$USRTIMER
 70
1
  9
$ANGBASE
 50
0.0
  9
$ANGDIR
 70
0
  9
$PDMODE
 70
0
  9
$PDSIZE
 40
0.0
  9
$PLINEWID
 40
0.0
  9
$SPLFRAME
 70
0
  9
$SPLINETYPE
 70
6
  9
$SPLINESEGS
 70
8
  9
$HANDSEED
  5
2C2
  9
$SURFTAB1
 70
6
  9
$SURFTAB2
 70
6
  9
$SURFTYPE
 70
6
  9
$SURFU
 70
6
  9
$SURFV
 70
6
  9
$UCSBASE
  2

  9
$UCSNAME
  2

  9
$UCSORG
 10
0.0
 20
0.0
 30
0.0
  9
$UCSXDIR
 10
1.0
 20
0.0
 30
0.0
  9
$UCSYDIR
 10
0.0
 20
1.0
 30
0.0
  9
$UCSORTHOREF
  2

  9
$UCSORTHOVIEW
 70
0
  9
$UCSORGTOP
 10
0.0
 20
0.0
 30
0.0
  9
$UCSORGBOTTOM
 10
0.0
 20
0.0
 30
0.0
  9
$UCSORGLEFT
 10
0.0
 20
0.0
 30
0.0
  9
$UCSORGRIGHT
 10
0.0
 20
0.0
 30
0.0
  9
$UCSORGFRONT
 10
0.0
 20
0.0
 30
0.0
  9
$UCSORGBACK
 10
0.0
 20
0.0
 30
0.0
  9
$PUCSBASE
  2

  9
$PUCSNAME
  2

  9
$PUCSORG
 10
0.0
 20
0.0
 30
0.0
  9
$PUCSXDIR
 10
1.0
 20
0.0
 30
0.0
  9
$PUCSYDIR
 10
0.0
 20
1.0
 30
0.0
  9
$PUCSORTHOREF
  2

  9
$PUCSORTHOVIEW
 70
0
  9
$PUCSORGTOP
 10
0.0
 20
0.0
 30
0.0
  9
$PUCSORGBOTTOM
 10
0.0
 20
0.0
 30
0.0
  9
$PUCSORGLEFT
 10
0.0
 20
0.0
 30
0.0
  9
$PUCSORGRIGHT
 10
0.0
 20
0.0
 30
0.0
  9
$PUCSORGFRONT
 10
0.0
 20
0.0
 30
0.0
  9
$PUCSORGBACK
 10
0.0
 20
0.0
 30
0.0
  9
$USERI1
 70
0
  9
$USERI2
 70
0
  9
$USERI3
 70
0
  9
$USERI4
 70
0
  9
$USERI5
 70
0
  9
$USERR1
 40
0.0
  9
$USERR2
 40
0.0
  9
$USERR3
 40
0.0
  9
$USERR4
 40
0.0
  9
$USERR5
 40
0.0
  9
$WORLDVIEW
 70
1
  9
$SHADEDGE
 70
3
  9
$SHADEDIF
 70
70
  9
$TILEMODE
 70
1
  9
$MAXACTVP
 70
64
  9
$PINSBASE
 10
0.0
 20
0.0
 30
0.0
  9
$PLIMCHECK
 70
0
  9
$PEXTMIN
 10
1e+20
 20
1e+20
 30
1e+20
  9
$PEXTMAX
 10
-1e+20
 20
-1e+20
 30
-1e+20
  9
$PLIMMIN
 10
0.0
 20
0.0
  9
$PLIMMAX
 10
420.0
 20
297.0
  9
$UNITMODE
 70
0
  9
$VISRETAIN
 70
1
  9
$PLINEGEN
 70
0
  9
$PSLTSCALE
 70
1
  9
$TREEDEPTH
 70
3020
  9
$CMLSTYLE
  2
Standard
  9
$CMLJUST
 70
0
  9
$CMLSCALE
 40
20.0
  9
$PROXYGRAPHICS
 70
1
  9
$MEASUREMENT
 70
1
  9
$CELWEIGHT
370
-1
  9
$ENDCAPS
280
0
  9
$JOINSTYLE
280
0
  9
$LWDISPLAY
290
0
  9
$INSUNITS
 70
6
  9
$HYPERLINKBASE
  1

  9
$STYLESHEET
  1

  9
$XEDIT
290
1
  9
$CEPSNTYPE
380
0
  9
$PSTYLEMODE
290
1
  9
$FINGERPRINTGUID
  2
{8BD504CB-6917-46A2-BB8E-8B246D9C1D04}
  9
$VERSIONGUID
  2
{0A211836-DCA7-4C6E-A51F-5A17C85D118E}
  9
$EXTNAMES
290
1
  9
$PSVPSCALE
 40
0.0
  9
$OLESTARTUP
290
0
  9
$SORTENTS
280
127
  9
$INDEXCTL
280
0
  9
$HIDETEXT
280
1
  9
$XCLIPFRAME
280
1
  9
$HALOGAP
280
0
  9
$OBSCOLOR
 70
257
  9
$OBSLTYPE
280
0
  9
$INTERSECTIONDISPLAY
280
0
  9
$INTERSECTIONCOLOR
 70
257
  9
$DIMASSOC
280
2
  9
$PROJECTNAME
  1

  9
$CAMERADISPLAY
290
0
  9
$LENSLENGTH
 40
50.0
  9
$CAMERAHEIGHT
 40
0.0
  9
$STEPSPERSEC
 40
24.0
  9
$STEPSIZE
 40
100.0
  9
$3DDWFPREC
 40
2.0
  9
$PSOLWIDTH
 40
0.005
  9
$PSOLHEIGHT
 40
0.08
  9
$LOFTANG1
 40
1.570796326795
  9
$LOFTANG2
 40
1.570796326795
  9
$LOFTMAG1
 40
0.0
  9
$LOFTMAG2
 40
0.0
  9
$LOFTPARAM
 70
7
  9
$LOFTNORMALS
280
1
  9
$LATITUDE
 40
37.795
  9
$LONGITUDE
 40
-122.394
  9
$NORTHDIRECTION
 40
0.0
  9
$TIMEZONE
 70
-8000
  9
$LIGHTGLYPHDISPLAY
280
1
  9
$TILEMODELIGHTSYNCH
280
1
  9
$CMATERIAL
347
20
  9
$SOLIDHIST
280
0
  9
$SHOWHIST
280
1
  9
$DWFFRAME
280
2
  9
$DGNFRAME
280
2
  9
$REALWORLDSCALE
290
1
  9
$INTERFERECOLOR
 62
256
  9
$CSHADOW
280
0
  9
$SHADOWPLANELOCATION
 40
0.0
  0
ENDSEC
  0
SECTION
  2
CLASSES
  0
CLASS
  1
ACDBDICTIONARYWDFLT
  2
AcDbDictionaryWithDefault
  3
ObjectDBX Classes
 90
0
 91
0
280
0
281
0
  0
CLASS
  1
SUN
  2
AcDbSun
  3
SCENEOE
 90
1153
 91
0
280
0
281
0
  0
CLASS
  1
VISUALSTYLE
  2
AcDbVisualStyle
  3
ObjectDBX Classes
 90
4095
 91
0
280
0
281
0
  0
CLASS
  1
MATERIAL
  2
AcDbMaterial
  3
ObjectDBX Classes
 90
1153
 91
0
280
0
281
0
  0
CLASS
  1
SCALE
  2
AcDbScale
  3
ObjectDBX Classes
 90
1153
 91
0
280
0
281
0
  0
CLASS
  1
TABLESTYLE
  2
AcDbTableStyle
  3
ObjectDBX Classes
 90
4095
 91
0
280
0
281
0
  0
CLASS
  1
MLEADERSTYLE
  2
AcDbMLeaderStyle
  3
ACDB_MLEADERSTYLE_CLASS
 90
4095
 91
0
280
0
281
0
  0
CLASS
  1
DICTIONARYVAR
  2
AcDbDictionaryVar
  3
ObjectDBX Classes
 90
0
 91
0
280
0
281
0
  0
CLASS
  1
CELLSTYLEMAP
  2
AcDbCellStyleMap
  3
ObjectDBX Classes
 90
1152
 91
0
280
0
281
0
  0
CLASS
  1
MENTALRAYRENDERSETTINGS
  2
AcDbMentalRayRenderSettings
  3
SCENEOE
 90
1024
 91
0
280
0
281
0
  0
CLASS
  1
ACDBDETAILVIEWSTYLE
  2
AcDbDetailViewStyle
  3
ObjectDBX Classes
 90
1025
 91
0
280
0
281
0
  0
CLASS
  1
ACDBSECTIONVIEWSTYLE
  2
AcDbSectionViewStyle
  3
ObjectDBX Classes
 90
1025
 91
0
280
0
281
0
  0
CLASS
  1
RASTERVARIABLES
  2
AcDbRasterVariables
  3
ISM
 90
0
 91
0
280
0
281
0
  0
CLASS
  1
LAYOUT
  2
AcDbLayout
  3
ObjectDBX Classes
 90
0
 91
0
280
0
281
0
  0
CLASS
  1
ACDBPLACEHOLDER
  2
AcDbPlaceHolder
  3
ObjectDBX Classes
 90
0
 91
0
280
0
281
0
  0
ENDSEC
  0
SECTION
  2
TABLES
  0
TABLE
  2
VPORT
  5
8
330
0
100
AcDbSymbolTable
 70
1
  0
VPORT
  5
23
330
8
100
AcDbSymbolTableRecord
100
AcDbViewportTableRecord
  2
*Active
 70
0
 10
0.0
 20
0.0
 11
1.0
 21
1.0
 12
0.0
 22
0.0
 13
0.0
 23
0.0
 14
0.5
 24
0.5
 15
0.5
 25
0.5
 16
0.0
 26
0.0
 36
1.0
 17
0.0
 27
0.0
 37
0.0
 40
1000.0
 41
1.34
 42
50.0
 43
0.0
 44
0.0
 50
0.0
 51
0.0
 71
0
 72
1000
 73
1
 74
3
 75
0
 76
0
 77
0
 78
0
281
0
 65
0
146
0.0
  0
ENDTAB
  0
TABLE
  2
LTYPE
  5
2
330
0
100
AcDbSymbolTable
 70
3
  0
LTYPE
  5
24
330
2
100
AcDbSymbolTableRecord
100
AcDbLinetypeTableRecord
  2
ByBlock
 70
0
  3

 72
65
 73
0
 40
0.0
  0
LTYPE
  5
25
330
2
100
AcDbSymbolTableRecord
100
AcDbLinetypeTableRecord
  2
ByLayer
 70
0
  3

 72
65
 73
0
 40
0.0
  0
LTYPE
  5
26
330
2
100
AcDbSymbolTableRecord
100
AcDbLinetypeTableRecord
  2
Continuous
 70
0
  3

 72
65
 73
0
 40
0.0
  0
ENDTAB
  0
TABLE
  2
LAYER
  5
1
330
0
100
AcDbSymbolTable
 70
2
  0
LAYER
  5
27
330
1
100
AcDbSymbolTableRecord
100
AcDbLayerTableRecord
  2
0
 70
0
 62
7
  6
Continuous
370
-3
390
13
347
21
  0
LAYER
  5
28
330
1
100
AcDbSymbolTableRecord
100
AcDbLayerTableRecord
  2
Defpoints
 70
0
 62
7
  6
Continuous
290
0
370
-3
390
13
347
21
  0
ENDTAB
  0
TABLE
  2
STYLE
  5
5
330
0
100
AcDbSymbolTable
 70
1
  0
STYLE
  5
29
330
5
100
AcDbSymbolTableRecord
100
AcDbTextStyleTableRecord
  2
Standard
 70
0
 40
0.0
 41
1.0
 50
0.0
 71
0
 42
2.5
  3
txt
  4

  0
ENDTAB
  0
TABLE
  2
VIEW
  5
7
330
0
100
AcDbSymbolTable
 70
0
  0
ENDTAB
  0
TABLE
  2
UCS
  5
6
330
0
100
AcDbSymbolTable
 70
0
  0
ENDTAB
  0
TABLE
  2
APPID
  5
3
330
0
100
AcDbSymbolTable
 70
3
  0
APPID
  5
2A
330
3
100
AcDbSymbolTableRecord
100
AcDbRegAppTableRecord
  2
ACAD
 70
0
  0
APPID
  5
2BF
330
3
100
AcDbSymbolTableRecord
100
AcDbRegAppTableRecord
  2
HATCHBACKGROUNDCOLOR
 70
0
  0
APPID
  5
2C0
330
3
100
AcDbSymbolTableRecord
100
AcDbRegAppTableRecord
  2
EZDXF
 70
0
  0
ENDTAB
  0
TABLE
  2
DIMSTYLE
  5
4
330
0
100
AcDbSymbolTable
 70
1
100
AcDbDimStyleTable
  0
DIMSTYLE
105
2B
330
4
100
AcDbSymbolTableRecord
100
AcDbDimStyleTableRecord
  2
Standard
 70
0
 40
1.0
 41
2.5
 42
0.625
 43
3.75
 44
1.25
 45
0.0
 46
0.0
 47
0.0
 48
0.0
 49
2.5
140
2.5
141
2.5
142
0.0
143
0.03937007874
144
1.0
145
0.0
146
1.0
147
0.625
148
0.0
 69
0
 70
0
 71
0
 72
0
 73
0
 74
0
 75
0
 76
0
 77
1
 78
8
 79
3
170
0
171
3
172
1
173
0
174
0
175
0
176
0
177
0
178
0
179
2
271
2
272
2
273
2
274
3
275
0
276
0
277
2
278
44
279
0
280
0
281
0
282
0
283
0
284
8
285
0
286
0
288
0
289
3
290
0
371
-2
372
-2
  0
ENDTAB
  0
TABLE
  2
BLOCK_RECORD
  5
9
330
0
100
AcDbSymbolTable
 70
2
  0
BLOCK_RECORD
  5
17
330
9
100
AcDbSymbolTableRecord
100
AcDbBlockTableRecord
  2
*Model_Space
340
1A
 70
0
280
1
281
0
  0
BLOCK_RECORD
  5
1B
330
9
100
AcDbSymbolTableRecord
100
AcDbBlockTableRecord
  2
*Paper_Space
340
1E
 70
0
280
1
281
0
  0
ENDTAB
  0
ENDSEC
  0
SECTION
  2
BLOCKS
  0
BLOCK
  5
18
330
17
100
AcDbEntity
  8
0
100
AcDbBlockBegin
  2
*Model_Space
 70
0
 10
0.0
 20
0.0
 30
0.0
  3
*Model_Space
  1

  0
ENDBLK
  5
19
330
17
100
AcDbEntity
  8
0
100
AcDbBlockEnd
  0
BLOCK
  5
1C
330
1B
100
AcDbEntity
  8
0
100
AcDbBlockBegin
  2
*Paper_Space
 70
0
 10
0.0
 20
0.0
 30
0.0
  3
*Paper_Space
  1

  0
ENDBLK
  5
1D
330
1B
100
AcDbEntity
  8
0
100
AcDbBlockEnd
  0
ENDSEC
  0
SECTION
  2
ENTITIES
  0
LWPOLYLINE
  5
2F
330
17
100
AcDbEntity
  8
0
100
AcDbPolyline
 90
5
 70
0
 10
0.0
 20
0.0
 10
1000.0
 20
0.0
 10
1000.0
 20
1000.0
 10
0.0
 20
1000.0
 10
0.0
 20
0.0
  0
CIRCLE
  5
30
330
17
100
AcDbEntity
  8
0
100
AcDbCircle
 10
212.72471193430388
 20
348.6657350777782
 30
0.0
 40
40.0
  0
CIRCLE
  5
31
330
17
100
AcDbEntity
  8
0
100
AcDbCircle
 10
610.3259451712448
 20
610.1367010489303
 30
0.0
 40
40.0
  0
CIRCLE
  5
32
330
17
100
AcDbEntity
  8
0
100
AcDbCircle
 10
406.8888065535455
 20
181.8514592114148
 30
0.0
 40
40.0
  0
CIRCLE
  5
33
330
17
100
AcDbEntity
  8
0
100
AcDbCircle
 10
629.9039297959388
 20
529.899032296918
 30
0.0
 40
40.0
  0
CIRCLE
  5
34
330
17
100
AcDbEntity
  8
0
100
AcDbCircle
 10
336.02177679992474
 20
463.67976294448806
 30
0.0
 40
40.0
  0
CIRCLE
  5
35
330
17
100
AcDbEntity
  8
0
100
AcDbCircle
 10
533.4744166831124
 20
196.43713259555255
 30
0.0
 40
40.0
  0
CIRCLE
  5
36
330
17
100
AcDbEntity
  8
0
100
AcDbCircle
 10
48.39283039427383
 20
941.216750123135
 30
0.0
 40
40.0
  0
CIRCLE
  5
37
330
17
100
AcDbEntity
  8
0
100
AcDbCircle
 10
265.4827920369342
 20
834.4807224837873
 30
0.0
 40
40.0
  0
CIRCLE
  5
38
330
17
100
AcDbEntity
  8
0
100
AcDbCircle
 10
222.2246252590781
 20
450.0450037465725
 30
0.0
 40
40.0
  0
CIRCLE
  5
39
330
17
100
AcDbEntity
  8
0
100
AcDbCircle
 10
386.2036657820925
 20
275.76015709203733
 30
0.0
 40
40.0
  0
CIRCLE
  5
3A
330
17
100
AcDbEntity
  8
0
100
AcDbCircle
 10
110.67887583245205
 20
441.3286738495001
 30
0.0
 40
40.0
  0
CIRCLE
  5
3B
330
17
100
AcDbEntity
  8
0
100
AcDbCircle
 10
232.95302010104555
 20
598.8536341743619
 30
0.0
 40
40.0
  0
CIRCLE
  5
3C
330
17
100
AcDbEntity
  8
0
100
AcDbCircle
 10
537.8612002357567
 20
288.5095652115081
 30
0.0
 40
40.0
  0
CIRCLE
  5
3D
330
17
100
AcDbEntity
  8
0
100
AcDbCircle
 10
765.3042659176637
 20
419.4132131464592
 30
0.0
 40
40.0
  0
CIRCLE
  5
3E
330
17
100
AcDbEntity
  8
0
100
AcDbCircle
 10
447.3633535346054
 20
727.0899122622675
 30
0.0
 40
40.0
  0
CIRCLE
  5
3F
330
17
100
AcDbEntity
  8
0
100
AcDbCircle
 10
79.1482671256505
 20
609.5848594983186
 30
0.0
 40
40.0
  0
CIRCLE
  5
40
330
17
100
AcDbEntity
  8
0
100
AcDbCircle
 10
729.257153911899
 20
947.2601870257207
 30
0.0
 40
40.0
  0
CIRCLE
  5
41
330
17
100
AcDbEntity
  8
0
100
AcDbCircle
 10
672.2239053969085
 20
198.6459520238645
 30
0.0
 40
40.0
  0
CIRCLE
  5
42
330
17
100
AcDbEntity
  8
0
100
AcDbCircle
 10
230.98783240767526
 20
682.6358140703774
 30
0.0
 40
40.0
  0
CIRCLE
  5
43
330
17
100
AcDbEntity
  8
0
100
AcDbCircle
 10
859.6675176287569
 20
724.1223517983701
 30
0.0
 40
40.0
  0
CIRCLE
  5
44
330
17
100
AcDbEntity
  8
0
100
AcDbCircle
 10
709.2496180823467
 20
717.6628687965266
 30
0.0
 40
40.0
  0
CIRCLE
  5
45
330
17
100
AcDbEntity
  8
0
100
AcDbCircle
 10
350.20040407578335
 20
702.7092857216996
 30
0.0
 40
40.0
  0
CIRCLE
  5
46
330
17
100
AcDbEntity
  8
0
100
AcDbCircle
 10
196.27476684618364
 20
236.98378538050645
 30
0.0
 40
40.0
  0
CIRCLE
  5
47
330
17
100
AcDbEntity
  8
0
100
AcDbCircle
 10
861.8512429046338
 20
827.5704092055595
 30
0.0
 40
40.0
  0
CIRCLE
  5
48
330
17
100
AcDbEntity
  8
0
100
AcDbCircle
 10
299.9957858608181
 20
101.80949442819798
 30
0.0
 40
40.0
  0
CIRCLE
  5
49
330
17
100
AcDbEntity
  8
0
100
AcDbCircle
 10
870.8658697281536
 20
345.73770378943743
 30
0.0
 40
40.0
  0
CIRCLE
  5
4A
330
17
100
AcDbEntity
  8
0
100
AcDbCircle
 10
299.06036542480916
 20
193.29634895260907
 30
0.0
 40
40.0
  0
CIRCLE
  5
4B
330
17
100
AcDbEntity
  8
0
100
AcDbCircle
 10
728.3991788806312
 20
549.2635777024134
 30
0.0
 40
40.0
  0
CIRCLE
  5
4C
330
17
100
AcDbEntity
  8
0
100
AcDbCircle
 10
47.173354906852
 20
515.7668218565796
 30
0.0
 40
40.0
  0
CIRCLE
  5
4D
330
17
100
AcDbEntity
  8
0
100
AcDbCircle
 10
103.55127032448422
 20
814.1803563299687
 30
0.0
 40
40.0
  0
CIRCLE
  5
4E
330
17
100
AcDbEntity
  8
0
100
AcDbCircle
 10
197.77172570176722
 20
79.44905538019329
 30
0.0
 40
40.0
  0
CIRCLE
  5
4F
330
17
100
AcDbEntity
  8
0
100
AcDbCircle
 10
339.67866053517304
 20
899.5413022590443
 30
0.0
 40
40.0
  0
CIRCLE
  5
50
330
17
100
AcDbEntity
  8
0
100
AcDbCircle
 10
106.99445745304504
 20
78.16471933233362
 30
0.0
 40
40.0
  0
CIRCLE
  5
51
330
17
100
AcDbEntity
  8
0
100
AcDbCircle
 10
470.88534079144733
 20
436.7640561589699
 30
0.0
 40
40.0
  0
CIRCLE
  5
52
330
17
100
AcDbEntity
  8
0
100
AcDbCircle
 10
937.3692909922489
 20
913.5615503849476
 30
0.0
 40
40.0
  0
CIRCLE
  5
53
330
17
100
AcDbEntity
  8
0
100
AcDbCircle
 10
352.65243334348304
 20
373.3543684693441
 30
0.0
 40
40.0
  0
CIRCLE
  5
54
330
17
100
AcDbEntity
  8
0
100
AcDbCircle
 10
845.6924175454908
 20
194.47294905552138
 30
0.0
 40
40.0
  0
CIRCLE
  5
55
330
17
100
AcDbEntity
  8
0
100
AcDbCircle
 10
56.17308923738767
 20
293.83837749984326
 30
0.0
 40
40.0
  0
CIRCLE
  5
56
330
17
100
AcDbEntity
  8
0
100
AcDbCircle
 10
402.0168538375696
 20
952.7678881739669
 30
0.0
 40
40.0
  0
CIRCLE
  5
57
330
17
100
AcDbEntity
  8
0
100
AcDbCircle
 10
636.0452012743231
 20
806.5429149795939
 30
0.0
 40
40.0
  0
CIRCLE
  5
58
330
17
100
AcDbEntity
  8
0
100
AcDbCircle
 10
956.2213820174229
 20
285.48162414428697
 30
0.0
 40
40.0
  0
CIRCLE
  5
59
330
17
100
AcDbEntity
  8
0
100
AcDbCircle
 10
581.1271195024763
 20
424.6668310568778
 30
0.0
 40
40.0
  0
CIRCLE
  5
5A
330
17
100
AcDbEntity
  8
0
100
AcDbCircle
 10
880.9791809975839
 20
53.24334596388362
 30
0.0
 40
40.0
  0
CIRCLE
  5
5B
330
17
100
AcDbEntity
  8
0
100
AcDbCircle
 10
474.5270708701551
 20
93.80736486386417
 30
0.0
 40
40.0
  0
CIRCLE
  5
5C
330
17
100
AcDbEntity
  8
0
100
AcDbCircle
 10
798.6520286523216
 20
110.95015413532352
 30
0.0
 40
40.0
  0
CIRCLE
  5
5D
330
17
100
AcDbEntity
  8
0
100
AcDbCircle
 10
408.05786758875723
 20
499.28190128040046
 30
0.0
 40
40.0
  0
CIRCLE
  5
5E
330
17
100
AcDbEntity
  8
0
100
AcDbCircle
 10
552.5699661610571
 20
855.3953198333014
 30
0.0
 40
40.0
  0
CIRCLE
  5
5F
330
17
100
AcDbEntity
  8
0
100
AcDbCircle
 10
207.8845228101984
 20
917.0241418858307
 30
0.0
 40
40.0
  0
CIRCLE
  5
60
330
17
100
AcDbEntity
  8
0
100
AcDbCircle
 10
295.8836732309933
 20
294.5266793347455
 30
0.0
 40
40.0
  0
CIRCLE
  5
61
330
17
100
AcDbEntity
  8
0
100
AcDbCircle
 10
679.3345287246595
 20
420.34425102133224
 30
0.0
 40
40.0
  0
CIRCLE
  5
62
330
17
100
AcDbEntity
  8
0
100
AcDbCircle
 10
833.3642624908816
 20
579.5273980672948
 30
0.0
 40
40.0
  0
CIRCLE
  5
63
330
17
100
AcDbEntity
  8
0
100
AcDbCircle
 10
827.8268816930141
 20
911.1452841863921
 30
0.0
 40
40.0
  0
CIRCLE
  5
64
330
17
100
AcDbEntity
  8
0
100
AcDbCircle
 10
541.6623290669643
 20
765.9365755180372
 30
0.0
 40
40.0
  0
CIRCLE
  5
65
330
17
100
AcDbEntity
  8
0
100
AcDbCircle
 10
725.3103128120559
 20
836.9459067582603
 30
0.0
 40
40.0
  0
CIRCLE
  5
66
330
17
100
AcDbEntity
  8
0
100
AcDbCircle
 10
306.86771002903197
 20
554.9782314818599
 30
0.0
 40
40.0
  0
CIRCLE
  5
67
330
17
100
AcDbEntity
  8
0
100
AcDbCircle
 10
462.33600843077653
 20
342.54650909353165
 30
0.0
 40
40.0
  0
CIRCLE
  5
68
330
17
100
AcDbEntity
  8
0
100
AcDbCircle
 10
943.2237314495138
 20
455.04367338974936
 30
0.0
 40
40.0
  0
CIRCLE
  5
69
330
17
100
AcDbEntity
  8
0
100
AcDbCircle
 10
633.7547395079351
 20
309.44275027348573
 30
0.0
 40
40.0
  0
CIRCLE
  5
6A
330
17
100
AcDbEntity
  8
0
100
AcDbCircle
 10
945.4847639337264
 20
702.9901001919968
 30
0.0
 40
40.0
  0
CIRCLE
  5
6B
330
17
100
AcDbEntity
  8
0
100
AcDbCircle
 10
554.2355991492446
 20
114.9533146356542
 30
0.0
 40
40.0
  0
CIRCLE
  5
6C
330
17
100
AcDbEntity
  8
0
100
AcDbCircle
 10
387.6914538269429
 20
88.43048424874335
 30
0.0
 40
40.0
  0
CIRCLE
  5
6D
330
17
100
AcDbEntity
  8
0
100
AcDbCircle
 10
89.58339898588349
 20
694.5159358332801
 30
0.0
 40
40.0
  0
CIRCLE
  5
6E
330
17
100
AcDbEntity
  8
0
100
AcDbCircle
 10
130.6716189948542
 20
350.4115994871404
 30
0.0
 40
40.0
  0
CIRCLE
  5
6F
330
17
100
AcDbEntity
  8
0
100
AcDbCircle
 10
479.55485180187964
 20
819.6902236943884
 30
0.0
 40
40.0
  0
CIRCLE
  5
70
330
17
100
AcDbEntity
  8
0
100
AcDbCircle
 10
620.010980134055
 20
693.1617506843106
 30
0.0
 40
40.0
  0
CIRCLE
  5
71
330
17
100
AcDbEntity
  8
0
100
AcDbCircle
 10
42.893329879044856
 20
152.9834986583318
 30
0.0
 40
40.0
  0
CIRCLE
  5
72
330
17
100
AcDbEntity
  8
0
100
AcDbCircle
 10
385.8151612547656
 20
831.2778108251408
 30
0.0
 40
40.0
  0
CIRCLE
  5
73
330
17
100
AcDbEntity
  8
0
100
AcDbCircle
 10
532.9310217101242
 20
641.5286432249871
 30
0.0
 40
40.0
  0
CIRCLE
  5
74
330
17
100
AcDbEntity
  8
0
100
AcDbCircle
 10
398.9451274727744
 20
631.6926237570368
 30
0.0
 40
40.0
  0
CIRCLE
  5
75
330
17
100
AcDbEntity
  8
0
100
AcDbCircle
 10
716.9218375870618
 20
69.7046736612663
 30
0.0
 40
40.0
  0
CIRCLE
  5
76
330
17
100
AcDbEntity
  8
0
100
AcDbCircle
 10
537.8451472778042
 20
948.0757611613176
 30
0.0
 40
40.0
  0
CIRCLE
  5
77
330
17
100
AcDbEntity
  8
0
100
AcDbCircle
 10
812.0477597013111
 20
499.4027672796436
 30
0.0
 40
40.0
  0
CIRCLE
  5
78
330
17
100
AcDbEntity
  8
0
100
AcDbCircle
 10
513.9599347873817
 20
560.7178810611326
 30
0.0
 40
40.0
  0
CIRCLE
  5
79
330
17
100
AcDbEntity
  8
0
100
AcDbCircle
 10
789.0317343284665
 20
275.5767251258885
 30
0.0
 40
40.0
  0
CIRCLE
  5
7A
330
17
100
AcDbEntity
  8
0
100
AcDbCircle
 10
929.8683085805849
 20
602.2455924577554
 30
0.0
 40
40.0
  0
CIRCLE
  5
7B
330
17
100
AcDbEntity
  8
0
100
AcDbCircle
 10
628.3833164784464
 20
927.3593282906761
 30
0.0
 40
40.0
  0
CIRCLE
  5
7C
330
17
100
AcDbEntity
  8
0
100
AcDbCircle
 10
142.08297536896683
 20
521.2131636391363
 30
0.0
 40
40.0
  0
CIRCLE
  5
7D
330
17
100
AcDbEntity
  8
0
100
AcDbCircle
 10
902.8381923960006
 20
133.5161611119712
 30
0.0
 40
40.0
  0
CIRCLE
  5
7E
330
17
100
AcDbEntity
  8
0
100
AcDbCircle
 10
631.6782387066584
 20
74.70279300237635
 30
0.0
 40
40.0
  0
CIRCLE
  5
7F
330
17
100
AcDbEntity
  8
0
100
AcDbCircle
 10
763.2027754660711
 20
188.04324754407966
 30
0.0
 40
40.0
  0
CIRCLE
  5
80
330
17
100
AcDbEntity
  8
0
100
AcDbCircle
 10
110.8460554724252
 20
215.66408248428255
 30
0.0
 40
40.0
  0
CIRCLE
  5
81
330
17
100
AcDbEntity
  8
0
100
AcDbCircle
 10
44.715291678584464
 20
394.91736971267443
 30
0.0
 40
40.0
  0
CIRCLE
  5
82
330
17
100
AcDbEntity
  8
0
100
AcDbCircle
 10
778.7887794881876
 20
665.998247972092
 30
0.0
 40
40.0
  0
CIRCLE
  5
83
330
17
100
AcDbEntity
  8
0
100
AcDbCircle
 10
329.5317232713986
 20
770.6763322241701
 30
0.0
 40
10.0
  0
CIRCLE
  5
84
330
17
100
AcDbEntity
  8
0
100
AcDbCircle
 10
534.8076882798335
 20
26.879243182385483
 30
0.0
 40
10.0
  0
CIRCLE
  5
85
330
17
100
AcDbEntity
  8
0
100
AcDbCircle
 10
478.90419567434685
 20
908.4463641781508
 30
0.0
 40
10.0
  0
CIRCLE
  5
86
330
17
100
AcDbEntity
  8
0
100
AcDbCircle
 10
157.85405955333246
 20
292.90536119216677
 30
0.0
 40
10.0
  0
CIRCLE
  5
87
330
17
100
AcDbEntity
  8
0
100
AcDbCircle
 10
171.21273680492556
 20
840.840664995597
 30
0.0
 40
10.0
  0
CIRCLE
  5
88
330
17
100
AcDbEntity
  8
0
100
AcDbCircle
 10
586.6273697428138
 20
255.71170460129235
 30
0.0
 40
10.0
  0
CIRCLE
  5
89
330
17
100
AcDbEntity
  8
0
100
AcDbCircle
 10
626.4748329059813
 20
23.049103753100955
 30
0.0
 40
10.0
  0
CIRCLE
  5
8A
330
17
100
AcDbEntity
  8
0
100
AcDbCircle
 10
265.75929886450893
 20
237.24040968156598
 30
0.0
 40
10.0
  0
CIRCLE
  5
8B
330
17
100
AcDbEntity
  8
0
100
AcDbCircle
 10
930.9289630388264
 20
981.439579077095
 30
0.0
 40
10.0
  0
CIRCLE
  5
8C
330
17
100
AcDbEntity
  8
0
100
AcDbCircle
 10
574.0725892180088
 20
524.1136295657109
 30
0.0
 40
10.0
  0
CIRCLE
  5
8D
330
17
100
AcDbEntity
  8
0
100
AcDbCircle
 10
514.9500644801427
 20
478.76050556848844
 30
0.0
 40
10.0
  0
CIRCLE
  5
8E
330
17
100
AcDbEntity
  8
0
100
AcDbCircle
 10
262.9886250664832
 20
155.66151074006504
 30
0.0
 40
10.0
  0
CIRCLE
  5
8F
330
17
100
AcDbEntity
  8
0
100
AcDbCircle
 10
738.5798112955597
 20
604.2163434207342
 30
0.0
 40
10.0
  0
CIRCLE
  5
90
330
17
100
AcDbEntity
  8
0
100
AcDbCircle
 10
877.2450543400817
 20
496.58947458922563
 30
0.0
 40
10.0
  0
CIRCLE
  5
91
330
17
100
AcDbEntity
  8
0
100
AcDbCircle
 10
281.5139875908354
 20
917.3358017414837
 30
0.0
 40
10.0
  0
CIRCLE
  5
92
330
17
100
AcDbEntity
  8
0
100
AcDbCircle
 10
698.1244423737558
 20
472.2122952373437
 30
0.0
 40
10.0
  0
CIRCLE
  5
93
330
17
100
AcDbEntity
  8
0
100
AcDbCircle
 10
895.8551188507039
 20
546.3922389015473
 30
0.0
 40
10.0
  0
CIRCLE
  5
94
330
17
100
AcDbEntity
  8
0
100
AcDbCircle
 10
352.63381925912483
 20
610.1414318571424
 30
0.0
 40
10.0
  0
CIRCLE
  5
95
330
17
100
AcDbEntity
  8
0
100
AcDbCircle
 10
24.182944843613868
 20
893.3193983838974
 30
0.0
 40
10.0
  0
CIRCLE
  5
96
330
17
100
AcDbEntity
  8
0
100
AcDbCircle
 10
979.2576558233272
 20
960.869909404467
 30
0.0
 40
10.0
  0
CIRCLE
  5
97
330
17
100
AcDbEntity
  8
0
100
AcDbCircle
 10
810.963270093578
 20
815.7684431526374
 30
0.0
 40
10.0
  0
CIRCLE
  5
98
330
17
100
AcDbEntity
  8
0
100
AcDbCircle
 10
984.0922787550538
 20
831.4435194468928
 30
0.0
 40
10.0
  0
CIRCLE
  5
99
330
17
100
AcDbEntity
  8
0
100
AcDbCircle
 10
630.4530617985203
 20
978.9214584301014
 30
0.0
 40
10.0
  0
CIRCLE
  5
9A
330
17
100
AcDbEntity
  8
0
100
AcDbCircle
 10
979.497686782098
 20
510.5291550229399
 30
0.0
 40
10.0
  0
CIRCLE
  5
9B
330
17
100
AcDbEntity
  8
0
100
AcDbCircle
 10
30.175351195804417
 20
749.0427531919886
 30
0.0
 40
10.0
  0
CIRCLE
  5
9C
330
17
100
AcDbEntity
  8
0
100
AcDbCircle
 10
932.3291430020895
 20
37.82947281872779
 30
0.0
 40
10.0
  0
CIRCLE
  5
9D
330
17
100
AcDbEntity
  8
0
100
AcDbCircle
 10
405.88529188705695
 20
336.0324541259131
 30
0.0
 40
10.0
  0
CIRCLE
  5
9E
330
17
100
AcDbEntity
  8
0
100
AcDbCircle
 10
459.5114522021671
 20
584.8006796056268
 30
0.0
 40
10.0
  0
CIRCLE
  5
9F
330
17
100
AcDbEntity
  8
0
100
AcDbCircle
 10
191.69285345219615
 20
130.11269469381105
 30
0.0
 40
10.0
  0
CIRCLE
  5
A0
330
17
100
AcDbEntity
  8
0
100
AcDbCircle
 10
901.6058819311315
 20
253.1474701679776
 30
0.0
 40
10.0
  0
CIRCLE
  5
A1
330
17
100
AcDbEntity
  8
0
100
AcDbCircle
 10
318.71104550905926
 20
657.9549779347002
 30
0.0
 40
10.0
  0
CIRCLE
  5
A2
330
17
100
AcDbEntity
  8
0
100
AcDbCircle
 10
865.8326830157487
 20
653.6846568600945
 30
0.0
 40
10.0
  0
CIRCLE
  5
A3
330
17
100
AcDbEntity
  8
0
100
AcDbCircle
 10
82.63326702288562
 20
761.5439035143793
 30
0.0
 40
10.0
  0
CIRCLE
  5
A4
330
17
100
AcDbEntity
  8
0
100
AcDbCircle
 10
815.5709166254416
 20
764.257204465591
 30
0.0
 40
10.0
  0
CIRCLE
  5
A5
330
17
100
AcDbEntity
  8
0
100
AcDbCircle
 10
143.48839100816386
 20
747.7495354445347
 30
0.0
 40
10.0
  0
CIRCLE
  5
A6
330
17
100
AcDbEntity
  8
0
100
AcDbCircle
 10
939.9581928980967
 20
91.89540297690387
 30
0.0
 40
10.0
  0
CIRCLE
  5
A7
330
17
100
AcDbEntity
  8
0
100
AcDbCircle
 10
307.1794605446236
 20
244.28394106843177
 30
0.0
 40
10.0
  0
CIRCLE
  5
A8
330
17
100
AcDbEntity
  8
0
100
AcDbCircle
 10
28.700142222139398
 20
659.1504009757274
 30
0.0
 40
10.0
  0
CIRCLE
  5
A9
330
17
100
AcDbEntity
  8
0
100
AcDbCircle
 10
693.4495604704043
 20
626.9034350004398
 30
0.0
 40
10.0
  0
CIRCLE
  5
AA
330
17
100
AcDbEntity
  8
0
100
AcDbCircle
 10
343.62379590188993
 20
129.243701940888
 30
0.0
 40
10.0
  0
CIRCLE
  5
AB
330
17
100
AcDbEntity
  8
0
100
AcDbCircle
 10
454.05089538560526
 20
228.24714216587097
 30
0.0
 40
10.0
  0
CIRCLE
  5
AC
330
17
100
AcDbEntity
  8
0
100
AcDbCircle
 10
769.708643214276
 20
607.478740142105
 30
0.0
 40
10.0
  0
CIRCLE
  5
AD
330
17
100
AcDbEntity
  8
0
100
AcDbCircle
 10
475.37889952814373
 20
175.7567865990765
 30
0.0
 40
10.0
  0
CIRCLE
  5
AE
330
17
100
AcDbEntity
  8
0
100
AcDbCircle
 10
299.1464584215584
 20
763.9621197882111
 30
0.0
 40
10.0
  0
CIRCLE
  5
AF
330
17
100
AcDbEntity
  8
0
100
AcDbCircle
 10
166.6627221576359
 20
134.25789352843665
 30
0.0
 40
10.0
  0
CIRCLE
  5
B0
330
17
100
AcDbEntity
  8
0
100
AcDbCircle
 10
868.6094980294785
 20
777.2415908979257
 30
0.0
 40
10.0
  0
CIRCLE
  5
B1
330
17
100
AcDbEntity
  8
0
100
AcDbCircle
 10
474.1565221267029
 20
654.2162183524143
 30
0.0
 40
10.0
  0
CIRCLE
  5
B2
330
17
100
AcDbEntity
  8
0
100
AcDbCircle
 10
931.7307037451145
 20
508.0112559592963
 30
0.0
 40
10.0
  0
CIRCLE
  5
B3
330
17
100
AcDbEntity
  8
0
100
AcDbCircle
 10
699.781666606141
 20
147.93041108408693
 30
0.0
 40
10.0
  0
CIRCLE
  5
B4
330
17
100
AcDbEntity
  8
0
100
AcDbCircle
 10
779.5740063411334
 20
336.0108053911766
 30
0.0
 40
10.0
  0
CIRCLE
  5
B5
330
17
100
AcDbEntity
  8
0
100
AcDbCircle
 10
792.8293688251403
 20
764.3654555905761
 30
0.0
 40
10.0
  0
CIRCLE
  5
B6
330
17
100
AcDbEntity
  8
0
100
AcDbCircle
 10
388.5240592591641
 20
428.0667529298016
 30
0.0
 40
10.0
  0
CIRCLE
  5
B7
330
17
100
AcDbEntity
  8
0
100
AcDbCircle
 10
314.761901927464
 20
411.68328813885586
 30
0.0
 40
10.0
  0
CIRCLE
  5
B8
330
17
100
AcDbEntity
  8
0
100
AcDbCircle
 10
145.90540947623998
 20
923.480729215466
 30
0.0
 40
10.0
  0
CIRCLE
  5
B9
330
17
100
AcDbEntity
  8
0
100
AcDbCircle
 10
273.8386947248012
 20
22.97208714871261
 30
0.0
 40
10.0
  0
CIRCLE
  5
BA
330
17
100
AcDbEntity
  8
0
100
AcDbCircle
 10
182.60050468988956
 20
653.8893844347944
 30
0.0
 40
10.0
  0
CIRCLE
  5
BB
330
17
100
AcDbEntity
  8
0
100
AcDbCircle
 10
526.2071365789449
 20
362.5537398082022
 30
0.0
 40
10.0
  0
CIRCLE
  5
BC
330
17
100
AcDbEntity
  8
0
100
AcDbCircle
 10
959.8290695606289
 20
358.16132775992077
 30
0.0
 40
10.0
  0
CIRCLE
  5
BD
330
17
100
AcDbEntity
  8
0
100
AcDbCircle
 10
728.0801578339192
 20
473.54063336999775
 30
0.0
 40
10.0
  0
CIRCLE
  5
BE
330
17
100
AcDbEntity
  8
0
100
AcDbCircle
 10
158.63070244720487
 20
419.41768825518176
 30
0.0
 40
10.0
  0
CIRCLE
  5
BF
330
17
100
AcDbEntity
  8
0
100
AcDbCircle
 10
513.2144646624896
 20
398.199268178971
 30
0.0
 40
10.0
  0
CIRCLE
  5
C0
330
17
100
AcDbEntity
  8
0
100
AcDbCircle
 10
938.1484396452245
 20
795.527439260081
 30
0.0
 40
10.0
  0
CIRCLE
  5
C1
330
17
100
AcDbEntity
  8
0
100
AcDbCircle
 10
926.3197247551334
 20
547.6386134876362
 30
0.0
 40
10.0
  0
CIRCLE
  5
C2
330
17
100
AcDbEntity
  8
0
100
AcDbCircle
 10
563.2194675479441
 20
590.1992557453532
 30
0.0
 40
10.0
  0
CIRCLE
  5
C3
330
17
100
AcDbEntity
  8
0
100
AcDbCircle
 10
964.5870243998997
 20
643.0248903803391
 30
0.0
 40
10.0
  0
CIRCLE
  5
C4
330
17
100
AcDbEntity
  8
0
100
AcDbCircle
 10
364.46972565232716
 20
556.0564876207804
 30
0.0
 40
10.0
  0
CIRCLE
  5
C5
330
17
100
AcDbEntity
  8
0
100
AcDbCircle
 10
113.23513157636448
 20
903.5065046340297
 30
0.0
 40
10.0
  0
CIRCLE
  5
C6
330
17
100
AcDbEntity
  8
0
100
AcDbCircle
 10
280.9843181178953
 20
447.815501469597
 30
0.0
 40
10.0
  0
CIRCLE
  5
C7
330
17
100
AcDbEntity
  8
0
100
AcDbCircle
 10
953.8254477608934
 20
962.020223528481
 30
0.0
 40
10.0
  0
CIRCLE
  5
C8
330
17
100
AcDbEntity
  8
0
100
AcDbCircle
 10
491.4040172991137
 20
149.90010492789494
 30
0.0
 40
10.0
  0
CIRCLE
  5
C9
330
17
100
AcDbEntity
  8
0
100
AcDbCircle
 10
730.278751314774
 20
377.6557053255545
 30
0.0
 40
10.0
  0
CIRCLE
  5
CA
330
17
100
AcDbEntity
  8
0
100
AcDbCircle
 10
166.81463871827356
 20
872.8479092898541
 30
0.0
 40
10.0
  0
CIRCLE
  5
CB
330
17
100
AcDbEntity
  8
0
100
AcDbCircle
 10
682.1537539245255
 20
574.0659577297258
 30
0.0
 40
10.0
  0
CIRCLE
  5
CC
330
17
100
AcDbEntity
  8
0
100
AcDbCircle
 10
247.54430872645386
 20
756.5777705971395
 30
0.0
 40
10.0
  0
CIRCLE
  5
CD
330
17
100
AcDbEntity
  8
0
100
AcDbCircle
 10
269.175359758949
 20
421.24996749201375
 30
0.0
 40
10.0
  0
CIRCLE
  5
CE
330
17
100
AcDbEntity
  8
0
100
AcDbCircle
 10
831.8515005206089
 20
675.6001529258805
 30
0.0
 40
10.0
  0
CIRCLE
  5
CF
330
17
100
AcDbEntity
  8
0
100
AcDbCircle
 10
366.4390632237355
 20
422.16962171829016
 30
0.0
 40
10.0
  0
CIRCLE
  5
D0
330
17
100
AcDbEntity
  8
0
100
AcDbCircle
 10
792.3192138946002
 20
353.337434388118
 30
0.0
 40
10.0
  0
CIRCLE
  5
D1
330
17
100
AcDbEntity
  8
0
100
AcDbCircle
 10
753.0309072361799
 20
902.0502066421793
 30
0.0
 40
10.0
  0
CIRCLE
  5
D2
330
17
100
AcDbEntity
  8
0
100
AcDbCircle
 10
112.99994422877533
 20
943.254352247524
 30
0.0
 40
10.0
  0
CIRCLE
  5
D3
330
17
100
AcDbEntity
  8
0
100
AcDbCircle
 10
265.11713396974153
 20
737.6754220486622
 30
0.0
 40
10.0
  0
CIRCLE
  5
D4
330
17
100
AcDbEntity
  8
0
100
AcDbCircle
 10
901.1639603856142
 20
763.8157426026554
 30
0.0
 40
10.0
  0
CIRCLE
  5
D5
330
17
100
AcDbEntity
  8
0
100
AcDbCircle
 10
571.9989358320777
 20
481.7733666192084
 30
0.0
 40
10.0
  0
CIRCLE
  5
D6
330
17
100
AcDbEntity
  8
0
100
AcDbCircle
 10
988.3486894510936
 20
736.100905067545
 30
0.0
 40
10.0
  0
CIRCLE
  5
D7
330
17
100
AcDbEntity
  8
0
100
AcDbCircle
 10
906.4594657912189
 20
657.3135397315332
 30
0.0
 40
10.0
  0
CIRCLE
  5
D8
330
17
100
AcDbEntity
  8
0
100
AcDbCircle
 10
766.4083075018284
 20
748.4696512650127
 30
0.0
 40
10.0
  0
CIRCLE
  5
D9
330
17
100
AcDbEntity
  8
0
100
AcDbCircle
 10
872.8194704084385
 20
978.4735932634211
 30
0.0
 40
10.0
  0
CIRCLE
  5
DA
330
17
100
AcDbEntity
  8
0
100
AcDbCircle
 10
152.92091343013715
 20
945.5099743378579
 30
0.0
 40
10.0
  0
CIRCLE
  5
DB
330
17
100
AcDbEntity
  8
0
100
AcDbCircle
 10
888.6237558741781
 20
432.7391213367514
 30
0.0
 40
10.0
  0
CIRCLE
  5
DC
330
17
100
AcDbEntity
  8
0
100
AcDbCircle
 10
607.7954615145975
 20
197.93308504570226
 30
0.0
 40
10.0
  0
CIRCLE
  5
DD
330
17
100
AcDbEntity
  8
0
100
AcDbCircle
 10
97.23542831106734
 20
975.1971994438647
 30
0.0
 40
10.0
  0
CIRCLE
  5
DE
330
17
100
AcDbEntity
  8
0
100
AcDbCircle
 10
781.1071346443945
 20
811.9031818327283
 30
0.0
 40
10.0
  0
CIRCLE
  5
DF
330
17
100
AcDbEntity
  8
0
100
AcDbCircle
 10
583.3834662631607
 20
10.4847298722171
 30
0.0
 40
10.0
  0
CIRCLE
  5
E0
330
17
100
AcDbEntity
  8
0
100
AcDbCircle
 10
669.1785907487066
 20
887.022496946353
 30
0.0
 40
10.0
  0
CIRCLE
  5
E1
330
17
100
AcDbEntity
  8
0
100
AcDbCircle
 10
965.0381995407079
 20
546.2261196899278
 30
0.0
 40
10.0
  0
CIRCLE
  5
E2
330
17
100
AcDbEntity
  8
0
100
AcDbCircle
 10
456.6280890871527
 20
289.1270032526793
 30
0.0
 40
10.0
  0
CIRCLE
  5
E3
330
17
100
AcDbEntity
  8
0
100
AcDbCircle
 10
933.9718657977161
 20
208.52624354177817
 30
0.0
 40
10.0
  0
CIRCLE
  5
E4
330
17
100
AcDbEntity
  8
0
100
AcDbCircle
 10
295.65941809613435
 20
693.4108214498167
 30
0.0
 40
10.0
  0
CIRCLE
  5
E5
330
17
100
AcDbEntity
  8
0
100
AcDbCircle
 10
19.638127292528196
 20
256.72271459826095
 30
0.0
 40
10.0
  0
CIRCLE
  5
E6
330
17
100
AcDbEntity
  8
0
100
AcDbCircle
 10
908.937910929875
 20
807.6930795001997
 30
0.0
 40
10.0
  0
CIRCLE
  5
E7
330
17
100
AcDbEntity
  8
0
100
AcDbCircle
 10
783.5642084170812
 20
562.8387705115935
 30
0.0
 40
10.0
  0
CIRCLE
  5
E8
330
17
100
AcDbEntity
  8
0
100
AcDbCircle
 10
290.59886802478303
 20
37.017340137664156
 30
0.0
 40
10.0
  0
CIRCLE
  5
E9
330
17
100
AcDbEntity
  8
0
100
AcDbCircle
 10
819.5878472452623
 20
333.14525323818106
 30
0.0
 40
10.0
  0
CIRCLE
  5
EA
330
17
100
AcDbEntity
  8
0
100
AcDbCircle
 10
666.1058697912384
 20
983.868064128329
 30
0.0
 40
10.0
  0
CIRCLE
  5
EB
330
17
100
AcDbEntity
  8
0
100
AcDbCircle
 10
150.0828118045459
 20
966.6467261200689
 30
0.0
 40
10.0
  0
CIRCLE
  5
EC
330
17
100
AcDbEntity
  8
0
100
AcDbCircle
 10
10.1260995778925
 20
703.1536908858596
 30
0.0
 40
10.0
  0
CIRCLE
  5
ED
330
17
100
AcDbEntity
  8
0
100
AcDbCircle
 10
173.96576284122872
 20
614.4896670085566
 30
0.0
 40
10.0
  0
CIRCLE
  5
EE
330
17
100
AcDbEntity
  8
0
100
AcDbCircle
 10
17.458523966738852
 20
227.31942156816336
 30
0.0
 40
10.0
  0
CIRCLE
  5
EF
330
17
100
AcDbEntity
  8
0
100
AcDbCircle
 10
696.4688200741988
 20
329.13745893291645
 30
0.0
 40
10.0
  0
CIRCLE
  5
F0
330
17
100
AcDbEntity
  8
0
100
AcDbCircle
 10
662.031955962692
 20
759.9162862689743
 30
0.0
 40
10.0
  0
CIRCLE
  5
F1
330
17
100
AcDbEntity
  8
0
100
AcDbCircle
 10
445.7853012782944
 20
252.24161173765532
 30
0.0
 40
10.0
  0
CIRCLE
  5
F2
330
17
100
AcDbEntity
  8
0
100
AcDbCircle
 10
134.02074049162343
 20
986.6050820752157
 30
0.0
 40
10.0
  0
CIRCLE
  5
F3
330
17
100
AcDbEntity
  8
0
100
AcDbCircle
 10
794.6252074881638
 20
989.7573322742679
 30
0.0
 40
10.0
  0
CIRCLE
  5
F4
330
17
100
AcDbEntity
  8
0
100
AcDbCircle
 10
176.54170016629863
 20
568.2281447029641
 30
0.0
 40
10.0
  0
CIRCLE
  5
F5
330
17
100
AcDbEntity
  8
0
100
AcDbCircle
 10
337.57944255444613
 20
645.1354560299019
 30
0.0
 40
10.0
  0
CIRCLE
  5
F6
330
17
100
AcDbEntity
  8
0
100
AcDbCircle
 10
466.0084818975674
 20
876.927199611725
 30
0.0
 40
10.0
  0
CIRCLE
  5
F7
330
17
100
AcDbEntity
  8
0
100
AcDbCircle
 10
325.6912131611724
 20
15.552855406884147
 30
0.0
 40
10.0
  0
CIRCLE
  5
F8
330
17
100
AcDbEntity
  8
0
100
AcDbCircle
 10
228.56821186946507
 20
747.4716463904354
 30
0.0
 40
10.0
  0
CIRCLE
  5
F9
330
17
100
AcDbEntity
  8
0
100
AcDbCircle
 10
967.6805814198875
 20
409.6180064358396
 30
0.0
 40
10.0
  0
CIRCLE
  5
FA
330
17
100
AcDbEntity
  8
0
100
AcDbCircle
 10
620.9857654526058
 20
229.90032183059424
 30
0.0
 40
10.0
  0
CIRCLE
  5
FB
330
17
100
AcDbEntity
  8
0
100
AcDbCircle
 10
484.90341804329313
 20
615.1449222930172
 30
0.0
 40
10.0
  0
CIRCLE
  5
FC
330
17
100
AcDbEntity
  8
0
100
AcDbCircle
 10
229.34832014571018
 20
965.5308147827118
 30
0.0
 40
10.0
  0
CIRCLE
  5
FD
330
17
100
AcDbEntity
  8
0
100
AcDbCircle
 10
986.6658206710008
 20
786.6035710623834
 30
0.0
 40
10.0
  0
CIRCLE
  5
FE
330
17
100
AcDbEntity
  8
0
100
AcDbCircle
 10
755.82080899088
 20
321.1086066917895
 30
0.0
 40
10.0
  0
CIRCLE
  5
FF
330
17
100
AcDbEntity
  8
0
100
AcDbCircle
 10
807.8454056114786
 20
974.0127062468433
 30
0.0
 40
10.0
  0
CIRCLE
  5
100
330
17
100
AcDbEntity
  8
0
100
AcDbCircle
 10
631.8991561754802
 20
398.3310004827142
 30
0.0
 40
10.0
  0
CIRCLE
  5
101
330
17
100
AcDbEntity
  8
0
100
AcDbCircle
 10
729.7008334041666
 20
786.7753565355908
 30
0.0
 40
10.0
  0
CIRCLE
  5
102
330
17
100
AcDbEntity
  8
0
100
AcDbCircle
 10
289.0559503030712
 20
886.722149519946
 30
0.0
 40
10.0
  0
CIRCLE
  5
103
330
17
100
AcDbEntity
  8
0
100
AcDbCircle
 10
945.0739135284649
 20
21.473698956578026
 30
0.0
 40
10.0
  0
CIRCLE
  5
104
330
17
100
AcDbEntity
  8
0
100
AcDbCircle
 10
538.7860333385829
 20
470.2723680480831
 30
0.0
 40
10.0
  0
CIRCLE
  5
105
330
17
100
AcDbEntity
  8
0
100
AcDbCircle
 10
292.1049730156766
 20
979.1703494619616
 30
0.0
 40
10.0
  0
CIRCLE
  5
106
330
17
100
AcDbEntity
  8
0
100
AcDbCircle
 10
810.0934079974264
 20
849.7249379454142
 30
0.0
 40
10.0
  0
CIRCLE
  5
107
330
17
100
AcDbEntity
  8
0
100
AcDbCircle
 10
252.31669795606177
 20
389.9474214141299
 30
0.0
 40
10.0
  0
CIRCLE
  5
108
330
17
100
AcDbEntity
  8
0
100
AcDbCircle
 10
157.97240004714556
 20
811.6656669813987
 30
0.0
 40
10.0
  0
CIRCLE
  5
109
330
17
100
AcDbEntity
  8
0
100
AcDbCircle
 10
196.60398138857605
 20
298.6563485829417
 30
0.0
 40
10.0
  0
CIRCLE
  5
10A
330
17
100
AcDbEntity
  8
0
100
AcDbCircle
 10
662.4886515836947
 20
647.8198374945182
 30
0.0
 40
10.0
  0
CIRCLE
  5
10B
330
17
100
AcDbEntity
  8
0
100
AcDbCircle
 10
670.113311302055
 20
671.5906787556207
 30
0.0
 40
10.0
  0
CIRCLE
  5
10C
330
17
100
AcDbEntity
  8
0
100
AcDbCircle
 10
843.2652479170673
 20
263.83590512614427
 30
0.0
 40
10.0
  0
CIRCLE
  5
10D
330
17
100
AcDbEntity
  8
0
100
AcDbCircle
 10
595.9686031690239
 20
478.8318129974266
 30
0.0
 40
10.0
  0
CIRCLE
  5
10E
330
17
100
AcDbEntity
  8
0
100
AcDbCircle
 10
52.86150274396492
 20
88.75030007655289
 30
0.0
 40
10.0
  0
CIRCLE
  5
10F
330
17
100
AcDbEntity
  8
0
100
AcDbCircle
 10
553.8354441376935
 20
496.63957369591316
 30
0.0
 40
10.0
  0
CIRCLE
  5
110
330
17
100
AcDbEntity
  8
0
100
AcDbCircle
 10
484.7463974958225
 20
958.4240569455906
 30
0.0
 40
10.0
  0
CIRCLE
  5
111
330
17
100
AcDbEntity
  8
0
100
AcDbCircle
 10
254.65875785099365
 20
958.0076948176138
 30
0.0
 40
10.0
  0
CIRCLE
  5
112
330
17
100
AcDbEntity
  8
0
100
AcDbCircle
 10
949.3294490007318
 20
853.009492979491
 30
0.0
 40
10.0
  0
CIRCLE
  5
113
330
17
100
AcDbEntity
  8
0
100
AcDbCircle
 10
689.6650544723436
 20
304.6084456903079
 30
0.0
 40
10.0
  0
CIRCLE
  5
114
330
17
100
AcDbEntity
  8
0
100
AcDbCircle
 10
139.68902602570506
 20
259.4147953173354
 30
0.0
 40
10.0
  0
CIRCLE
  5
115
330
17
100
AcDbEntity
  8
0
100
AcDbCircle
 10
442.7513029847948
 20
547.0726113401672
 30
0.0
 40
10.0
  0
CIRCLE
  5
116
330
17
100
AcDbEntity
  8
0
100
AcDbCircle
 10
903.9384922767002
 20
417.9070570325079
 30
0.0
 40
10.0
  0
CIRCLE
  5
117
330
17
100
AcDbEntity
  8
0
100
AcDbCircle
 10
314.5127979791105
 20
791.5429637478469
 30
0.0
 40
10.0
  0
CIRCLE
  5
118
330
17
100
AcDbEntity
  8
0
100
AcDbCircle
 10
51.43116513178899
 20
44.45587190219657
 30
0.0
 40
10.0
  0
CIRCLE
  5
119
330
17
100
AcDbEntity
  8
0
100
AcDbCircle
 10
407.0486083827997
 20
26.337633361232456
 30
0.0
 40
10.0
  0
CIRCLE
  5
11A
330
17
100
AcDbEntity
  8
0
100
AcDbCircle
 10
760.6072324441959
 20
774.1963151893016
 30
0.0
 40
10.0
  0
CIRCLE
  5
11B
330
17
100
AcDbEntity
  8
0
100
AcDbCircle
 10
948.2285587269241
 20
524.0572420163785
 30
0.0
 40
10.0
  0
CIRCLE
  5
11C
330
17
100
AcDbEntity
  8
0
100
AcDbCircle
 10
722.4145111119136
 20
617.5449180697155
 30
0.0
 40
10.0
  0
CIRCLE
  5
11D
330
17
100
AcDbEntity
  8
0
100
AcDbCircle
 10
882.0066518759772
 20
525.6128015606815
 30
0.0
 40
10.0
  0
CIRCLE
  5
11E
330
17
100
AcDbEntity
  8
0
100
AcDbCircle
 10
213.75149089463056
 20
131.33049360119432
 30
0.0
 40
10.0
  0
CIRCLE
  5
11F
330
17
100
AcDbEntity
  8
0
100
AcDbCircle
 10
419.40522363517306
 20
572.8392233423072
 30
0.0
 40
10.0
  0
CIRCLE
  5
120
330
17
100
AcDbEntity
  8
0
100
AcDbCircle
 10
547.6445204442352
 20
42.963419459667165
 30
0.0
 40
10.0
  0
CIRCLE
  5
121
330
17
100
AcDbEntity
  8
0
100
AcDbCircle
 10
227.43058293436576
 20
510.8152021689193
 30
0.0
 40
10.0
  0
CIRCLE
  5
122
330
17
100
AcDbEntity
  8
0
100
AcDbCircle
 10
492.34212189990865
 20
13.688256108308813
 30
0.0
 40
10.0
  0
CIRCLE
  5
123
330
17
100
AcDbEntity
  8
0
100
AcDbCircle
 10
261.0550968244044
 20
493.8504140840707
 30
0.0
 40
10.0
  0
CIRCLE
  5
124
330
17
100
AcDbEntity
  8
0
100
AcDbCircle
 10
666.5931018194783
 20
590.1285732748014
 30
0.0
 40
10.0
  0
CIRCLE
  5
125
330
17
100
AcDbEntity
  8
0
100
AcDbCircle
 10
213.36970055780836
 20
154.33217140845463
 30
0.0
 40
10.0
  0
CIRCLE
  5
126
330
17
100
AcDbEntity
  8
0
100
AcDbCircle
 10
151.04741350669408
 20
705.2413135898079
 30
0.0
 40
10.0
  0
CIRCLE
  5
127
330
17
100
AcDbEntity
  8
0
100
AcDbCircle
 10
175.63478785937895
 20
744.8948162793166
 30
0.0
 40
10.0
  0
CIRCLE
  5
128
330
17
100
AcDbEntity
  8
0
100
AcDbCircle
 10
627.9188930957267
 20
160.68692438880063
 30
0.0
 40
10.0
  0
CIRCLE
  5
129
330
17
100
AcDbEntity
  8
0
100
AcDbCircle
 10
454.8174199430428
 20
159.87156979326332
 30
0.0
 40
10.0
  0
CIRCLE
  5
12A
330
17
100
AcDbEntity
  8
0
100
AcDbCircle
 10
459.091486126309
 20
559.529488684276
 30
0.0
 40
10.0
  0
CIRCLE
  5
12B
330
17
100
AcDbEntity
  8
0
100
AcDbCircle
 10
165.12140717349735
 20
451.0223488377555
 30
0.0
 40
10.0
  0
CIRCLE
  5
12C
330
17
100
AcDbEntity
  8
0
100
AcDbCircle
 10
965.7435581349589
 20
869.1654068202839
 30
0.0
 40
10.0
  0
CIRCLE
  5
12D
330
17
100
AcDbEntity
  8
0
100
AcDbCircle
 10
916.2795646949063
 20
226.9492274394418
 30
0.0
 40
10.0
  0
CIRCLE
  5
12E
330
17
100
AcDbEntity
  8
0
100
AcDbCircle
 10
52.960357169498636
 20
877.9722879444913
 30
0.0
 40
10.0
  0
CIRCLE
  5
12F
330
17
100
AcDbEntity
  8
0
100
AcDbCircle
 10
33.643057779772874
 20
448.8968824140974
 30
0.0
 40
10.0
  0
CIRCLE
  5
130
330
17
100
AcDbEntity
  8
0
100
AcDbCircle
 10
468.40419992950405
 20
531.9414848470641
 30
0.0
 40
10.0
  0
CIRCLE
  5
131
330
17
100
AcDbEntity
  8
0
100
AcDbCircle
 10
51.24156432036911
 20
761.3118447319772
 30
0.0
 40
10.0
  0
CIRCLE
  5
132
330
17
100
AcDbEntity
  8
0
100
AcDbCircle
 10
961.6317922701865
 20
33.5392306341514
 30
0.0
 40
10.0
  0
CIRCLE
  5
133
330
17
100
AcDbEntity
  8
0
100
AcDbCircle
 10
759.1663486160994
 20
723.0506927256149
 30
0.0
 40
10.0
  0
CIRCLE
  5
134
330
17
100
AcDbEntity
  8
0
100
AcDbCircle
 10
709.9963350084604
 20
780.0990622545871
 30
0.0
 40
10.0
  0
CIRCLE
  5
135
330
17
100
AcDbEntity
  8
0
100
AcDbCircle
 10
921.4860205144096
 20
326.76583698350225
 30
0.0
 40
10.0
  0
CIRCLE
  5
136
330
17
100
AcDbEntity
  8
0
100
AcDbCircle
 10
147.4069615714395
 20
890.1964458060224
 30
0.0
 40
10.0
  0
CIRCLE
  5
137
330
17
100
AcDbEntity
  8
0
100
AcDbCircle
 10
983.2997422412717
 20
120.06946179619595
 30
0.0
 40
10.0
  0
CIRCLE
  5
138
330
17
100
AcDbEntity
  8
0
100
AcDbCircle
 10
334.29807666827475
 20
257.91839259872773
 30
0.0
 40
10.0
  0
CIRCLE
  5
139
330
17
100
AcDbEntity
  8
0
100
AcDbCircle
 10
217.34050876237467
 20
296.08573765954435
 30
0.0
 40
10.0
  0
CIRCLE
  5
13A
330
17
100
AcDbEntity
  8
0
100
AcDbCircle
 10
207.482019403149
 20
846.9892213328841
 30
0.0
 40
10.0
  0
CIRCLE
  5
13B
330
17
100
AcDbEntity
  8
0
100
AcDbCircle
 10
664.0752364423498
 20
33.78422517876047
 30
0.0
 40
10.0
  0
CIRCLE
  5
13C
330
17
100
AcDbEntity
  8
0
100
AcDbCircle
 10
421.39119749523724
 20
408.768306094314
 30
0.0
 40
10.0
  0
CIRCLE
  5
13D
330
17
100
AcDbEntity
  8
0
100
AcDbCircle
 10
924.9228526320995
 20
826.7657125008599
 30
0.0
 40
10.0
  0
CIRCLE
  5
13E
330
17
100
AcDbEntity
  8
0
100
AcDbCircle
 10
81.53172573066412
 20
890.5101248425318
 30
0.0
 40
10.0
  0
CIRCLE
  5
13F
330
17
100
AcDbEntity
  8
0
100
AcDbCircle
 10
634.5928357632056
 20
362.0105762449132
 30
0.0
 40
10.0
  0
CIRCLE
  5
140
330
17
100
AcDbEntity
  8
0
100
AcDbCircle
 10
688.2554766881327
 20
265.650771372115
 30
0.0
 40
10.0
  0
CIRCLE
  5
141
330
17
100
AcDbEntity
  8
0
100
AcDbCircle
 10
444.876120119759
 20
598.7895026596146
 30
0.0
 40
10.0
  0
CIRCLE
  5
142
330
17
100
AcDbEntity
  8
0
100
AcDbCircle
 10
165.8603316372157
 20
788.6786604505943
 30
0.0
 40
10.0
  0
CIRCLE
  5
143
330
17
100
AcDbEntity
  8
0
100
AcDbCircle
 10
148.27760870575335
 20
838.1466832578383
 30
0.0
 40
10.0
  0
CIRCLE
  5
144
330
17
100
AcDbEntity
  8
0
100
AcDbCircle
 10
142.5509912084331
 20
665.3545463115634
 30
0.0
 40
10.0
  0
CIRCLE
  5
145
330
17
100
AcDbEntity
  8
0
100
AcDbCircle
 10
802.4946138780775
 20
722.3451477729467
 30
0.0
 40
10.0
  0
CIRCLE
  5
146
330
17
100
AcDbEntity
  8
0
100
AcDbCircle
 10
474.0610413282551
 20
495.73629420537685
 30
0.0
 40
10.0
  0
CIRCLE
  5
147
330
17
100
AcDbEntity
  8
0
100
AcDbCircle
 10
638.0221323333183
 20
863.4732883289626
 30
0.0
 40
10.0
  0
CIRCLE
  5
148
330
17
100
AcDbEntity
  8
0
100
AcDbCircle
 10
898.786462842152
 20
503.0527726002058
 30
0.0
 40
10.0
  0
CIRCLE
  5
149
330
17
100
AcDbEntity
  8
0
100
AcDbCircle
 10
195.08100829731805
 20
543.6509608641553
 30
0.0
 40
10.0
  0
CIRCLE
  5
14A
330
17
100
AcDbEntity
  8
0
100
AcDbCircle
 10
634.4614029888212
 20
752.6187974187771
 30
0.0
 40
10.0
  0
CIRCLE
  5
14B
330
17
100
AcDbEntity
  8
0
100
AcDbCircle
 10
770.1880071663032
 20
862.9518868849316
 30
0.0
 40
10.0
  0
CIRCLE
  5
14C
330
17
100
AcDbEntity
  8
0
100
AcDbCircle
 10
844.3027986101185
 20
980.7691108534422
 30
0.0
 40
10.0
  0
CIRCLE
  5
14D
330
17
100
AcDbEntity
  8
0
100
AcDbCircle
 10
898.574620121322
 20
391.30401940295707
 30
0.0
 40
10.0
  0
CIRCLE
  5
14E
330
17
100
AcDbEntity
  8
0
100
AcDbCircle
 10
682.9030256615298
 20
107.99415501063163
 30
0.0
 40
10.0
  0
CIRCLE
  5
14F
330
17
100
AcDbEntity
  8
0
100
AcDbCircle
 10
633.9469591847535
 20
451.7692643080038
 30
0.0
 40
10.0
  0
CIRCLE
  5
150
330
17
100
AcDbEntity
  8
0
100
AcDbCircle
 10
244.58985482976814
 20
542.0686047328383
 30
0.0
 40
10.0
  0
CIRCLE
  5
151
330
17
100
AcDbEntity
  8
0
100
AcDbCircle
 10
784.0705489137792
 20
24.345733494006673
 30
0.0
 40
10.0
  0
CIRCLE
  5
152
330
17
100
AcDbEntity
  8
0
100
AcDbCircle
 10
593.4012098250989
 20
884.6375338370337
 30
0.0
 40
10.0
  0
CIRCLE
  5
153
330
17
100
AcDbEntity
  8
0
100
AcDbCircle
 10
447.62329249979257
 20
25.742975301990057
 30
0.0
 40
10.0
  0
CIRCLE
  5
154
330
17
100
AcDbEntity
  8
0
100
AcDbCircle
 10
808.9309670774244
 20
388.8413948043448
 30
0.0
 40
10.0
  0
CIRCLE
  5
155
330
17
100
AcDbEntity
  8
0
100
AcDbCircle
 10
823.2613864849052
 20
67.16474410206087
 30
0.0
 40
10.0
  0
CIRCLE
  5
156
330
17
100
AcDbEntity
  8
0
100
AcDbCircle
 10
125.10350348314186
 20
878.8444199331809
 30
0.0
 40
10.0
  0
CIRCLE
  5
157
330
17
100
AcDbEntity
  8
0
100
AcDbCircle
 10
831.8804385902145
 20
390.9602245221414
 30
0.0
 40
10.0
  0
CIRCLE
  5
158
330
17
100
AcDbEntity
  8
0
100
AcDbCircle
 10
153.2211062459089
 20
609.846787519546
 30
0.0
 40
10.0
  0
CIRCLE
  5
159
330
17
100
AcDbEntity
  8
0
100
AcDbCircle
 10
171.36685510640046
 20
973.4697687237638
 30
0.0
 40
10.0
  0
CIRCLE
  5
15A
330
17
100
AcDbEntity
  8
0
100
AcDbCircle
 10
943.0383361110407
 20
766.8620479292288
 30
0.0
 40
10.0
  0
CIRCLE
  5
15B
330
17
100
AcDbEntity
  8
0
100
AcDbCircle
 10
924.9539063277867
 20
189.79791944732867
 30
0.0
 40
10.0
  0
CIRCLE
  5
15C
330
17
100
AcDbEntity
  8
0
100
AcDbCircle
 10
350.98562516698496
 20
529.1500708417951
 30
0.0
 40
10.0
  0
CIRCLE
  5
15D
330
17
100
AcDbEntity
  8
0
100
AcDbCircle
 10
612.2470015387922
 20
366.3003673537449
 30
0.0
 40
10.0
  0
CIRCLE
  5
15E
330
17
100
AcDbEntity
  8
0
100
AcDbCircle
 10
604.7991634120817
 20
12.35741408848844
 30
0.0
 40
10.0
  0
CIRCLE
  5
15F
330
17
100
AcDbEntity
  8
0
100
AcDbCircle
 10
749.8989450351147
 20
494.4107982555948
 30
0.0
 40
10.0
  0
CIRCLE
  5
160
330
17
100
AcDbEntity
  8
0
100
AcDbCircle
 10
633.1847689693641
 20
474.4866360216205
 30
0.0
 40
10.0
  0
CIRCLE
  5
161
330
17
100
AcDbEntity
  8
0
100
AcDbCircle
 10
112.38458140785596
 20
757.7354556175125
 30
0.0
 40
10.0
  0
CIRCLE
  5
162
330
17
100
AcDbEntity
  8
0
100
AcDbCircle
 10
723.9130493116338
 20
222.47377457970373
 30
0.0
 40
10.0
  0
CIRCLE
  5
163
330
17
100
AcDbEntity
  8
0
100
AcDbCircle
 10
944.9788151345208
 20
815.8313860284901
 30
0.0
 40
10.0
  0
CIRCLE
  5
164
330
17
100
AcDbEntity
  8
0
100
AcDbCircle
 10
18.028737608086512
 20
606.9131003502051
 30
0.0
 40
10.0
  0
CIRCLE
  5
165
330
17
100
AcDbEntity
  8
0
100
AcDbCircle
 10
867.5130249548238
 20
290.40661216315203
 30
0.0
 40
10.0
  0
CIRCLE
  5
166
330
17
100
AcDbEntity
  8
0
100
AcDbCircle
 10
354.4789565376229
 20
233.7916014958383
 30
0.0
 40
10.0
  0
CIRCLE
  5
167
330
17
100
AcDbEntity
  8
0
100
AcDbCircle
 10
183.9657072101591
 20
409.9926812221779
 30
0.0
 40
10.0
  0
CIRCLE
  5
168
330
17
100
AcDbEntity
  8
0
100
AcDbCircle
 10
172.3300392765812
 20
164.88198213735632
 30
0.0
 40
10.0
  0
CIRCLE
  5
169
330
17
100
AcDbEntity
  8
0
100
AcDbCircle
 10
969.5995836819038
 20
814.1669145667071
 30
0.0
 40
10.0
  0
CIRCLE
  5
16A
330
17
100
AcDbEntity
  8
0
100
AcDbCircle
 10
863.209727409666
 20
533.170937106174
 30
0.0
 40
10.0
  0
CIRCLE
  5
16B
330
17
100
AcDbEntity
  8
0
100
AcDbCircle
 10
781.3870438289706
 20
968.6594874591607
 30
0.0
 40
10.0
  0
CIRCLE
  5
16C
330
17
100
AcDbEntity
  8
0
100
AcDbCircle
 10
271.5194254370797
 20
383.158425531274
 30
0.0
 40
10.0
  0
CIRCLE
  5
16D
330
17
100
AcDbEntity
  8
0
100
AcDbCircle
 10
845.983881415146
 20
298.11532468487275
 30
0.0
 40
10.0
  0
CIRCLE
  5
16E
330
17
100
AcDbEntity
  8
0
100
AcDbCircle
 10
738.0162642639112
 20
280.33282126734696
 30
0.0
 40
10.0
  0
CIRCLE
  5
16F
330
17
100
AcDbEntity
  8
0
100
AcDbCircle
 10
676.6646453450494
 20
140.51635366392549
 30
0.0
 40
10.0
  0
CIRCLE
  5
170
330
17
100
AcDbEntity
  8
0
100
AcDbCircle
 10
256.3498484685735
 20
49.28367491988739
 30
0.0
 40
10.0
  0
CIRCLE
  5
171
330
17
100
AcDbEntity
  8
0
100
AcDbCircle
 10
971.9571015080285
 20
225.01953586680077
 30
0.0
 40
10.0
  0
CIRCLE
  5
172
330
17
100
AcDbEntity
  8
0
100
AcDbCircle
 10
959.1787511927358
 20
57.2606774029702
 30
0.0
 40
10.0
  0
CIRCLE
  5
173
330
17
100
AcDbEntity
  8
0
100
AcDbCircle
 10
437.4085997000991
 20
902.8659937318789
 30
0.0
 40
10.0
  0
CIRCLE
  5
174
330
17
100
AcDbEntity
  8
0
100
AcDbCircle
 10
339.37588298582125
 20
46.26528065993423
 30
0.0
 40
10.0
  0
CIRCLE
  5
175
330
17
100
AcDbEntity
  8
0
100
AcDbCircle
 10
595.3067774982102
 20
753.1608316190504
 30
0.0
 40
10.0
  0
CIRCLE
  5
176
330
17
100
AcDbEntity
  8
0
100
AcDbCircle
 10
299.6318946013375
 20
949.4680103344155
 30
0.0
 40
10.0
  0
CIRCLE
  5
177
330
17
100
AcDbEntity
  8
0
100
AcDbCircle
 10
360.0314863233214
 20
212.42534794295688
 30
0.0
 40
10.0
  0
CIRCLE
  5
178
330
17
100
AcDbEntity
  8
0
100
AcDbCircle
 10
574.0043654236136
 20
238.62625017211454
 30
0.0
 40
10.0
  0
CIRCLE
  5
179
330
17
100
AcDbEntity
  8
0
100
AcDbCircle
 10
420.73680978266833
 20
883.7208779316111
 30
0.0
 40
10.0
  0
CIRCLE
  5
17A
330
17
100
AcDbEntity
  8
0
100
AcDbCircle
 10
544.6699864265396
 20
339.02151422256037
 30
0.0
 40
10.0
  0
CIRCLE
  5
17B
330
17
100
AcDbEntity
  8
0
100
AcDbCircle
 10
115.91434834041523
 20
288.47589433446643
 30
0.0
 40
10.0
  0
CIRCLE
  5
17C
330
17
100
AcDbEntity
  8
0
100
AcDbCircle
 10
508.43134072840127
 20
717.0312681076097
 30
0.0
 40
10.0
  0
CIRCLE
  5
17D
330
17
100
AcDbEntity
  8
0
100
AcDbCircle
 10
498.91961553513875
 20
900.6362301654799
 30
0.0
 40
10.0
  0
CIRCLE
  5
17E
330
17
100
AcDbEntity
  8
0
100
AcDbCircle
 10
726.5474786292518
 20
153.64165718888978
 30
0.0
 40
10.0
  0
CIRCLE
  5
17F
330
17
100
AcDbEntity
  8
0
100
AcDbCircle
 10
98.00072321708053
 20
150.89441912927194
 30
0.0
 40
10.0
  0
CIRCLE
  5
180
330
17
100
AcDbEntity
  8
0
100
AcDbCircle
 10
939.4598147643835
 20
383.01438522916465
 30
0.0
 40
10.0
  0
CIRCLE
  5
181
330
17
100
AcDbEntity
  8
0
100
AcDbCircle
 10
282.24774624681095
 20
615.5030673188478
 30
0.0
 40
10.0
  0
CIRCLE
  5
182
330
17
100
AcDbEntity
  8
0
100
AcDbCircle
 10
782.0275265152252
 20
947.2377698737756
 30
0.0
 40
10.0
  0
CIRCLE
  5
183
330
17
100
AcDbEntity
  8
0
100
AcDbCircle
 10
470.8399050808726
 20
984.7804101872491
 30
0.0
 40
10.0
  0
CIRCLE
  5
184
330
17
100
AcDbEntity
  8
0
100
AcDbCircle
 10
945.434902897878
 20
185.34783213468967
 30
0.0
 40
10.0
  0
CIRCLE
  5
185
330
17
100
AcDbEntity
  8
0
100
AcDbCircle
 10
241.82960831275895
 20
272.24400468077675
 30
0.0
 40
10.0
  0
CIRCLE
  5
186
330
17
100
AcDbEntity
  8
0
100
AcDbCircle
 10
118.632619394388
 20
148.67516346653045
 30
0.0
 40
10.0
  0
CIRCLE
  5
187
330
17
100
AcDbEntity
  8
0
100
AcDbCircle
 10
857.0774566218702
 20
957.5635315107336
 30
0.0
 40
10.0
  0
CIRCLE
  5
188
330
17
100
AcDbEntity
  8
0
100
AcDbCircle
 10
58.9207443184205
 20
214.20632200725336
 30
0.0
 40
10.0
  0
CIRCLE
  5
189
330
17
100
AcDbEntity
  8
0
100
AcDbCircle
 10
988.6156006662187
 20
532.5891043899103
 30
0.0
 40
10.0
  0
CIRCLE
  5
18A
330
17
100
AcDbEntity
  8
0
100
AcDbCircle
 10
717.6604280510156
 20
290.0924753963529
 30
0.0
 40
10.0
  0
CIRCLE
  5
18B
330
17
100
AcDbEntity
  8
0
100
AcDbCircle
 10
702.98923402706
 20
657.6817204156526
 30
0.0
 40
10.0
  0
CIRCLE
  5
18C
330
17
100
AcDbEntity
  8
0
100
AcDbCircle
 10
706.7668772774275
 20
900.1534961773974
 30
0.0
 40
10.0
  0
CIRCLE
  5
18D
330
17
100
AcDbEntity
  8
0
100
AcDbCircle
 10
507.6344332153117
 20
690.6576853302046
 30
0.0
 40
10.0
  0
CIRCLE
  5
18E
330
17
100
AcDbEntity
  8
0
100
AcDbCircle
 10
434.2874913191284
 20
853.9949867288041
 30
0.0
 40
10.0
  0
CIRCLE
  5
18F
330
17
100
AcDbEntity
  8
0
100
AcDbCircle
 10
984.0864312440933
 20
52.54014299158252
 30
0.0
 40
10.0
  0
CIRCLE
  5
190
330
17
100
AcDbEntity
  8
0
100
AcDbCircle
 10
171.38592440521649
 20
672.1019601975453
 30
0.0
 40
10.0
  0
CIRCLE
  5
191
330
17
100
AcDbEntity
  8
0
100
AcDbCircle
 10
17.518341047529
 20
984.2171969619877
 30
0.0
 40
10.0
  0
CIRCLE
  5
192
330
17
100
AcDbEntity
  8
0
100
AcDbCircle
 10
32.880007871690815
 20
212.4178679130533
 30
0.0
 40
10.0
  0
CIRCLE
  5
193
330
17
100
AcDbEntity
  8
0
100
AcDbCircle
 10
499.5401106663827
 20
43.701138742186004
 30
0.0
 40
10.0
  0
CIRCLE
  5
194
330
17
100
AcDbEntity
  8
0
100
AcDbCircle
 10
976.2551830175477
 20
564.3895535437161
 30
0.0
 40
10.0
  0
CIRCLE
  5
195
330
17
100
AcDbEntity
  8
0
100
AcDbCircle
 10
485.7849079341094
 20
679.0045650898203
 30
0.0
 40
10.0
  0
CIRCLE
  5
196
330
17
100
AcDbEntity
  8
0
100
AcDbCircle
 10
676.3570960804789
 20
860.4517577150002
 30
0.0
 40
10.0
  0
CIRCLE
  5
197
330
17
100
AcDbEntity
  8
0
100
AcDbCircle
 10
896.8940680748752
 20
300.1896715898178
 30
0.0
 40
10.0
  0
CIRCLE
  5
198
330
17
100
AcDbEntity
  8
0
100
AcDbCircle
 10
532.0604574036169
 20
61.71145938097343
 30
0.0
 40
10.0
  0
CIRCLE
  5
199
330
17
100
AcDbEntity
  8
0
100
AcDbCircle
 10
844.7992397271111
 20
437.5777910348246
 30
0.0
 40
10.0
  0
CIRCLE
  5
19A
330
17
100
AcDbEntity
  8
0
100
AcDbCircle
 10
278.3557740599578
 20
719.9532996734188
 30
0.0
 40
10.0
  0
CIRCLE
  5
19B
330
17
100
AcDbEntity
  8
0
100
AcDbCircle
 10
201.82328177460025
 20
983.1442475696251
 30
0.0
 40
10.0
  0
CIRCLE
  5
19C
330
17
100
AcDbEntity
  8
0
100
AcDbCircle
 10
97.65530972665336
 20
15.19109926094033
 30
0.0
 40
10.0
  0
CIRCLE
  5
19D
330
17
100
AcDbEntity
  8
0
100
AcDbCircle
 10
963.081259090826
 20
132.60231711058998
 30
0.0
 40
10.0
  0
CIRCLE
  5
19E
330
17
100
AcDbEntity
  8
0
100
AcDbCircle
 10
392.1149402639161
 20
571.8937712177789
 30
0.0
 40
10.0
  0
CIRCLE
  5
19F
330
17
100
AcDbEntity
  8
0
100
AcDbCircle
 10
193.7188281315634
 20
818.9248426647906
 30
0.0
 40
10.0
  0
CIRCLE
  5
1A0
330
17
100
AcDbEntity
  8
0
100
AcDbCircle
 10
864.1113180761963
 20
251.30486783857233
 30
0.0
 40
10.0
  0
CIRCLE
  5
1A1
330
17
100
AcDbEntity
  8
0
100
AcDbCircle
 10
176.80558935957396
 20
593.5037094482268
 30
0.0
 40
10.0
  0
CIRCLE
  5
1A2
330
17
100
AcDbEntity
  8
0
100
AcDbCircle
 10
315.72930594526076
 20
963.8442292543192
 30
0.0
 40
10.0
  0
CIRCLE
  5
1A3
330
17
100
AcDbEntity
  8
0
100
AcDbCircle
 10
641.8629856552683
 20
137.90382093310032
 30
0.0
 40
10.0
  0
CIRCLE
  5
1A4
330
17
100
AcDbEntity
  8
0
100
AcDbCircle
 10
367.6569413986043
 20
18.851468002361152
 30
0.0
 40
10.0
  0
CIRCLE
  5
1A5
330
17
100
AcDbEntity
  8
0
100
AcDbCircle
 10
893.4543379439043
 20
975.4175112663953
 30
0.0
 40
10.0
  0
CIRCLE
  5
1A6
330
17
100
AcDbEntity
  8
0
100
AcDbCircle
 10
428.2850424124169
 20
802.5757294914714
 30
0.0
 40
10.0
  0
CIRCLE
  5
1A7
330
17
100
AcDbEntity
  8
0
100
AcDbCircle
 10
710.5220211049785
 20
598.2969412924826
 30
0.0
 40
10.0
  0
CIRCLE
  5
1A8
330
17
100
AcDbEntity
  8
0
100
AcDbCircle
 10
310.7835873054306
 20
612.675403223548
 30
0.0
 40
10.0
  0
CIRCLE
  5
1A9
330
17
100
AcDbEntity
  8
0
100
AcDbCircle
 10
189.09966857638048
 20
787.1248713722996
 30
0.0
 40
10.0
  0
CIRCLE
  5
1AA
330
17
100
AcDbEntity
  8
0
100
AcDbCircle
 10
310.17077723187236
 20
740.1428629606311
 30
0.0
 40
10.0
  0
CIRCLE
  5
1AB
330
17
100
AcDbEntity
  8
0
100
AcDbCircle
 10
951.2768632894614
 20
233.10254955546026
 30
0.0
 40
10.0
  0
CIRCLE
  5
1AC
330
17
100
AcDbEntity
  8
0
100
AcDbCircle
 10
751.6349811924591
 20
470.46319964497394
 30
0.0
 40
10.0
  0
CIRCLE
  5
1AD
330
17
100
AcDbEntity
  8
0
100
AcDbCircle
 10
357.9378528680589
 20
770.415109494675
 30
0.0
 40
10.0
  0
CIRCLE
  5
1AE
330
17
100
AcDbEntity
  8
0
100
AcDbCircle
 10
713.1698649277749
 20
248.11759001252034
 30
0.0
 40
10.0
  0
CIRCLE
  5
1AF
330
17
100
AcDbEntity
  8
0
100
AcDbCircle
 10
418.3982005533006
 20
386.39264904292145
 30
0.0
 40
10.0
  0
CIRCLE
  5
1B0
330
17
100
AcDbEntity
  8
0
100
AcDbCircle
 10
989.0044389776601
 20
398.5947320815968
 30
0.0
 40
10.0
  0
CIRCLE
  5
1B1
330
17
100
AcDbEntity
  8
0
100
AcDbCircle
 10
24.969070643965967
 20
771.3238475109038
 30
0.0
 40
10.0
  0
CIRCLE
  5
1B2
330
17
100
AcDbEntity
  8
0
100
AcDbCircle
 10
463.33954858840343
 20
44.5428375857954
 30
0.0
 40
10.0
  0
CIRCLE
  5
1B3
330
17
100
AcDbEntity
  8
0
100
AcDbCircle
 10
962.8346735785968
 20
168.38488566689222
 30
0.0
 40
10.0
  0
CIRCLE
  5
1B4
330
17
100
AcDbEntity
  8
0
100
AcDbCircle
 10
881.8285165486425
 20
240.78982047470782
 30
0.0
 40
10.0
  0
CIRCLE
  5
1B5
330
17
100
AcDbEntity
  8
0
100
AcDbCircle
 10
102.72206910731853
 20
561.8701756805899
 30
0.0
 40
10.0
  0
CIRCLE
  5
1B6
330
17
100
AcDbEntity
  8
0
100
AcDbCircle
 10
956.4330835366304
 20
987.4404857387212
 30
0.0
 40
10.0
  0
CIRCLE
  5
1B7
330
17
100
AcDbEntity
  8
0
100
AcDbCircle
 10
579.6247150245829
 20
726.0543955370857
 30
0.0
 40
10.0
  0
CIRCLE
  5
1B8
330
17
100
AcDbEntity
  8
0
100
AcDbCircle
 10
342.85110530436475
 20
972.5689762786983
 30
0.0
 40
10.0
  0
CIRCLE
  5
1B9
330
17
100
AcDbEntity
  8
0
100
AcDbCircle
 10
564.5959097619531
 20
347.2575407993857
 30
0.0
 40
10.0
  0
CIRCLE
  5
1BA
330
17
100
AcDbEntity
  8
0
100
AcDbCircle
 10
818.9839229102299
 20
428.0827033542484
 30
0.0
 40
10.0
  0
CIRCLE
  5
1BB
330
17
100
AcDbEntity
  8
0
100
AcDbCircle
 10
141.9807484602349
 20
770.126011603637
 30
0.0
 40
10.0
  0
CIRCLE
  5
1BC
330
17
100
AcDbEntity
  8
0
100
AcDbCircle
 10
967.3530740957697
 20
771.5127839633467
 30
0.0
 40
10.0
  0
CIRCLE
  5
1BD
330
17
100
AcDbEntity
  8
0
100
AcDbCircle
 10
302.02313867727946
 20
12.622280358248027
 30
0.0
 40
10.0
  0
CIRCLE
  5
1BE
330
17
100
AcDbEntity
  8
0
100
AcDbCircle
 10
187.1103233779833
 20
718.6651190858314
 30
0.0
 40
10.0
  0
CIRCLE
  5
1BF
330
17
100
AcDbEntity
  8
0
100
AcDbCircle
 10
240.3483398473988
 20
166.68159407939623
 30
0.0
 40
10.0
  0
CIRCLE
  5
1C0
330
17
100
AcDbEntity
  8
0
100
AcDbCircle
 10
814.0484213327859
 20
448.9976756009638
 30
0.0
 40
10.0
  0
CIRCLE
  5
1C1
330
17
100
AcDbEntity
  8
0
100
AcDbCircle
 10
798.8392347421516
 20
56.39901816182983
 30
0.0
 40
10.0
  0
CIRCLE
  5
1C2
330
17
100
AcDbEntity
  8
0
100
AcDbCircle
 10
31.520325111180316
 20
865.3283627991592
 30
0.0
 40
10.0
  0
CIRCLE
  5
1C3
330
17
100
AcDbEntity
  8
0
100
AcDbCircle
 10
660.1353605627806
 20
620.3889723938534
 30
0.0
 40
10.0
  0
CIRCLE
  5
1C4
330
17
100
AcDbEntity
  8
0
100
AcDbCircle
 10
586.300418626856
 20
363.4451430404592
 30
0.0
 40
10.0
  0
CIRCLE
  5
1C5
330
17
100
AcDbEntity
  8
0
100
AcDbCircle
 10
488.399518961309
 20
253.09707539251377
 30
0.0
 40
10.0
  0
CIRCLE
  5
1C6
330
17
100
AcDbEntity
  8
0
100
AcDbCircle
 10
773.4066074732998
 20
586.9645066516151
 30
0.0
 40
10.0
  0
CIRCLE
  5
1C7
330
17
100
AcDbEntity
  8
0
100
AcDbCircle
 10
171.05093201087445
 20
696.6413055619654
 30
0.0
 40
10.0
  0
CIRCLE
  5
1C8
330
17
100
AcDbEntity
  8
0
100
AcDbCircle
 10
240.31203611997236
 20
16.576135033150507
 30
0.0
 40
10.0
  0
CIRCLE
  5
1C9
330
17
100
AcDbEntity
  8
0
100
AcDbCircle
 10
436.33386713270704
 20
127.2162810988754
 30
0.0
 40
10.0
  0
CIRCLE
  5
1CA
330
17
100
AcDbEntity
  8
0
100
AcDbCircle
 10
955.901708923126
 20
112.53951296238431
 30
0.0
 40
10.0
  0
CIRCLE
  5
1CB
330
17
100
AcDbEntity
  8
0
100
AcDbCircle
 10
827.8265503737027
 20
630.521131815134
 30
0.0
 40
10.0
  0
CIRCLE
  5
1CC
330
17
100
AcDbEntity
  8
0
100
AcDbCircle
 10
132.5092725986939
 20
16.02941836749239
 30
0.0
 40
10.0
  0
CIRCLE
  5
1CD
330
17
100
AcDbEntity
  8
0
100
AcDbCircle
 10
23.348875279020064
 20
97.03821431782627
 30
0.0
 40
10.0
  0
CIRCLE
  5
1CE
330
17
100
AcDbEntity
  8
0
100
AcDbCircle
 10
284.35359819023967
 20
357.11725218890706
 30
0.0
 40
10.0
  0
CIRCLE
  5
1CF
330
17
100
AcDbEntity
  8
0
100
AcDbCircle
 10
207.73973632839278
 20
399.98338866545896
 30
0.0
 40
10.0
  0
CIRCLE
  5
1D0
330
17
100
AcDbEntity
  8
0
100
AcDbCircle
 10
45.252932135077735
 20
733.1579662193387
 30
0.0
 40
10.0
  0
CIRCLE
  5
1D1
330
17
100
AcDbEntity
  8
0
100
AcDbCircle
 10
259.4867124591049
 20
935.5442812321116
 30
0.0
 40
10.0
  0
CIRCLE
  5
1D2
330
17
100
AcDbEntity
  8
0
100
AcDbCircle
 10
292.12184424413095
 20
786.3157574051208
 30
0.0
 40
10.0
  0
CIRCLE
  5
1D3
330
17
100
AcDbEntity
  8
0
100
AcDbCircle
 10
858.5590451703945
 20
475.6424285518106
 30
0.0
 40
10.0
  0
CIRCLE
  5
1D4
330
17
100
AcDbEntity
  8
0
100
AcDbCircle
 10
210.3571747041046
 20
774.5127764373527
 30
0.0
 40
10.0
  0
CIRCLE
  5
1D5
330
17
100
AcDbEntity
  8
0
100
AcDbCircle
 10
647.3528272573551
 20
17.896553882133027
 30
0.0
 40
10.0
  0
CIRCLE
  5
1D6
330
17
100
AcDbEntity
  8
0
100
AcDbCircle
 10
68.33924964336731
 20
853.9594442786088
 30
0.0
 40
10.0
  0
CIRCLE
  5
1D7
330
17
100
AcDbEntity
  8
0
100
AcDbCircle
 10
72.87717974271666
 20
39.96579105082029
 30
0.0
 40
10.0
  0
CIRCLE
  5
1D8
330
17
100
AcDbEntity
  8
0
100
AcDbCircle
 10
661.3865322188626
 20
115.63297975901386
 30
0.0
 40
10.0
  0
CIRCLE
  5
1D9
330
17
100
AcDbEntity
  8
0
100
AcDbCircle
 10
470.0376501768909
 20
207.41047060620187
 30
0.0
 40
10.0
  0
CIRCLE
  5
1DA
330
17
100
AcDbEntity
  8
0
100
AcDbCircle
 10
596.7445200299054
 20
973.3353735547673
 30
0.0
 40
10.0
  0
CIRCLE
  5
1DB
330
17
100
AcDbEntity
  8
0
100
AcDbCircle
 10
954.9444416365029
 20
337.44108304621335
 30
0.0
 40
10.0
  0
CIRCLE
  5
1DC
330
17
100
AcDbEntity
  8
0
100
AcDbCircle
 10
835.8357993015294
 20
416.44442436076633
 30
0.0
 40
10.0
  0
CIRCLE
  5
1DD
330
17
100
AcDbEntity
  8
0
100
AcDbCircle
 10
456.86480691779326
 20
643.2637788459289
 30
0.0
 40
10.0
  0
CIRCLE
  5
1DE
330
17
100
AcDbEntity
  8
0
100
AcDbCircle
 10
894.891310698328
 20
221.9085293897369
 30
0.0
 40
10.0
  0
CIRCLE
  5
1DF
330
17
100
AcDbEntity
  8
0
100
AcDbCircle
 10
769.0044575002388
 20
368.7686409309032
 30
0.0
 40
10.0
  0
CIRCLE
  5
1E0
330
17
100
AcDbEntity
  8
0
100
AcDbCircle
 10
165.6661081719778
 20
195.30331027886754
 30
0.0
 40
10.0
  0
CIRCLE
  5
1E1
330
17
100
AcDbEntity
  8
0
100
AcDbCircle
 10
255.81964096903093
 20
522.6404416952513
 30
0.0
 40
10.0
  0
CIRCLE
  5
1E2
330
17
100
AcDbEntity
  8
0
100
AcDbCircle
 10
421.3664298291298
 20
448.29142608695196
 30
0.0
 40
10.0
  0
CIRCLE
  5
1E3
330
17
100
AcDbEntity
  8
0
100
AcDbCircle
 10
32.96681062817182
 20
790.0673815991703
 30
0.0
 40
10.0
  0
CIRCLE
  5
1E4
330
17
100
AcDbEntity
  8
0
100
AcDbCircle
 10
346.00612519774353
 20
320.83388876981905
 30
0.0
 40
10.0
  0
CIRCLE
  5
1E5
330
17
100
AcDbEntity
  8
0
100
AcDbCircle
 10
877.1577308355669
 20
616.1829221952893
 30
0.0
 40
10.0
  0
CIRCLE
  5
1E6
330
17
100
AcDbEntity
  8
0
100
AcDbCircle
 10
779.8089361553372
 20
538.6576457364544
 30
0.0
 40
10.0
  0
CIRCLE
  5
1E7
330
17
100
AcDbEntity
  8
0
100
AcDbCircle
 10
316.9401749011486
 20
47.90798818892865
 30
0.0
 40
10.0
  0
CIRCLE
  5
1E8
330
17
100
AcDbEntity
  8
0
100
AcDbCircle
 10
281.4747254964847
 20
648.2544743213995
 30
0.0
 40
10.0
  0
CIRCLE
  5
1E9
330
17
100
AcDbEntity
  8
0
100
AcDbCircle
 10
483.6997943068996
 20
283.8486535459483
 30
0.0
 40
10.0
  0
CIRCLE
  5
1EA
330
17
100
AcDbEntity
  8
0
100
AcDbCircle
 10
781.0258794094481
 20
892.6412760430944
 30
0.0
 40
10.0
  0
CIRCLE
  5
1EB
330
17
100
AcDbEntity
  8
0
100
AcDbCircle
 10
684.2681500483268
 20
914.8263629976854
 30
0.0
 40
10.0
  0
CIRCLE
  5
1EC
330
17
100
AcDbEntity
  8
0
100
AcDbCircle
 10
835.6033702126205
 20
12.48640263059958
 30
0.0
 40
10.0
  0
CIRCLE
  5
1ED
330
17
100
AcDbEntity
  8
0
100
AcDbCircle
 10
678.5378685175388
 20
935.5183457574448
 30
0.0
 40
10.0
  0
CIRCLE
  5
1EE
330
17
100
AcDbEntity
  8
0
100
AcDbCircle
 10
433.9761330856375
 20
676.3647692505466
 30
0.0
 40
10.0
  0
CIRCLE
  5
1EF
330
17
100
AcDbEntity
  8
0
100
AcDbCircle
 10
378.0645103480182
 20
777.1979204439592
 30
0.0
 40
10.0
  0
CIRCLE
  5
1F0
330
17
100
AcDbEntity
  8
0
100
AcDbCircle
 10
30.064465435877054
 20
34.81500409114698
 30
0.0
 40
10.0
  0
CIRCLE
  5
1F1
330
17
100
AcDbEntity
  8
0
100
AcDbCircle
 10
347.0475221590799
 20
794.0982045669319
 30
0.0
 40
10.0
  0
CIRCLE
  5
1F2
330
17
100
AcDbEntity
  8
0
100
AcDbCircle
 10
581.5528073511563
 20
801.2163841428885
 30
0.0
 40
10.0
  0
CIRCLE
  5
1F3
330
17
100
AcDbEntity
  8
0
100
AcDbCircle
 10
977.4803172046614
 20
626.8566417505824
 30
0.0
 40
10.0
  0
CIRCLE
  5
1F4
330
17
100
AcDbEntity
  8
0
100
AcDbCircle
 10
539.625707746704
 20
390.72704569138267
 30
0.0
 40
10.0
  0
CIRCLE
  5
1F5
330
17
100
AcDbEntity
  8
0
100
AcDbCircle
 10
500.4049359931865
 20
492.8209489285463
 30
0.0
 40
10.0
  0
CIRCLE
  5
1F6
330
17
100
AcDbEntity
  8
0
100
AcDbCircle
 10
259.0356879482482
 20
781.4392396061146
 30
0.0
 40
10.0
  0
CIRCLE
  5
1F7
330
17
100
AcDbEntity
  8
0
100
AcDbCircle
 10
28.352525366798623
 20
841.0077201821781
 30
0.0
 40
10.0
  0
CIRCLE
  5
1F8
330
17
100
AcDbEntity
  8
0
100
AcDbCircle
 10
600.863155150999
 20
271.315965698295
 30
0.0
 40
10.0
  0
CIRCLE
  5
1F9
330
17
100
AcDbEntity
  8
0
100
AcDbCircle
 10
555.6930602043623
 20
689.4482769627953
 30
0.0
 40
10.0
  0
CIRCLE
  5
1FA
330
17
100
AcDbEntity
  8
0
100
AcDbCircle
 10
702.921141800927
 20
18.386407123303407
 30
0.0
 40
10.0
  0
CIRCLE
  5
1FB
330
17
100
AcDbEntity
  8
0
100
AcDbCircle
 10
760.0371514393554
 20
42.06852270491735
 30
0.0
 40
10.0
  0
CIRCLE
  5
1FC
330
17
100
AcDbEntity
  8
0
100
AcDbCircle
 10
350.2426461934149
 20
187.2281513395122
 30
0.0
 40
10.0
  0
CIRCLE
  5
1FD
330
17
100
AcDbEntity
  8
0
100
AcDbCircle
 10
564.5695795450354
 20
61.248407827227226
 30
0.0
 40
10.0
  0
CIRCLE
  5
1FE
330
17
100
AcDbEntity
  8
0
100
AcDbCircle
 10
235.66065699770772
 20
115.10638808803904
 30
0.0
 40
10.0
  0
CIRCLE
  5
1FF
330
17
100
AcDbEntity
  8
0
100
AcDbCircle
 10
613.400036014199
 20
255.01069447679993
 30
0.0
 40
10.0
  0
CIRCLE
  5
200
330
17
100
AcDbEntity
  8
0
100
AcDbCircle
 10
27.382697781087003
 20
714.1567952998872
 30
0.0
 40
10.0
  0
CIRCLE
  5
201
330
17
100
AcDbEntity
  8
0
100
AcDbCircle
 10
725.2366364624954
 20
10.567394029382138
 30
0.0
 40
10.0
  0
CIRCLE
  5
202
330
17
100
AcDbEntity
  8
0
100
AcDbCircle
 10
230.9464571126271
 20
779.8627605965191
 30
0.0
 40
10.0
  0
CIRCLE
  5
203
330
17
100
AcDbEntity
  8
0
100
AcDbCircle
 10
344.24836965803695
 20
155.62002580334013
 30
0.0
 40
10.0
  0
CIRCLE
  5
204
330
17
100
AcDbEntity
  8
0
100
AcDbCircle
 10
800.3922913002777
 20
795.7130754434315
 30
0.0
 40
10.0
  0
CIRCLE
  5
205
330
17
100
AcDbEntity
  8
0
100
AcDbCircle
 10
206.7337676598497
 20
751.9591537830744
 30
0.0
 40
10.0
  0
CIRCLE
  5
206
330
17
100
AcDbEntity
  8
0
100
AcDbCircle
 10
179.18034304651687
 20
309.59516804995013
 30
0.0
 40
10.0
  0
CIRCLE
  5
207
330
17
100
AcDbEntity
  8
0
100
AcDbCircle
 10
160.89541940218717
 20
12.690413382781387
 30
0.0
 40
10.0
  0
CIRCLE
  5
208
330
17
100
AcDbEntity
  8
0
100
AcDbCircle
 10
59.404754941972776
 20
458.17678495090496
 30
0.0
 40
10.0
  0
CIRCLE
  5
209
330
17
100
AcDbEntity
  8
0
100
AcDbCircle
 10
176.65821647104863
 20
481.00614628467224
 30
0.0
 40
10.0
  0
CIRCLE
  5
20A
330
17
100
AcDbEntity
  8
0
100
AcDbCircle
 10
804.7331580593873
 20
34.59235277069004
 30
0.0
 40
10.0
  0
CIRCLE
  5
20B
330
17
100
AcDbEntity
  8
0
100
AcDbCircle
 10
211.99204166527278
 20
186.63437221139807
 30
0.0
 40
10.0
  0
CIRCLE
  5
20C
330
17
100
AcDbEntity
  8
0
100
AcDbCircle
 10
209.1750480958538
 20
22.486955614901095
 30
0.0
 40
10.0
  0
CIRCLE
  5
20D
330
17
100
AcDbEntity
  8
0
100
AcDbCircle
 10
25.158543435895943
 20
71.16475794076302
 30
0.0
 40
10.0
  0
CIRCLE
  5
20E
330
17
100
AcDbEntity
  8
0
100
AcDbCircle
 10
400.2271187486549
 20
885.15306134482
 30
0.0
 40
10.0
  0
CIRCLE
  5
20F
330
17
100
AcDbEntity
  8
0
100
AcDbCircle
 10
134.4879007955161
 20
129.33981491063676
 30
0.0
 40
10.0
  0
CIRCLE
  5
210
330
17
100
AcDbEntity
  8
0
100
AcDbCircle
 10
506.95071931984796
 20
372.0972649018989
 30
0.0
 40
10.0
  0
CIRCLE
  5
211
330
17
100
AcDbEntity
  8
0
100
AcDbCircle
 10
242.62674758109253
 20
144.4325789078635
 30
0.0
 40
10.0
  0
CIRCLE
  5
212
330
17
100
AcDbEntity
  8
0
100
AcDbCircle
 10
732.7718498632524
 20
338.03294726981767
 30
0.0
 40
10.0
  0
CIRCLE
  5
213
330
17
100
AcDbEntity
  8
0
100
AcDbCircle
 10
244.11183440521842
 20
200.84245125581347
 30
0.0
 40
10.0
  0
CIRCLE
  5
214
330
17
100
AcDbEntity
  8
0
100
AcDbCircle
 10
300.1593813805302
 20
638.8121946222873
 30
0.0
 40
10.0
  0
CIRCLE
  5
215
330
17
100
AcDbEntity
  8
0
100
AcDbCircle
 10
674.2690471271212
 20
11.124907852948072
 30
0.0
 40
10.0
  0
CIRCLE
  5
216
330
17
100
AcDbEntity
  8
0
100
AcDbCircle
 10
120.18486633953287
 20
641.3988439436513
 30
0.0
 40
10.0
  0
CIRCLE
  5
217
330
17
100
AcDbEntity
  8
0
100
AcDbCircle
 10
892.8595045107588
 20
784.6812473312834
 30
0.0
 40
10.0
  0
CIRCLE
  5
218
330
17
100
AcDbEntity
  8
0
100
AcDbCircle
 10
694.0263345879395
 20
366.24956512779323
 30
0.0
 40
10.0
  0
CIRCLE
  5
219
330
17
100
AcDbEntity
  8
0
100
AcDbCircle
 10
43.00590721362632
 20
574.4650985245166
 30
0.0
 40
10.0
  0
CIRCLE
  5
21A
330
17
100
AcDbEntity
  8
0
100
AcDbCircle
 10
394.96034039412746
 20
763.8777578455752
 30
0.0
 40
10.0
  0
CIRCLE
  5
21B
330
17
100
AcDbEntity
  8
0
100
AcDbCircle
 10
577.7697345155534
 20
900.5157121124366
 30
0.0
 40
10.0
  0
CIRCLE
  5
21C
330
17
100
AcDbEntity
  8
0
100
AcDbCircle
 10
623.8769179932651
 20
180.9359443469558
 30
0.0
 40
10.0
  0
CIRCLE
  5
21D
330
17
100
AcDbEntity
  8
0
100
AcDbCircle
 10
457.99055558431894
 20
190.7322951390083
 30
0.0
 40
10.0
  0
CIRCLE
  5
21E
330
17
100
AcDbEntity
  8
0
100
AcDbCircle
 10
150.56023937964628
 20
637.4734194600167
 30
0.0
 40
10.0
  0
CIRCLE
  5
21F
330
17
100
AcDbEntity
  8
0
100
AcDbCircle
 10
887.4549352407932
 20
463.301510993425
 30
0.0
 40
10.0
  0
CIRCLE
  5
220
330
17
100
AcDbEntity
  8
0
100
AcDbCircle
 10
260.1090132029847
 20
985.4911819081121
 30
0.0
 40
10.0
  0
CIRCLE
  5
221
330
17
100
AcDbEntity
  8
0
100
AcDbCircle
 10
56.63047750560411
 20
793.5851386434525
 30
0.0
 40
10.0
  0
CIRCLE
  5
222
330
17
100
AcDbEntity
  8
0
100
AcDbCircle
 10
979.434436771544
 20
188.70526638842367
 30
0.0
 40
10.0
  0
CIRCLE
  5
223
330
17
100
AcDbEntity
  8
0
100
AcDbCircle
 10
665.2820574943471
 20
493.22661541648773
 30
0.0
 40
10.0
  0
CIRCLE
  5
224
330
17
100
AcDbEntity
  8
0
100
AcDbCircle
 10
988.0659878917706
 20
669.4098142053584
 30
0.0
 40
10.0
  0
CIRCLE
  5
225
330
17
100
AcDbEntity
  8
0
100
AcDbCircle
 10
176.98844849033435
 20
385.89117385234454
 30
0.0
 40
10.0
  0
CIRCLE
  5
226
330
17
100
AcDbEntity
  8
0
100
AcDbCircle
 10
606.871569260691
 20
848.7961264699628
 30
0.0
 40
10.0
  0
CIRCLE
  5
227
330
17
100
AcDbEntity
  8
0
100
AcDbCircle
 10
12.74540447050121
 20
433.70753964319033
 30
0.0
 40
10.0
  0
CIRCLE
  5
228
330
17
100
AcDbEntity
  8
0
100
AcDbCircle
 10
935.1957716200127
 20
345.25711732812783
 30
0.0
 40
10.0
  0
CIRCLE
  5
229
330
17
100
AcDbEntity
  8
0
100
AcDbCircle
 10
582.4156488283375
 20
327.53903870837013
 30
0.0
 40
10.0
  0
CIRCLE
  5
22A
330
17
100
AcDbEntity
  8
0
100
AcDbCircle
 10
609.0508555192317
 20
119.7031112346687
 30
0.0
 40
10.0
  0
CIRCLE
  5
22B
330
17
100
AcDbEntity
  8
0
100
AcDbCircle
 10
574.6457479102079
 20
162.41033126334548
 30
0.0
 40
10.0
  0
CIRCLE
  5
22C
330
17
100
AcDbEntity
  8
0
100
AcDbCircle
 10
139.19966875377995
 20
859.9242795000309
 30
0.0
 40
10.0
  0
CIRCLE
  5
22D
330
17
100
AcDbEntity
  8
0
100
AcDbCircle
 10
888.4290779047344
 20
929.977864485579
 30
0.0
 40
10.0
  0
CIRCLE
  5
22E
330
17
100
AcDbEntity
  8
0
100
AcDbCircle
 10
505.1589290917711
 20
239.56873116013577
 30
0.0
 40
10.0
  0
CIRCLE
  5
22F
330
17
100
AcDbEntity
  8
0
100
AcDbCircle
 10
249.13193536515206
 20
94.81483324895193
 30
0.0
 40
10.0
  0
CIRCLE
  5
230
330
17
100
AcDbEntity
  8
0
100
AcDbCircle
 10
861.6783485006434
 20
633.5077124812732
 30
0.0
 40
10.0
  0
CIRCLE
  5
231
330
17
100
AcDbEntity
  8
0
100
AcDbCircle
 10
638.1221047373708
 20
241.1294378310104
 30
0.0
 40
10.0
  0
CIRCLE
  5
232
330
17
100
AcDbEntity
  8
0
100
AcDbCircle
 10
44.81991070598742
 20
16.855434646956667
 30
0.0
 40
10.0
  0
CIRCLE
  5
233
330
17
100
AcDbEntity
  8
0
100
AcDbCircle
 10
784.1188460599607
 20
840.0439470829243
 30
0.0
 40
10.0
  0
CIRCLE
  5
234
330
17
100
AcDbEntity
  8
0
100
AcDbCircle
 10
578.1650583441403
 20
504.30794900541446
 30
0.0
 40
10.0
  0
CIRCLE
  5
235
330
17
100
AcDbEntity
  8
0
100
AcDbCircle
 10
988.4773548033695
 20
13.50424416992827
 30
0.0
 40
10.0
  0
CIRCLE
  5
236
330
17
100
AcDbEntity
  8
0
100
AcDbCircle
 10
327.3372097394141
 20
845.4169121909831
 30
0.0
 40
10.0
  0
CIRCLE
  5
237
330
17
100
AcDbEntity
  8
0
100
AcDbCircle
 10
365.20262531255736
 20
988.8646042264087
 30
0.0
 40
10.0
  0
CIRCLE
  5
238
330
17
100
AcDbEntity
  8
0
100
AcDbCircle
 10
530.9983919626565
 20
428.8443736627011
 30
0.0
 40
10.0
  0
CIRCLE
  5
239
330
17
100
AcDbEntity
  8
0
100
AcDbCircle
 10
249.51154795969754
 20
222.19308183020732
 30
0.0
 40
10.0
  0
CIRCLE
  5
23A
330
17
100
AcDbEntity
  8
0
100
AcDbCircle
 10
520.3004436793146
 20
453.01794855055317
 30
0.0
 40
10.0
  0
CIRCLE
  5
23B
330
17
100
AcDbEntity
  8
0
100
AcDbCircle
 10
686.5727687157126
 20
509.61254571882523
 30
0.0
 40
10.0
  0
CIRCLE
  5
23C
330
17
100
AcDbEntity
  8
0
100
AcDbCircle
 10
842.1161582442041
 20
773.5238130763299
 30
0.0
 40
10.0
  0
CIRCLE
  5
23D
330
17
100
AcDbEntity
  8
0
100
AcDbCircle
 10
920.738663061388
 20
850.942402179417
 30
0.0
 40
10.0
  0
CIRCLE
  5
23E
330
17
100
AcDbEntity
  8
0
100
AcDbCircle
 10
534.4991744307529
 20
512.1641951992976
 30
0.0
 40
10.0
  0
CIRCLE
  5
23F
330
17
100
AcDbEntity
  8
0
100
AcDbCircle
 10
372.54009464045527
 20
324.5122576802963
 30
0.0
 40
10.0
  0
CIRCLE
  5
240
330
17
100
AcDbEntity
  8
0
100
AcDbCircle
 10
680.5059775263807
 20
533.738142633923
 30
0.0
 40
10.0
  0
CIRCLE
  5
241
330
17
100
AcDbEntity
  8
0
100
AcDbCircle
 10
42.42043338851121
 20
235.35066806319776
 30
0.0
 40
10.0
  0
CIRCLE
  5
242
330
17
100
AcDbEntity
  8
0
100
AcDbCircle
 10
238.94793772559666
 20
299.2833044477843
 30
0.0
 40
10.0
  0
CIRCLE
  5
243
330
17
100
AcDbEntity
  8
0
100
AcDbCircle
 10
595.9438373015347
 20
169.33393208248273
 30
0.0
 40
10.0
  0
CIRCLE
  5
244
330
17
100
AcDbEntity
  8
0
100
AcDbCircle
 10
488.1947588983693
 20
932.9876220894765
 30
0.0
 40
10.0
  0
CIRCLE
  5
245
330
17
100
AcDbEntity
  8
0
100
AcDbCircle
 10
989.6697129966007
 20
878.4872771721209
 30
0.0
 40
10.0
  0
CIRCLE
  5
246
330
17
100
AcDbEntity
  8
0
100
AcDbCircle
 10
370.10083044466086
 20
138.58118562237073
 30
0.0
 40
10.0
  0
CIRCLE
  5
247
330
17
100
AcDbEntity
  8
0
100
AcDbCircle
 10
734.5278564244858
 20
639.3686719812616
 30
0.0
 40
10.0
  0
CIRCLE
  5
248
330
17
100
AcDbEntity
  8
0
100
AcDbCircle
 10
441.67179877342716
 20
393.18486909323315
 30
0.0
 40
10.0
  0
CIRCLE
  5
249
330
17
100
AcDbEntity
  8
0
100
AcDbCircle
 10
199.1098953929634
 20
500.92351953647807
 30
0.0
 40
10.0
  0
CIRCLE
  5
24A
330
17
100
AcDbEntity
  8
0
100
AcDbCircle
 10
465.72769612668446
 20
258.69379814307683
 30
0.0
 40
10.0
  0
CIRCLE
  5
24B
330
17
100
AcDbEntity
  8
0
100
AcDbCircle
 10
868.0525164118711
 20
420.02698411737987
 30
0.0
 40
10.0
  0
CIRCLE
  5
24C
330
17
100
AcDbEntity
  8
0
100
AcDbCircle
 10
827.4719465370341
 20
34.893697750758776
 30
0.0
 40
10.0
  0
CIRCLE
  5
24D
330
17
100
AcDbEntity
  8
0
100
AcDbCircle
 10
794.7526553489475
 20
869.957103678771
 30
0.0
 40
10.0
  0
CIRCLE
  5
24E
330
17
100
AcDbEntity
  8
0
100
AcDbCircle
 10
464.02112376700205
 20
929.5162831610561
 30
0.0
 40
10.0
  0
CIRCLE
  5
24F
330
17
100
AcDbEntity
  8
0
100
AcDbCircle
 10
130.84707478881845
 20
725.3696859142051
 30
0.0
 40
10.0
  0
CIRCLE
  5
250
330
17
100
AcDbEntity
  8
0
100
AcDbCircle
 10
146.49732163204519
 20
36.90846532888753
 30
0.0
 40
10.0
  0
CIRCLE
  5
251
330
17
100
AcDbEntity
  8
0
100
AcDbCircle
 10
127.7057113293597
 20
167.11091788652436
 30
0.0
 40
10.0
  0
CIRCLE
  5
252
330
17
100
AcDbEntity
  8
0
100
AcDbCircle
 10
960.3589189902556
 20
381.3144977739065
 30
0.0
 40
10.0
  0
CIRCLE
  5
253
330
17
100
AcDbEntity
  8
0
100
AcDbCircle
 10
541.8642799461908
 20
706.3518824909808
 30
0.0
 40
10.0
  0
CIRCLE
  5
254
330
17
100
AcDbEntity
  8
0
100
AcDbCircle
 10
408.05397357933975
 20
553.9629157303813
 30
0.0
 40
10.0
  0
CIRCLE
  5
255
330
17
100
AcDbEntity
  8
0
100
AcDbCircle
 10
886.5295939948763
 20
650.5167874493536
 30
0.0
 40
10.0
  0
CIRCLE
  5
256
330
17
100
AcDbEntity
  8
0
100
AcDbCircle
 10
275.3561260039862
 20
474.04985596902657
 30
0.0
 40
10.0
  0
CIRCLE
  5
257
330
17
100
AcDbEntity
  8
0
100
AcDbCircle
 10
438.73913917694085
 20
989.1867945481757
 30
0.0
 40
10.0
  0
CIRCLE
  5
258
330
17
100
AcDbEntity
  8
0
100
AcDbCircle
 10
647.4562336476714
 20
260.67091110918994
 30
0.0
 40
10.0
  0
CIRCLE
  5
259
330
17
100
AcDbEntity
  8
0
100
AcDbCircle
 10
660.7185990060483
 20
371.7431722523043
 30
0.0
 40
10.0
  0
CIRCLE
  5
25A
330
17
100
AcDbEntity
  8
0
100
AcDbCircle
 10
13.134669168652115
 20
636.2632065036432
 30
0.0
 40
10.0
  0
CIRCLE
  5
25B
330
17
100
AcDbEntity
  8
0
100
AcDbCircle
 10
405.0609791379569
 20
692.4711244770491
 30
0.0
 40
10.0
  0
CIRCLE
  5
25C
330
17
100
AcDbEntity
  8
0
100
AcDbCircle
 10
659.2969734000509
 20
733.5327053708031
 30
0.0
 40
10.0
  0
CIRCLE
  5
25D
330
17
100
AcDbEntity
  8
0
100
AcDbCircle
 10
684.629574708846
 20
975.5503499784459
 30
0.0
 40
10.0
  0
CIRCLE
  5
25E
330
17
100
AcDbEntity
  8
0
100
AcDbCircle
 10
13.815337919972436
 20
731.23893917758
 30
0.0
 40
10.0
  0
CIRCLE
  5
25F
330
17
100
AcDbEntity
  8
0
100
AcDbCircle
 10
492.33564160417586
 20
979.7675155329421
 30
0.0
 40
10.0
  0
CIRCLE
  5
260
330
17
100
AcDbEntity
  8
0
100
AcDbCircle
 10
46.82142931843296
 20
850.9005992597371
 30
0.0
 40
10.0
  0
CIRCLE
  5
261
330
17
100
AcDbEntity
  8
0
100
AcDbCircle
 10
18.200279575220314
 20
340.4337471026078
 30
0.0
 40
10.0
  0
CIRCLE
  5
262
330
17
100
AcDbEntity
  8
0
100
AcDbCircle
 10
887.0104018414188
 20
908.6952170530127
 30
0.0
 40
10.0
  0
CIRCLE
  5
263
330
17
100
AcDbEntity
  8
0
100
AcDbCircle
 10
79.80767287132429
 20
352.62360701307847
 30
0.0
 40
10.0
  0
CIRCLE
  5
264
330
17
100
AcDbEntity
  8
0
100
AcDbCircle
 10
18.81364635051057
 20
562.8116286489328
 30
0.0
 40
10.0
  0
CIRCLE
  5
265
330
17
100
AcDbEntity
  8
0
100
AcDbCircle
 10
390.691881160271
 20
11.865725212513576
 30
0.0
 40
10.0
  0
CIRCLE
  5
266
330
17
100
AcDbEntity
  8
0
100
AcDbCircle
 10
570.9212167214546
 20
567.2390214004159
 30
0.0
 40
10.0
  0
CIRCLE
  5
267
330
17
100
AcDbEntity
  8
0
100
AcDbCircle
 10
218.3242704872
 20
812.3898725777327
 30
0.0
 40
10.0
  0
CIRCLE
  5
268
330
17
100
AcDbEntity
  8
0
100
AcDbCircle
 10
879.9523918315053
 20
270.00942644076486
 30
0.0
 40
10.0
  0
CIRCLE
  5
269
330
17
100
AcDbEntity
  8
0
100
AcDbCircle
 10
186.2892302437777
 20
866.1739028784735
 30
0.0
 40
10.0
  0
CIRCLE
  5
26A
330
17
100
AcDbEntity
  8
0
100
AcDbCircle
 10
26.344637050319132
 20
819.5052965053377
 30
0.0
 40
10.0
  0
CIRCLE
  5
26B
330
17
100
AcDbEntity
  8
0
100
AcDbCircle
 10
593.5419645080934
 20
147.85555034052672
 30
0.0
 40
10.0
  0
CIRCLE
  5
26C
330
17
100
AcDbEntity
  8
0
100
AcDbCircle
 10
884.3932806302323
 20
566.8489878419016
 30
0.0
 40
10.0
  0
CIRCLE
  5
26D
330
17
100
AcDbEntity
  8
0
100
AcDbCircle
 10
19.524368104680608
 20
464.170742515357
 30
0.0
 40
10.0
  0
CIRCLE
  5
26E
330
17
100
AcDbEntity
  8
0
100
AcDbCircle
 10
741.2686992030011
 20
301.9317009277464
 30
0.0
 40
10.0
  0
CIRCLE
  5
26F
330
17
100
AcDbEntity
  8
0
100
AcDbCircle
 10
261.6808298406303
 20
332.51036336313337
 30
0.0
 40
10.0
  0
CIRCLE
  5
270
330
17
100
AcDbEntity
  8
0
100
AcDbCircle
 10
924.6584950279296
 20
17.254012083708613
 30
0.0
 40
10.0
  0
CIRCLE
  5
271
330
17
100
AcDbEntity
  8
0
100
AcDbCircle
 10
519.8143937409768
 20
336.7927331718359
 30
0.0
 40
10.0
  0
CIRCLE
  5
272
330
17
100
AcDbEntity
  8
0
100
AcDbCircle
 10
740.539714787837
 20
357.4711002965247
 30
0.0
 40
10.0
  0
CIRCLE
  5
273
330
17
100
AcDbEntity
  8
0
100
AcDbCircle
 10
400.8116267603119
 20
410.5455622639356
 30
0.0
 40
10.0
  0
CIRCLE
  5
274
330
17
100
AcDbEntity
  8
0
100
AcDbCircle
 10
14.187535579739157
 20
801.2258579034004
 30
0.0
 40
10.0
  0
CIRCLE
  5
275
330
17
100
AcDbEntity
  8
0
100
AcDbCircle
 10
914.6551442700467
 20
523.4241496124716
 30
0.0
 40
10.0
  0
CIRCLE
  5
276
330
17
100
AcDbEntity
  8
0
100
AcDbCircle
 10
127.24414050069088
 20
572.6226653150361
 30
0.0
 40
10.0
  0
CIRCLE
  5
277
330
17
100
AcDbEntity
  8
0
100
AcDbCircle
 10
833.5728822469013
 20
655.4337060691288
 30
0.0
 40
10.0
  0
CIRCLE
  5
278
330
17
100
AcDbEntity
  8
0
100
AcDbCircle
 10
68.78274594304341
 20
15.839095890741323
 30
0.0
 40
10.0
  0
CIRCLE
  5
279
330
17
100
AcDbEntity
  8
0
100
AcDbCircle
 10
856.3293459957524
 20
111.4988239985015
 30
0.0
 40
10.0
  0
CIRCLE
  5
27A
330
17
100
AcDbEntity
  8
0
100
AcDbCircle
 10
675.9293621230812
 20
344.8362550875066
 30
0.0
 40
10.0
  0
CIRCLE
  5
27B
330
17
100
AcDbEntity
  8
0
100
AcDbCircle
 10
249.04097618161288
 20
73.37686159038216
 30
0.0
 40
10.0
  0
CIRCLE
  5
27C
330
17
100
AcDbEntity
  8
0
100
AcDbCircle
 10
292.63890628113944
 20
390.55648530334156
 30
0.0
 40
10.0
  0
CIRCLE
  5
27D
330
17
100
AcDbEntity
  8
0
100
AcDbCircle
 10
591.2996551438155
 20
225.3482908333551
 30
0.0
 40
10.0
  0
CIRCLE
  5
27E
330
17
100
AcDbEntity
  8
0
100
AcDbCircle
 10
745.5983098567226
 20
247.7255228658576
 30
0.0
 40
10.0
  0
CIRCLE
  5
27F
330
17
100
AcDbEntity
  8
0
100
AcDbCircle
 10
876.9171660048903
 20
889.9214635930786
 30
0.0
 40
10.0
  0
CIRCLE
  5
280
330
17
100
AcDbEntity
  8
0
100
AcDbCircle
 10
299.836812751948
 20
371.4801314856986
 30
0.0
 40
10.0
  0
CIRCLE
  5
281
330
17
100
AcDbEntity
  8
0
100
AcDbCircle
 10
853.5200571009948
 20
405.0477196062236
 30
0.0
 40
10.0
  0
CIRCLE
  5
282
330
17
100
AcDbEntity
  8
0
100
AcDbCircle
 10
301.7580676693681
 20
717.1189802358164
 30
0.0
 40
10.0
  0
CIRCLE
  5
283
330
17
100
AcDbEntity
  8
0
100
AcDbCircle
 10
217.7502990143575
 20
529.7006556965364
 30
0.0
 40
10.0
  0
CIRCLE
  5
284
330
17
100
AcDbEntity
  8
0
100
AcDbCircle
 10
929.3951648046065
 20
404.5114998663909
 30
0.0
 40
10.0
  0
CIRCLE
  5
285
330
17
100
AcDbEntity
  8
0
100
AcDbCircle
 10
182.55062663734174
 20
26.640654407480735
 30
0.0
 40
10.0
  0
CIRCLE
  5
286
330
17
100
AcDbEntity
  8
0
100
AcDbCircle
 10
413.08152675844417
 20
232.38681824598353
 30
0.0
 40
10.0
  0
CIRCLE
  5
287
330
17
100
AcDbEntity
  8
0
100
AcDbCircle
 10
189.69809506300368
 20
763.6586458799165
 30
0.0
 40
10.0
  0
CIRCLE
  5
288
330
17
100
AcDbEntity
  8
0
100
AcDbCircle
 10
279.71511579022183
 20
505.2424415131179
 30
0.0
 40
10.0
  0
CIRCLE
  5
289
330
17
100
AcDbEntity
  8
0
100
AcDbCircle
 10
245.40495760105208
 20
250.69423131746038
 30
0.0
 40
10.0
  0
CIRCLE
  5
28A
330
17
100
AcDbEntity
  8
0
100
AcDbCircle
 10
191.81756257159807
 20
176.64005499581734
 30
0.0
 40
10.0
  0
CIRCLE
  5
28B
330
17
100
AcDbEntity
  8
0
100
AcDbCircle
 10
10.863027074780259
 20
679.9471574319439
 30
0.0
 40
10.0
  0
CIRCLE
  5
28C
330
17
100
AcDbEntity
  8
0
100
AcDbCircle
 10
668.1681689589526
 20
256.8293127899821
 30
0.0
 40
10.0
  0
CIRCLE
  5
28D
330
17
100
AcDbEntity
  8
0
100
AcDbCircle
 10
957.686748741439
 20
80.14562462794075
 30
0.0
 40
10.0
  0
CIRCLE
  5
28E
330
17
100
AcDbEntity
  8
0
100
AcDbCircle
 10
921.5783622060262
 20
367.80025806494126
 30
0.0
 40
10.0
  0
CIRCLE
  5
28F
330
17
100
AcDbEntity
  8
0
100
AcDbCircle
 10
746.0091840250708
 20
119.49863771425616
 30
0.0
 40
10.0
  0
CIRCLE
  5
290
330
17
100
AcDbEntity
  8
0
100
AcDbCircle
 10
670.7460456337483
 20
472.3831734769207
 30
0.0
 40
10.0
  0
CIRCLE
  5
291
330
17
100
AcDbEntity
  8
0
100
AcDbCircle
 10
215.9013116219791
 20
730.584218347338
 30
0.0
 40
10.0
  0
CIRCLE
  5
292
330
17
100
AcDbEntity
  8
0
100
AcDbCircle
 10
486.7889375051892
 20
760.7334868669683
 30
0.0
 40
10.0
  0
CIRCLE
  5
293
330
17
100
AcDbEntity
  8
0
100
AcDbCircle
 10
382.03758029910017
 20
225.5938040278427
 30
0.0
 40
10.0
  0
CIRCLE
  5
294
330
17
100
AcDbEntity
  8
0
100
AcDbCircle
 10
682.9281966689317
 20
788.192905326665
 30
0.0
 40
10.0
  0
CIRCLE
  5
295
330
17
100
AcDbEntity
  8
0
100
AcDbCircle
 10
80.10357404013084
 20
557.4470752821777
 30
0.0
 40
10.0
  0
CIRCLE
  5
296
330
17
100
AcDbEntity
  8
0
100
AcDbCircle
 10
920.745716348817
 20
746.7884393379376
 30
0.0
 40
10.0
  0
CIRCLE
  5
297
330
17
100
AcDbEntity
  8
0
100
AcDbCircle
 10
717.7777387889686
 20
133.10658913999148
 30
0.0
 40
10.0
  0
CIRCLE
  5
298
330
17
100
AcDbEntity
  8
0
100
AcDbCircle
 10
255.41457664326902
 20
127.22268308555137
 30
0.0
 40
10.0
  0
CIRCLE
  5
299
330
17
100
AcDbEntity
  8
0
100
AcDbCircle
 10
297.98418252739793
 20
670.6310770502593
 30
0.0
 40
10.0
  0
CIRCLE
  5
29A
330
17
100
AcDbEntity
  8
0
100
AcDbCircle
 10
566.3685090942572
 20
34.04352801716858
 30
0.0
 40
10.0
  0
CIRCLE
  5
29B
330
17
100
AcDbEntity
  8
0
100
AcDbCircle
 10
938.1765282746918
 20
653.0626745681648
 30
0.0
 40
10.0
  0
CIRCLE
  5
29C
330
17
100
AcDbEntity
  8
0
100
AcDbCircle
 10
413.59234887021864
 20
359.02803601948966
 30
0.0
 40
10.0
  0
CIRCLE
  5
29D
330
17
100
AcDbEntity
  8
0
100
AcDbCircle
 10
125.3174368005955
 20
959.6135380167938
 30
0.0
 40
10.0
  0
CIRCLE
  5
29E
330
17
100
AcDbEntity
  8
0
100
AcDbCircle
 10
386.8892525800645
 20
741.5085906768468
 30
0.0
 40
10.0
  0
CIRCLE
  5
29F
330
17
100
AcDbEntity
  8
0
100
AcDbCircle
 10
581.6208750664739
 20
49.20485113729046
 30
0.0
 40
10.0
  0
CIRCLE
  5
2A0
330
17
100
AcDbEntity
  8
0
100
AcDbCircle
 10
13.764677246564041
 20
204.4054826521991
 30
0.0
 40
10.0
  0
CIRCLE
  5
2A1
330
17
100
AcDbEntity
  8
0
100
AcDbCircle
 10
165.04233952260395
 20
724.5887892348543
 30
0.0
 40
10.0
  0
CIRCLE
  5
2A2
330
17
100
AcDbEntity
  8
0
100
AcDbCircle
 10
449.72062180229506
 20
622.9616865785182
 30
0.0
 40
10.0
  0
CIRCLE
  5
2A3
330
17
100
AcDbEntity
  8
0
100
AcDbCircle
 10
106.89015228126289
 20
269.8408465104453
 30
0.0
 40
10.0
  0
CIRCLE
  5
2A4
330
17
100
AcDbEntity
  8
0
100
AcDbCircle
 10
887.6590773120637
 20
678.7085047097403
 30
0.0
 40
10.0
  0
CIRCLE
  5
2A5
330
17
100
AcDbEntity
  8
0
100
AcDbCircle
 10
100.36814301393736
 20
872.309294866528
 30
0.0
 40
10.0
  0
CIRCLE
  5
2A6
330
17
100
AcDbEntity
  8
0
100
AcDbCircle
 10
796.8279961298557
 20
618.1002481521401
 30
0.0
 40
10.0
  0
CIRCLE
  5
2A7
330
17
100
AcDbEntity
  8
0
100
AcDbCircle
 10
497.77082082436976
 20
736.5105294665343
 30
0.0
 40
10.0
  0
CIRCLE
  5
2A8
330
17
100
AcDbEntity
  8
0
100
AcDbCircle
 10
276.11978333105657
 20
959.0078395588263
 30
0.0
 40
10.0
  0
CIRCLE
  5
2A9
330
17
100
AcDbEntity
  8
0
100
AcDbCircle
 10
192.77094533988188
 20
630.5626692926118
 30
0.0
 40
10.0
  0
CIRCLE
  5
2AA
330
17
100
AcDbEntity
  8
0
100
AcDbCircle
 10
919.3334590567506
 20
781.8342683136782
 30
0.0
 40
10.0
  0
CIRCLE
  5
2AB
330
17
100
AcDbEntity
  8
0
100
AcDbCircle
 10
317.73981664911423
 20
984.2811396375895
 30
0.0
 40
10.0
  0
CIRCLE
  5
2AC
330
17
100
AcDbEntity
  8
0
100
AcDbCircle
 10
989.8146448382715
 20
921.6684244714755
 30
0.0
 40
10.0
  0
CIRCLE
  5
2AD
330
17
100
AcDbEntity
  8
0
100
AcDbCircle
 10
457.7262659406069
 20
953.9724426172367
 30
0.0
 40
10.0
  0
CIRCLE
  5
2AE
330
17
100
AcDbEntity
  8
0
100
AcDbCircle
 10
493.408939666232
 20
873.7201238472632
 30
0.0
 40
10.0
  0
CIRCLE
  5
2AF
330
17
100
AcDbEntity
  8
0
100
AcDbCircle
 10
903.8082586785806
 20
197.88987666687024
 30
0.0
 40
10.0
  0
CIRCLE
  5
2B0
330
17
100
AcDbEntity
  8
0
100
AcDbCircle
 10
827.2415727531223
 20
964.9179372185087
 30
0.0
 40
10.0
  0
CIRCLE
  5
2B1
330
17
100
AcDbEntity
  8
0
100
AcDbCircle
 10
783.1348505225745
 20
728.1892169268774
 30
0.0
 40
10.0
  0
CIRCLE
  5
2B2
330
17
100
AcDbEntity
  8
0
100
AcDbCircle
 10
509.05080289898643
 20
138.37944397183622
 30
0.0
 40
10.0
  0
CIRCLE
  5
2B3
330
17
100
AcDbEntity
  8
0
100
AcDbCircle
 10
38.05688376643991
 20
685.4973022976908
 30
0.0
 40
10.0
  0
CIRCLE
  5
2B4
330
17
100
AcDbEntity
  8
0
100
AcDbCircle
 10
350.9631986163865
 20
949.4480480105638
 30
0.0
 40
10.0
  0
CIRCLE
  5
2B5
330
17
100
AcDbEntity
  8
0
100
AcDbCircle
 10
592.3094543891885
 20
781.5715264853401
 30
0.0
 40
10.0
  0
CIRCLE
  5
2B6
330
17
100
AcDbEntity
  8
0
100
AcDbCircle
 10
745.5471241068825
 20
12.412737730266045
 30
0.0
 40
10.0
  0
CIRCLE
  5
2B7
330
17
100
AcDbEntity
  8
0
100
AcDbCircle
 10
359.3938913460957
 20
582.5209133213125
 30
0.0
 40
10.0
  0
CIRCLE
  5
2B8
330
17
100
AcDbEntity
  8
0
100
AcDbCircle
 10
579.5726226065897
 20
662.7320799787651
 30
0.0
 40
10.0
  0
CIRCLE
  5
2B9
330
17
100
AcDbEntity
  8
0
100
AcDbCircle
 10
330.0663491417517
 20
604.8563556675787
 30
0.0
 40
10.0
  0
CIRCLE
  5
2BA
330
17
100
AcDbEntity
  8
0
100
AcDbCircle
 10
332.8359360962445
 20
814.341725452519
 30
0.0
 40
10.0
  0
CIRCLE
  5
2BB
330
17
100
AcDbEntity
  8
0
100
AcDbCircle
 10
425.52741157093266
 20
42.755550368724016
 30
0.0
 40
10.0
  0
CIRCLE
  5
2BC
330
17
100
AcDbEntity
  8
0
100
AcDbCircle
 10
427.7366844295044
 20
16.97520874906144
 30
0.0
 40
10.0
  0
CIRCLE
  5
2BD
330
17
100
AcDbEntity
  8
0
100
AcDbCircle
 10
845.3789752542915
 20
460.1762181135339
 30
0.0
 40
10.0
  0
CIRCLE
  5
2BE
330
17
100
AcDbEntity
  8
0
100
AcDbCircle
 10
778.0096156412784
 20
52.87918059896099
 30
0.0
 40
10.0
  0
ENDSEC
  0
SECTION
  2
OBJECTS
  0
DICTIONARY
  5
A
330
0
100
AcDbDictionary
281
1
  3
ACAD_COLOR
350
B
  3
ACAD_GROUP
350
C
  3
ACAD_LAYOUT
350
D
  3
ACAD_MATERIAL
350
E
  3
ACAD_MLEADERSTYLE
350
F
  3
ACAD_MLINESTYLE
350
10
  3
ACAD_PLOTSETTINGS
350
11
  3
ACAD_PLOTSTYLENAME
350
12
  3
ACAD_SCALELIST
350
14
  3
ACAD_TABLESTYLE
350
15
  3
ACAD_VISUALSTYLE
350
16
  3
EZDXF_META
350
2D
  0
DICTIONARY
  5
B
330
A
100
AcDbDictionary
281
1
  0
DICTIONARY
  5
C
330
A
100
AcDbDictionary
281
1
  0
DICTIONARY
  5
D
330
A
100
AcDbDictionary
281
1
  3
Model
350
1A
  3
Layout1
350
1E
  0
DICTIONARY
  5
E
330
A
100
AcDbDictionary
281
1
  3
ByBlock
350
1F
  3
ByLayer
350
20
  3
Global
350
21
  0
DICTIONARY
  5
F
330
A
100
AcDbDictionary
281
1
  3
Standard
350
2C
  0
DICTIONARY
  5
10
330
A
100
AcDbDictionary
281
1
  3
Standard
350
22
  0
DICTIONARY
  5
11
330
A
100
AcDbDictionary
281
1
  0
ACDBDICTIONARYWDFLT
  5
12
330
A
100
AcDbDictionary
281
1
  3
Normal
350
13
100
AcDbDictionaryWithDefault
340
13
  0
ACDBPLACEHOLDER
  5
13
330
12
  0
DICTIONARY
  5
14
330
A
100
AcDbDictionary
281
1
  0
DICTIONARY
  5
15
330
A
100
AcDbDictionary
281
1
  0
DICTIONARY
  5
16
330
A
100
AcDbDictionary
281
1
  0
LAYOUT
  5
1A
330
D
100
AcDbPlotSettings
  1

  4
A3
  6

 40
7.5
 41
20.0
 42
7.5
 43
20.0
 44
420.0
 45
297.0
 46
0.0
 47
0.0
 48
0.0
 49
0.0
140
0.0
141
0.0
142
1.0
143
1.0
 70
1024
 72
1
 73
0
 74
5
  7

 75
16
 76
0
 77
2
 78
300
147
1.0
148
0.0
149
0.0
100
AcDbLayout
  1
Model
 70
1
 71
0
 10
0.0
 20
0.0
 11
420.0
 21
297.0
 12
0.0
 22
0.0
 32
0.0
 14
1e+20
 24
1e+20
 34
1e+20
 15
-1e+20
 25
-1e+20
 35
-1e+20
146
0.0
 13
0.0
 23
0.0
 33
0.0
 16
1.0
 26
0.0
 36
0.0
 17
0.0
 27
1.0
 37
0.0
 76
1
330
17
  0
LAYOUT
  5
1E
330
D
100
AcDbPlotSettings
  1

  4
A3
  6

 40
7.5
 41
20.0
 42
7.5
 43
20.0
 44
420.0
 45
297.0
 46
0.0
 47
0.0
 48
0.0
 49
0.0
140
0.0
141
0.0
142
1.0
143
1.0
 70
0
 72
1
 73
0
 74
5
  7

 75
16
 76
0
 77
2
 78
300
147
1.0
148
0.0
149
0.0
100
AcDbLayout
  1
Layout1
 70
1
 71
1
 10
0.0
 20
0.0
 11
420.0
 21
297.0
 12
0.0
 22
0.0
 32
0.0
 14
1e+20
 24
1e+20
 34
1e+20
 15
-1e+20
 25
-1e+20
 35
-1e+20
146
0.0
 13
0.0
 23
0.0
 33
0.0
 16
1.0
 26
0.0
 36
0.0
 17
0.0
 27
1.0
 37
0.0
 76
1
330
1B
  0
MATERIAL
  5
1F
102
{ACAD_REACTORS
330
E
102
}
330
E
100
AcDbMaterial
  1
ByBlock
  2

 70
0
 40
1.0
 71
1
 41
1.0
 91
-1023410177
 42
1.0
 72
1
  3

 73
1
 74
1
 75
1
 44
0.5
 73
0
 45
1.0
 46
1.0
 77
1
  4

 78
1
 79
1
170
1
 48
1.0
171
1
  6

172
1
173
1
174
1
140
1.0
141
1.0
175
1
  7

176
1
177
1
178
1
143
1.0
179
1
  8

270
1
271
1
272
1
145
1.0
146
1.0
273
1
  9

274
1
275
1
276
1
 42
1.0
 72
1
  3

 73
1
 74
1
 75
1
 94
63
  0
MATERIAL
  5
20
102
{ACAD_REACTORS
330
E
102
}
330
E
100
AcDbMaterial
  1
ByLayer
  2

 70
0
 40
1.0
 71
1
 41
1.0
 91
-1023410177
 42
1.0
 72
1
  3

 73
1
 74
1
 75
1
 44
0.5
 73
0
 45
1.0
 46
1.0
 77
1
  4

 78
1
 79
1
170
1
 48
1.0
171
1
  6

172
1
173
1
174
1
140
1.0
141
1.0
175
1
  7

176
1
177
1
178
1
143
1.0
179
1
  8

270
1
271
1
272
1
145
1.0
146
1.0
273
1
  9

274
1
275
1
276
1
 42
1.0
 72
1
  3

 73
1
 74
1
 75
1
 94
63
  0
MATERIAL
  5
21
102
{ACAD_REACTORS
330
E
102
}
330
E
100
AcDbMaterial
  1
Global
  2

 70
0
 40
1.0
 71
1
 41
1.0
 91
-1023410177
 42
1.0
 72
1
  3

 73
1
 74
1
 75
1
 44
0.5
 73
0
 45
1.0
 46
1.0
 77
1
  4

 78
1
 79
1
170
1
 48
1.0
171
1
  6

172
1
173
1
174
1
140
1.0
141
1.0
175
1
  7

176
1
177
1
178
1
143
1.0
179
1
  8

270
1
271
1
272
1
145
1.0
146
1.0
273
1
  9

274
1
275
1
276
1
 42
1.0
 72
1
  3

 73
1
 74
1
 75
1
 94
63
  0
MLINESTYLE
  5
22
102
{ACAD_REACTORS
330
10
102
}
330
10
100
AcDbMlineStyle
  2
Standard
 70
0
  3

 62
256
 51
90.0
 52
90.0
 71
2
 49
0.5
 62
256
  6
BYLAYER
 49
-0.5
 62
256
  6
BYLAYER
  0
MLEADERSTYLE
  5
2C
102
{ACAD_REACTORS
330
F
102
}
330
F
100
AcDbMLeaderStyle
179
2
170
2
171
1
172
0
 90
2
 40
0.0
 41
0.0
173
1
 91
-1056964608
 92
-2
290
1
 42
2.0
291
1
 43
8.0
  3
Standard
 44
4.0
300

342
29
174
1
175
1
176
0
178
1
 93
-1056964608
 45
4.0
292
0
297
0
 46
4.0
 94
-1056964608
 47
1.0
 49
1.0
140
1.0
294
1
141
0.0
177
0
142
1.0
295
0
296
0
143
3.75
271
0
272
9
273
9
  0
DICTIONARY
  5
2D
330
A
100
AcDbDictionary
280
1
281
1
  3
CREATED_BY_EZDXF
350
2E
  3
WRITTEN_BY_EZDXF
350
2C1
  0
DICTIONARYVAR
  5
2E
330
2D
100
DictionaryVariables
280
0
  1
1.4.4 @ 2026-10-10T13:14:32.775081+00:00
  0
DICTIONARYVAR
  5
2C1
330
2D
100
DictionaryVariables
280
0
  1
1.4.4 @ 2026-10-10T13:14:32.780609+00:00
  0
ENDSEC
  0
EOF
