  0
SECTION
  2
HEADER
  9
$ACADVER
  1
AC1024
  9
$ACADMAINTVER
 70
6
  9
$DWGCODEPAGE
  3
ANSI_1252
  9
$LASTSAVEDBY
  1
ezdxf
  9
$INSBASE
 10
0.0
 20
0.0
 30
0.0
  9
$EXTMIN
 10
1e+20
 20
1e+20
 30
1e+20
  9
$EXTMAX
 10
-1e+20
 20
-1e+20
 30
-1e+20
  9
$LIMMIN
 10
0.0
 20
0.0
  9
$LIMMAX
 10
420.0
 20
297.0
  9
$ORTHOMODE
 70
0
  9
$REGENMODE
 70
1
  9
$FILLMODE
 70
1
  9
$QTEXTMODE
 70
0
  9
$MIRRTEXT
 70
1
  9
$LTSCALE
 40
1.0
  9
$ATTMODE
 70
1
  9
$TEXTSIZE
 40
2.5
  9
$TRACEWID
 40
1.0
  9
$TEXTSTYLE
  7
Standard
  9
$CLAYER
  8
0
  9
$CELTYPE
  6
ByLayer
  9
$CECOLOR
 62
256
  9
$CELTSCALE
 40
1.0
  9
$DISPSILH
 70
0
  9
$DIMSCALE
 40
1.0
  9
$DIMASZ
 40
2.5
  9
$DIMEXO
 40
0.625
  9
$DIMDLI
 40
3.75
  9
$DIMRND
 40
0.0
  9
$DIMDLE
 40
0.0
  9
$DIMEXE
 40
1.25
  9
$DIMTP
 40
0.0
  9
$DIMTM
 40
0.0
  9
$DIMTXT
 40
2.5
  9
$DIMCEN
 40
2.5
  9
$DIMTSZ
 40
0.0
  9
$DIMTOL
 70
0
  9
$DIMLIM
 70
0
  9
$DIMTIH
 70
0
  9
$DIMTOH
 70
0
  9
$DIMSE1
 70
0
  9
$DIMSE2
 70
0
  9
$DIMTAD
 70
1
  9
$DIMZIN
 70
8
  9
$DIMBLK
  1

  9
$DIMASO
 70
1
  9
$DIMSHO
 70
1
  9
$DIMPOST
  1

  9
$DIMAPOST
  1

  9
$DIMALT
 70
0
  9
$DIMALTD
 70
3
  9
$DIMALTF
 40
0.03937007874
  9
$DIMLFAC
 40
1.0
  9
$DIMTOFL
 70
1
  9
$DIMTVP
 40
0.0
  9
$DIMTIX
 70
0
  9
$DIMSOXD
 70
0
  9
$DIMSAH
 70
0
  9
$DIMBLK1
  1

  9
$DIMBLK2
  1

  9
$DIMSTYLE
  2
ISO-25
  9
$DIMCLRD
 70
0
  9
$DIMCLRE
 70
0
  9
$DIMCLRT
 70
0
  9
$DIMTFAC
 40
1.0
  9
$DIMGAP
 40
0.625
  9
$DIMJUST
 70
0
  9
$DIMSD1
 70
0
  9
$DIMSD2
 70
0
  9
$DIMTOLJ
 70
0
  9
$DIMTZIN
 70
8
  9
$DIMALTZ
 70
0
  9
$DIMALTTZ
 70
0
  9
$DIMUPT
 70
0
  9
$DIMDEC
 70
2
  9
$DIMTDEC
 70
2
  9
$DIMALTU
 70
2
  9
$DIMALTTD
 70
3
  9
$DIMTXSTY
  7
Standard
  9
$DIMAUNIT
 70
0
  9
$DIMADEC
 70
0
  9
$DIMALTRND
 40
0.0
  9
$DIMAZIN
 70
0
  9
$DIMDSEP
 70
44
  9
$DIMATFIT
 70
3
  9
$DIMFRAC
 70
0
  9
$DIMLDRBLK
  1

  9
$DIMLUNIT
 70
2
  9
$DIMLWD
 70
-2
  9
$DIMLWE
 70
-2
  9
$DIMTMOVE
 70
0
  9
$DIMFXL
 40
1.0
  9
$DIMFXLON
 70
0
  9
$DIMJOGANG
 40
0.785398163397
  9
$DIMTFILL
 70
0
  9
$DIMTFILLCLR
 70
0
  9
$DIMARCSYM
 70
0
  9
$DIMLTYPE
  6

  9
$DIMLTEX1
  6

  9
$DIMLTEX2
  6

  9
$DIMTXTDIRECTION
 70
0
  9
$LUNITS
 70
2
  9
$LUPREC
 70
4
  9
$SKETCHINC
 40
1.0
  9
$FILLETRAD
 40
10.0
  9
$AUNITS
 70
0
  9
$AUPREC
 70
2
  9
$MENU
  1
.
  9
$ELEVATION
 40
0.0
  9
$PELEVATION
 40
0.0
  9
$THICKNESS
 40
0.0
  9
$LIMCHECK
 70
0
  9
$CHAMFERA
 40
0.0
  9
$CHAMFERB
 40
0.0
  9
$CHAMFERC
 40
0.0
  9
$CHAMFERD
 40
0.0
  9
$SKPOLY
 70
0
  9
$TDCREATE
 40
2461324.6355439816
  9
$TDUCREATE
 40
2458532.153996898
  9
$TDUPDATE
 40
2461324.6355439816
  9
$TDUUPDATE
 40
2458532.1544311
  9
$TDINDWG
 40
0.0
  9
$TDUSRTIMER
 40
0.0
  9
$USRTIMER
 70
1
  9
$ANGBASE
 50
0.0
  9
$ANGDIR
 70
0
  9
$PDMODE
 70
0
  9
$PDSIZE
 40
0.0
  9
$PLINEWID
 40
0.0
  9
$SPLFRAME
 70
0
  9
$SPLINETYPE
 70
6
  9
$SPLINESEGS
 70
8
  9
$HANDSEED
  5
5AA
  9
$SURFTAB1
 70
6
  9
$SURFTAB2
 70
6
  9
$SURFTYPE
 70
6
  9
$SURFU
 70
6
  9
$SURFV
 70
6
  9
$UCSBASE
  2

  9
$UCSNAME
  2

  9
$UCSORG
 10
0.0
 20
0.0
 30
0.0
  9
$UCSXDIR
 10
1.0
 20
0.0
 30
0.0
  9
$UCSYDIR
 10
0.0
 20
1.0
 30
0.0
  9
$UCSORTHOREF
  2

  9
$UCSORTHOVIEW
 70
0
  9
$UCSORGTOP
 10
0.0
 20
0.0
 30
0.0
  9
$UCSORGBOTTOM
 10
0.0
 20
0.0
 30
0.0
  9
$UCSORGLEFT
 10
0.0
 20
0.0
 30
0.0
  9
$UCSORGRIGHT
 10
0.0
 20
0.0
 30
0.0
  9
$UCSORGFRONT
 10
0.0
 20
0.0
 30
0.0
  9
$UCSORGBACK
 10
0.0
 20
0.0
 30
0.0
  9
$PUCSBASE
  2

  9
$PUCSNAME
  2

  9
$PUCSORG
 10
0.0
 20
0.0
 30
0.0
  9
$PUCSXDIR
 10
1.0
 20
0.0
 30
0.0
  9
$PUCSYDIR
 10
0.0
 20
1.0
 30
0.0
  9
$PUCSORTHOREF
  2

  9
$PUCSORTHOVIEW
 70
0
  9
$PUCSORGTOP
 10
0.0
 20
0.0
 30
0.0
  9
$PUCSORGBOTTOM
 10
0.0
 20
0.0
 30
0.0
  9
$PUCSORGLEFT
 10
0.0
 20
0.0
 30
0.0
  9
$PUCSORGRIGHT
 10
0.0
 20
0.0
 30
0.0
  9
$PUCSORGFRONT
 10
0.0
 20
0.0
 30
0.0
  9
$PUCSORGBACK
 10
0.0
 20
0.0
 30
0.0
  9
$USERI1
 70
0
  9
$USERI2
 70
0
  9
$USERI3
 70
0
  9
$USERI4
 70
0
  9
$USERI5
 70
0
  9
$USERR1
 40
0.0
  9
$USERR2
 40
0.0
  9
$USERR3
 40
0.0
  9
$USERR4
 40
0.0
  9
$USERR5
 40
0.0
  9
$WORLDVIEW
 70
1
  9
$SHADEDGE
 70
3
  9
$SHADEDIF
 70
70
  9
$TILEMODE
 70
1
  9
$MAXACTVP
 70
64
  9
$PINSBASE
 10
0.0
 20
0.0
 30
0.0
  9
$PLIMCHECK
 70
0
  9
$PEXTMIN
 10
1e+20
 20
1e+20
 30
1e+20
  9
$PEXTMAX
 10
-1e+20
 20
-1e+20
 30
-1e+20
  9
$PLIMMIN
 10
0.0
 20
0.0
  9
$PLIMMAX
 10
420.0
 20
297.0
  9
$UNITMODE
 70
0
  9
$VISRETAIN
 70
1
  9
$PLINEGEN
 70
0
  9
$PSLTSCALE
 70
1
  9
$TREEDEPTH
 70
3020
  9
$CMLSTYLE
  2
Standard
  9
$CMLJUST
 70
0
  9
$CMLSCALE
 40
20.0
  9
$PROXYGRAPHICS
 70
1
  9
$MEASUREMENT
 70
1
  9
$CELWEIGHT
370
-1
  9
$ENDCAPS
280
0
  9
$JOINSTYLE
280
0
  9
$LWDISPLAY
290
0
  9
$INSUNITS
 70
6
  9
$HYPERLINKBASE
  1

  9
$STYLESHEET
  1

  9
$XEDIT
290
1
  9
$CEPSNTYPE
380
0
  9
$PSTYLEMODE
290
1
  9
$FINGERPRINTGUID
  2
{DF972A6D-8CED-4688-B62D-0F077E8F0F92}
  9
$VERSIONGUID
  2
{5096FD84-E1EB-4C2D-85A2-43ADCA3E2252}
  9
$EXTNAMES
290
1
  9
$PSVPSCALE
 40
0.0
  9
$OLESTARTUP
290
0
  9
$SORTENTS
280
127
  9
$INDEXCTL
280
0
  9
$HIDETEXT
280
1
  9
$XCLIPFRAME
280
1
  9
$HALOGAP
280
0
  9
$OBSCOLOR
 70
257
  9
$OBSLTYPE
280
0
  9
$INTERSECTIONDISPLAY
280
0
  9
$INTERSECTIONCOLOR
 70
257
  9
$DIMASSOC
280
2
  9
$PROJECTNAME
  1

  9
$CAMERADISPLAY
290
0
  9
$LENSLENGTH
 40
50.0
  9
$CAMERAHEIGHT
 40
0.0
  9
$STEPSPERSEC
 40
24.0
  9
$STEPSIZE
 40
100.0
  9
$3DDWFPREC
 40
2.0
  9
$PSOLWIDTH
 40
0.005
  9
$PSOLHEIGHT
 40
0.08
  9
$LOFTANG1
 40
1.570796326795
  9
$LOFTANG2
 40
1.570796326795
  9
$LOFTMAG1
 40
0.0
  9
$LOFTMAG2
 40
0.0
  9
$LOFTPARAM
 70
7
  9
$LOFTNORMALS
280
1
  9
$LATITUDE
 40
37.795
  9
$LONGITUDE
 40
-122.394
  9
$NORTHDIRECTION
 40
0.0
  9
$TIMEZONE
 70
-8000
  9
$LIGHTGLYPHDISPLAY
280
1
  9
$TILEMODELIGHTSYNCH
280
1
  9
$CMATERIAL
347
20
  9
$SOLIDHIST
280
0
  9
$SHOWHIST
280
1
  9
$DWFFRAME
280
2
  9
$DGNFRAME
280
2
  9
$REALWORLDSCALE
290
1
  9
$INTERFERECOLOR
 62
256
  9
$CSHADOW
280
0
  9
$SHADOWPLANELOCATION
 40
0.0
  0
ENDSEC
  0
SECTION
  2
CLASSES
  0
CLASS
  1
ACDBDICTIONARYWDFLT
  2
AcDbDictionaryWithDefault
  3
ObjectDBX Classes
 90
0
 91
0
280
0
281
0
  0
CLASS
  1
SUN
  2
AcDbSun
  3
SCENEOE
 90
1153
 91
0
280
0
281
0
  0
CLASS
  1
VISUALSTYLE
  2
AcDbVisualStyle
  3
ObjectDBX Classes
 90
4095
 91
0
280
0
281
0
  0
CLASS
  1
MATERIAL
  2
AcDbMaterial
  3
ObjectDBX Classes
 90
1153
 91
0
280
0
281
0
  0
CLASS
  1
SCALE
  2
AcDbScale
  3
ObjectDBX Classes
 90
1153
 91
0
280
0
281
0
  0
CLASS
  1
TABLESTYLE
  2
AcDbTableStyle
  3
ObjectDBX Classes
 90
4095
 91
0
280
0
281
0
  0
CLASS
  1
MLEADERSTYLE
  2
AcDbMLeaderStyle
  3
ACDB_MLEADERSTYLE_CLASS
 90
4095
 91
0
280
0
281
0
  0
CLASS
  1
DICTIONARYVAR
  2
AcDbDictionaryVar
  3
ObjectDBX Classes
 90
0
 91
0
280
0
281
0
  0
CLASS
  1
CELLSTYLEMAP
  2
AcDbCellStyleMap
  3
ObjectDBX Classes
 90
1152
 91
0
280
0
281
0
  0
CLASS
  1
MENTALRAYRENDERSETTINGS
  2
AcDbMentalRayRenderSettings
  3
SCENEOE
 90
1024
 91
0
280
0
281
0
  0
CLASS
  1
ACDBDETAILVIEWSTYLE
  2
AcDbDetailViewStyle
  3
ObjectDBX Classes
 90
1025
 91
0
280
0
281
0
  0
CLASS
  1
ACDBSECTIONVIEWSTYLE
  2
AcDbSectionViewStyle
  3
ObjectDBX Classes
 90
1025
 91
0
280
0
281
0
  0
CLASS
  1
RASTERVARIABLES
  2
AcDbRasterVariables
  3
ISM
 90
0
 91
0
280
0
281
0
  0
CLASS
  1
LAYOUT
  2
AcDbLayout
  3
ObjectDBX Classes
 90
0
 91
0
280
0
281
0
  0
CLASS
  1
ACDBPLACEHOLDER
  2
AcDbPlaceHolder
  3
ObjectDBX Classes
 90
0
 91
0
280
0
281
0
  0
ENDSEC
  0
SECTION
  2
TABLES
  0
TABLE
  2
VPORT
  5
8
330
0
100
AcDbSymbolTable
 70
1
  0
VPORT
  5
23
330
8
100
AcDbSymbolTableRecord
100
AcDbViewportTableRecord
  2
*Active
 70
0
 10
0.0
 20
0.0
 11
1.0
 21
1.0
 12
0.0
 22
0.0
 13
0.0
 23
0.0
 14
0.5
 24
0.5
 15
0.5
 25
0.5
 16
0.0
 26
0.0
 36
1.0
 17
0.0
 27
0.0
 37
0.0
 40
1000.0
 41
1.34
 42
50.0
 43
0.0
 44
0.0
 50
0.0
 51
0.0
 71
0
 72
1000
 73
1
 74
3
 75
0
 76
0
 77
0
 78
0
281
0
 65
0
146
0.0
  0
ENDTAB
  0
TABLE
  2
LTYPE
  5
2
330
0
100
AcDbSymbolTable
 70
3
  0
LTYPE
  5
24
330
2
100
AcDbSymbolTableRecord
100
AcDbLinetypeTableRecord
  2
ByBlock
 70
0
  3

 72
65
 73
0
 40
0.0
  0
LTYPE
  5
25
330
2
100
AcDbSymbolTableRecord
100
AcDbLinetypeTableRecord
  2
ByLayer
 70
0
  3

 72
65
 73
0
 40
0.0
  0
LTYPE
  5
26
330
2
100
AcDbSymbolTableRecord
100
AcDbLinetypeTableRecord
  2
Continuous
 70
0
  3

 72
65
 73
0
 40
0.0
  0
ENDTAB
  0
TABLE
  2
LAYER
  5
1
330
0
100
AcDbSymbolTable
 70
2
  0
LAYER
  5
27
330
1
100
AcDbSymbolTableRecord
100
AcDbLayerTableRecord
  2
0
 70
0
 62
7
  6
Continuous
370
-3
390
13
347
21
  0
LAYER
  5
28
330
1
100
AcDbSymbolTableRecord
100
AcDbLayerTableRecord
  2
Defpoints
 70
0
 62
7
  6
Continuous
290
0
370
-3
390
13
347
21
  0
ENDTAB
  0
TABLE
  2
STYLE
  5
5
330
0
100
AcDbSymbolTable
 70
1
  0
STYLE
  5
29
330
5
100
AcDbSymbolTableRecord
100
AcDbTextStyleTableRecord
  2
Standard
 70
0
 40
0.0
 41
1.0
 50
0.0
 71
0
 42
2.5
  3
txt
  4

  0
ENDTAB
  0
TABLE
  2
VIEW
  5
7
330
0
100
AcDbSymbolTable
 70
0
  0
ENDTAB
  0
TABLE
  2
UCS
  5
6
330
0
100
AcDbSymbolTable
 70
0
  0
ENDTAB
  0
TABLE
  2
APPID
  5
3
330
0
100
AcDbSymbolTable
 70
3
  0
APPID
  5
2A
330
3
100
AcDbSymbolTableRecord
100
AcDbRegAppTableRecord
  2
ACAD
 70
0
  0
APPID
  5
5A7
330
3
100
AcDbSymbolTableRecord
100
AcDbRegAppTableRecord
  2
HATCHBACKGROUNDCOLOR
 70
0
  0
APPID
  5
5A8
330
3
100
AcDbSymbolTableRecord
100
AcDbRegAppTableRecord
  2
EZDXF
 70
0
  0
ENDTAB
  0
TABLE
  2
DIMSTYLE
  5
4
330
0
100
AcDbSymbolTable
 70
1
100
AcDbDimStyleTable
  0
DIMSTYLE
105
2B
330
4
100
AcDbSymbolTableRecord
100
AcDbDimStyleTableRecord
  2
Standard
 70
0
 40
1.0
 41
2.5
 42
0.625
 43
3.75
 44
1.25
 45
0.0
 46
0.0
 47
0.0
 48
0.0
 49
2.5
140
2.5
141
2.5
142
0.0
143
0.03937007874
144
1.0
145
0.0
146
1.0
147
0.625
148
0.0
 69
0
 70
0
 71
0
 72
0
 73
0
 74
0
 75
0
 76
0
 77
1
 78
8
 79
3
170
0
171
3
172
1
173
0
174
0
175
0
176
0
177
0
178
0
179
2
271
2
272
2
273
2
274
3
275
0
276
0
277
2
278
44
279
0
280
0
281
0
282
0
283
0
284
8
285
0
286
0
288
0
289
3
290
0
371
-2
372
-2
  0
ENDTAB
  0
TABLE
  2
BLOCK_RECORD
  5
9
330
0
100
AcDbSymbolTable
 70
2
  0
BLOCK_RECORD
  5
17
330
9
100
AcDbSymbolTableRecord
100
AcDbBlockTableRecord
  2
*Model_Space
340
1A
 70
0
280
1
281
0
  0
BLOCK_RECORD
  5
1B
330
9
100
AcDbSymbolTableRecord
100
AcDbBlockTableRecord
  2
*Paper_Space
340
1E
 70
0
280
1
281
0
  0
ENDTAB
  0
ENDSEC
  0
SECTION
  2
BLOCKS
  0
BLOCK
  5
18
330
17
100
AcDbEntity
  8
0
100
AcDbBlockBegin
  2
*Model_Space
 70
0
 10
0.0
 20
0.0
 30
0.0
  3
*Model_Space
  1

  0
ENDBLK
  5
19
330
17
100
AcDbEntity
  8
0
100
AcDbBlockEnd
  0
BLOCK
  5
1C
330
1B
100
AcDbEntity
  8
0
100
AcDbBlockBegin
  2
*Paper_Space
 70
0
 10
0.0
 20
0.0
 30
0.0
  3
*Paper_Space
  1

  0
ENDBLK
  5
1D
330
1B
100
AcDbEntity
  8
0
100
AcDbBlockEnd
  0
ENDSEC
  0
SECTION
  2
ENTITIES
  0
LWPOLYLINE
  5
2F
330
17
100
AcDbEntity
  8
0
100
AcDbPolyline
 90
5
 70
0
 10
0.0
 20
0.0
 10
1000.0
 20
0.0
 10
1000.0
 20
1000.0
 10
0.0
 20
1000.0
 10
0.0
 20
0.0
  0
CIRCLE
  5
30
330
17
100
AcDbEntity
  8
0
100
AcDbCircle
 10
120.85398783184904
 20
921.6160830677311
 30
0.0
 40
40.0
  0
CIRCLE
  5
31
330
17
100
AcDbEntity
  8
0
100
AcDbCircle
 10
830.1441882439124
 20
238.7331757822863
 30
0.0
 40
40.0
  0
CIRCLE
  5
32
330
17
100
AcDbEntity
  8
0
100
AcDbCircle
 10
300.2677000707448
 20
42.68162762901801
 30
0.0
 40
40.0
  0
CIRCLE
  5
33
330
17
100
AcDbEntity
  8
0
100
AcDbCircle
 10
168.1701134580734
 20
703.4285863365025
 30
0.0
 40
40.0
  0
CIRCLE
  5
34
330
17
100
AcDbEntity
  8
0
100
AcDbCircle
 10
877.4907736787894
 20
575.4381660944088
 30
0.0
 40
40.0
  0
CIRCLE
  5
35
330
17
100
AcDbEntity
  8
0
100
AcDbCircle
 10
446.19400122575604
 20
158.14218654727043
 30
0.0
 40
40.0
  0
CIRCLE
  5
36
330
17
100
AcDbEntity
  8
0
100
AcDbCircle
 10
753.801695323691
 20
570.4268797662479
 30
0.0
 40
40.0
  0
CIRCLE
  5
37
330
17
100
AcDbEntity
  8
0
100
AcDbCircle
 10
208.4905556069022
 20
542.9919751614175
 30
0.0
 40
40.0
  0
CIRCLE
  5
38
330
17
100
AcDbEntity
  8
0
100
AcDbCircle
 10
870.7152116280895
 20
95.19228900011039
 30
0.0
 40
40.0
  0
CIRCLE
  5
39
330
17
100
AcDbEntity
  8
0
100
AcDbCircle
 10
928.1571541115775
 20
479.88601421929053
 30
0.0
 40
40.0
  0
CIRCLE
  5
3A
330
17
100
AcDbEntity
  8
0
100
AcDbCircle
 10
330.4170161782502
 20
536.3809458954921
 30
0.0
 40
40.0
  0
CIRCLE
  5
3B
330
17
100
AcDbEntity
  8
0
100
AcDbCircle
 10
857.7725566657691
 20
385.45822468850906
 30
0.0
 40
40.0
  0
CIRCLE
  5
3C
330
17
100
AcDbEntity
  8
0
100
AcDbCircle
 10
946.6425621716776
 20
824.499181749843
 30
0.0
 40
40.0
  0
CIRCLE
  5
3D
330
17
100
AcDbEntity
  8
0
100
AcDbCircle
 10
414.75955458572275
 20
811.939340683257
 30
0.0
 40
40.0
  0
CIRCLE
  5
3E
330
17
100
AcDbEntity
  8
0
100
AcDbCircle
 10
850.2188653859788
 20
783.9253583680098
 30
0.0
 40
40.0
  0
CIRCLE
  5
3F
330
17
100
AcDbEntity
  8
0
100
AcDbCircle
 10
284.0956308309132
 20
290.49209120581605
 30
0.0
 40
40.0
  0
CIRCLE
  5
40
330
17
100
AcDbEntity
  8
0
100
AcDbCircle
 10
645.3598354110593
 20
377.900779943465
 30
0.0
 40
40.0
  0
CIRCLE
  5
41
330
17
100
AcDbEntity
  8
0
100
AcDbCircle
 10
388.3681228665661
 20
50.440865045124106
 30
0.0
 40
40.0
  0
CIRCLE
  5
42
330
17
100
AcDbEntity
  8
0
100
AcDbCircle
 10
842.7955793927734
 20
959.2254521019474
 30
0.0
 40
40.0
  0
CIRCLE
  5
43
330
17
100
AcDbEntity
  8
0
100
AcDbCircle
 10
731.5908477599705
 20
426.54822717555516
 30
0.0
 40
40.0
  0
CIRCLE
  5
44
330
17
100
AcDbEntity
  8
0
100
AcDbCircle
 10
160.53639533726076
 20
200.20536354486873
 30
0.0
 40
40.0
  0
CIRCLE
  5
45
330
17
100
AcDbEntity
  8
0
100
AcDbCircle
 10
471.96006668482903
 20
253.1661892145332
 30
0.0
 40
40.0
  0
CIRCLE
  5
46
330
17
100
AcDbEntity
  8
0
100
AcDbCircle
 10
548.237878832236
 20
615.3247354739091
 30
0.0
 40
40.0
  0
CIRCLE
  5
47
330
17
100
AcDbEntity
  8
0
100
AcDbCircle
 10
64.26351246408387
 20
350.06469527488065
 30
0.0
 40
40.0
  0
CIRCLE
  5
48
330
17
100
AcDbEntity
  8
0
100
AcDbCircle
 10
427.9854219355999
 20
407.2529155915474
 30
0.0
 40
40.0
  0
CIRCLE
  5
49
330
17
100
AcDbEntity
  8
0
100
AcDbCircle
 10
67.38282399160892
 20
620.3017480101296
 30
0.0
 40
40.0
  0
CIRCLE
  5
4A
330
17
100
AcDbEntity
  8
0
100
AcDbCircle
 10
80.07292032251286
 20
98.94555076447757
 30
0.0
 40
40.0
  0
CIRCLE
  5
4B
330
17
100
AcDbEntity
  8
0
100
AcDbCircle
 10
538.5155884914808
 20
301.38660518515997
 30
0.0
 40
40.0
  0
CIRCLE
  5
4C
330
17
100
AcDbEntity
  8
0
100
AcDbCircle
 10
734.6184984889751
 20
862.1393041952881
 30
0.0
 40
40.0
  0
CIRCLE
  5
4D
330
17
100
AcDbEntity
  8
0
100
AcDbCircle
 10
200.10753247391264
 20
397.7831915780466
 30
0.0
 40
40.0
  0
CIRCLE
  5
4E
330
17
100
AcDbEntity
  8
0
100
AcDbCircle
 10
506.17261514263777
 20
848.8854549072461
 30
0.0
 40
40.0
  0
CIRCLE
  5
4F
330
17
100
AcDbEntity
  8
0
100
AcDbCircle
 10
302.46079107121415
 20
460.48689136540605
 30
0.0
 40
40.0
  0
CIRCLE
  5
50
330
17
100
AcDbEntity
  8
0
100
AcDbCircle
 10
535.281437471785
 20
452.0172846170845
 30
0.0
 40
40.0
  0
CIRCLE
  5
51
330
17
100
AcDbEntity
  8
0
100
AcDbCircle
 10
410.6824078680166
 20
632.1351591842813
 30
0.0
 40
40.0
  0
CIRCLE
  5
52
330
17
100
AcDbEntity
  8
0
100
AcDbCircle
 10
151.87282636274358
 20
612.8173685009685
 30
0.0
 40
40.0
  0
CIRCLE
  5
53
330
17
100
AcDbEntity
  8
0
100
AcDbCircle
 10
271.1485174414814
 20
749.3966301245296
 30
0.0
 40
40.0
  0
CIRCLE
  5
54
330
17
100
AcDbEntity
  8
0
100
AcDbCircle
 10
469.27214679336333
 20
927.7550857832817
 30
0.0
 40
40.0
  0
CIRCLE
  5
55
330
17
100
AcDbEntity
  8
0
100
AcDbCircle
 10
274.90350088324936
 20
186.05045506823987
 30
0.0
 40
40.0
  0
CIRCLE
  5
56
330
17
100
AcDbEntity
  8
0
100
AcDbCircle
 10
101.90926026394051
 20
441.6460641672953
 30
0.0
 40
40.0
  0
CIRCLE
  5
57
330
17
100
AcDbEntity
  8
0
100
AcDbCircle
 10
96.97346403164403
 20
792.6696477876363
 30
0.0
 40
40.0
  0
CIRCLE
  5
58
330
17
100
AcDbEntity
  8
0
100
AcDbCircle
 10
742.580485425407
 20
730.7542722315134
 30
0.0
 40
40.0
  0
CIRCLE
  5
59
330
17
100
AcDbEntity
  8
0
100
AcDbCircle
 10
667.0197258057111
 20
796.0937562521522
 30
0.0
 40
40.0
  0
CIRCLE
  5
5A
330
17
100
AcDbEntity
  8
0
100
AcDbCircle
 10
676.0983025455747
 20
529.9314390186688
 30
0.0
 40
40.0
  0
CIRCLE
  5
5B
330
17
100
AcDbEntity
  8
0
100
AcDbCircle
 10
925.3025658150151
 20
729.3492429410915
 30
0.0
 40
40.0
  0
CIRCLE
  5
5C
330
17
100
AcDbEntity
  8
0
100
AcDbCircle
 10
347.83954340306224
 20
121.00441714527152
 30
0.0
 40
40.0
  0
CIRCLE
  5
5D
330
17
100
AcDbEntity
  8
0
100
AcDbCircle
 10
944.6044630778265
 20
242.3422963377772
 30
0.0
 40
40.0
  0
CIRCLE
  5
5E
330
17
100
AcDbEntity
  8
0
100
AcDbCircle
 10
204.9758152536283
 20
73.78887090033592
 30
0.0
 40
40.0
  0
CIRCLE
  5
5F
330
17
100
AcDbEntity
  8
0
100
AcDbCircle
 10
570.90797514251
 20
798.6984926733542
 30
0.0
 40
40.0
  0
CIRCLE
  5
60
330
17
100
AcDbEntity
  8
0
100
AcDbCircle
 10
343.1734440290477
 20
232.0233297826958
 30
0.0
 40
40.0
  0
CIRCLE
  5
61
330
17
100
AcDbEntity
  8
0
100
AcDbCircle
 10
626.9739186358606
 20
73.5978144187281
 30
0.0
 40
40.0
  0
CIRCLE
  5
62
330
17
100
AcDbEntity
  8
0
100
AcDbCircle
 10
87.76572079403529
 20
521.141967612886
 30
0.0
 40
40.0
  0
CIRCLE
  5
63
330
17
100
AcDbEntity
  8
0
100
AcDbCircle
 10
62.01616157275944
 20
201.58225613741592
 30
0.0
 40
40.0
  0
CIRCLE
  5
64
330
17
100
AcDbEntity
  8
0
100
AcDbCircle
 10
474.53523505333794
 20
529.5796724763261
 30
0.0
 40
40.0
  0
CIRCLE
  5
65
330
17
100
AcDbEntity
  8
0
100
AcDbCircle
 10
649.5398955335644
 20
900.8472967685344
 30
0.0
 40
40.0
  0
CIRCLE
  5
66
330
17
100
AcDbEntity
  8
0
100
AcDbCircle
 10
205.373626650629
 20
267.1971553048043
 30
0.0
 40
40.0
  0
CIRCLE
  5
67
330
17
100
AcDbEntity
  8
0
100
AcDbCircle
 10
744.4104006005307
 20
331.0810331972335
 30
0.0
 40
40.0
  0
CIRCLE
  5
68
330
17
100
AcDbEntity
  8
0
100
AcDbCircle
 10
653.2419044654996
 20
651.4230342424472
 30
0.0
 40
40.0
  0
CIRCLE
  5
69
330
17
100
AcDbEntity
  8
0
100
AcDbCircle
 10
375.2686652903593
 20
921.1090814999629
 30
0.0
 40
40.0
  0
CIRCLE
  5
6A
330
17
100
AcDbEntity
  8
0
100
AcDbCircle
 10
241.43640190471788
 20
869.1120951568196
 30
0.0
 40
40.0
  0
CIRCLE
  5
6B
330
17
100
AcDbEntity
  8
0
100
AcDbCircle
 10
738.8555478652293
 20
212.04519299754588
 30
0.0
 40
40.0
  0
CIRCLE
  5
6C
330
17
100
AcDbEntity
  8
0
100
AcDbCircle
 10
555.4213269134475
 20
133.09611355040064
 30
0.0
 40
40.0
  0
CIRCLE
  5
6D
330
17
100
AcDbEntity
  8
0
100
AcDbCircle
 10
46.4552621126422
 20
858.8654689108612
 30
0.0
 40
40.0
  0
CIRCLE
  5
6E
330
17
100
AcDbEntity
  8
0
100
AcDbCircle
 10
920.2473863547934
 20
162.76324662862507
 30
0.0
 40
40.0
  0
CIRCLE
  5
6F
330
17
100
AcDbEntity
  8
0
100
AcDbCircle
 10
235.88171277544052
 20
628.4112795660541
 30
0.0
 40
40.0
  0
CIRCLE
  5
70
330
17
100
AcDbEntity
  8
0
100
AcDbCircle
 10
624.3139227324931
 20
264.67248107144763
 30
0.0
 40
40.0
  0
CIRCLE
  5
71
330
17
100
AcDbEntity
  8
0
100
AcDbCircle
 10
880.2315148224096
 20
884.6466824688619
 30
0.0
 40
40.0
  0
CIRCLE
  5
72
330
17
100
AcDbEntity
  8
0
100
AcDbCircle
 10
566.8361342368416
 20
946.8605136537419
 30
0.0
 40
40.0
  0
CIRCLE
  5
73
330
17
100
AcDbEntity
  8
0
100
AcDbCircle
 10
223.88151733138466
 20
955.3414051327935
 30
0.0
 40
40.0
  0
CIRCLE
  5
74
330
17
100
AcDbEntity
  8
0
100
AcDbCircle
 10
344.85610764836343
 20
368.72017743109643
 30
0.0
 40
40.0
  0
CIRCLE
  5
75
330
17
100
AcDbEntity
  8
0
100
AcDbCircle
 10
943.4976362701486
 20
650.0219903591786
 30
0.0
 40
40.0
  0
CIRCLE
  5
76
330
17
100
AcDbEntity
  8
0
100
AcDbCircle
 10
749.2922480035334
 20
51.32969957566967
 30
0.0
 40
40.0
  0
CIRCLE
  5
77
330
17
100
AcDbEntity
  8
0
100
AcDbCircle
 10
850.7072011596069
 20
671.1115003902503
 30
0.0
 40
40.0
  0
CIRCLE
  5
78
330
17
100
AcDbEntity
  8
0
100
AcDbCircle
 10
197.90551714737396
 20
794.5219675572049
 30
0.0
 40
40.0
  0
CIRCLE
  5
79
330
17
100
AcDbEntity
  8
0
100
AcDbCircle
 10
121.05521732163038
 20
287.02545183603047
 30
0.0
 40
40.0
  0
CIRCLE
  5
7A
330
17
100
AcDbEntity
  8
0
100
AcDbCircle
 10
651.9208610522286
 20
184.9720818138405
 30
0.0
 40
40.0
  0
CIRCLE
  5
7B
330
17
100
AcDbEntity
  8
0
100
AcDbCircle
 10
949.9971496544881
 20
68.7847226729988
 30
0.0
 40
40.0
  0
CIRCLE
  5
7C
330
17
100
AcDbEntity
  8
0
100
AcDbCircle
 10
550.1392657210992
 20
715.4558559321026
 30
0.0
 40
40.0
  0
CIRCLE
  5
7D
330
17
100
AcDbEntity
  8
0
100
AcDbCircle
 10
703.1825947427113
 20
118.8183695739801
 30
0.0
 40
40.0
  0
CIRCLE
  5
7E
330
17
100
AcDbEntity
  8
0
100
AcDbCircle
 10
577.0068332432413
 20
533.9450637544779
 30
0.0
 40
40.0
  0
CIRCLE
  5
7F
330
17
100
AcDbEntity
  8
0
100
AcDbCircle
 10
944.1332925779865
 20
326.8504071756844
 30
0.0
 40
40.0
  0
CIRCLE
  5
80
330
17
100
AcDbEntity
  8
0
100
AcDbCircle
 10
346.7029920860756
 20
681.6709397983446
 30
0.0
 40
40.0
  0
CIRCLE
  5
81
330
17
100
AcDbEntity
  8
0
100
AcDbCircle
 10
498.9898175877943
 20
56.08818037883194
 30
0.0
 40
40.0
  0
CIRCLE
  5
82
330
17
100
AcDbEntity
  8
0
100
AcDbCircle
 10
627.4038851450857
 20
460.35284266341307
 30
0.0
 40
40.0
  0
CIRCLE
  5
83
330
17
100
AcDbEntity
  8
0
100
AcDbCircle
 10
416.5333134618131
 20
326.21713113200036
 30
0.0
 40
8.0
  0
CIRCLE
  5
84
330
17
100
AcDbEntity
  8
0
100
AcDbCircle
 10
759.7393838922292
 20
662.676970715766
 30
0.0
 40
8.0
  0
CIRCLE
  5
85
330
17
100
AcDbEntity
  8
0
100
AcDbCircle
 10
762.9475735233873
 20
166.16823525688545
 30
0.0
 40
8.0
  0
CIRCLE
  5
86
330
17
100
AcDbEntity
  8
0
100
AcDbCircle
 10
336.360702275008
 20
587.7389990780687
 30
0.0
 40
8.0
  0
CIRCLE
  5
87
330
17
100
AcDbEntity
  8
0
100
AcDbCircle
 10
804.8042907325616
 20
645.2329226688224
 30
0.0
 40
8.0
  0
CIRCLE
  5
88
330
17
100
AcDbEntity
  8
0
100
AcDbCircle
 10
12.992347608437719
 20
99.8883008129032
 30
0.0
 40
8.0
  0
CIRCLE
  5
89
330
17
100
AcDbEntity
  8
0
100
AcDbCircle
 10
42.028482953136304
 20
425.3223942206148
 30
0.0
 40
8.0
  0
CIRCLE
  5
8A
330
17
100
AcDbEntity
  8
0
100
AcDbCircle
 10
644.6784418109255
 20
589.9910961811963
 30
0.0
 40
8.0
  0
CIRCLE
  5
8B
330
17
100
AcDbEntity
  8
0
100
AcDbCircle
 10
837.4730759445702
 20
725.1839952207908
 30
0.0
 40
8.0
  0
CIRCLE
  5
8C
330
17
100
AcDbEntity
  8
0
100
AcDbCircle
 10
286.8428859938796
 20
685.6566154774324
 30
0.0
 40
8.0
  0
CIRCLE
  5
8D
330
17
100
AcDbEntity
  8
0
100
AcDbCircle
 10
900.5367662625004
 20
961.0180624780007
 30
0.0
 40
8.0
  0
CIRCLE
  5
8E
330
17
100
AcDbEntity
  8
0
100
AcDbCircle
 10
91.5291977229838
 20
156.87828454388813
 30
0.0
 40
8.0
  0
CIRCLE
  5
8F
330
17
100
AcDbEntity
  8
0
100
AcDbCircle
 10
789.3449664582481
 20
170.22658994198193
 30
0.0
 40
8.0
  0
CIRCLE
  5
90
330
17
100
AcDbEntity
  8
0
100
AcDbCircle
 10
39.383821282544254
 20
402.2807056366827
 30
0.0
 40
8.0
  0
CIRCLE
  5
91
330
17
100
AcDbEntity
  8
0
100
AcDbCircle
 10
16.368296901861232
 20
521.6221313885363
 30
0.0
 40
8.0
  0
CIRCLE
  5
92
330
17
100
AcDbEntity
  8
0
100
AcDbCircle
 10
516.4997183415185
 20
657.8576984591186
 30
0.0
 40
8.0
  0
CIRCLE
  5
93
330
17
100
AcDbEntity
  8
0
100
AcDbCircle
 10
423.801931477385
 20
975.6351938334143
 30
0.0
 40
8.0
  0
CIRCLE
  5
94
330
17
100
AcDbEntity
  8
0
100
AcDbCircle
 10
18.016193564029063
 20
33.262937418597055
 30
0.0
 40
8.0
  0
CIRCLE
  5
95
330
17
100
AcDbEntity
  8
0
100
AcDbCircle
 10
389.94031123437185
 20
740.0192791310202
 30
0.0
 40
8.0
  0
CIRCLE
  5
96
330
17
100
AcDbEntity
  8
0
100
AcDbCircle
 10
787.4153538164857
 20
401.4029510533399
 30
0.0
 40
8.0
  0
CIRCLE
  5
97
330
17
100
AcDbEntity
  8
0
100
AcDbCircle
 10
16.209994300994794
 20
405.4686836916809
 30
0.0
 40
8.0
  0
CIRCLE
  5
98
330
17
100
AcDbEntity
  8
0
100
AcDbCircle
 10
185.13345278141588
 20
883.3271553922738
 30
0.0
 40
8.0
  0
CIRCLE
  5
99
330
17
100
AcDbEntity
  8
0
100
AcDbCircle
 10
204.39990681806665
 20
129.41056658543124
 30
0.0
 40
8.0
  0
CIRCLE
  5
9A
330
17
100
AcDbEntity
  8
0
100
AcDbCircle
 10
966.8704901328663
 20
530.6326789903459
 30
0.0
 40
8.0
  0
CIRCLE
  5
9B
330
17
100
AcDbEntity
  8
0
100
AcDbCircle
 10
319.29580514751876
 20
633.7947279022069
 30
0.0
 40
8.0
  0
CIRCLE
  5
9C
330
17
100
AcDbEntity
  8
0
100
AcDbCircle
 10
535.7821033799964
 20
664.6434532503241
 30
0.0
 40
8.0
  0
CIRCLE
  5
9D
330
17
100
AcDbEntity
  8
0
100
AcDbCircle
 10
169.59610939710635
 20
861.6368330824221
 30
0.0
 40
8.0
  0
CIRCLE
  5
9E
330
17
100
AcDbEntity
  8
0
100
AcDbCircle
 10
372.1503458598147
 20
439.9811729973325
 30
0.0
 40
8.0
  0
CIRCLE
  5
9F
330
17
100
AcDbEntity
  8
0
100
AcDbCircle
 10
509.1004541244077
 20
394.6376412495877
 30
0.0
 40
8.0
  0
CIRCLE
  5
A0
330
17
100
AcDbEntity
  8
0
100
AcDbCircle
 10
558.105505619754
 20
64.81222280716112
 30
0.0
 40
8.0
  0
CIRCLE
  5
A1
330
17
100
AcDbEntity
  8
0
100
AcDbCircle
 10
154.34032034693752
 20
62.66097810112339
 30
0.0
 40
8.0
  0
CIRCLE
  5
A2
330
17
100
AcDbEntity
  8
0
100
AcDbCircle
 10
947.3798540824359
 20
588.013268756877
 30
0.0
 40
8.0
  0
CIRCLE
  5
A3
330
17
100
AcDbEntity
  8
0
100
AcDbCircle
 10
975.8048993412957
 20
381.2180497242374
 30
0.0
 40
8.0
  0
CIRCLE
  5
A4
330
17
100
AcDbEntity
  8
0
100
AcDbCircle
 10
174.46941424826093
 20
479.3765025237819
 30
0.0
 40
8.0
  0
CIRCLE
  5
A5
330
17
100
AcDbEntity
  8
0
100
AcDbCircle
 10
568.7403201589905
 20
866.822392237082
 30
0.0
 40
8.0
  0
CIRCLE
  5
A6
330
17
100
AcDbEntity
  8
0
100
AcDbCircle
 10
295.202792789284
 20
828.4894420071224
 30
0.0
 40
8.0
  0
CIRCLE
  5
A7
330
17
100
AcDbEntity
  8
0
100
AcDbCircle
 10
559.250953676326
 20
22.940434677360525
 30
0.0
 40
8.0
  0
CIRCLE
  5
A8
330
17
100
AcDbEntity
  8
0
100
AcDbCircle
 10
304.01778744503355
 20
595.3241106736866
 30
0.0
 40
8.0
  0
CIRCLE
  5
A9
330
17
100
AcDbEntity
  8
0
100
AcDbCircle
 10
229.26351660118362
 20
498.978094483242
 30
0.0
 40
8.0
  0
CIRCLE
  5
AA
330
17
100
AcDbEntity
  8
0
100
AcDbCircle
 10
393.1326764390014
 20
359.20313725636066
 30
0.0
 40
8.0
  0
CIRCLE
  5
AB
330
17
100
AcDbEntity
  8
0
100
AcDbCircle
 10
839.9892364025173
 20
19.715711914879456
 30
0.0
 40
8.0
  0
CIRCLE
  5
AC
330
17
100
AcDbEntity
  8
0
100
AcDbCircle
 10
393.729322683629
 20
287.51689682501967
 30
0.0
 40
8.0
  0
CIRCLE
  5
AD
330
17
100
AcDbEntity
  8
0
100
AcDbCircle
 10
708.237557315588
 20
958.7827843630973
 30
0.0
 40
8.0
  0
CIRCLE
  5
AE
330
17
100
AcDbEntity
  8
0
100
AcDbCircle
 10
254.0088476058751
 20
804.9027707872307
 30
0.0
 40
8.0
  0
CIRCLE
  5
AF
330
17
100
AcDbEntity
  8
0
100
AcDbCircle
 10
524.6455928953426
 20
221.78652488436796
 30
0.0
 40
8.0
  0
CIRCLE
  5
B0
330
17
100
AcDbEntity
  8
0
100
AcDbCircle
 10
981.5462069390138
 20
618.4854150914858
 30
0.0
 40
8.0
  0
CIRCLE
  5
B1
330
17
100
AcDbEntity
  8
0
100
AcDbCircle
 10
612.7350418118393
 20
21.880501985484848
 30
0.0
 40
8.0
  0
CIRCLE
  5
B2
330
17
100
AcDbEntity
  8
0
100
AcDbCircle
 10
178.29388128937342
 20
352.9341410007649
 30
0.0
 40
8.0
  0
CIRCLE
  5
B3
330
17
100
AcDbEntity
  8
0
100
AcDbCircle
 10
982.919692544553
 20
477.2524392670309
 30
0.0
 40
8.0
  0
CIRCLE
  5
B4
330
17
100
AcDbEntity
  8
0
100
AcDbCircle
 10
35.58893106464534
 20
458.4556851128112
 30
0.0
 40
8.0
  0
CIRCLE
  5
B5
330
17
100
AcDbEntity
  8
0
100
AcDbCircle
 10
133.57360644008963
 20
486.9390057029617
 30
0.0
 40
8.0
  0
CIRCLE
  5
B6
330
17
100
AcDbEntity
  8
0
100
AcDbCircle
 10
844.6941090813243
 20
163.9698616751053
 30
0.0
 40
8.0
  0
CIRCLE
  5
B7
330
17
100
AcDbEntity
  8
0
100
AcDbCircle
 10
725.6918942941708
 20
481.5891904199338
 30
0.0
 40
8.0
  0
CIRCLE
  5
B8
330
17
100
AcDbEntity
  8
0
100
AcDbCircle
 10
615.5308426935878
 20
333.5369053327859
 30
0.0
 40
8.0
  0
CIRCLE
  5
B9
330
17
100
AcDbEntity
  8
0
100
AcDbCircle
 10
775.8595803927258
 20
496.03621868997027
 30
0.0
 40
8.0
  0
CIRCLE
  5
BA
330
17
100
AcDbEntity
  8
0
100
AcDbCircle
 10
234.52948986205323
 20
351.1876656558919
 30
0.0
 40
8.0
  0
CIRCLE
  5
BB
330
17
100
AcDbEntity
  8
0
100
AcDbCircle
 10
672.6780249265607
 20
271.9428896155178
 30
0.0
 40
8.0
  0
CIRCLE
  5
BC
330
17
100
AcDbEntity
  8
0
100
AcDbCircle
 10
815.2050324023963
 20
36.001633356051045
 30
0.0
 40
8.0
  0
CIRCLE
  5
BD
330
17
100
AcDbEntity
  8
0
100
AcDbCircle
 10
265.47953021861815
 20
507.9107002133136
 30
0.0
 40
8.0
  0
CIRCLE
  5
BE
330
17
100
AcDbEntity
  8
0
100
AcDbCircle
 10
445.35662681368797
 20
704.4394861164626
 30
0.0
 40
8.0
  0
CIRCLE
  5
BF
330
17
100
AcDbEntity
  8
0
100
AcDbCircle
 10
224.8120908820494
 20
441.27905560278975
 30
0.0
 40
8.0
  0
CIRCLE
  5
C0
330
17
100
AcDbEntity
  8
0
100
AcDbCircle
 10
387.47357287205057
 20
981.2220177498704
 30
0.0
 40
8.0
  0
CIRCLE
  5
C1
330
17
100
AcDbEntity
  8
0
100
AcDbCircle
 10
793.0896115380781
 20
924.6462308321085
 30
0.0
 40
8.0
  0
CIRCLE
  5
C2
330
17
100
AcDbEntity
  8
0
100
AcDbCircle
 10
886.9274807636584
 20
255.03968886255993
 30
0.0
 40
8.0
  0
CIRCLE
  5
C3
330
17
100
AcDbEntity
  8
0
100
AcDbCircle
 10
812.9963882530161
 20
574.6697803455219
 30
0.0
 40
8.0
  0
CIRCLE
  5
C4
330
17
100
AcDbEntity
  8
0
100
AcDbCircle
 10
31.306190510633108
 20
122.68378363371623
 30
0.0
 40
8.0
  0
CIRCLE
  5
C5
330
17
100
AcDbEntity
  8
0
100
AcDbCircle
 10
22.577617312966744
 20
592.5497083462733
 30
0.0
 40
8.0
  0
CIRCLE
  5
C6
330
17
100
AcDbEntity
  8
0
100
AcDbCircle
 10
955.8679833995304
 20
386.66024802267054
 30
0.0
 40
8.0
  0
CIRCLE
  5
C7
330
17
100
AcDbEntity
  8
0
100
AcDbCircle
 10
872.7552216379919
 20
197.3462427420701
 30
0.0
 40
8.0
  0
CIRCLE
  5
C8
330
17
100
AcDbEntity
  8
0
100
AcDbCircle
 10
368.2879489085564
 20
749.2070304872622
 30
0.0
 40
8.0
  0
CIRCLE
  5
C9
330
17
100
AcDbEntity
  8
0
100
AcDbCircle
 10
259.99214455919446
 20
582.9825252776694
 30
0.0
 40
8.0
  0
CIRCLE
  5
CA
330
17
100
AcDbEntity
  8
0
100
AcDbCircle
 10
476.94337530966203
 20
761.5120349006644
 30
0.0
 40
8.0
  0
CIRCLE
  5
CB
330
17
100
AcDbEntity
  8
0
100
AcDbCircle
 10
889.2289432107051
 20
932.7856206701738
 30
0.0
 40
8.0
  0
CIRCLE
  5
CC
330
17
100
AcDbEntity
  8
0
100
AcDbCircle
 10
630.1658033791451
 20
748.9026909568227
 30
0.0
 40
8.0
  0
CIRCLE
  5
CD
330
17
100
AcDbEntity
  8
0
100
AcDbCircle
 10
553.5355218819019
 20
228.64904463922073
 30
0.0
 40
8.0
  0
CIRCLE
  5
CE
330
17
100
AcDbEntity
  8
0
100
AcDbCircle
 10
28.20733795708109
 20
255.75253201407105
 30
0.0
 40
8.0
  0
CIRCLE
  5
CF
330
17
100
AcDbEntity
  8
0
100
AcDbCircle
 10
277.3838367825908
 20
133.8773314560498
 30
0.0
 40
8.0
  0
CIRCLE
  5
D0
330
17
100
AcDbEntity
  8
0
100
AcDbCircle
 10
688.0013078706219
 20
341.9337416712119
 30
0.0
 40
8.0
  0
CIRCLE
  5
D1
330
17
100
AcDbEntity
  8
0
100
AcDbCircle
 10
675.8325804417934
 20
745.1768805457898
 30
0.0
 40
8.0
  0
CIRCLE
  5
D2
330
17
100
AcDbEntity
  8
0
100
AcDbCircle
 10
634.195010737904
 20
10.489948039609716
 30
0.0
 40
8.0
  0
CIRCLE
  5
D3
330
17
100
AcDbEntity
  8
0
100
AcDbCircle
 10
388.85039837309057
 20
249.18404334125677
 30
0.0
 40
8.0
  0
CIRCLE
  5
D4
330
17
100
AcDbEntity
  8
0
100
AcDbCircle
 10
472.10916001894265
 20
459.6438803770406
 30
0.0
 40
8.0
  0
CIRCLE
  5
D5
330
17
100
AcDbEntity
  8
0
100
AcDbCircle
 10
892.7781097498904
 20
638.6835747606904
 30
0.0
 40
8.0
  0
CIRCLE
  5
D6
330
17
100
AcDbEntity
  8
0
100
AcDbCircle
 10
216.75781078714562
 20
481.9084266254088
 30
0.0
 40
8.0
  0
CIRCLE
  5
D7
330
17
100
AcDbEntity
  8
0
100
AcDbCircle
 10
272.78014124933276
 20
552.2528743233065
 30
0.0
 40
8.0
  0
CIRCLE
  5
D8
330
17
100
AcDbEntity
  8
0
100
AcDbCircle
 10
903.5702033556189
 20
10.34530156950031
 30
0.0
 40
8.0
  0
CIRCLE
  5
D9
330
17
100
AcDbEntity
  8
0
100
AcDbCircle
 10
121.98911649489504
 20
669.0947584550967
 30
0.0
 40
8.0
  0
CIRCLE
  5
DA
330
17
100
AcDbEntity
  8
0
100
AcDbCircle
 10
606.6366372222878
 20
578.9976350961457
 30
0.0
 40
8.0
  0
CIRCLE
  5
DB
330
17
100
AcDbEntity
  8
0
100
AcDbCircle
 10
8.894721899131053
 20
890.6175739270824
 30
0.0
 40
8.0
  0
CIRCLE
  5
DC
330
17
100
AcDbEntity
  8
0
100
AcDbCircle
 10
392.71049962458994
 20
871.0575085502581
 30
0.0
 40
8.0
  0
CIRCLE
  5
DD
330
17
100
AcDbEntity
  8
0
100
AcDbCircle
 10
638.4159291599759
 20
131.13775343964596
 30
0.0
 40
8.0
  0
CIRCLE
  5
DE
330
17
100
AcDbEntity
  8
0
100
AcDbCircle
 10
502.39351186712025
 20
347.10475724182436
 30
0.0
 40
8.0
  0
CIRCLE
  5
DF
330
17
100
AcDbEntity
  8
0
100
AcDbCircle
 10
761.1705955469979
 20
960.3569040372649
 30
0.0
 40
8.0
  0
CIRCLE
  5
E0
330
17
100
AcDbEntity
  8
0
100
AcDbCircle
 10
805.7695281183787
 20
755.2119722942817
 30
0.0
 40
8.0
  0
CIRCLE
  5
E1
330
17
100
AcDbEntity
  8
0
100
AcDbCircle
 10
115.18864069407734
 20
989.618082715151
 30
0.0
 40
8.0
  0
CIRCLE
  5
E2
330
17
100
AcDbEntity
  8
0
100
AcDbCircle
 10
499.226646454829
 20
612.8673927143413
 30
0.0
 40
8.0
  0
CIRCLE
  5
E3
330
17
100
AcDbEntity
  8
0
100
AcDbCircle
 10
97.27700146708078
 20
8.204919715417766
 30
0.0
 40
8.0
  0
CIRCLE
  5
E4
330
17
100
AcDbEntity
  8
0
100
AcDbCircle
 10
38.11441839296147
 20
659.9032021365413
 30
0.0
 40
8.0
  0
CIRCLE
  5
E5
330
17
100
AcDbEntity
  8
0
100
AcDbCircle
 10
798.5067333687483
 20
135.32328340997861
 30
0.0
 40
8.0
  0
CIRCLE
  5
E6
330
17
100
AcDbEntity
  8
0
100
AcDbCircle
 10
741.8989290421828
 20
976.7410678262127
 30
0.0
 40
8.0
  0
CIRCLE
  5
E7
330
17
100
AcDbEntity
  8
0
100
AcDbCircle
 10
600.60805255583
 20
983.6037361541754
 30
0.0
 40
8.0
  0
CIRCLE
  5
E8
330
17
100
AcDbEntity
  8
0
100
AcDbCircle
 10
72.46757088922176
 20
269.6798914538061
 30
0.0
 40
8.0
  0
CIRCLE
  5
E9
330
17
100
AcDbEntity
  8
0
100
AcDbCircle
 10
285.73184971820547
 20
234.35503364094987
 30
0.0
 40
8.0
  0
CIRCLE
  5
EA
330
17
100
AcDbEntity
  8
0
100
AcDbCircle
 10
593.447594839404
 20
340.2792162199554
 30
0.0
 40
8.0
  0
CIRCLE
  5
EB
330
17
100
AcDbEntity
  8
0
100
AcDbCircle
 10
330.47680566348066
 20
789.5442599153721
 30
0.0
 40
8.0
  0
CIRCLE
  5
EC
330
17
100
AcDbEntity
  8
0
100
AcDbCircle
 10
182.24762045589293
 20
922.6818321494586
 30
0.0
 40
8.0
  0
CIRCLE
  5
ED
330
17
100
AcDbEntity
  8
0
100
AcDbCircle
 10
577.6671336149259
 20
351.80715345190066
 30
0.0
 40
8.0
  0
CIRCLE
  5
EE
330
17
100
AcDbEntity
  8
0
100
AcDbCircle
 10
588.790223472212
 20
646.5329919201209
 30
0.0
 40
8.0
  0
CIRCLE
  5
EF
330
17
100
AcDbEntity
  8
0
100
AcDbCircle
 10
320.48056749454435
 20
952.6679529270665
 30
0.0
 40
8.0
  0
CIRCLE
  5
F0
330
17
100
AcDbEntity
  8
0
100
AcDbCircle
 10
845.3995762684156
 20
297.75652950054376
 30
0.0
 40
8.0
  0
CIRCLE
  5
F1
330
17
100
AcDbEntity
  8
0
100
AcDbCircle
 10
509.5171097415719
 20
565.9026610465198
 30
0.0
 40
8.0
  0
CIRCLE
  5
F2
330
17
100
AcDbEntity
  8
0
100
AcDbCircle
 10
630.6922079682679
 20
842.8099689827944
 30
0.0
 40
8.0
  0
CIRCLE
  5
F3
330
17
100
AcDbEntity
  8
0
100
AcDbCircle
 10
125.19612777664288
 20
391.97350120407935
 30
0.0
 40
8.0
  0
CIRCLE
  5
F4
330
17
100
AcDbEntity
  8
0
100
AcDbCircle
 10
327.86583860576377
 20
759.0743944854014
 30
0.0
 40
8.0
  0
CIRCLE
  5
F5
330
17
100
AcDbEntity
  8
0
100
AcDbCircle
 10
903.8461355250008
 20
799.5150231919506
 30
0.0
 40
8.0
  0
CIRCLE
  5
F6
330
17
100
AcDbEntity
  8
0
100
AcDbCircle
 10
778.1760644221656
 20
662.7625236076126
 30
0.0
 40
8.0
  0
CIRCLE
  5
F7
330
17
100
AcDbEntity
  8
0
100
AcDbCircle
 10
976.7093508494845
 20
157.27791782149208
 30
0.0
 40
8.0
  0
CIRCLE
  5
F8
330
17
100
AcDbEntity
  8
0
100
AcDbCircle
 10
150.89019558489312
 20
131.5889264150189
 30
0.0
 40
8.0
  0
CIRCLE
  5
F9
330
17
100
AcDbEntity
  8
0
100
AcDbCircle
 10
54.4471509705258
 20
263.5547048954261
 30
0.0
 40
8.0
  0
CIRCLE
  5
FA
330
17
100
AcDbEntity
  8
0
100
AcDbCircle
 10
419.35094974161086
 20
507.06642343072707
 30
0.0
 40
8.0
  0
CIRCLE
  5
FB
330
17
100
AcDbEntity
  8
0
100
AcDbCircle
 10
422.3657260695504
 20
753.6469239192456
 30
0.0
 40
8.0
  0
CIRCLE
  5
FC
330
17
100
AcDbEntity
  8
0
100
AcDbCircle
 10
261.2582473390326
 20
416.72140793009476
 30
0.0
 40
8.0
  0
CIRCLE
  5
FD
330
17
100
AcDbEntity
  8
0
100
AcDbCircle
 10
697.8887844416362
 20
923.7003327815606
 30
0.0
 40
8.0
  0
CIRCLE
  5
FE
330
17
100
AcDbEntity
  8
0
100
AcDbCircle
 10
976.9557016091884
 20
984.3660896536763
 30
0.0
 40
8.0
  0
CIRCLE
  5
FF
330
17
100
AcDbEntity
  8
0
100
AcDbCircle
 10
69.42329917740493
 20
45.27548892018039
 30
0.0
 40
8.0
  0
CIRCLE
  5
100
330
17
100
AcDbEntity
  8
0
100
AcDbCircle
 10
98.73834250639554
 20
33.00232760320527
 30
0.0
 40
8.0
  0
CIRCLE
  5
101
330
17
100
AcDbEntity
  8
0
100
AcDbCircle
 10
695.4999000617372
 20
23.05688015549508
 30
0.0
 40
8.0
  0
CIRCLE
  5
102
330
17
100
AcDbEntity
  8
0
100
AcDbCircle
 10
987.0419276392382
 20
502.29686400020444
 30
0.0
 40
8.0
  0
CIRCLE
  5
103
330
17
100
AcDbEntity
  8
0
100
AcDbCircle
 10
59.87412413915702
 20
942.4665596045448
 30
0.0
 40
8.0
  0
CIRCLE
  5
104
330
17
100
AcDbEntity
  8
0
100
AcDbCircle
 10
391.1213371811895
 20
502.0168779599938
 30
0.0
 40
8.0
  0
CIRCLE
  5
105
330
17
100
AcDbEntity
  8
0
100
AcDbCircle
 10
352.1324936780161
 20
491.3400468300187
 30
0.0
 40
8.0
  0
CIRCLE
  5
106
330
17
100
AcDbEntity
  8
0
100
AcDbCircle
 10
20.81118743089031
 20
745.2346231650513
 30
0.0
 40
8.0
  0
CIRCLE
  5
107
330
17
100
AcDbEntity
  8
0
100
AcDbCircle
 10
149.278596702951
 20
109.2408649359619
 30
0.0
 40
8.0
  0
CIRCLE
  5
108
330
17
100
AcDbEntity
  8
0
100
AcDbCircle
 10
192.9093241873978
 20
899.1848354282928
 30
0.0
 40
8.0
  0
CIRCLE
  5
109
330
17
100
AcDbEntity
  8
0
100
AcDbCircle
 10
797.5539262379757
 20
328.035417505557
 30
0.0
 40
8.0
  0
CIRCLE
  5
10A
330
17
100
AcDbEntity
  8
0
100
AcDbCircle
 10
158.75286222962643
 20
832.3337852649792
 30
0.0
 40
8.0
  0
CIRCLE
  5
10B
330
17
100
AcDbEntity
  8
0
100
AcDbCircle
 10
540.389873237936
 20
500.1133588251602
 30
0.0
 40
8.0
  0
CIRCLE
  5
10C
330
17
100
AcDbEntity
  8
0
100
AcDbCircle
 10
555.8144252382302
 20
850.2324666409611
 30
0.0
 40
8.0
  0
CIRCLE
  5
10D
330
17
100
AcDbEntity
  8
0
100
AcDbCircle
 10
355.6729589958662
 20
449.0836975162779
 30
0.0
 40
8.0
  0
CIRCLE
  5
10E
330
17
100
AcDbEntity
  8
0
100
AcDbCircle
 10
930.2116864967171
 20
591.201763204178
 30
0.0
 40
8.0
  0
CIRCLE
  5
10F
330
17
100
AcDbEntity
  8
0
100
AcDbCircle
 10
9.249548007338246
 20
259.97853416984714
 30
0.0
 40
8.0
  0
CIRCLE
  5
110
330
17
100
AcDbEntity
  8
0
100
AcDbCircle
 10
456.95371322276526
 20
482.62576882516754
 30
0.0
 40
8.0
  0
CIRCLE
  5
111
330
17
100
AcDbEntity
  8
0
100
AcDbCircle
 10
954.2710354064994
 20
549.6242340708686
 30
0.0
 40
8.0
  0
CIRCLE
  5
112
330
17
100
AcDbEntity
  8
0
100
AcDbCircle
 10
785.9126028806622
 20
704.3164130652234
 30
0.0
 40
8.0
  0
CIRCLE
  5
113
330
17
100
AcDbEntity
  8
0
100
AcDbCircle
 10
957.2795602373438
 20
877.6411863135053
 30
0.0
 40
8.0
  0
CIRCLE
  5
114
330
17
100
AcDbEntity
  8
0
100
AcDbCircle
 10
438.5300348827346
 20
738.0904574392918
 30
0.0
 40
8.0
  0
CIRCLE
  5
115
330
17
100
AcDbEntity
  8
0
100
AcDbCircle
 10
894.4013269216338
 20
991.9837811903129
 30
0.0
 40
8.0
  0
CIRCLE
  5
116
330
17
100
AcDbEntity
  8
0
100
AcDbCircle
 10
134.6768082086228
 20
974.9262281141785
 30
0.0
 40
8.0
  0
CIRCLE
  5
117
330
17
100
AcDbEntity
  8
0
100
AcDbCircle
 10
113.98737655933829
 20
566.9735627305752
 30
0.0
 40
8.0
  0
CIRCLE
  5
118
330
17
100
AcDbEntity
  8
0
100
AcDbCircle
 10
931.0169043454172
 20
379.5801158390613
 30
0.0
 40
8.0
  0
CIRCLE
  5
119
330
17
100
AcDbEntity
  8
0
100
AcDbCircle
 10
965.8336488219759
 20
605.3864832177944
 30
0.0
 40
8.0
  0
CIRCLE
  5
11A
330
17
100
AcDbEntity
  8
0
100
AcDbCircle
 10
399.263099282033
 20
447.82306201950627
 30
0.0
 40
8.0
  0
CIRCLE
  5
11B
330
17
100
AcDbEntity
  8
0
100
AcDbCircle
 10
124.43880563698578
 20
743.1780728218926
 30
0.0
 40
8.0
  0
CIRCLE
  5
11C
330
17
100
AcDbEntity
  8
0
100
AcDbCircle
 10
614.6154433950766
 20
823.9178225679386
 30
0.0
 40
8.0
  0
CIRCLE
  5
11D
330
17
100
AcDbEntity
  8
0
100
AcDbCircle
 10
270.97841373510465
 20
107.75960916445712
 30
0.0
 40
8.0
  0
CIRCLE
  5
11E
330
17
100
AcDbEntity
  8
0
100
AcDbCircle
 10
963.4699055983747
 20
133.44041218569132
 30
0.0
 40
8.0
  0
CIRCLE
  5
11F
330
17
100
AcDbEntity
  8
0
100
AcDbCircle
 10
874.5039089029378
 20
31.431535203627543
 30
0.0
 40
8.0
  0
CIRCLE
  5
120
330
17
100
AcDbEntity
  8
0
100
AcDbCircle
 10
811.1721066875875
 20
453.1664932338373
 30
0.0
 40
8.0
  0
CIRCLE
  5
121
330
17
100
AcDbEntity
  8
0
100
AcDbCircle
 10
390.70845971831716
 20
342.71212959931796
 30
0.0
 40
8.0
  0
CIRCLE
  5
122
330
17
100
AcDbEntity
  8
0
100
AcDbCircle
 10
211.23531427362235
 20
195.7485858801493
 30
0.0
 40
8.0
  0
CIRCLE
  5
123
330
17
100
AcDbEntity
  8
0
100
AcDbCircle
 10
244.44391106487876
 20
692.6491438720732
 30
0.0
 40
8.0
  0
CIRCLE
  5
124
330
17
100
AcDbEntity
  8
0
100
AcDbCircle
 10
320.48623282801475
 20
163.7486422537573
 30
0.0
 40
8.0
  0
CIRCLE
  5
125
330
17
100
AcDbEntity
  8
0
100
AcDbCircle
 10
980.0241827643879
 20
916.8673485995726
 30
0.0
 40
8.0
  0
CIRCLE
  5
126
330
17
100
AcDbEntity
  8
0
100
AcDbCircle
 10
63.19334361354573
 20
747.5278944010515
 30
0.0
 40
8.0
  0
CIRCLE
  5
127
330
17
100
AcDbEntity
  8
0
100
AcDbCircle
 10
701.6310285258205
 20
626.2535798813607
 30
0.0
 40
8.0
  0
CIRCLE
  5
128
330
17
100
AcDbEntity
  8
0
100
AcDbCircle
 10
24.880410550069286
 20
489.39559567425687
 30
0.0
 40
8.0
  0
CIRCLE
  5
129
330
17
100
AcDbEntity
  8
0
100
AcDbCircle
 10
572.0566586544029
 20
660.8274878776973
 30
0.0
 40
8.0
  0
CIRCLE
  5
12A
330
17
100
AcDbEntity
  8
0
100
AcDbCircle
 10
732.2309448233373
 20
919.072796317946
 30
0.0
 40
8.0
  0
CIRCLE
  5
12B
330
17
100
AcDbEntity
  8
0
100
AcDbCircle
 10
832.4088041767822
 20
529.315236899928
 30
0.0
 40
8.0
  0
CIRCLE
  5
12C
330
17
100
AcDbEntity
  8
0
100
AcDbCircle
 10
299.6590610165935
 20
903.9826499017579
 30
0.0
 40
8.0
  0
CIRCLE
  5
12D
330
17
100
AcDbEntity
  8
0
100
AcDbCircle
 10
762.0974963000594
 20
803.8397735440841
 30
0.0
 40
8.0
  0
CIRCLE
  5
12E
330
17
100
AcDbEntity
  8
0
100
AcDbCircle
 10
630.1069813903683
 20
965.8859874910748
 30
0.0
 40
8.0
  0
CIRCLE
  5
12F
330
17
100
AcDbEntity
  8
0
100
AcDbCircle
 10
151.3431482254235
 20
486.2488509876932
 30
0.0
 40
8.0
  0
CIRCLE
  5
130
330
17
100
AcDbEntity
  8
0
100
AcDbCircle
 10
500.56464678297425
 20
726.18812395697
 30
0.0
 40
8.0
  0
CIRCLE
  5
131
330
17
100
AcDbEntity
  8
0
100
AcDbCircle
 10
653.8949950218649
 20
720.4843696896014
 30
0.0
 40
8.0
  0
CIRCLE
  5
132
330
17
100
AcDbEntity
  8
0
100
AcDbCircle
 10
802.2864874789586
 20
484.58963641843053
 30
0.0
 40
8.0
  0
CIRCLE
  5
133
330
17
100
AcDbEntity
  8
0
100
AcDbCircle
 10
991.3968345657422
 20
872.2585318250209
 30
0.0
 40
8.0
  0
CIRCLE
  5
134
330
17
100
AcDbEntity
  8
0
100
AcDbCircle
 10
983.7018135424771
 20
362.62984630431623
 30
0.0
 40
8.0
  0
CIRCLE
  5
135
330
17
100
AcDbEntity
  8
0
100
AcDbCircle
 10
923.1222406393913
 20
936.6688198144686
 30
0.0
 40
8.0
  0
CIRCLE
  5
136
330
17
100
AcDbEntity
  8
0
100
AcDbCircle
 10
781.8938290436912
 20
613.1684875522468
 30
0.0
 40
8.0
  0
CIRCLE
  5
137
330
17
100
AcDbEntity
  8
0
100
AcDbCircle
 10
750.0569222055871
 20
937.2334585960566
 30
0.0
 40
8.0
  0
CIRCLE
  5
138
330
17
100
AcDbEntity
  8
0
100
AcDbCircle
 10
412.5732610319778
 20
461.3954022326482
 30
0.0
 40
8.0
  0
CIRCLE
  5
139
330
17
100
AcDbEntity
  8
0
100
AcDbCircle
 10
593.4059076963366
 20
376.664742645422
 30
0.0
 40
8.0
  0
CIRCLE
  5
13A
330
17
100
AcDbEntity
  8
0
100
AcDbCircle
 10
243.5058787520467
 20
461.6887729351712
 30
0.0
 40
8.0
  0
CIRCLE
  5
13B
330
17
100
AcDbEntity
  8
0
100
AcDbCircle
 10
849.521111491883
 20
438.4829558661064
 30
0.0
 40
8.0
  0
CIRCLE
  5
13C
330
17
100
AcDbEntity
  8
0
100
AcDbCircle
 10
264.3335414061421
 20
684.8562075351631
 30
0.0
 40
8.0
  0
CIRCLE
  5
13D
330
17
100
AcDbEntity
  8
0
100
AcDbCircle
 10
402.79153856589465
 20
232.91595093391095
 30
0.0
 40
8.0
  0
CIRCLE
  5
13E
330
17
100
AcDbEntity
  8
0
100
AcDbCircle
 10
411.25745538540997
 20
708.1865337671115
 30
0.0
 40
8.0
  0
CIRCLE
  5
13F
330
17
100
AcDbEntity
  8
0
100
AcDbCircle
 10
833.2891097313629
 20
613.3817174293168
 30
0.0
 40
8.0
  0
CIRCLE
  5
140
330
17
100
AcDbEntity
  8
0
100
AcDbCircle
 10
610.0468255219974
 20
695.4049156146075
 30
0.0
 40
8.0
  0
CIRCLE
  5
141
330
17
100
AcDbEntity
  8
0
100
AcDbCircle
 10
812.5724889573489
 20
301.13217867572456
 30
0.0
 40
8.0
  0
CIRCLE
  5
142
330
17
100
AcDbEntity
  8
0
100
AcDbCircle
 10
443.0114863643862
 20
585.4351770592979
 30
0.0
 40
8.0
  0
CIRCLE
  5
143
330
17
100
AcDbEntity
  8
0
100
AcDbCircle
 10
15.870810100129079
 20
360.47041467409514
 30
0.0
 40
8.0
  0
CIRCLE
  5
144
330
17
100
AcDbEntity
  8
0
100
AcDbCircle
 10
501.85569192659716
 20
160.7434327011747
 30
0.0
 40
8.0
  0
CIRCLE
  5
145
330
17
100
AcDbEntity
  8
0
100
AcDbCircle
 10
462.954672832811
 20
639.0965301917224
 30
0.0
 40
8.0
  0
CIRCLE
  5
146
330
17
100
AcDbEntity
  8
0
100
AcDbCircle
 10
783.1688199297855
 20
273.3576011049609
 30
0.0
 40
8.0
  0
CIRCLE
  5
147
330
17
100
AcDbEntity
  8
0
100
AcDbCircle
 10
865.9622628205115
 20
10.708086573721344
 30
0.0
 40
8.0
  0
CIRCLE
  5
148
330
17
100
AcDbEntity
  8
0
100
AcDbCircle
 10
656.1415539556776
 20
136.74984643065824
 30
0.0
 40
8.0
  0
CIRCLE
  5
149
330
17
100
AcDbEntity
  8
0
100
AcDbCircle
 10
43.50584957200138
 20
730.6051779382967
 30
0.0
 40
8.0
  0
CIRCLE
  5
14A
330
17
100
AcDbEntity
  8
0
100
AcDbCircle
 10
342.73586857148456
 20
169.89180689358125
 30
0.0
 40
8.0
  0
CIRCLE
  5
14B
330
17
100
AcDbEntity
  8
0
100
AcDbCircle
 10
607.691328402038
 20
749.7872369437033
 30
0.0
 40
8.0
  0
CIRCLE
  5
14C
330
17
100
AcDbEntity
  8
0
100
AcDbCircle
 10
987.0760468003859
 20
304.80734087015605
 30
0.0
 40
8.0
  0
CIRCLE
  5
14D
330
17
100
AcDbEntity
  8
0
100
AcDbCircle
 10
429.225992010024
 20
479.049011229224
 30
0.0
 40
8.0
  0
CIRCLE
  5
14E
330
17
100
AcDbEntity
  8
0
100
AcDbCircle
 10
478.12570669202086
 20
346.7453118280997
 30
0.0
 40
8.0
  0
CIRCLE
  5
14F
330
17
100
AcDbEntity
  8
0
100
AcDbCircle
 10
109.91393770316938
 20
842.3497550155032
 30
0.0
 40
8.0
  0
CIRCLE
  5
150
330
17
100
AcDbEntity
  8
0
100
AcDbCircle
 10
417.61450506059356
 20
244.51249302303225
 30
0.0
 40
8.0
  0
CIRCLE
  5
151
330
17
100
AcDbEntity
  8
0
100
AcDbCircle
 10
940.7571860883438
 20
957.3947709542365
 30
0.0
 40
8.0
  0
CIRCLE
  5
152
330
17
100
AcDbEntity
  8
0
100
AcDbCircle
 10
185.75414448564467
 20
651.169541695642
 30
0.0
 40
8.0
  0
CIRCLE
  5
153
330
17
100
AcDbEntity
  8
0
100
AcDbCircle
 10
454.3805588768702
 20
609.830045014471
 30
0.0
 40
8.0
  0
CIRCLE
  5
154
330
17
100
AcDbEntity
  8
0
100
AcDbCircle
 10
12.493437433500528
 20
560.2115404371219
 30
0.0
 40
8.0
  0
CIRCLE
  5
155
330
17
100
AcDbEntity
  8
0
100
AcDbCircle
 10
425.44768543417644
 20
202.97863884072567
 30
0.0
 40
8.0
  0
CIRCLE
  5
156
330
17
100
AcDbEntity
  8
0
100
AcDbCircle
 10
990.381651269765
 20
286.36473944835245
 30
0.0
 40
8.0
  0
CIRCLE
  5
157
330
17
100
AcDbEntity
  8
0
100
AcDbCircle
 10
960.5830745130578
 20
772.3580603966758
 30
0.0
 40
8.0
  0
CIRCLE
  5
158
330
17
100
AcDbEntity
  8
0
100
AcDbCircle
 10
410.02594427877057
 20
528.8678973665731
 30
0.0
 40
8.0
  0
CIRCLE
  5
159
330
17
100
AcDbEntity
  8
0
100
AcDbCircle
 10
492.1084836448341
 20
329.87788973763423
 30
0.0
 40
8.0
  0
CIRCLE
  5
15A
330
17
100
AcDbEntity
  8
0
100
AcDbCircle
 10
694.2910606885154
 20
41.25506524427355
 30
0.0
 40
8.0
  0
CIRCLE
  5
15B
330
17
100
AcDbEntity
  8
0
100
AcDbCircle
 10
430.6296042115859
 20
567.2853882149957
 30
0.0
 40
8.0
  0
CIRCLE
  5
15C
330
17
100
AcDbEntity
  8
0
100
AcDbCircle
 10
25.19477483311613
 20
686.0172108569135
 30
0.0
 40
8.0
  0
CIRCLE
  5
15D
330
17
100
AcDbEntity
  8
0
100
AcDbCircle
 10
982.7219066093967
 20
519.9108963714532
 30
0.0
 40
8.0
  0
CIRCLE
  5
15E
330
17
100
AcDbEntity
  8
0
100
AcDbCircle
 10
498.30102789873666
 20
210.81069207504567
 30
0.0
 40
8.0
  0
CIRCLE
  5
15F
330
17
100
AcDbEntity
  8
0
100
AcDbCircle
 10
273.05268352167343
 20
395.13324260558556
 30
0.0
 40
8.0
  0
CIRCLE
  5
160
330
17
100
AcDbEntity
  8
0
100
AcDbCircle
 10
318.19778876877456
 20
910.1163773745734
 30
0.0
 40
8.0
  0
CIRCLE
  5
161
330
17
100
AcDbEntity
  8
0
100
AcDbCircle
 10
146.12739551724675
 20
384.23591439808837
 30
0.0
 40
8.0
  0
CIRCLE
  5
162
330
17
100
AcDbEntity
  8
0
100
AcDbCircle
 10
819.0922071929349
 20
472.86291072812537
 30
0.0
 40
8.0
  0
CIRCLE
  5
163
330
17
100
AcDbEntity
  8
0
100
AcDbCircle
 10
358.24846404064016
 20
577.0500127525061
 30
0.0
 40
8.0
  0
CIRCLE
  5
164
330
17
100
AcDbEntity
  8
0
100
AcDbCircle
 10
757.9529907038923
 20
979.9631397279069
 30
0.0
 40
8.0
  0
CIRCLE
  5
165
330
17
100
AcDbEntity
  8
0
100
AcDbCircle
 10
14.462329540310723
 20
760.4251515999331
 30
0.0
 40
8.0
  0
CIRCLE
  5
166
330
17
100
AcDbEntity
  8
0
100
AcDbCircle
 10
298.3517941930973
 20
704.1590261828817
 30
0.0
 40
8.0
  0
CIRCLE
  5
167
330
17
100
AcDbEntity
  8
0
100
AcDbCircle
 10
977.7583535765588
 20
205.61240165608046
 30
0.0
 40
8.0
  0
CIRCLE
  5
168
330
17
100
AcDbEntity
  8
0
100
AcDbCircle
 10
469.80024165458275
 20
13.422196132631651
 30
0.0
 40
8.0
  0
CIRCLE
  5
169
330
17
100
AcDbEntity
  8
0
100
AcDbCircle
 10
487.45874086147955
 20
360.73534709912957
 30
0.0
 40
8.0
  0
CIRCLE
  5
16A
330
17
100
AcDbEntity
  8
0
100
AcDbCircle
 10
220.4646581903277
 20
172.76200605104924
 30
0.0
 40
8.0
  0
CIRCLE
  5
16B
330
17
100
AcDbEntity
  8
0
100
AcDbCircle
 10
250.284061012161
 20
436.52200097508626
 30
0.0
 40
8.0
  0
CIRCLE
  5
16C
330
17
100
AcDbEntity
  8
0
100
AcDbCircle
 10
9.897557255403889
 20
659.2247756827217
 30
0.0
 40
8.0
  0
CIRCLE
  5
16D
330
17
100
AcDbEntity
  8
0
100
AcDbCircle
 10
722.9881057941515
 20
655.9983837951471
 30
0.0
 40
8.0
  0
CIRCLE
  5
16E
330
17
100
AcDbEntity
  8
0
100
AcDbCircle
 10
150.00772644340174
 20
768.4871826787424
 30
0.0
 40
8.0
  0
CIRCLE
  5
16F
330
17
100
AcDbEntity
  8
0
100
AcDbCircle
 10
265.157786880141
 20
89.53052271483419
 30
0.0
 40
8.0
  0
CIRCLE
  5
170
330
17
100
AcDbEntity
  8
0
100
AcDbCircle
 10
761.6323401843485
 20
264.1372566769825
 30
0.0
 40
8.0
  0
CIRCLE
  5
171
330
17
100
AcDbEntity
  8
0
100
AcDbCircle
 10
160.61412332145673
 20
883.66747406247
 30
0.0
 40
8.0
  0
CIRCLE
  5
172
330
17
100
AcDbEntity
  8
0
100
AcDbCircle
 10
873.2066354757982
 20
330.57821662018756
 30
0.0
 40
8.0
  0
CIRCLE
  5
173
330
17
100
AcDbEntity
  8
0
100
AcDbCircle
 10
742.6367078645754
 20
262.18344380788886
 30
0.0
 40
8.0
  0
CIRCLE
  5
174
330
17
100
AcDbEntity
  8
0
100
AcDbCircle
 10
508.74763895574586
 20
774.1353537040739
 30
0.0
 40
8.0
  0
CIRCLE
  5
175
330
17
100
AcDbEntity
  8
0
100
AcDbCircle
 10
389.85092177013
 20
207.83460695636023
 30
0.0
 40
8.0
  0
CIRCLE
  5
176
330
17
100
AcDbEntity
  8
0
100
AcDbCircle
 10
928.6455227520217
 20
779.6884410648839
 30
0.0
 40
8.0
  0
CIRCLE
  5
177
330
17
100
AcDbEntity
  8
0
100
AcDbCircle
 10
146.6909361492387
 20
787.801456652009
 30
0.0
 40
8.0
  0
CIRCLE
  5
178
330
17
100
AcDbEntity
  8
0
100
AcDbCircle
 10
170.84222817113982
 20
509.2810763375616
 30
0.0
 40
8.0
  0
CIRCLE
  5
179
330
17
100
AcDbEntity
  8
0
100
AcDbCircle
 10
94.05477762856778
 20
664.0644049769026
 30
0.0
 40
8.0
  0
CIRCLE
  5
17A
330
17
100
AcDbEntity
  8
0
100
AcDbCircle
 10
465.84497321640185
 20
687.1914274346857
 30
0.0
 40
8.0
  0
CIRCLE
  5
17B
330
17
100
AcDbEntity
  8
0
100
AcDbCircle
 10
890.0128866103046
 20
521.9736533872788
 30
0.0
 40
8.0
  0
CIRCLE
  5
17C
330
17
100
AcDbEntity
  8
0
100
AcDbCircle
 10
880.0754919105067
 20
469.44646588883273
 30
0.0
 40
8.0
  0
CIRCLE
  5
17D
330
17
100
AcDbEntity
  8
0
100
AcDbCircle
 10
285.12278618606234
 20
383.5184326504999
 30
0.0
 40
8.0
  0
CIRCLE
  5
17E
330
17
100
AcDbEntity
  8
0
100
AcDbCircle
 10
493.5147256182838
 20
591.5212340666445
 30
0.0
 40
8.0
  0
CIRCLE
  5
17F
330
17
100
AcDbEntity
  8
0
100
AcDbCircle
 10
823.6840611246874
 20
175.41911683713104
 30
0.0
 40
8.0
  0
CIRCLE
  5
180
330
17
100
AcDbEntity
  8
0
100
AcDbCircle
 10
793.1131943811408
 20
95.17478557096769
 30
0.0
 40
8.0
  0
CIRCLE
  5
181
330
17
100
AcDbEntity
  8
0
100
AcDbCircle
 10
944.6886892314084
 20
536.5095143855108
 30
0.0
 40
8.0
  0
CIRCLE
  5
182
330
17
100
AcDbEntity
  8
0
100
AcDbCircle
 10
17.968826048941178
 20
10.404528220259792
 30
0.0
 40
8.0
  0
CIRCLE
  5
183
330
17
100
AcDbEntity
  8
0
100
AcDbCircle
 10
574.8300683262186
 20
386.5378076042339
 30
0.0
 40
8.0
  0
CIRCLE
  5
184
330
17
100
AcDbEntity
  8
0
100
AcDbCircle
 10
17.663263552676554
 20
939.4465672676329
 30
0.0
 40
8.0
  0
CIRCLE
  5
185
330
17
100
AcDbEntity
  8
0
100
AcDbCircle
 10
418.8455475141451
 20
219.99567016458033
 30
0.0
 40
8.0
  0
CIRCLE
  5
186
330
17
100
AcDbEntity
  8
0
100
AcDbCircle
 10
337.2242700160938
 20
888.4428492294707
 30
0.0
 40
8.0
  0
CIRCLE
  5
187
330
17
100
AcDbEntity
  8
0
100
AcDbCircle
 10
732.667972869032
 20
634.0817143748407
 30
0.0
 40
8.0
  0
CIRCLE
  5
188
330
17
100
AcDbEntity
  8
0
100
AcDbCircle
 10
662.1699346280155
 20
296.65258071697946
 30
0.0
 40
8.0
  0
CIRCLE
  5
189
330
17
100
AcDbEntity
  8
0
100
AcDbCircle
 10
802.4075591886292
 20
627.6707709976249
 30
0.0
 40
8.0
  0
CIRCLE
  5
18A
330
17
100
AcDbEntity
  8
0
100
AcDbCircle
 10
140.8349175121963
 20
361.7240092906785
 30
0.0
 40
8.0
  0
CIRCLE
  5
18B
330
17
100
AcDbEntity
  8
0
100
AcDbCircle
 10
137.34489380592925
 20
40.22763513803307
 30
0.0
 40
8.0
  0
CIRCLE
  5
18C
330
17
100
AcDbEntity
  8
0
100
AcDbCircle
 10
317.2220833285896
 20
814.4841986740591
 30
0.0
 40
8.0
  0
CIRCLE
  5
18D
330
17
100
AcDbEntity
  8
0
100
AcDbCircle
 10
805.9127340519608
 20
284.9484051409429
 30
0.0
 40
8.0
  0
CIRCLE
  5
18E
330
17
100
AcDbEntity
  8
0
100
AcDbCircle
 10
179.31839087368846
 20
32.49050751662998
 30
0.0
 40
8.0
  0
CIRCLE
  5
18F
330
17
100
AcDbEntity
  8
0
100
AcDbCircle
 10
387.0312324919233
 20
313.22278873077516
 30
0.0
 40
8.0
  0
CIRCLE
  5
190
330
17
100
AcDbEntity
  8
0
100
AcDbCircle
 10
858.1248073483606
 20
319.658482688142
 30
0.0
 40
8.0
  0
CIRCLE
  5
191
330
17
100
AcDbEntity
  8
0
100
AcDbCircle
 10
809.6972443133046
 20
536.1933432066264
 30
0.0
 40
8.0
  0
CIRCLE
  5
192
330
17
100
AcDbEntity
  8
0
100
AcDbCircle
 10
40.40302001524178
 20
532.9331091238555
 30
0.0
 40
8.0
  0
CIRCLE
  5
193
330
17
100
AcDbEntity
  8
0
100
AcDbCircle
 10
581.3657568053374
 20
406.13847290983074
 30
0.0
 40
8.0
  0
CIRCLE
  5
194
330
17
100
AcDbEntity
  8
0
100
AcDbCircle
 10
837.5005264582848
 20
454.84261946582706
 30
0.0
 40
8.0
  0
CIRCLE
  5
195
330
17
100
AcDbEntity
  8
0
100
AcDbCircle
 10
930.6014642922946
 20
900.2941425684535
 30
0.0
 40
8.0
  0
CIRCLE
  5
196
330
17
100
AcDbEntity
  8
0
100
AcDbCircle
 10
696.4615169372048
 20
747.6836938061219
 30
0.0
 40
8.0
  0
CIRCLE
  5
197
330
17
100
AcDbEntity
  8
0
100
AcDbCircle
 10
897.6017160800359
 20
425.4116407118288
 30
0.0
 40
8.0
  0
CIRCLE
  5
198
330
17
100
AcDbEntity
  8
0
100
AcDbCircle
 10
108.66120103593352
 20
731.1253449195668
 30
0.0
 40
8.0
  0
CIRCLE
  5
199
330
17
100
AcDbEntity
  8
0
100
AcDbCircle
 10
962.6245138828057
 20
949.947012188515
 30
0.0
 40
8.0
  0
CIRCLE
  5
19A
330
17
100
AcDbEntity
  8
0
100
AcDbCircle
 10
271.10477665948207
 20
938.3542220507885
 30
0.0
 40
8.0
  0
CIRCLE
  5
19B
330
17
100
AcDbEntity
  8
0
100
AcDbCircle
 10
778.833564579608
 20
643.8721241555011
 30
0.0
 40
8.0
  0
CIRCLE
  5
19C
330
17
100
AcDbEntity
  8
0
100
AcDbCircle
 10
107.09341772733782
 20
860.9585905231597
 30
0.0
 40
8.0
  0
CIRCLE
  5
19D
330
17
100
AcDbEntity
  8
0
100
AcDbCircle
 10
238.892628821873
 20
151.0076657420322
 30
0.0
 40
8.0
  0
CIRCLE
  5
19E
330
17
100
AcDbEntity
  8
0
100
AcDbCircle
 10
910.1646769051137
 20
402.7001865486974
 30
0.0
 40
8.0
  0
CIRCLE
  5
19F
330
17
100
AcDbEntity
  8
0
100
AcDbCircle
 10
835.8042604829725
 20
490.02606873337044
 30
0.0
 40
8.0
  0
CIRCLE
  5
1A0
330
17
100
AcDbEntity
  8
0
100
AcDbCircle
 10
793.4093362816765
 20
507.3471989526143
 30
0.0
 40
8.0
  0
CIRCLE
  5
1A1
330
17
100
AcDbEntity
  8
0
100
AcDbCircle
 10
407.54170033483797
 20
991.8875513448933
 30
0.0
 40
8.0
  0
CIRCLE
  5
1A2
330
17
100
AcDbEntity
  8
0
100
AcDbCircle
 10
298.8390889801632
 20
657.7753990806267
 30
0.0
 40
8.0
  0
CIRCLE
  5
1A3
330
17
100
AcDbEntity
  8
0
100
AcDbCircle
 10
522.8299057093295
 20
551.6441878224293
 30
0.0
 40
8.0
  0
CIRCLE
  5
1A4
330
17
100
AcDbEntity
  8
0
100
AcDbCircle
 10
351.413664714079
 20
783.2011493559133
 30
0.0
 40
8.0
  0
CIRCLE
  5
1A5
330
17
100
AcDbEntity
  8
0
100
AcDbCircle
 10
33.658436361010665
 20
296.74464268916034
 30
0.0
 40
8.0
  0
CIRCLE
  5
1A6
330
17
100
AcDbEntity
  8
0
100
AcDbCircle
 10
43.201118113636845
 20
479.30170129335954
 30
0.0
 40
8.0
  0
CIRCLE
  5
1A7
330
17
100
AcDbEntity
  8
0
100
AcDbCircle
 10
796.1132187821288
 20
17.428978944406822
 30
0.0
 40
8.0
  0
CIRCLE
  5
1A8
330
17
100
AcDbEntity
  8
0
100
AcDbCircle
 10
635.7481052250394
 20
559.6166202721962
 30
0.0
 40
8.0
  0
CIRCLE
  5
1A9
330
17
100
AcDbEntity
  8
0
100
AcDbCircle
 10
372.75606965409094
 20
299.2109689044845
 30
0.0
 40
8.0
  0
CIRCLE
  5
1AA
330
17
100
AcDbEntity
  8
0
100
AcDbCircle
 10
242.4274982772354
 20
478.56851631196565
 30
0.0
 40
8.0
  0
CIRCLE
  5
1AB
330
17
100
AcDbEntity
  8
0
100
AcDbCircle
 10
880.0719538776921
 20
710.0880015609066
 30
0.0
 40
8.0
  0
CIRCLE
  5
1AC
330
17
100
AcDbEntity
  8
0
100
AcDbCircle
 10
425.227998046522
 20
351.86272969418184
 30
0.0
 40
8.0
  0
CIRCLE
  5
1AD
330
17
100
AcDbEntity
  8
0
100
AcDbCircle
 10
706.681438476642
 20
991.3033956681712
 30
0.0
 40
8.0
  0
CIRCLE
  5
1AE
330
17
100
AcDbEntity
  8
0
100
AcDbCircle
 10
701.7767250964762
 20
365.3007144051277
 30
0.0
 40
8.0
  0
CIRCLE
  5
1AF
330
17
100
AcDbEntity
  8
0
100
AcDbCircle
 10
56.28641714750288
 20
402.81759227161837
 30
0.0
 40
8.0
  0
CIRCLE
  5
1B0
330
17
100
AcDbEntity
  8
0
100
AcDbCircle
 10
27.15300630551014
 20
72.18703262649844
 30
0.0
 40
8.0
  0
CIRCLE
  5
1B1
330
17
100
AcDbEntity
  8
0
100
AcDbCircle
 10
462.8678608231248
 20
872.940885650194
 30
0.0
 40
8.0
  0
CIRCLE
  5
1B2
330
17
100
AcDbEntity
  8
0
100
AcDbCircle
 10
15.995358204284727
 20
186.37294321230561
 30
0.0
 40
8.0
  0
CIRCLE
  5
1B3
330
17
100
AcDbEntity
  8
0
100
AcDbCircle
 10
970.1129714058375
 20
573.8387328181097
 30
0.0
 40
8.0
  0
CIRCLE
  5
1B4
330
17
100
AcDbEntity
  8
0
100
AcDbCircle
 10
864.3452473236745
 20
169.7832716749959
 30
0.0
 40
8.0
  0
CIRCLE
  5
1B5
330
17
100
AcDbEntity
  8
0
100
AcDbCircle
 10
445.23071791524836
 20
306.065852237897
 30
0.0
 40
8.0
  0
CIRCLE
  5
1B6
330
17
100
AcDbEntity
  8
0
100
AcDbCircle
 10
548.3412502295497
 20
891.8527939683137
 30
0.0
 40
8.0
  0
CIRCLE
  5
1B7
330
17
100
AcDbEntity
  8
0
100
AcDbCircle
 10
750.3533056633362
 20
909.697635871434
 30
0.0
 40
8.0
  0
CIRCLE
  5
1B8
330
17
100
AcDbEntity
  8
0
100
AcDbCircle
 10
293.62856480470805
 20
346.6342477321402
 30
0.0
 40
8.0
  0
CIRCLE
  5
1B9
330
17
100
AcDbEntity
  8
0
100
AcDbCircle
 10
209.86043579575244
 20
744.424354264022
 30
0.0
 40
8.0
  0
CIRCLE
  5
1BA
330
17
100
AcDbEntity
  8
0
100
AcDbCircle
 10
282.5949534217187
 20
414.3655760077379
 30
0.0
 40
8.0
  0
CIRCLE
  5
1BB
330
17
100
AcDbEntity
  8
0
100
AcDbCircle
 10
385.70380573694035
 20
550.0759413029183
 30
0.0
 40
8.0
  0
CIRCLE
  5
1BC
330
17
100
AcDbEntity
  8
0
100
AcDbCircle
 10
343.0125258201627
 20
297.3984496987099
 30
0.0
 40
8.0
  0
CIRCLE
  5
1BD
330
17
100
AcDbEntity
  8
0
100
AcDbCircle
 10
511.4169185054488
 20
965.5802598685997
 30
0.0
 40
8.0
  0
CIRCLE
  5
1BE
330
17
100
AcDbEntity
  8
0
100
AcDbCircle
 10
470.8508762952558
 20
326.74815528789594
 30
0.0
 40
8.0
  0
CIRCLE
  5
1BF
330
17
100
AcDbEntity
  8
0
100
AcDbCircle
 10
27.872817712476333
 20
47.26981775015986
 30
0.0
 40
8.0
  0
CIRCLE
  5
1C0
330
17
100
AcDbEntity
  8
0
100
AcDbCircle
 10
619.8343354286477
 20
125.29017305526312
 30
0.0
 40
8.0
  0
CIRCLE
  5
1C1
330
17
100
AcDbEntity
  8
0
100
AcDbCircle
 10
208.0021114690301
 20
672.6181066355597
 30
0.0
 40
8.0
  0
CIRCLE
  5
1C2
330
17
100
AcDbEntity
  8
0
100
AcDbCircle
 10
969.1559193904378
 20
932.1294959207252
 30
0.0
 40
8.0
  0
CIRCLE
  5
1C3
330
17
100
AcDbEntity
  8
0
100
AcDbCircle
 10
527.7533562224867
 20
375.36261373233964
 30
0.0
 40
8.0
  0
CIRCLE
  5
1C4
330
17
100
AcDbEntity
  8
0
100
AcDbCircle
 10
701.3702579965221
 20
250.0831024966696
 30
0.0
 40
8.0
  0
CIRCLE
  5
1C5
330
17
100
AcDbEntity
  8
0
100
AcDbCircle
 10
835.7736454859132
 20
149.5397464618645
 30
0.0
 40
8.0
  0
CIRCLE
  5
1C6
330
17
100
AcDbEntity
  8
0
100
AcDbCircle
 10
675.8376263683975
 20
601.3303868936699
 30
0.0
 40
8.0
  0
CIRCLE
  5
1C7
330
17
100
AcDbEntity
  8
0
100
AcDbCircle
 10
452.33559714248247
 20
761.5211911089273
 30
0.0
 40
8.0
  0
CIRCLE
  5
1C8
330
17
100
AcDbEntity
  8
0
100
AcDbCircle
 10
680.4873421144296
 20
449.20943736284005
 30
0.0
 40
8.0
  0
CIRCLE
  5
1C9
330
17
100
AcDbEntity
  8
0
100
AcDbCircle
 10
621.2060446891479
 20
313.6716966004408
 30
0.0
 40
8.0
  0
CIRCLE
  5
1CA
330
17
100
AcDbEntity
  8
0
100
AcDbCircle
 10
443.7730493728747
 20
851.6944123280698
 30
0.0
 40
8.0
  0
CIRCLE
  5
1CB
330
17
100
AcDbEntity
  8
0
100
AcDbCircle
 10
173.76801610052593
 20
13.56495727351385
 30
0.0
 40
8.0
  0
CIRCLE
  5
1CC
330
17
100
AcDbEntity
  8
0
100
AcDbCircle
 10
981.5658030929892
 20
401.7813325919546
 30
0.0
 40
8.0
  0
CIRCLE
  5
1CD
330
17
100
AcDbEntity
  8
0
100
AcDbCircle
 10
900.7675715263211
 20
776.1364114050963
 30
0.0
 40
8.0
  0
CIRCLE
  5
1CE
330
17
100
AcDbEntity
  8
0
100
AcDbCircle
 10
85.44599857026478
 20
23.048394686533214
 30
0.0
 40
8.0
  0
CIRCLE
  5
1CF
330
17
100
AcDbEntity
  8
0
100
AcDbCircle
 10
788.6727996783686
 20
789.8141121822576
 30
0.0
 40
8.0
  0
CIRCLE
  5
1D0
330
17
100
AcDbEntity
  8
0
100
AcDbCircle
 10
796.325156759525
 20
603.5260779331287
 30
0.0
 40
8.0
  0
CIRCLE
  5
1D1
330
17
100
AcDbEntity
  8
0
100
AcDbCircle
 10
588.2012438949059
 20
199.04157733530474
 30
0.0
 40
8.0
  0
CIRCLE
  5
1D2
330
17
100
AcDbEntity
  8
0
100
AcDbCircle
 10
171.51383828780277
 20
133.58379030610084
 30
0.0
 40
8.0
  0
CIRCLE
  5
1D3
330
17
100
AcDbEntity
  8
0
100
AcDbCircle
 10
461.64098424601406
 20
976.0907272400908
 30
0.0
 40
8.0
  0
CIRCLE
  5
1D4
330
17
100
AcDbEntity
  8
0
100
AcDbCircle
 10
496.12413079937545
 20
760.6123088267983
 30
0.0
 40
8.0
  0
CIRCLE
  5
1D5
330
17
100
AcDbEntity
  8
0
100
AcDbCircle
 10
428.46117814362225
 20
543.7982616404668
 30
0.0
 40
8.0
  0
CIRCLE
  5
1D6
330
17
100
AcDbEntity
  8
0
100
AcDbCircle
 10
829.0845676328272
 20
306.3614255635433
 30
0.0
 40
8.0
  0
CIRCLE
  5
1D7
330
17
100
AcDbEntity
  8
0
100
AcDbCircle
 10
287.06825102185417
 20
566.8612133013773
 30
0.0
 40
8.0
  0
CIRCLE
  5
1D8
330
17
100
AcDbEntity
  8
0
100
AcDbCircle
 10
493.451385579888
 20
478.6538911121806
 30
0.0
 40
8.0
  0
CIRCLE
  5
1D9
330
17
100
AcDbEntity
  8
0
100
AcDbCircle
 10
299.6209121862302
 20
956.7430330515931
 30
0.0
 40
8.0
  0
CIRCLE
  5
1DA
330
17
100
AcDbEntity
  8
0
100
AcDbCircle
 10
420.7055462260684
 20
730.820884638355
 30
0.0
 40
8.0
  0
CIRCLE
  5
1DB
330
17
100
AcDbEntity
  8
0
100
AcDbCircle
 10
518.4549141057367
 20
237.89268710692505
 30
0.0
 40
8.0
  0
CIRCLE
  5
1DC
330
17
100
AcDbEntity
  8
0
100
AcDbCircle
 10
988.4381253594407
 20
267.3459716081403
 30
0.0
 40
8.0
  0
CIRCLE
  5
1DD
330
17
100
AcDbEntity
  8
0
100
AcDbCircle
 10
585.6684277630959
 20
864.3472854441928
 30
0.0
 40
8.0
  0
CIRCLE
  5
1DE
330
17
100
AcDbEntity
  8
0
100
AcDbCircle
 10
385.0628256764761
 20
464.7699834703506
 30
0.0
 40
8.0
  0
CIRCLE
  5
1DF
330
17
100
AcDbEntity
  8
0
100
AcDbCircle
 10
186.72747093993
 20
853.667210405709
 30
0.0
 40
8.0
  0
CIRCLE
  5
1E0
330
17
100
AcDbEntity
  8
0
100
AcDbCircle
 10
957.742817453732
 20
407.0180803633438
 30
0.0
 40
8.0
  0
CIRCLE
  5
1E1
330
17
100
AcDbEntity
  8
0
100
AcDbCircle
 10
24.5076123486813
 20
421.9807117475124
 30
0.0
 40
8.0
  0
CIRCLE
  5
1E2
330
17
100
AcDbEntity
  8
0
100
AcDbCircle
 10
469.0337397544375
 20
797.4165566061369
 30
0.0
 40
8.0
  0
CIRCLE
  5
1E3
330
17
100
AcDbEntity
  8
0
100
AcDbCircle
 10
799.0806516062459
 20
902.0017318576328
 30
0.0
 40
8.0
  0
CIRCLE
  5
1E4
330
17
100
AcDbEntity
  8
0
100
AcDbCircle
 10
332.7713221036574
 20
281.83180344237564
 30
0.0
 40
8.0
  0
CIRCLE
  5
1E5
330
17
100
AcDbEntity
  8
0
100
AcDbCircle
 10
93.29159049636093
 20
844.0684837760148
 30
0.0
 40
8.0
  0
CIRCLE
  5
1E6
330
17
100
AcDbEntity
  8
0
100
AcDbCircle
 10
978.8199919233986
 20
556.6592066433132
 30
0.0
 40
8.0
  0
CIRCLE
  5
1E7
330
17
100
AcDbEntity
  8
0
100
AcDbCircle
 10
722.3356985826122
 20
798.072917530001
 30
0.0
 40
8.0
  0
CIRCLE
  5
1E8
330
17
100
AcDbEntity
  8
0
100
AcDbCircle
 10
780.5088477279163
 20
433.65521827048536
 30
0.0
 40
8.0
  0
CIRCLE
  5
1E9
330
17
100
AcDbEntity
  8
0
100
AcDbCircle
 10
72.14594401187857
 20
723.9495018904913
 30
0.0
 40
8.0
  0
CIRCLE
  5
1EA
330
17
100
AcDbEntity
  8
0
100
AcDbCircle
 10
157.36375297846152
 20
364.78884525315885
 30
0.0
 40
8.0
  0
CIRCLE
  5
1EB
330
17
100
AcDbEntity
  8
0
100
AcDbCircle
 10
943.9675808642777
 20
431.67796113039185
 30
0.0
 40
8.0
  0
CIRCLE
  5
1EC
330
17
100
AcDbEntity
  8
0
100
AcDbCircle
 10
619.228768218847
 20
607.3324941200998
 30
0.0
 40
8.0
  0
CIRCLE
  5
1ED
330
17
100
AcDbEntity
  8
0
100
AcDbCircle
 10
464.6013916633182
 20
814.9287839358456
 30
0.0
 40
8.0
  0
CIRCLE
  5
1EE
330
17
100
AcDbEntity
  8
0
100
AcDbCircle
 10
607.0926305943037
 20
670.0754988075909
 30
0.0
 40
8.0
  0
CIRCLE
  5
1EF
330
17
100
AcDbEntity
  8
0
100
AcDbCircle
 10
436.8859138796807
 20
875.2083526843667
 30
0.0
 40
8.0
  0
CIRCLE
  5
1F0
330
17
100
AcDbEntity
  8
0
100
AcDbCircle
 10
680.8962705495126
 20
313.9042720437465
 30
0.0
 40
8.0
  0
CIRCLE
  5
1F1
330
17
100
AcDbEntity
  8
0
100
AcDbCircle
 10
541.076974164839
 20
401.4418448325334
 30
0.0
 40
8.0
  0
CIRCLE
  5
1F2
330
17
100
AcDbEntity
  8
0
100
AcDbCircle
 10
283.67011223027555
 20
595.9490473932343
 30
0.0
 40
8.0
  0
CIRCLE
  5
1F3
330
17
100
AcDbEntity
  8
0
100
AcDbCircle
 10
48.84127326015229
 20
961.0101551352042
 30
0.0
 40
8.0
  0
CIRCLE
  5
1F4
330
17
100
AcDbEntity
  8
0
100
AcDbCircle
 10
151.45240485437918
 20
519.442765446764
 30
0.0
 40
8.0
  0
CIRCLE
  5
1F5
330
17
100
AcDbEntity
  8
0
100
AcDbCircle
 10
252.53865088399405
 20
138.70023491681334
 30
0.0
 40
8.0
  0
CIRCLE
  5
1F6
330
17
100
AcDbEntity
  8
0
100
AcDbCircle
 10
15.490541972092938
 20
377.1802327043971
 30
0.0
 40
8.0
  0
CIRCLE
  5
1F7
330
17
100
AcDbEntity
  8
0
100
AcDbCircle
 10
947.3586708146743
 20
929.9093674294924
 30
0.0
 40
8.0
  0
CIRCLE
  5
1F8
330
17
100
AcDbEntity
  8
0
100
AcDbCircle
 10
360.27282910524144
 20
765.0784292549512
 30
0.0
 40
8.0
  0
CIRCLE
  5
1F9
330
17
100
AcDbEntity
  8
0
100
AcDbCircle
 10
481.5537991328168
 20
615.5849860177563
 30
0.0
 40
8.0
  0
CIRCLE
  5
1FA
330
17
100
AcDbEntity
  8
0
100
AcDbCircle
 10
698.6333904971681
 20
707.2159814656118
 30
0.0
 40
8.0
  0
CIRCLE
  5
1FB
330
17
100
AcDbEntity
  8
0
100
AcDbCircle
 10
803.7879759393019
 20
847.0593989745365
 30
0.0
 40
8.0
  0
CIRCLE
  5
1FC
330
17
100
AcDbEntity
  8
0
100
AcDbCircle
 10
878.5022404331643
 20
240.568856982802
 30
0.0
 40
8.0
  0
CIRCLE
  5
1FD
330
17
100
AcDbEntity
  8
0
100
AcDbCircle
 10
855.6748440712311
 20
514.8313977841924
 30
0.0
 40
8.0
  0
CIRCLE
  5
1FE
330
17
100
AcDbEntity
  8
0
100
AcDbCircle
 10
825.1475175947323
 20
588.0623341579243
 30
0.0
 40
8.0
  0
CIRCLE
  5
1FF
330
17
100
AcDbEntity
  8
0
100
AcDbCircle
 10
357.8699936968812
 20
423.59374751538985
 30
0.0
 40
8.0
  0
CIRCLE
  5
200
330
17
100
AcDbEntity
  8
0
100
AcDbCircle
 10
983.4933688521618
 20
189.96098670236105
 30
0.0
 40
8.0
  0
CIRCLE
  5
201
330
17
100
AcDbEntity
  8
0
100
AcDbCircle
 10
836.8493960897599
 20
321.8349371171661
 30
0.0
 40
8.0
  0
CIRCLE
  5
202
330
17
100
AcDbEntity
  8
0
100
AcDbCircle
 10
134.7444603653633
 20
658.4252988545848
 30
0.0
 40
8.0
  0
CIRCLE
  5
203
330
17
100
AcDbEntity
  8
0
100
AcDbCircle
 10
299.65355788463745
 20
406.2639709184485
 30
0.0
 40
8.0
  0
CIRCLE
  5
204
330
17
100
AcDbEntity
  8
0
100
AcDbCircle
 10
825.7152343239469
 20
345.1102607396689
 30
0.0
 40
8.0
  0
CIRCLE
  5
205
330
17
100
AcDbEntity
  8
0
100
AcDbCircle
 10
948.7614285375643
 20
893.7332701734025
 30
0.0
 40
8.0
  0
CIRCLE
  5
206
330
17
100
AcDbEntity
  8
0
100
AcDbCircle
 10
162.3785913002406
 20
467.9937667942898
 30
0.0
 40
8.0
  0
CIRCLE
  5
207
330
17
100
AcDbEntity
  8
0
100
AcDbCircle
 10
991.1011109036735
 20
785.5077581415737
 30
0.0
 40
8.0
  0
CIRCLE
  5
208
330
17
100
AcDbEntity
  8
0
100
AcDbCircle
 10
616.0975655586408
 20
775.808594013323
 30
0.0
 40
8.0
  0
CIRCLE
  5
209
330
17
100
AcDbEntity
  8
0
100
AcDbCircle
 10
760.7274795612316
 20
127.04733500418548
 30
0.0
 40
8.0
  0
CIRCLE
  5
20A
330
17
100
AcDbEntity
  8
0
100
AcDbCircle
 10
791.1455325167391
 20
826.4452816394875
 30
0.0
 40
8.0
  0
CIRCLE
  5
20B
330
17
100
AcDbEntity
  8
0
100
AcDbCircle
 10
23.94028388965679
 20
808.1631701652954
 30
0.0
 40
8.0
  0
CIRCLE
  5
20C
330
17
100
AcDbEntity
  8
0
100
AcDbCircle
 10
593.4682948918445
 20
881.9210949831712
 30
0.0
 40
8.0
  0
CIRCLE
  5
20D
330
17
100
AcDbEntity
  8
0
100
AcDbCircle
 10
25.328611489640444
 20
979.010803357234
 30
0.0
 40
8.0
  0
CIRCLE
  5
20E
330
17
100
AcDbEntity
  8
0
100
AcDbCircle
 10
32.85686409632495
 20
915.6125683604282
 30
0.0
 40
8.0
  0
CIRCLE
  5
20F
330
17
100
AcDbEntity
  8
0
100
AcDbCircle
 10
266.3422415517341
 20
364.5686550105625
 30
0.0
 40
8.0
  0
CIRCLE
  5
210
330
17
100
AcDbEntity
  8
0
100
AcDbCircle
 10
790.5265952268722
 20
878.9982606534282
 30
0.0
 40
8.0
  0
CIRCLE
  5
211
330
17
100
AcDbEntity
  8
0
100
AcDbCircle
 10
126.03953600886388
 20
74.34227600880011
 30
0.0
 40
8.0
  0
CIRCLE
  5
212
330
17
100
AcDbEntity
  8
0
100
AcDbCircle
 10
352.8312113505195
 20
182.68686324258925
 30
0.0
 40
8.0
  0
CIRCLE
  5
213
330
17
100
AcDbEntity
  8
0
100
AcDbCircle
 10
77.71199482663818
 20
679.7444653679133
 30
0.0
 40
8.0
  0
CIRCLE
  5
214
330
17
100
AcDbEntity
  8
0
100
AcDbCircle
 10
349.67020902807127
 20
313.3864803478126
 30
0.0
 40
8.0
  0
CIRCLE
  5
215
330
17
100
AcDbEntity
  8
0
100
AcDbCircle
 10
268.36188045707036
 20
337.02445565297376
 30
0.0
 40
8.0
  0
CIRCLE
  5
216
330
17
100
AcDbEntity
  8
0
100
AcDbCircle
 10
488.00376693239235
 20
697.8491289221823
 30
0.0
 40
8.0
  0
CIRCLE
  5
217
330
17
100
AcDbEntity
  8
0
100
AcDbCircle
 10
408.42635793822757
 20
680.6795919650674
 30
0.0
 40
8.0
  0
CIRCLE
  5
218
330
17
100
AcDbEntity
  8
0
100
AcDbCircle
 10
987.4611259634119
 20
889.5477368553433
 30
0.0
 40
8.0
  0
CIRCLE
  5
219
330
17
100
AcDbEntity
  8
0
100
AcDbCircle
 10
131.3240302288173
 20
98.08585073680597
 30
0.0
 40
8.0
  0
CIRCLE
  5
21A
330
17
100
AcDbEntity
  8
0
100
AcDbCircle
 10
468.22295750514803
 20
740.0674509461477
 30
0.0
 40
8.0
  0
CIRCLE
  5
21B
330
17
100
AcDbEntity
  8
0
100
AcDbCircle
 10
153.12125948916204
 20
968.0884373184358
 30
0.0
 40
8.0
  0
CIRCLE
  5
21C
330
17
100
AcDbEntity
  8
0
100
AcDbCircle
 10
489.09308741929874
 20
647.1917512014713
 30
0.0
 40
8.0
  0
CIRCLE
  5
21D
330
17
100
AcDbEntity
  8
0
100
AcDbCircle
 10
65.79435594384832
 20
966.7117821469271
 30
0.0
 40
8.0
  0
CIRCLE
  5
21E
330
17
100
AcDbEntity
  8
0
100
AcDbCircle
 10
851.2327265508957
 20
473.9852911005946
 30
0.0
 40
8.0
  0
CIRCLE
  5
21F
330
17
100
AcDbEntity
  8
0
100
AcDbCircle
 10
64.11498662994279
 20
285.6611453831321
 30
0.0
 40
8.0
  0
CIRCLE
  5
220
330
17
100
AcDbEntity
  8
0
100
AcDbCircle
 10
347.8496612328447
 20
731.6126955666607
 30
0.0
 40
8.0
  0
CIRCLE
  5
221
330
17
100
AcDbEntity
  8
0
100
AcDbCircle
 10
144.73647933250317
 20
857.4285769867681
 30
0.0
 40
8.0
  0
CIRCLE
  5
222
330
17
100
AcDbEntity
  8
0
100
AcDbCircle
 10
667.6727439195776
 20
851.8423816749169
 30
0.0
 40
8.0
  0
CIRCLE
  5
223
330
17
100
AcDbEntity
  8
0
100
AcDbCircle
 10
821.5706403778505
 20
108.8858482165407
 30
0.0
 40
8.0
  0
CIRCLE
  5
224
330
17
100
AcDbEntity
  8
0
100
AcDbCircle
 10
638.7689121705637
 20
950.8064852291843
 30
0.0
 40
8.0
  0
CIRCLE
  5
225
330
17
100
AcDbEntity
  8
0
100
AcDbCircle
 10
370.4396172303462
 20
981.6638527631321
 30
0.0
 40
8.0
  0
CIRCLE
  5
226
330
17
100
AcDbEntity
  8
0
100
AcDbCircle
 10
774.721046100364
 20
101.63352155094762
 30
0.0
 40
8.0
  0
CIRCLE
  5
227
330
17
100
AcDbEntity
  8
0
100
AcDbCircle
 10
871.1461495268845
 20
281.50650411116703
 30
0.0
 40
8.0
  0
CIRCLE
  5
228
330
17
100
AcDbEntity
  8
0
100
AcDbCircle
 10
521.2127640199006
 20
924.9804712865365
 30
0.0
 40
8.0
  0
CIRCLE
  5
229
330
17
100
AcDbEntity
  8
0
100
AcDbCircle
 10
804.7570720254903
 20
866.0372896906144
 30
0.0
 40
8.0
  0
CIRCLE
  5
22A
330
17
100
AcDbEntity
  8
0
100
AcDbCircle
 10
620.4864226300057
 20
983.0296153918636
 30
0.0
 40
8.0
  0
CIRCLE
  5
22B
330
17
100
AcDbEntity
  8
0
100
AcDbCircle
 10
446.0932096191334
 20
208.43349735615757
 30
0.0
 40
8.0
  0
CIRCLE
  5
22C
330
17
100
AcDbEntity
  8
0
100
AcDbCircle
 10
805.584761303456
 20
436.4990247416552
 30
0.0
 40
8.0
  0
CIRCLE
  5
22D
330
17
100
AcDbEntity
  8
0
100
AcDbCircle
 10
8.923490158340407
 20
300.8002998991368
 30
0.0
 40
8.0
  0
CIRCLE
  5
22E
330
17
100
AcDbEntity
  8
0
100
AcDbCircle
 10
315.1933001089618
 20
777.5852266422095
 30
0.0
 40
8.0
  0
CIRCLE
  5
22F
330
17
100
AcDbEntity
  8
0
100
AcDbCircle
 10
489.33244682864034
 20
104.23354875380885
 30
0.0
 40
8.0
  0
CIRCLE
  5
230
330
17
100
AcDbEntity
  8
0
100
AcDbCircle
 10
682.3463438352951
 20
951.287109912159
 30
0.0
 40
8.0
  0
CIRCLE
  5
231
330
17
100
AcDbEntity
  8
0
100
AcDbCircle
 10
917.6630841217066
 20
607.0329827362815
 30
0.0
 40
8.0
  0
CIRCLE
  5
232
330
17
100
AcDbEntity
  8
0
100
AcDbCircle
 10
771.0808801504562
 20
372.79930692454906
 30
0.0
 40
8.0
  0
CIRCLE
  5
233
330
17
100
AcDbEntity
  8
0
100
AcDbCircle
 10
889.1045730542962
 20
225.93606004673822
 30
0.0
 40
8.0
  0
CIRCLE
  5
234
330
17
100
AcDbEntity
  8
0
100
AcDbCircle
 10
695.6043685758757
 20
480.9042061532366
 30
0.0
 40
8.0
  0
CIRCLE
  5
235
330
17
100
AcDbEntity
  8
0
100
AcDbCircle
 10
816.7859416735433
 20
517.0464096184601
 30
0.0
 40
8.0
  0
CIRCLE
  5
236
330
17
100
AcDbEntity
  8
0
100
AcDbCircle
 10
9.450873003854708
 20
342.1157762441557
 30
0.0
 40
8.0
  0
CIRCLE
  5
237
330
17
100
AcDbEntity
  8
0
100
AcDbCircle
 10
514.8029257567403
 20
801.1103926507259
 30
0.0
 40
8.0
  0
CIRCLE
  5
238
330
17
100
AcDbEntity
  8
0
100
AcDbCircle
 10
698.5029411755643
 20
314.7576536355183
 30
0.0
 40
8.0
  0
CIRCLE
  5
239
330
17
100
AcDbEntity
  8
0
100
AcDbCircle
 10
303.80806346786113
 20
842.7536020942014
 30
0.0
 40
8.0
  0
CIRCLE
  5
23A
330
17
100
AcDbEntity
  8
0
100
AcDbCircle
 10
175.54987861957923
 20
444.8380992925359
 30
0.0
 40
8.0
  0
CIRCLE
  5
23B
330
17
100
AcDbEntity
  8
0
100
AcDbCircle
 10
25.699218250297317
 20
708.007780514975
 30
0.0
 40
8.0
  0
CIRCLE
  5
23C
330
17
100
AcDbEntity
  8
0
100
AcDbCircle
 10
136.95858450579604
 20
534.1582192244656
 30
0.0
 40
8.0
  0
CIRCLE
  5
23D
330
17
100
AcDbEntity
  8
0
100
AcDbCircle
 10
88.24530816611839
 20
718.7950704390088
 30
0.0
 40
8.0
  0
CIRCLE
  5
23E
330
17
100
AcDbEntity
  8
0
100
AcDbCircle
 10
102.23917713693321
 20
382.31653398058313
 30
0.0
 40
8.0
  0
CIRCLE
  5
23F
330
17
100
AcDbEntity
  8
0
100
AcDbCircle
 10
770.4170517224865
 20
784.6224057260708
 30
0.0
 40
8.0
  0
CIRCLE
  5
240
330
17
100
AcDbEntity
  8
0
100
AcDbCircle
 10
363.98013582300564
 20
480.20072995705783
 30
0.0
 40
8.0
  0
CIRCLE
  5
241
330
17
100
AcDbEntity
  8
0
100
AcDbCircle
 10
669.7322422068576
 20
712.1256174692645
 30
0.0
 40
8.0
  0
CIRCLE
  5
242
330
17
100
AcDbEntity
  8
0
100
AcDbCircle
 10
682.249954245785
 20
52.5449276290138
 30
0.0
 40
8.0
  0
CIRCLE
  5
243
330
17
100
AcDbEntity
  8
0
100
AcDbCircle
 10
832.1877844170494
 20
55.913857672802706
 30
0.0
 40
8.0
  0
CIRCLE
  5
244
330
17
100
AcDbEntity
  8
0
100
AcDbCircle
 10
281.7066208866894
 20
960.4689209091447
 30
0.0
 40
8.0
  0
CIRCLE
  5
245
330
17
100
AcDbEntity
  8
0
100
AcDbCircle
 10
733.8089596993722
 20
954.8847753348007
 30
0.0
 40
8.0
  0
CIRCLE
  5
246
330
17
100
AcDbEntity
  8
0
100
AcDbCircle
 10
323.0743255549127
 20
322.19663301237085
 30
0.0
 40
8.0
  0
CIRCLE
  5
247
330
17
100
AcDbEntity
  8
0
100
AcDbCircle
 10
810.3956154175362
 20
361.70001896900555
 30
0.0
 40
8.0
  0
CIRCLE
  5
248
330
17
100
AcDbEntity
  8
0
100
AcDbCircle
 10
502.50589709414925
 20
375.519117887985
 30
0.0
 40
8.0
  0
CIRCLE
  5
249
330
17
100
AcDbEntity
  8
0
100
AcDbCircle
 10
141.28197422921005
 20
565.4186582256756
 30
0.0
 40
8.0
  0
CIRCLE
  5
24A
330
17
100
AcDbEntity
  8
0
100
AcDbCircle
 10
241.8698339637944
 20
332.3631152930617
 30
0.0
 40
8.0
  0
CIRCLE
  5
24B
330
17
100
AcDbEntity
  8
0
100
AcDbCircle
 10
16.496324838352905
 20
224.56995053665912
 30
0.0
 40
8.0
  0
CIRCLE
  5
24C
330
17
100
AcDbEntity
  8
0
100
AcDbCircle
 10
523.4533560483234
 20
901.7416628324451
 30
0.0
 40
8.0
  0
CIRCLE
  5
24D
330
17
100
AcDbEntity
  8
0
100
AcDbCircle
 10
408.0215707740918
 20
308.8318548383613
 30
0.0
 40
8.0
  0
CIRCLE
  5
24E
330
17
100
AcDbEntity
  8
0
100
AcDbCircle
 10
928.0283963509869
 20
531.4107563615892
 30
0.0
 40
8.0
  0
CIRCLE
  5
24F
330
17
100
AcDbEntity
  8
0
100
AcDbCircle
 10
656.1515925823261
 20
972.7595904234647
 30
0.0
 40
8.0
  0
CIRCLE
  5
250
330
17
100
AcDbEntity
  8
0
100
AcDbCircle
 10
722.8042667095251
 20
682.1805437483293
 30
0.0
 40
8.0
  0
CIRCLE
  5
251
330
17
100
AcDbEntity
  8
0
100
AcDbCircle
 10
86.63372955577299
 20
958.0977183950338
 30
0.0
 40
8.0
  0
CIRCLE
  5
252
330
17
100
AcDbEntity
  8
0
100
AcDbCircle
 10
475.23007922363286
 20
432.70371790584693
 30
0.0
 40
8.0
  0
CIRCLE
  5
253
330
17
100
AcDbEntity
  8
0
100
AcDbCircle
 10
374.0479938151304
 20
839.5015149773262
 30
0.0
 40
8.0
  0
CIRCLE
  5
254
330
17
100
AcDbEntity
  8
0
100
AcDbCircle
 10
480.9776430439054
 20
414.5037025075154
 30
0.0
 40
8.0
  0
CIRCLE
  5
255
330
17
100
AcDbEntity
  8
0
100
AcDbCircle
 10
789.367470792883
 20
194.8148020616548
 30
0.0
 40
8.0
  0
CIRCLE
  5
256
330
17
100
AcDbEntity
  8
0
100
AcDbCircle
 10
777.6897066573166
 20
901.2050270373668
 30
0.0
 40
8.0
  0
CIRCLE
  5
257
330
17
100
AcDbEntity
  8
0
100
AcDbCircle
 10
267.73407671607947
 20
244.66436444404306
 30
0.0
 40
8.0
  0
CIRCLE
  5
258
330
17
100
AcDbEntity
  8
0
100
AcDbCircle
 10
301.4325546106736
 20
96.83192778179097
 30
0.0
 40
8.0
  0
CIRCLE
  5
259
330
17
100
AcDbEntity
  8
0
100
AcDbCircle
 10
152.38223410621146
 20
14.138837301442457
 30
0.0
 40
8.0
  0
CIRCLE
  5
25A
330
17
100
AcDbEntity
  8
0
100
AcDbCircle
 10
987.3289505076447
 20
455.6263905782212
 30
0.0
 40
8.0
  0
CIRCLE
  5
25B
330
17
100
AcDbEntity
  8
0
100
AcDbCircle
 10
159.61058848835665
 20
32.62836928012068
 30
0.0
 40
8.0
  0
CIRCLE
  5
25C
330
17
100
AcDbEntity
  8
0
100
AcDbCircle
 10
788.6485423065025
 20
963.3052087543758
 30
0.0
 40
8.0
  0
CIRCLE
  5
25D
330
17
100
AcDbEntity
  8
0
100
AcDbCircle
 10
386.01243966508883
 20
163.49655338791263
 30
0.0
 40
8.0
  0
CIRCLE
  5
25E
330
17
100
AcDbEntity
  8
0
100
AcDbCircle
 10
630.111697347344
 20
717.2196727055817
 30
0.0
 40
8.0
  0
CIRCLE
  5
25F
330
17
100
AcDbEntity
  8
0
100
AcDbCircle
 10
727.5948729674622
 20
513.5241696540392
 30
0.0
 40
8.0
  0
CIRCLE
  5
260
330
17
100
AcDbEntity
  8
0
100
AcDbCircle
 10
647.9019383613318
 20
699.3541405636993
 30
0.0
 40
8.0
  0
CIRCLE
  5
261
330
17
100
AcDbEntity
  8
0
100
AcDbCircle
 10
730.236462630783
 20
277.2060372275831
 30
0.0
 40
8.0
  0
CIRCLE
  5
262
330
17
100
AcDbEntity
  8
0
100
AcDbCircle
 10
433.4352913349018
 20
329.27565791429225
 30
0.0
 40
8.0
  0
CIRCLE
  5
263
330
17
100
AcDbEntity
  8
0
100
AcDbCircle
 10
606.681394455667
 20
143.71849543118816
 30
0.0
 40
8.0
  0
CIRCLE
  5
264
330
17
100
AcDbEntity
  8
0
100
AcDbCircle
 10
45.23079503401062
 20
807.2083327438891
 30
0.0
 40
8.0
  0
CIRCLE
  5
265
330
17
100
AcDbEntity
  8
0
100
AcDbCircle
 10
292.61874540316643
 20
937.9077911750156
 30
0.0
 40
8.0
  0
CIRCLE
  5
266
330
17
100
AcDbEntity
  8
0
100
AcDbCircle
 10
519.9789531764061
 20
982.2569010838225
 30
0.0
 40
8.0
  0
CIRCLE
  5
267
330
17
100
AcDbEntity
  8
0
100
AcDbCircle
 10
38.564012788873754
 20
509.6394874942811
 30
0.0
 40
8.0
  0
CIRCLE
  5
268
330
17
100
AcDbEntity
  8
0
100
AcDbCircle
 10
120.43996893545881
 20
52.87168150934792
 30
0.0
 40
8.0
  0
CIRCLE
  5
269
330
17
100
AcDbEntity
  8
0
100
AcDbCircle
 10
576.7875327227856
 20
11.70206881510823
 30
0.0
 40
8.0
  0
CIRCLE
  5
26A
330
17
100
AcDbEntity
  8
0
100
AcDbCircle
 10
894.9260222354001
 20
273.2726994825804
 30
0.0
 40
8.0
  0
CIRCLE
  5
26B
330
17
100
AcDbEntity
  8
0
100
AcDbCircle
 10
661.4657976104331
 20
24.219412751026343
 30
0.0
 40
8.0
  0
CIRCLE
  5
26C
330
17
100
AcDbEntity
  8
0
100
AcDbCircle
 10
929.1022753154626
 20
24.965011003905783
 30
0.0
 40
8.0
  0
CIRCLE
  5
26D
330
17
100
AcDbEntity
  8
0
100
AcDbCircle
 10
296.64641978618124
 20
869.6875918020698
 30
0.0
 40
8.0
  0
CIRCLE
  5
26E
330
17
100
AcDbEntity
  8
0
100
AcDbCircle
 10
904.7829087186785
 20
372.1872174745474
 30
0.0
 40
8.0
  0
CIRCLE
  5
26F
330
17
100
AcDbEntity
  8
0
100
AcDbCircle
 10
273.11751253478866
 20
915.767636795515
 30
0.0
 40
8.0
  0
CIRCLE
  5
270
330
17
100
AcDbEntity
  8
0
100
AcDbCircle
 10
603.0490816335904
 20
609.3081531126971
 30
0.0
 40
8.0
  0
CIRCLE
  5
271
330
17
100
AcDbEntity
  8
0
100
AcDbCircle
 10
626.6882058926737
 20
542.5719773021146
 30
0.0
 40
8.0
  0
CIRCLE
  5
272
330
17
100
AcDbEntity
  8
0
100
AcDbCircle
 10
324.08962595027987
 20
840.5932822376984
 30
0.0
 40
8.0
  0
CIRCLE
  5
273
330
17
100
AcDbEntity
  8
0
100
AcDbCircle
 10
799.7025507320465
 20
117.47871075734639
 30
0.0
 40
8.0
  0
CIRCLE
  5
274
330
17
100
AcDbEntity
  8
0
100
AcDbCircle
 10
896.9687194176146
 20
29.464317845010015
 30
0.0
 40
8.0
  0
CIRCLE
  5
275
330
17
100
AcDbEntity
  8
0
100
AcDbCircle
 10
692.632006544978
 20
576.4948478207587
 30
0.0
 40
8.0
  0
CIRCLE
  5
276
330
17
100
AcDbEntity
  8
0
100
AcDbCircle
 10
220.71593750014213
 20
320.97628369187674
 30
0.0
 40
8.0
  0
CIRCLE
  5
277
330
17
100
AcDbEntity
  8
0
100
AcDbCircle
 10
396.67622695745376
 20
110.85414705472024
 30
0.0
 40
8.0
  0
CIRCLE
  5
278
330
17
100
AcDbEntity
  8
0
100
AcDbCircle
 10
282.4259944227543
 20
815.4254493928554
 30
0.0
 40
8.0
  0
CIRCLE
  5
279
330
17
100
AcDbEntity
  8
0
100
AcDbCircle
 10
571.9712266840799
 20
226.10309603364502
 30
0.0
 40
8.0
  0
CIRCLE
  5
27A
330
17
100
AcDbEntity
  8
0
100
AcDbCircle
 10
347.323500427399
 20
851.533737563498
 30
0.0
 40
8.0
  0
CIRCLE
  5
27B
330
17
100
AcDbEntity
  8
0
100
AcDbCircle
 10
861.1510856253542
 20
729.1792341143939
 30
0.0
 40
8.0
  0
CIRCLE
  5
27C
330
17
100
AcDbEntity
  8
0
100
AcDbCircle
 10
155.55184501900987
 20
85.2760153771018
 30
0.0
 40
8.0
  0
CIRCLE
  5
27D
330
17
100
AcDbEntity
  8
0
100
AcDbCircle
 10
125.93725926188033
 20
342.4396638938524
 30
0.0
 40
8.0
  0
CIRCLE
  5
27E
330
17
100
AcDbEntity
  8
0
100
AcDbCircle
 10
12.87982901405008
 20
58.0353832318613
 30
0.0
 40
8.0
  0
CIRCLE
  5
27F
330
17
100
AcDbEntity
  8
0
100
AcDbCircle
 10
451.498652183903
 20
659.8712019724765
 30
0.0
 40
8.0
  0
CIRCLE
  5
280
330
17
100
AcDbEntity
  8
0
100
AcDbCircle
 10
18.35949438869948
 20
453.2782879893922
 30
0.0
 40
8.0
  0
CIRCLE
  5
281
330
17
100
AcDbEntity
  8
0
100
AcDbCircle
 10
783.7187479683796
 20
808.6925110882802
 30
0.0
 40
8.0
  0
CIRCLE
  5
282
330
17
100
AcDbEntity
  8
0
100
AcDbCircle
 10
808.9409069378471
 20
723.6469112942608
 30
0.0
 40
8.0
  0
CIRCLE
  5
283
330
17
100
AcDbEntity
  8
0
100
AcDbCircle
 10
406.1691634717504
 20
193.45022003760732
 30
0.0
 40
8.0
  0
CIRCLE
  5
284
330
17
100
AcDbEntity
  8
0
100
AcDbCircle
 10
453.82483685867237
 20
21.955367122048898
 30
0.0
 40
8.0
  0
CIRCLE
  5
285
330
17
100
AcDbEntity
  8
0
100
AcDbCircle
 10
248.38592862052872
 20
114.44943163846457
 30
0.0
 40
8.0
  0
CIRCLE
  5
286
330
17
100
AcDbEntity
  8
0
100
AcDbCircle
 10
285.0331319248811
 20
647.6971411067232
 30
0.0
 40
8.0
  0
CIRCLE
  5
287
330
17
100
AcDbEntity
  8
0
100
AcDbCircle
 10
816.7142492241371
 20
498.0079619431485
 30
0.0
 40
8.0
  0
CIRCLE
  5
288
330
17
100
AcDbEntity
  8
0
100
AcDbCircle
 10
805.9990492328162
 20
188.25896675845462
 30
0.0
 40
8.0
  0
CIRCLE
  5
289
330
17
100
AcDbEntity
  8
0
100
AcDbCircle
 10
45.73896870100883
 20
681.7893874288601
 30
0.0
 40
8.0
  0
CIRCLE
  5
28A
330
17
100
AcDbEntity
  8
0
100
AcDbCircle
 10
669.9567246160575
 20
245.15002115174167
 30
0.0
 40
8.0
  0
CIRCLE
  5
28B
330
17
100
AcDbEntity
  8
0
100
AcDbCircle
 10
254.67402566408722
 20
73.14855002160114
 30
0.0
 40
8.0
  0
CIRCLE
  5
28C
330
17
100
AcDbEntity
  8
0
100
AcDbCircle
 10
371.6563049993552
 20
783.7016558625285
 30
0.0
 40
8.0
  0
CIRCLE
  5
28D
330
17
100
AcDbEntity
  8
0
100
AcDbCircle
 10
745.3905292669452
 20
787.5857163815796
 30
0.0
 40
8.0
  0
CIRCLE
  5
28E
330
17
100
AcDbEntity
  8
0
100
AcDbCircle
 10
431.0445938966807
 20
687.3490994027104
 30
0.0
 40
8.0
  0
CIRCLE
  5
28F
330
17
100
AcDbEntity
  8
0
100
AcDbCircle
 10
834.3990960772105
 20
855.7134811483601
 30
0.0
 40
8.0
  0
CIRCLE
  5
290
330
17
100
AcDbEntity
  8
0
100
AcDbCircle
 10
167.17619478976684
 20
950.566130738794
 30
0.0
 40
8.0
  0
CIRCLE
  5
291
330
17
100
AcDbEntity
  8
0
100
AcDbCircle
 10
856.266100917107
 20
45.60525702926378
 30
0.0
 40
8.0
  0
CIRCLE
  5
292
330
17
100
AcDbEntity
  8
0
100
AcDbCircle
 10
8.8555609724228
 20
976.0828435197255
 30
0.0
 40
8.0
  0
CIRCLE
  5
293
330
17
100
AcDbEntity
  8
0
100
AcDbCircle
 10
26.73099367368515
 20
647.7914658982199
 30
0.0
 40
8.0
  0
CIRCLE
  5
294
330
17
100
AcDbEntity
  8
0
100
AcDbCircle
 10
522.9335490268711
 20
198.48976360139835
 30
0.0
 40
8.0
  0
CIRCLE
  5
295
330
17
100
AcDbEntity
  8
0
100
AcDbCircle
 10
784.7121902878325
 20
943.6502006660393
 30
0.0
 40
8.0
  0
CIRCLE
  5
296
330
17
100
AcDbEntity
  8
0
100
AcDbCircle
 10
549.6136491790268
 20
367.4257370010462
 30
0.0
 40
8.0
  0
CIRCLE
  5
297
330
17
100
AcDbEntity
  8
0
100
AcDbCircle
 10
195.04186632781287
 20
469.8218837209565
 30
0.0
 40
8.0
  0
CIRCLE
  5
298
330
17
100
AcDbEntity
  8
0
100
AcDbCircle
 10
799.9488328903074
 20
382.0614084247999
 30
0.0
 40
8.0
  0
CIRCLE
  5
299
330
17
100
AcDbEntity
  8
0
100
AcDbCircle
 10
399.87833285071633
 20
966.3840473379927
 30
0.0
 40
8.0
  0
CIRCLE
  5
29A
330
17
100
AcDbEntity
  8
0
100
AcDbCircle
 10
989.6350739606316
 20
970.6030142550109
 30
0.0
 40
8.0
  0
CIRCLE
  5
29B
330
17
100
AcDbEntity
  8
0
100
AcDbCircle
 10
379.4434627858523
 20
762.9198176473066
 30
0.0
 40
8.0
  0
CIRCLE
  5
29C
330
17
100
AcDbEntity
  8
0
100
AcDbCircle
 10
62.26671124784901
 20
10.246115349635584
 30
0.0
 40
8.0
  0
CIRCLE
  5
29D
330
17
100
AcDbEntity
  8
0
100
AcDbCircle
 10
507.74471840774817
 20
103.50830294809509
 30
0.0
 40
8.0
  0
CIRCLE
  5
29E
330
17
100
AcDbEntity
  8
0
100
AcDbCircle
 10
620.1363402602817
 20
941.4349531500889
 30
0.0
 40
8.0
  0
CIRCLE
  5
29F
330
17
100
AcDbEntity
  8
0
100
AcDbCircle
 10
873.5030398613887
 20
509.98699324143746
 30
0.0
 40
8.0
  0
CIRCLE
  5
2A0
330
17
100
AcDbEntity
  8
0
100
AcDbCircle
 10
683.149224060395
 20
231.20250265769974
 30
0.0
 40
8.0
  0
CIRCLE
  5
2A1
330
17
100
AcDbEntity
  8
0
100
AcDbCircle
 10
128.58182649349948
 20
115.61228644484828
 30
0.0
 40
8.0
  0
CIRCLE
  5
2A2
330
17
100
AcDbEntity
  8
0
100
AcDbCircle
 10
704.2472786252812
 20
274.828682449842
 30
0.0
 40
8.0
  0
CIRCLE
  5
2A3
330
17
100
AcDbEntity
  8
0
100
AcDbCircle
 10
982.4365805316488
 20
127.46306044055122
 30
0.0
 40
8.0
  0
CIRCLE
  5
2A4
330
17
100
AcDbEntity
  8
0
100
AcDbCircle
 10
509.78624467840086
 20
743.6967501647003
 30
0.0
 40
8.0
  0
CIRCLE
  5
2A5
330
17
100
AcDbEntity
  8
0
100
AcDbCircle
 10
16.868613764836645
 20
918.4298003167728
 30
0.0
 40
8.0
  0
CIRCLE
  5
2A6
330
17
100
AcDbEntity
  8
0
100
AcDbCircle
 10
270.66141098563884
 20
830.3614819927546
 30
0.0
 40
8.0
  0
CIRCLE
  5
2A7
330
17
100
AcDbEntity
  8
0
100
AcDbCircle
 10
242.51580444938475
 20
819.3623422926806
 30
0.0
 40
8.0
  0
CIRCLE
  5
2A8
330
17
100
AcDbEntity
  8
0
100
AcDbCircle
 10
812.6822278413879
 20
161.8970727361215
 30
0.0
 40
8.0
  0
CIRCLE
  5
2A9
330
17
100
AcDbEntity
  8
0
100
AcDbCircle
 10
987.2808107210027
 20
939.8398188013482
 30
0.0
 40
8.0
  0
CIRCLE
  5
2AA
330
17
100
AcDbEntity
  8
0
100
AcDbCircle
 10
490.8452701822564
 20
987.9830785594366
 30
0.0
 40
8.0
  0
CIRCLE
  5
2AB
330
17
100
AcDbEntity
  8
0
100
AcDbCircle
 10
404.2637387947078
 20
133.611125896801
 30
0.0
 40
8.0
  0
CIRCLE
  5
2AC
330
17
100
AcDbEntity
  8
0
100
AcDbCircle
 10
313.31728475001387
 20
609.3453504490393
 30
0.0
 40
8.0
  0
CIRCLE
  5
2AD
330
17
100
AcDbEntity
  8
0
100
AcDbCircle
 10
795.7447340379427
 20
666.9229854987675
 30
0.0
 40
8.0
  0
CIRCLE
  5
2AE
330
17
100
AcDbEntity
  8
0
100
AcDbCircle
 10
760.3692632045618
 20
622.2004370923825
 30
0.0
 40
8.0
  0
CIRCLE
  5
2AF
330
17
100
AcDbEntity
  8
0
100
AcDbCircle
 10
557.3443587015146
 20
45.82284629065305
 30
0.0
 40
8.0
  0
CIRCLE
  5
2B0
330
17
100
AcDbEntity
  8
0
100
AcDbCircle
 10
423.52963335924585
 20
895.7969314043212
 30
0.0
 40
8.0
  0
CIRCLE
  5
2B1
330
17
100
AcDbEntity
  8
0
100
AcDbCircle
 10
429.0712859462978
 20
9.3461316836271
 30
0.0
 40
8.0
  0
CIRCLE
  5
2B2
330
17
100
AcDbEntity
  8
0
100
AcDbCircle
 10
621.3598189430115
 20
511.03772769850156
 30
0.0
 40
8.0
  0
CIRCLE
  5
2B3
330
17
100
AcDbEntity
  8
0
100
AcDbCircle
 10
715.9293197212689
 20
925.7771301608698
 30
0.0
 40
8.0
  0
CIRCLE
  5
2B4
330
17
100
AcDbEntity
  8
0
100
AcDbCircle
 10
100.71862540542782
 20
704.0911128807201
 30
0.0
 40
8.0
  0
CIRCLE
  5
2B5
330
17
100
AcDbEntity
  8
0
100
AcDbCircle
 10
123.3894079380326
 20
135.26358348270242
 30
0.0
 40
8.0
  0
CIRCLE
  5
2B6
330
17
100
AcDbEntity
  8
0
100
AcDbCircle
 10
368.0218546270993
 20
598.161946688084
 30
0.0
 40
8.0
  0
CIRCLE
  5
2B7
330
17
100
AcDbEntity
  8
0
100
AcDbCircle
 10
465.4797802634116
 20
703.6913192700459
 30
0.0
 40
8.0
  0
CIRCLE
  5
2B8
330
17
100
AcDbEntity
  8
0
100
AcDbCircle
 10
333.04724558131
 20
969.9233808885579
 30
0.0
 40
8.0
  0
CIRCLE
  5
2B9
330
17
100
AcDbEntity
  8
0
100
AcDbCircle
 10
966.1381001963764
 20
701.2298584512245
 30
0.0
 40
8.0
  0
CIRCLE
  5
2BA
330
17
100
AcDbEntity
  8
0
100
AcDbCircle
 10
283.10076343562207
 20
93.7688725695049
 30
0.0
 40
8.0
  0
CIRCLE
  5
2BB
330
17
100
AcDbEntity
  8
0
100
AcDbCircle
 10
701.2744167431842
 20
688.9841068988153
 30
0.0
 40
8.0
  0
CIRCLE
  5
2BC
330
17
100
AcDbEntity
  8
0
100
AcDbCircle
 10
716.8671983242803
 20
15.029850962199436
 30
0.0
 40
8.0
  0
CIRCLE
  5
2BD
330
17
100
AcDbEntity
  8
0
100
AcDbCircle
 10
980.1219969574714
 20
765.8056613084888
 30
0.0
 40
8.0
  0
CIRCLE
  5
2BE
330
17
100
AcDbEntity
  8
0
100
AcDbCircle
 10
440.8492346143998
 20
491.31447065751007
 30
0.0
 40
8.0
  0
CIRCLE
  5
2BF
330
17
100
AcDbEntity
  8
0
100
AcDbCircle
 10
57.93026447195446
 20
926.1144779770086
 30
0.0
 40
8.0
  0
CIRCLE
  5
2C0
330
17
100
AcDbEntity
  8
0
100
AcDbCircle
 10
896.2518240307422
 20
51.75802308448472
 30
0.0
 40
8.0
  0
CIRCLE
  5
2C1
330
17
100
AcDbEntity
  8
0
100
AcDbCircle
 10
397.8879366115181
 20
583.6000508188189
 30
0.0
 40
8.0
  0
CIRCLE
  5
2C2
330
17
100
AcDbEntity
  8
0
100
AcDbCircle
 10
891.9332267726688
 20
349.13708601513457
 30
0.0
 40
8.0
  0
CIRCLE
  5
2C3
330
17
100
AcDbEntity
  8
0
100
AcDbCircle
 10
915.3300226009546
 20
542.3228935067912
 30
0.0
 40
8.0
  0
CIRCLE
  5
2C4
330
17
100
AcDbEntity
  8
0
100
AcDbCircle
 10
344.3048543311832
 20
798.1217718877529
 30
0.0
 40
8.0
  0
CIRCLE
  5
2C5
330
17
100
AcDbEntity
  8
0
100
AcDbCircle
 10
242.5104139093273
 20
15.20854060044135
 30
0.0
 40
8.0
  0
CIRCLE
  5
2C6
330
17
100
AcDbEntity
  8
0
100
AcDbCircle
 10
485.0054559216874
 20
310.52458936892606
 30
0.0
 40
8.0
  0
CIRCLE
  5
2C7
330
17
100
AcDbEntity
  8
0
100
AcDbCircle
 10
538.3290831495623
 20
250.3489991709978
 30
0.0
 40
8.0
  0
CIRCLE
  5
2C8
330
17
100
AcDbEntity
  8
0
100
AcDbCircle
 10
190.29492985365883
 20
147.12119873434887
 30
0.0
 40
8.0
  0
CIRCLE
  5
2C9
330
17
100
AcDbEntity
  8
0
100
AcDbCircle
 10
301.3482551403084
 20
632.411168882428
 30
0.0
 40
8.0
  0
CIRCLE
  5
2CA
330
17
100
AcDbEntity
  8
0
100
AcDbCircle
 10
407.0926022500571
 20
882.467203837688
 30
0.0
 40
8.0
  0
CIRCLE
  5
2CB
330
17
100
AcDbEntity
  8
0
100
AcDbCircle
 10
637.8000556270891
 20
328.12552127124127
 30
0.0
 40
8.0
  0
CIRCLE
  5
2CC
330
17
100
AcDbEntity
  8
0
100
AcDbCircle
 10
36.91298542840157
 20
775.600457661132
 30
0.0
 40
8.0
  0
CIRCLE
  5
2CD
330
17
100
AcDbEntity
  8
0
100
AcDbCircle
 10
881.9128444326732
 20
14.68123516976045
 30
0.0
 40
8.0
  0
CIRCLE
  5
2CE
330
17
100
AcDbEntity
  8
0
100
AcDbCircle
 10
489.4282110207755
 20
741.0403202705463
 30
0.0
 40
8.0
  0
CIRCLE
  5
2CF
330
17
100
AcDbEntity
  8
0
100
AcDbCircle
 10
442.8568650602188
 20
46.950424233048516
 30
0.0
 40
8.0
  0
CIRCLE
  5
2D0
330
17
100
AcDbEntity
  8
0
100
AcDbCircle
 10
108.65762313098885
 20
681.8294890965391
 30
0.0
 40
8.0
  0
CIRCLE
  5
2D1
330
17
100
AcDbEntity
  8
0
100
AcDbCircle
 10
435.5718209951779
 20
962.6894208636243
 30
0.0
 40
8.0
  0
CIRCLE
  5
2D2
330
17
100
AcDbEntity
  8
0
100
AcDbCircle
 10
366.34674380199334
 20
730.3812278983737
 30
0.0
 40
8.0
  0
CIRCLE
  5
2D3
330
17
100
AcDbEntity
  8
0
100
AcDbCircle
 10
11.389453736860407
 20
777.1570068993719
 30
0.0
 40
8.0
  0
CIRCLE
  5
2D4
330
17
100
AcDbEntity
  8
0
100
AcDbCircle
 10
690.0413549840438
 20
264.1152277184094
 30
0.0
 40
8.0
  0
CIRCLE
  5
2D5
330
17
100
AcDbEntity
  8
0
100
AcDbCircle
 10
973.3712539183925
 20
9.148311398358077
 30
0.0
 40
8.0
  0
CIRCLE
  5
2D6
330
17
100
AcDbEntity
  8
0
100
AcDbCircle
 10
165.7623595408637
 20
312.84688337758325
 30
0.0
 40
8.0
  0
CIRCLE
  5
2D7
330
17
100
AcDbEntity
  8
0
100
AcDbCircle
 10
793.3340739565846
 20
420.9370180509347
 30
0.0
 40
8.0
  0
CIRCLE
  5
2D8
330
17
100
AcDbEntity
  8
0
100
AcDbCircle
 10
182.9230010212059
 20
332.61578995198704
 30
0.0
 40
8.0
  0
CIRCLE
  5
2D9
330
17
100
AcDbEntity
  8
0
100
AcDbCircle
 10
990.6143941867558
 20
101.15143010680946
 30
0.0
 40
8.0
  0
CIRCLE
  5
2DA
330
17
100
AcDbEntity
  8
0
100
AcDbCircle
 10
952.8149543166162
 20
989.4151912921903
 30
0.0
 40
8.0
  0
CIRCLE
  5
2DB
330
17
100
AcDbEntity
  8
0
100
AcDbCircle
 10
261.85329525445337
 20
531.3751225202731
 30
0.0
 40
8.0
  0
CIRCLE
  5
2DC
330
17
100
AcDbEntity
  8
0
100
AcDbCircle
 10
45.9412727372621
 20
442.9932099515851
 30
0.0
 40
8.0
  0
CIRCLE
  5
2DD
330
17
100
AcDbEntity
  8
0
100
AcDbCircle
 10
959.2099465403577
 20
441.71766614959756
 30
0.0
 40
8.0
  0
CIRCLE
  5
2DE
330
17
100
AcDbEntity
  8
0
100
AcDbCircle
 10
985.305625686205
 20
725.4624277610795
 30
0.0
 40
8.0
  0
CIRCLE
  5
2DF
330
17
100
AcDbEntity
  8
0
100
AcDbCircle
 10
249.932467631479
 20
366.62603834422714
 30
0.0
 40
8.0
  0
CIRCLE
  5
2E0
330
17
100
AcDbEntity
  8
0
100
AcDbCircle
 10
41.89565798098707
 20
10.033036157836623
 30
0.0
 40
8.0
  0
CIRCLE
  5
2E1
330
17
100
AcDbEntity
  8
0
100
AcDbCircle
 10
412.0751001839033
 20
104.53872868705949
 30
0.0
 40
8.0
  0
CIRCLE
  5
2E2
330
17
100
AcDbEntity
  8
0
100
AcDbCircle
 10
9.027840961540374
 20
141.92156349557405
 30
0.0
 40
8.0
  0
CIRCLE
  5
2E3
330
17
100
AcDbEntity
  8
0
100
AcDbCircle
 10
465.53578575516025
 20
309.96837997084396
 30
0.0
 40
8.0
  0
CIRCLE
  5
2E4
330
17
100
AcDbEntity
  8
0
100
AcDbCircle
 10
20.690254272058283
 20
318.9107556786516
 30
0.0
 40
8.0
  0
CIRCLE
  5
2E5
330
17
100
AcDbEntity
  8
0
100
AcDbCircle
 10
597.5229631155172
 20
416.3818328325498
 30
0.0
 40
8.0
  0
CIRCLE
  5
2E6
330
17
100
AcDbEntity
  8
0
100
AcDbCircle
 10
448.2965468199644
 20
355.80457216887174
 30
0.0
 40
8.0
  0
CIRCLE
  5
2E7
330
17
100
AcDbEntity
  8
0
100
AcDbCircle
 10
46.81206075303708
 20
714.4898585890503
 30
0.0
 40
8.0
  0
CIRCLE
  5
2E8
330
17
100
AcDbEntity
  8
0
100
AcDbCircle
 10
542.9055921543796
 20
15.32791760694459
 30
0.0
 40
8.0
  0
CIRCLE
  5
2E9
330
17
100
AcDbEntity
  8
0
100
AcDbCircle
 10
467.2763924740508
 20
668.3442927495732
 30
0.0
 40
8.0
  0
CIRCLE
  5
2EA
330
17
100
AcDbEntity
  8
0
100
AcDbCircle
 10
406.89861835383493
 20
567.0606579311386
 30
0.0
 40
8.0
  0
CIRCLE
  5
2EB
330
17
100
AcDbEntity
  8
0
100
AcDbCircle
 10
352.3622882492263
 20
973.9720607063182
 30
0.0
 40
8.0
  0
CIRCLE
  5
2EC
330
17
100
AcDbEntity
  8
0
100
AcDbCircle
 10
754.664276360746
 20
145.21353673866201
 30
0.0
 40
8.0
  0
CIRCLE
  5
2ED
330
17
100
AcDbEntity
  8
0
100
AcDbCircle
 10
388.17265947885306
 20
434.5506373892152
 30
0.0
 40
8.0
  0
CIRCLE
  5
2EE
330
17
100
AcDbEntity
  8
0
100
AcDbCircle
 10
239.92503637081745
 20
315.98104680850804
 30
0.0
 40
8.0
  0
CIRCLE
  5
2EF
330
17
100
AcDbEntity
  8
0
100
AcDbCircle
 10
163.03893770746316
 20
149.8127514545196
 30
0.0
 40
8.0
  0
CIRCLE
  5
2F0
330
17
100
AcDbEntity
  8
0
100
AcDbCircle
 10
141.0591869117429
 20
825.3583458952155
 30
0.0
 40
8.0
  0
CIRCLE
  5
2F1
330
17
100
AcDbEntity
  8
0
100
AcDbCircle
 10
987.3376864159768
 20
423.0750581879586
 30
0.0
 40
8.0
  0
CIRCLE
  5
2F2
330
17
100
AcDbEntity
  8
0
100
AcDbCircle
 10
45.18328326118765
 20
147.50780250897327
 30
0.0
 40
8.0
  0
CIRCLE
  5
2F3
330
17
100
AcDbEntity
  8
0
100
AcDbCircle
 10
772.6458873890431
 20
928.8307124648198
 30
0.0
 40
8.0
  0
CIRCLE
  5
2F4
330
17
100
AcDbEntity
  8
0
100
AcDbCircle
 10
613.8412500208972
 20
864.4772011869362
 30
0.0
 40
8.0
  0
CIRCLE
  5
2F5
330
17
100
AcDbEntity
  8
0
100
AcDbCircle
 10
80.08925772573411
 20
572.2136321290106
 30
0.0
 40
8.0
  0
CIRCLE
  5
2F6
330
17
100
AcDbEntity
  8
0
100
AcDbCircle
 10
161.35576686684084
 20
561.6834038707959
 30
0.0
 40
8.0
  0
CIRCLE
  5
2F7
330
17
100
AcDbEntity
  8
0
100
AcDbCircle
 10
866.4587454823037
 20
459.6328309355578
 30
0.0
 40
8.0
  0
CIRCLE
  5
2F8
330
17
100
AcDbEntity
  8
0
100
AcDbCircle
 10
474.4535909090337
 20
598.7579625640911
 30
0.0
 40
8.0
  0
CIRCLE
  5
2F9
330
17
100
AcDbEntity
  8
0
100
AcDbCircle
 10
428.32447917260396
 20
308.84173424904094
 30
0.0
 40
8.0
  0
CIRCLE
  5
2FA
330
17
100
AcDbEntity
  8
0
100
AcDbCircle
 10
720.029457571205
 20
621.2425530654915
 30
0.0
 40
8.0
  0
CIRCLE
  5
2FB
330
17
100
AcDbEntity
  8
0
100
AcDbCircle
 10
788.8964839688795
 20
533.526004231404
 30
0.0
 40
8.0
  0
CIRCLE
  5
2FC
330
17
100
AcDbEntity
  8
0
100
AcDbCircle
 10
571.544081433623
 20
78.47603957377977
 30
0.0
 40
8.0
  0
CIRCLE
  5
2FD
330
17
100
AcDbEntity
  8
0
100
AcDbCircle
 10
448.86839124353503
 20
103.46212713863025
 30
0.0
 40
8.0
  0
CIRCLE
  5
2FE
330
17
100
AcDbEntity
  8
0
100
AcDbCircle
 10
95.95151001635512
 20
244.22189714035824
 30
0.0
 40
8.0
  0
CIRCLE
  5
2FF
330
17
100
AcDbEntity
  8
0
100
AcDbCircle
 10
592.3477769220117
 20
321.68242030862973
 30
0.0
 40
8.0
  0
CIRCLE
  5
300
330
17
100
AcDbEntity
  8
0
100
AcDbCircle
 10
367.3650368630041
 20
867.6800039103792
 30
0.0
 40
8.0
  0
CIRCLE
  5
301
330
17
100
AcDbEntity
  8
0
100
AcDbCircle
 10
318.5498115161115
 20
855.8925908313089
 30
0.0
 40
8.0
  0
CIRCLE
  5
302
330
17
100
AcDbEntity
  8
0
100
AcDbCircle
 10
935.7123125826907
 20
873.2364776353778
 30
0.0
 40
8.0
  0
CIRCLE
  5
303
330
17
100
AcDbEntity
  8
0
100
AcDbCircle
 10
103.0310031902654
 20
142.10387303811697
 30
0.0
 40
8.0
  0
CIRCLE
  5
304
330
17
100
AcDbEntity
  8
0
100
AcDbCircle
 10
427.73213793365056
 20
859.145375893901
 30
0.0
 40
8.0
  0
CIRCLE
  5
305
330
17
100
AcDbEntity
  8
0
100
AcDbCircle
 10
166.26804614519267
 20
339.19512856067934
 30
0.0
 40
8.0
  0
CIRCLE
  5
306
330
17
100
AcDbEntity
  8
0
100
AcDbCircle
 10
817.6416527990187
 20
884.9895151517788
 30
0.0
 40
8.0
  0
CIRCLE
  5
307
330
17
100
AcDbEntity
  8
0
100
AcDbCircle
 10
58.759409541372754
 20
698.0893553411883
 30
0.0
 40
8.0
  0
CIRCLE
  5
308
330
17
100
AcDbEntity
  8
0
100
AcDbCircle
 10
46.69040364210636
 20
990.2693906441963
 30
0.0
 40
8.0
  0
CIRCLE
  5
309
330
17
100
AcDbEntity
  8
0
100
AcDbCircle
 10
692.2393017548075
 20
608.153499243185
 30
0.0
 40
8.0
  0
CIRCLE
  5
30A
330
17
100
AcDbEntity
  8
0
100
AcDbCircle
 10
225.02158394632866
 20
683.4812942368014
 30
0.0
 40
8.0
  0
CIRCLE
  5
30B
330
17
100
AcDbEntity
  8
0
100
AcDbCircle
 10
256.60436097538934
 20
917.9475436046171
 30
0.0
 40
8.0
  0
CIRCLE
  5
30C
330
17
100
AcDbEntity
  8
0
100
AcDbCircle
 10
529.579106729434
 20
773.1720448326478
 30
0.0
 40
8.0
  0
CIRCLE
  5
30D
330
17
100
AcDbEntity
  8
0
100
AcDbCircle
 10
290.0649614605064
 20
853.8123527172952
 30
0.0
 40
8.0
  0
CIRCLE
  5
30E
330
17
100
AcDbEntity
  8
0
100
AcDbCircle
 10
159.10294086511232
 20
990.5655238509332
 30
0.0
 40
8.0
  0
CIRCLE
  5
30F
330
17
100
AcDbEntity
  8
0
100
AcDbCircle
 10
763.3569217813367
 20
476.96700038668155
 30
0.0
 40
8.0
  0
CIRCLE
  5
310
330
17
100
AcDbEntity
  8
0
100
AcDbCircle
 10
933.0599670404575
 20
551.545923090658
 30
0.0
 40
8.0
  0
CIRCLE
  5
311
330
17
100
AcDbEntity
  8
0
100
AcDbCircle
 10
749.1607870988935
 20
639.4319617518659
 30
0.0
 40
8.0
  0
CIRCLE
  5
312
330
17
100
AcDbEntity
  8
0
100
AcDbCircle
 10
346.98220431338876
 20
822.1437384488364
 30
0.0
 40
8.0
  0
CIRCLE
  5
313
330
17
100
AcDbEntity
  8
0
100
AcDbCircle
 10
109.13865259491773
 20
656.5569982120514
 30
0.0
 40
8.0
  0
CIRCLE
  5
314
330
17
100
AcDbEntity
  8
0
100
AcDbCircle
 10
990.4099210677437
 20
706.6444117935991
 30
0.0
 40
8.0
  0
CIRCLE
  5
315
330
17
100
AcDbEntity
  8
0
100
AcDbCircle
 10
499.9018523830408
 20
682.2821343419106
 30
0.0
 40
8.0
  0
CIRCLE
  5
316
330
17
100
AcDbEntity
  8
0
100
AcDbCircle
 10
772.4048861237825
 20
151.40643991356714
 30
0.0
 40
8.0
  0
CIRCLE
  5
317
330
17
100
AcDbEntity
  8
0
100
AcDbCircle
 10
496.4264596542465
 20
663.398769131287
 30
0.0
 40
8.0
  0
CIRCLE
  5
318
330
17
100
AcDbEntity
  8
0
100
AcDbCircle
 10
419.7897408510858
 20
943.0784809104299
 30
0.0
 40
8.0
  0
CIRCLE
  5
319
330
17
100
AcDbEntity
  8
0
100
AcDbCircle
 10
591.823665692028
 20
685.6238001611615
 30
0.0
 40
8.0
  0
CIRCLE
  5
31A
330
17
100
AcDbEntity
  8
0
100
AcDbCircle
 10
977.9968204126565
 20
25.722016393935483
 30
0.0
 40
8.0
  0
CIRCLE
  5
31B
330
17
100
AcDbEntity
  8
0
100
AcDbCircle
 10
61.734855232616695
 20
565.5967862445343
 30
0.0
 40
8.0
  0
CIRCLE
  5
31C
330
17
100
AcDbEntity
  8
0
100
AcDbCircle
 10
8.902476227825995
 20
709.6683711995744
 30
0.0
 40
8.0
  0
CIRCLE
  5
31D
330
17
100
AcDbEntity
  8
0
100
AcDbCircle
 10
560.028776195981
 20
350.66993667468
 30
0.0
 40
8.0
  0
CIRCLE
  5
31E
330
17
100
AcDbEntity
  8
0
100
AcDbCircle
 10
370.3456450320064
 20
177.36815831911977
 30
0.0
 40
8.0
  0
CIRCLE
  5
31F
330
17
100
AcDbEntity
  8
0
100
AcDbCircle
 10
929.584335965083
 20
568.2924115857261
 30
0.0
 40
8.0
  0
CIRCLE
  5
320
330
17
100
AcDbEntity
  8
0
100
AcDbCircle
 10
776.8383313532186
 20
767.4459330413864
 30
0.0
 40
8.0
  0
CIRCLE
  5
321
330
17
100
AcDbEntity
  8
0
100
AcDbCircle
 10
60.590125355250095
 20
672.7235533953489
 30
0.0
 40
8.0
  0
CIRCLE
  5
322
330
17
100
AcDbEntity
  8
0
100
AcDbCircle
 10
46.69255112281103
 20
40.852144073225254
 30
0.0
 40
8.0
  0
CIRCLE
  5
323
330
17
100
AcDbEntity
  8
0
100
AcDbCircle
 10
227.63574078533884
 20
712.5340806366803
 30
0.0
 40
8.0
  0
CIRCLE
  5
324
330
17
100
AcDbEntity
  8
0
100
AcDbCircle
 10
918.5897078108032
 20
957.1268775643773
 30
0.0
 40
8.0
  0
CIRCLE
  5
325
330
17
100
AcDbEntity
  8
0
100
AcDbCircle
 10
149.3450875680297
 20
547.4551081230323
 30
0.0
 40
8.0
  0
CIRCLE
  5
326
330
17
100
AcDbEntity
  8
0
100
AcDbCircle
 10
322.69806751209114
 20
984.5729625878992
 30
0.0
 40
8.0
  0
CIRCLE
  5
327
330
17
100
AcDbEntity
  8
0
100
AcDbCircle
 10
227.15562507584394
 20
122.04393712300644
 30
0.0
 40
8.0
  0
CIRCLE
  5
328
330
17
100
AcDbEntity
  8
0
100
AcDbCircle
 10
9.622777597177848
 20
726.7743476922882
 30
0.0
 40
8.0
  0
CIRCLE
  5
329
330
17
100
AcDbEntity
  8
0
100
AcDbCircle
 10
846.8845942644058
 20
335.3861354727339
 30
0.0
 40
8.0
  0
CIRCLE
  5
32A
330
17
100
AcDbEntity
  8
0
100
AcDbCircle
 10
695.4030046458012
 20
384.00635978914755
 30
0.0
 40
8.0
  0
CIRCLE
  5
32B
330
17
100
AcDbEntity
  8
0
100
AcDbCircle
 10
478.7118609635485
 20
723.260116335409
 30
0.0
 40
8.0
  0
CIRCLE
  5
32C
330
17
100
AcDbEntity
  8
0
100
AcDbCircle
 10
895.8714250288957
 20
833.361196120453
 30
0.0
 40
8.0
  0
CIRCLE
  5
32D
330
17
100
AcDbEntity
  8
0
100
AcDbCircle
 10
181.13517980996048
 20
494.90133250767656
 30
0.0
 40
8.0
  0
CIRCLE
  5
32E
330
17
100
AcDbEntity
  8
0
100
AcDbCircle
 10
443.53598975154716
 20
80.24015014310615
 30
0.0
 40
8.0
  0
CIRCLE
  5
32F
330
17
100
AcDbEntity
  8
0
100
AcDbCircle
 10
556.0843966060177
 20
186.51809174220563
 30
0.0
 40
8.0
  0
CIRCLE
  5
330
330
17
100
AcDbEntity
  8
0
100
AcDbCircle
 10
681.6499798527483
 20
72.7334324404119
 30
0.0
 40
8.0
  0
CIRCLE
  5
331
330
17
100
AcDbEntity
  8
0
100
AcDbCircle
 10
788.2188370524829
 20
861.6105233168008
 30
0.0
 40
8.0
  0
CIRCLE
  5
332
330
17
100
AcDbEntity
  8
0
100
AcDbCircle
 10
812.7700555911364
 20
409.74580454052204
 30
0.0
 40
8.0
  0
CIRCLE
  5
333
330
17
100
AcDbEntity
  8
0
100
AcDbCircle
 10
415.118792459464
 20
261.30261076039216
 30
0.0
 40
8.0
  0
CIRCLE
  5
334
330
17
100
AcDbEntity
  8
0
100
AcDbCircle
 10
710.7243104275996
 20
473.6365078176691
 30
0.0
 40
8.0
  0
CIRCLE
  5
335
330
17
100
AcDbEntity
  8
0
100
AcDbCircle
 10
340.16058961927746
 20
628.0799762205331
 30
0.0
 40
8.0
  0
CIRCLE
  5
336
330
17
100
AcDbEntity
  8
0
100
AcDbCircle
 10
421.61551212555503
 20
286.23311392422977
 30
0.0
 40
8.0
  0
CIRCLE
  5
337
330
17
100
AcDbEntity
  8
0
100
AcDbCircle
 10
32.4501661559356
 20
569.3561264494291
 30
0.0
 40
8.0
  0
CIRCLE
  5
338
330
17
100
AcDbEntity
  8
0
100
AcDbCircle
 10
210.07446937362567
 20
214.92726801310843
 30
0.0
 40
8.0
  0
CIRCLE
  5
339
330
17
100
AcDbEntity
  8
0
100
AcDbCircle
 10
31.22094841822833
 20
546.8416300099743
 30
0.0
 40
8.0
  0
CIRCLE
  5
33A
330
17
100
AcDbEntity
  8
0
100
AcDbCircle
 10
985.2364510090031
 20
173.55596724615833
 30
0.0
 40
8.0
  0
CIRCLE
  5
33B
330
17
100
AcDbEntity
  8
0
100
AcDbCircle
 10
214.04179189973541
 20
458.7854809827582
 30
0.0
 40
8.0
  0
CIRCLE
  5
33C
330
17
100
AcDbEntity
  8
0
100
AcDbCircle
 10
673.053923519832
 20
328.31489648192115
 30
0.0
 40
8.0
  0
CIRCLE
  5
33D
330
17
100
AcDbEntity
  8
0
100
AcDbCircle
 10
210.121387290688
 20
151.1900149178755
 30
0.0
 40
8.0
  0
CIRCLE
  5
33E
330
17
100
AcDbEntity
  8
0
100
AcDbCircle
 10
381.4305523303732
 20
190.62582000146813
 30
0.0
 40
8.0
  0
CIRCLE
  5
33F
330
17
100
AcDbEntity
  8
0
100
AcDbCircle
 10
523.5235212890639
 20
512.2920537171188
 30
0.0
 40
8.0
  0
CIRCLE
  5
340
330
17
100
AcDbEntity
  8
0
100
AcDbCircle
 10
903.5394733432904
 20
287.60480681288743
 30
0.0
 40
8.0
  0
CIRCLE
  5
341
330
17
100
AcDbEntity
  8
0
100
AcDbCircle
 10
879.1399623464006
 20
436.36435116632714
 30
0.0
 40
8.0
  0
CIRCLE
  5
342
330
17
100
AcDbEntity
  8
0
100
AcDbCircle
 10
360.6998276670522
 20
627.2972976469272
 30
0.0
 40
8.0
  0
CIRCLE
  5
343
330
17
100
AcDbEntity
  8
0
100
AcDbCircle
 10
802.0995025990318
 20
773.8623354341557
 30
0.0
 40
8.0
  0
CIRCLE
  5
344
330
17
100
AcDbEntity
  8
0
100
AcDbCircle
 10
448.2571783866643
 20
337.7324777155644
 30
0.0
 40
8.0
  0
CIRCLE
  5
345
330
17
100
AcDbEntity
  8
0
100
AcDbCircle
 10
125.04274094319493
 20
21.4251510957124
 30
0.0
 40
8.0
  0
CIRCLE
  5
346
330
17
100
AcDbEntity
  8
0
100
AcDbCircle
 10
608.2141443353254
 20
848.6428158241357
 30
0.0
 40
8.0
  0
CIRCLE
  5
347
330
17
100
AcDbEntity
  8
0
100
AcDbCircle
 10
716.2530418059467
 20
813.3915654786769
 30
0.0
 40
8.0
  0
CIRCLE
  5
348
330
17
100
AcDbEntity
  8
0
100
AcDbCircle
 10
126.21827591796811
 20
371.4155798795271
 30
0.0
 40
8.0
  0
CIRCLE
  5
349
330
17
100
AcDbEntity
  8
0
100
AcDbCircle
 10
500.569142955694
 20
119.35500179741632
 30
0.0
 40
8.0
  0
CIRCLE
  5
34A
330
17
100
AcDbEntity
  8
0
100
AcDbCircle
 10
878.6983302720294
 20
628.6758959556537
 30
0.0
 40
8.0
  0
CIRCLE
  5
34B
330
17
100
AcDbEntity
  8
0
100
AcDbCircle
 10
810.1888458941825
 20
703.8308829187259
 30
0.0
 40
8.0
  0
CIRCLE
  5
34C
330
17
100
AcDbEntity
  8
0
100
AcDbCircle
 10
413.8280806297318
 20
491.7927717912412
 30
0.0
 40
8.0
  0
CIRCLE
  5
34D
330
17
100
AcDbEntity
  8
0
100
AcDbCircle
 10
739.9594001028755
 20
160.8633912811888
 30
0.0
 40
8.0
  0
CIRCLE
  5
34E
330
17
100
AcDbEntity
  8
0
100
AcDbCircle
 10
502.62017628517674
 20
413.1654357447788
 30
0.0
 40
8.0
  0
CIRCLE
  5
34F
330
17
100
AcDbEntity
  8
0
100
AcDbCircle
 10
195.69173378023487
 20
346.6880343290133
 30
0.0
 40
8.0
  0
CIRCLE
  5
350
330
17
100
AcDbEntity
  8
0
100
AcDbCircle
 10
964.6263669174193
 20
902.1445098290113
 30
0.0
 40
8.0
  0
CIRCLE
  5
351
330
17
100
AcDbEntity
  8
0
100
AcDbCircle
 10
792.029623617274
 20
989.4204484931593
 30
0.0
 40
8.0
  0
CIRCLE
  5
352
330
17
100
AcDbEntity
  8
0
100
AcDbCircle
 10
698.9731760906485
 20
972.4910620174351
 30
0.0
 40
8.0
  0
CIRCLE
  5
353
330
17
100
AcDbEntity
  8
0
100
AcDbCircle
 10
12.04915032063801
 20
638.648736599981
 30
0.0
 40
8.0
  0
CIRCLE
  5
354
330
17
100
AcDbEntity
  8
0
100
AcDbCircle
 10
907.6702403700168
 20
683.4178307729956
 30
0.0
 40
8.0
  0
CIRCLE
  5
355
330
17
100
AcDbEntity
  8
0
100
AcDbCircle
 10
89.26381634470253
 20
975.1516326835961
 30
0.0
 40
8.0
  0
CIRCLE
  5
356
330
17
100
AcDbEntity
  8
0
100
AcDbCircle
 10
504.0105759849888
 20
140.0653368063041
 30
0.0
 40
8.0
  0
CIRCLE
  5
357
330
17
100
AcDbEntity
  8
0
100
AcDbCircle
 10
279.56119679007645
 20
799.1362940057035
 30
0.0
 40
8.0
  0
CIRCLE
  5
358
330
17
100
AcDbEntity
  8
0
100
AcDbCircle
 10
330.3459631538115
 20
608.3219926255609
 30
0.0
 40
8.0
  0
CIRCLE
  5
359
330
17
100
AcDbEntity
  8
0
100
AcDbCircle
 10
582.7477576965694
 20
181.73294063116907
 30
0.0
 40
8.0
  0
CIRCLE
  5
35A
330
17
100
AcDbEntity
  8
0
100
AcDbCircle
 10
731.4268647155042
 20
991.4109099110161
 30
0.0
 40
8.0
  0
CIRCLE
  5
35B
330
17
100
AcDbEntity
  8
0
100
AcDbCircle
 10
518.9868788495689
 20
11.389860638668935
 30
0.0
 40
8.0
  0
CIRCLE
  5
35C
330
17
100
AcDbEntity
  8
0
100
AcDbCircle
 10
718.5593047649569
 20
497.7642091950827
 30
0.0
 40
8.0
  0
CIRCLE
  5
35D
330
17
100
AcDbEntity
  8
0
100
AcDbCircle
 10
880.7312654395029
 20
314.2655295008191
 30
0.0
 40
8.0
  0
CIRCLE
  5
35E
330
17
100
AcDbEntity
  8
0
100
AcDbCircle
 10
235.46404746060276
 20
220.01634156869954
 30
0.0
 40
8.0
  0
CIRCLE
  5
35F
330
17
100
AcDbEntity
  8
0
100
AcDbCircle
 10
307.4672362861539
 20
929.6044792209885
 30
0.0
 40
8.0
  0
CIRCLE
  5
360
330
17
100
AcDbEntity
  8
0
100
AcDbCircle
 10
489.4736900849654
 20
800.0419780174886
 30
0.0
 40
8.0
  0
CIRCLE
  5
361
330
17
100
AcDbEntity
  8
0
100
AcDbCircle
 10
152.8286810564747
 20
408.1393803372451
 30
0.0
 40
8.0
  0
CIRCLE
  5
362
330
17
100
AcDbEntity
  8
0
100
AcDbCircle
 10
141.30569699334706
 20
875.017069789332
 30
0.0
 40
8.0
  0
CIRCLE
  5
363
330
17
100
AcDbEntity
  8
0
100
AcDbCircle
 10
554.3254040707592
 20
203.9437456350804
 30
0.0
 40
8.0
  0
CIRCLE
  5
364
330
17
100
AcDbEntity
  8
0
100
AcDbCircle
 10
574.1424960295382
 20
421.7851826400288
 30
0.0
 40
8.0
  0
CIRCLE
  5
365
330
17
100
AcDbEntity
  8
0
100
AcDbCircle
 10
227.4431796579467
 20
202.14247636450963
 30
0.0
 40
8.0
  0
CIRCLE
  5
366
330
17
100
AcDbEntity
  8
0
100
AcDbCircle
 10
279.1985485376127
 20
986.6018580948304
 30
0.0
 40
8.0
  0
CIRCLE
  5
367
330
17
100
AcDbEntity
  8
0
100
AcDbCircle
 10
766.820277976838
 20
280.30585559244116
 30
0.0
 40
8.0
  0
CIRCLE
  5
368
330
17
100
AcDbEntity
  8
0
100
AcDbCircle
 10
823.3087014110575
 20
903.8444552582439
 30
0.0
 40
8.0
  0
CIRCLE
  5
369
330
17
100
AcDbEntity
  8
0
100
AcDbCircle
 10
678.0785523594307
 20
990.6361216510874
 30
0.0
 40
8.0
  0
CIRCLE
  5
36A
330
17
100
AcDbEntity
  8
0
100
AcDbCircle
 10
470.081720844362
 20
776.4599384351799
 30
0.0
 40
8.0
  0
CIRCLE
  5
36B
330
17
100
AcDbEntity
  8
0
100
AcDbCircle
 10
115.89734584297958
 20
229.84254185413397
 30
0.0
 40
8.0
  0
CIRCLE
  5
36C
330
17
100
AcDbEntity
  8
0
100
AcDbCircle
 10
837.8078427899388
 20
183.57822752715745
 30
0.0
 40
8.0
  0
CIRCLE
  5
36D
330
17
100
AcDbEntity
  8
0
100
AcDbCircle
 10
296.9909261600953
 20
141.10758097903184
 30
0.0
 40
8.0
  0
CIRCLE
  5
36E
330
17
100
AcDbEntity
  8
0
100
AcDbCircle
 10
816.0033541404991
 20
603.4081962892756
 30
0.0
 40
8.0
  0
CIRCLE
  5
36F
330
17
100
AcDbEntity
  8
0
100
AcDbCircle
 10
988.3538298854679
 20
747.1109025680252
 30
0.0
 40
8.0
  0
CIRCLE
  5
370
330
17
100
AcDbEntity
  8
0
100
AcDbCircle
 10
815.229376316515
 20
73.39512541406498
 30
0.0
 40
8.0
  0
CIRCLE
  5
371
330
17
100
AcDbEntity
  8
0
100
AcDbCircle
 10
741.7249413778877
 20
620.0214291059419
 30
0.0
 40
8.0
  0
CIRCLE
  5
372
330
17
100
AcDbEntity
  8
0
100
AcDbCircle
 10
130.73845932097146
 20
551.4544059061622
 30
0.0
 40
8.0
  0
CIRCLE
  5
373
330
17
100
AcDbEntity
  8
0
100
AcDbCircle
 10
795.7293842654582
 20
77.90596755172399
 30
0.0
 40
8.0
  0
CIRCLE
  5
374
330
17
100
AcDbEntity
  8
0
100
AcDbCircle
 10
793.7842235891828
 20
467.74122486155
 30
0.0
 40
8.0
  0
CIRCLE
  5
375
330
17
100
AcDbEntity
  8
0
100
AcDbCircle
 10
858.5957181753644
 20
145.1529628810499
 30
0.0
 40
8.0
  0
CIRCLE
  5
376
330
17
100
AcDbEntity
  8
0
100
AcDbCircle
 10
360.29077214735173
 20
809.9195067933814
 30
0.0
 40
8.0
  0
CIRCLE
  5
377
330
17
100
AcDbEntity
  8
0
100
AcDbCircle
 10
501.34813247199855
 20
191.67072535024457
 30
0.0
 40
8.0
  0
CIRCLE
  5
378
330
17
100
AcDbEntity
  8
0
100
AcDbCircle
 10
596.4158178306284
 20
170.09405722482842
 30
0.0
 40
8.0
  0
CIRCLE
  5
379
330
17
100
AcDbEntity
  8
0
100
AcDbCircle
 10
26.0342522489469
 20
725.8892669238111
 30
0.0
 40
8.0
  0
CIRCLE
  5
37A
330
17
100
AcDbEntity
  8
0
100
AcDbCircle
 10
805.9740654513768
 20
346.08967875148824
 30
0.0
 40
8.0
  0
CIRCLE
  5
37B
330
17
100
AcDbEntity
  8
0
100
AcDbCircle
 10
477.452434532808
 20
116.96281118676364
 30
0.0
 40
8.0
  0
CIRCLE
  5
37C
330
17
100
AcDbEntity
  8
0
100
AcDbCircle
 10
610.2390452022208
 20
726.9346950087051
 30
0.0
 40
8.0
  0
CIRCLE
  5
37D
330
17
100
AcDbEntity
  8
0
100
AcDbCircle
 10
233.20711497032454
 20
34.35753632015371
 30
0.0
 40
8.0
  0
CIRCLE
  5
37E
330
17
100
AcDbEntity
  8
0
100
AcDbCircle
 10
921.207410524466
 20
417.99369304956787
 30
0.0
 40
8.0
  0
CIRCLE
  5
37F
330
17
100
AcDbEntity
  8
0
100
AcDbCircle
 10
46.89714800199357
 20
748.6960843773155
 30
0.0
 40
8.0
  0
CIRCLE
  5
380
330
17
100
AcDbEntity
  8
0
100
AcDbCircle
 10
127.08012864408525
 20
855.0687725144203
 30
0.0
 40
8.0
  0
CIRCLE
  5
381
330
17
100
AcDbEntity
  8
0
100
AcDbCircle
 10
533.0865532576065
 20
175.88440079789882
 30
0.0
 40
8.0
  0
CIRCLE
  5
382
330
17
100
AcDbEntity
  8
0
100
AcDbCircle
 10
483.989015645461
 20
197.54900355985126
 30
0.0
 40
8.0
  0
CIRCLE
  5
383
330
17
100
AcDbEntity
  8
0
100
AcDbCircle
 10
380.22344922126956
 20
519.5186406933042
 30
0.0
 40
8.0
  0
CIRCLE
  5
384
330
17
100
AcDbEntity
  8
0
100
AcDbCircle
 10
748.1287116971772
 20
493.5962555350196
 30
0.0
 40
8.0
  0
CIRCLE
  5
385
330
17
100
AcDbEntity
  8
0
100
AcDbCircle
 10
912.8690735344868
 20
431.9017494401221
 30
0.0
 40
8.0
  0
CIRCLE
  5
386
330
17
100
AcDbEntity
  8
0
100
AcDbCircle
 10
839.2250357514099
 20
513.9951361208331
 30
0.0
 40
8.0
  0
CIRCLE
  5
387
330
17
100
AcDbEntity
  8
0
100
AcDbCircle
 10
154.94917232499813
 20
430.7208325256712
 30
0.0
 40
8.0
  0
CIRCLE
  5
388
330
17
100
AcDbEntity
  8
0
100
AcDbCircle
 10
13.228781779441452
 20
794.8464889404323
 30
0.0
 40
8.0
  0
CIRCLE
  5
389
330
17
100
AcDbEntity
  8
0
100
AcDbCircle
 10
220.8780026347543
 20
14.868174685599111
 30
0.0
 40
8.0
  0
CIRCLE
  5
38A
330
17
100
AcDbEntity
  8
0
100
AcDbCircle
 10
573.5978818515866
 20
47.03321381197524
 30
0.0
 40
8.0
  0
CIRCLE
  5
38B
330
17
100
AcDbEntity
  8
0
100
AcDbCircle
 10
189.00224001728049
 20
989.9952605859814
 30
0.0
 40
8.0
  0
CIRCLE
  5
38C
330
17
100
AcDbEntity
  8
0
100
AcDbCircle
 10
24.65744315818548
 20
277.4848862519759
 30
0.0
 40
8.0
  0
CIRCLE
  5
38D
330
17
100
AcDbEntity
  8
0
100
AcDbCircle
 10
990.0429040193195
 20
665.1918394547575
 30
0.0
 40
8.0
  0
CIRCLE
  5
38E
330
17
100
AcDbEntity
  8
0
100
AcDbCircle
 10
435.3062408622853
 20
27.829541121645203
 30
0.0
 40
8.0
  0
CIRCLE
  5
38F
330
17
100
AcDbEntity
  8
0
100
AcDbCircle
 10
800.0061387186267
 20
689.4729673760995
 30
0.0
 40
8.0
  0
CIRCLE
  5
390
330
17
100
AcDbEntity
  8
0
100
AcDbCircle
 10
72.5833907799446
 20
914.5538656334629
 30
0.0
 40
8.0
  0
CIRCLE
  5
391
330
17
100
AcDbEntity
  8
0
100
AcDbCircle
 10
346.30509700636094
 20
755.3743352661559
 30
0.0
 40
8.0
  0
CIRCLE
  5
392
330
17
100
AcDbEntity
  8
0
100
AcDbCircle
 10
458.2153829036684
 20
836.6726655545535
 30
0.0
 40
8.0
  0
CIRCLE
  5
393
330
17
100
AcDbEntity
  8
0
100
AcDbCircle
 10
169.1042818285503
 20
972.9553822765412
 30
0.0
 40
8.0
  0
CIRCLE
  5
394
330
17
100
AcDbEntity
  8
0
100
AcDbCircle
 10
62.405795088365615
 20
986.0208532098675
 30
0.0
 40
8.0
  0
CIRCLE
  5
395
330
17
100
AcDbEntity
  8
0
100
AcDbCircle
 10
292.70489395825376
 20
613.8941670490738
 30
0.0
 40
8.0
  0
CIRCLE
  5
396
330
17
100
AcDbEntity
  8
0
100
AcDbCircle
 10
819.929766994035
 20
554.4884156071303
 30
0.0
 40
8.0
  0
CIRCLE
  5
397
330
17
100
AcDbEntity
  8
0
100
AcDbCircle
 10
792.2773879659942
 20
305.3996633256063
 30
0.0
 40
8.0
  0
CIRCLE
  5
398
330
17
100
AcDbEntity
  8
0
100
AcDbCircle
 10
812.4161914063166
 20
89.6458898093185
 30
0.0
 40
8.0
  0
CIRCLE
  5
399
330
17
100
AcDbEntity
  8
0
100
AcDbCircle
 10
715.7967272990878
 20
375.54161950537815
 30
0.0
 40
8.0
  0
CIRCLE
  5
39A
330
17
100
AcDbEntity
  8
0
100
AcDbCircle
 10
574.9744023656156
 20
258.96936364568035
 30
0.0
 40
8.0
  0
CIRCLE
  5
39B
330
17
100
AcDbEntity
  8
0
100
AcDbCircle
 10
745.9799797518789
 20
379.56830658030697
 30
0.0
 40
8.0
  0
CIRCLE
  5
39C
330
17
100
AcDbEntity
  8
0
100
AcDbCircle
 10
820.8230030149703
 20
135.02175103921002
 30
0.0
 40
8.0
  0
CIRCLE
  5
39D
330
17
100
AcDbEntity
  8
0
100
AcDbCircle
 10
461.0890094371379
 20
366.53888196707055
 30
0.0
 40
8.0
  0
CIRCLE
  5
39E
330
17
100
AcDbEntity
  8
0
100
AcDbCircle
 10
815.9238678655012
 20
822.1889723778453
 30
0.0
 40
8.0
  0
CIRCLE
  5
39F
330
17
100
AcDbEntity
  8
0
100
AcDbCircle
 10
743.4100296864478
 20
671.9459025665731
 30
0.0
 40
8.0
  0
CIRCLE
  5
3A0
330
17
100
AcDbEntity
  8
0
100
AcDbCircle
 10
449.6295092890343
 20
682.0100660915894
 30
0.0
 40
8.0
  0
CIRCLE
  5
3A1
330
17
100
AcDbEntity
  8
0
100
AcDbCircle
 10
402.03871944258765
 20
549.4342963934535
 30
0.0
 40
8.0
  0
CIRCLE
  5
3A2
330
17
100
AcDbEntity
  8
0
100
AcDbCircle
 10
954.0803752808673
 20
15.734205887376639
 30
0.0
 40
8.0
  0
CIRCLE
  5
3A3
330
17
100
AcDbEntity
  8
0
100
AcDbCircle
 10
385.67774252762047
 20
854.6857297843488
 30
0.0
 40
8.0
  0
CIRCLE
  5
3A4
330
17
100
AcDbEntity
  8
0
100
AcDbCircle
 10
683.3454002392783
 20
11.695443041213256
 30
0.0
 40
8.0
  0
CIRCLE
  5
3A5
330
17
100
AcDbEntity
  8
0
100
AcDbCircle
 10
148.09419108615015
 20
810.4848123172795
 30
0.0
 40
8.0
  0
CIRCLE
  5
3A6
330
17
100
AcDbEntity
  8
0
100
AcDbCircle
 10
312.35606035334706
 20
716.7490011285607
 30
0.0
 40
8.0
  0
CIRCLE
  5
3A7
330
17
100
AcDbEntity
  8
0
100
AcDbCircle
 10
779.2964884183478
 20
683.7847057508043
 30
0.0
 40
8.0
  0
CIRCLE
  5
3A8
330
17
100
AcDbEntity
  8
0
100
AcDbCircle
 10
578.656142774258
 20
895.8061412534528
 30
0.0
 40
8.0
  0
CIRCLE
  5
3A9
330
17
100
AcDbEntity
  8
0
100
AcDbCircle
 10
872.9990444312509
 20
828.6263635625382
 30
0.0
 40
8.0
  0
CIRCLE
  5
3AA
330
17
100
AcDbEntity
  8
0
100
AcDbCircle
 10
628.1107333249546
 20
693.2424274056355
 30
0.0
 40
8.0
  0
CIRCLE
  5
3AB
330
17
100
AcDbEntity
  8
0
100
AcDbCircle
 10
559.9126035839045
 20
250.58397641892526
 30
0.0
 40
8.0
  0
CIRCLE
  5
3AC
330
17
100
AcDbEntity
  8
0
100
AcDbCircle
 10
816.7998648975745
 20
320.36755681195234
 30
0.0
 40
8.0
  0
CIRCLE
  5
3AD
330
17
100
AcDbEntity
  8
0
100
AcDbCircle
 10
747.3960774299554
 20
518.1966577175672
 30
0.0
 40
8.0
  0
CIRCLE
  5
3AE
330
17
100
AcDbEntity
  8
0
100
AcDbCircle
 10
515.6954410811087
 20
674.4256572838462
 30
0.0
 40
8.0
  0
CIRCLE
  5
3AF
330
17
100
AcDbEntity
  8
0
100
AcDbCircle
 10
909.9900693884808
 20
39.84814176637652
 30
0.0
 40
8.0
  0
CIRCLE
  5
3B0
330
17
100
AcDbEntity
  8
0
100
AcDbCircle
 10
385.4066609622044
 20
269.1269128305795
 30
0.0
 40
8.0
  0
CIRCLE
  5
3B1
330
17
100
AcDbEntity
  8
0
100
AcDbCircle
 10
141.4994276010052
 20
145.04093704050248
 30
0.0
 40
8.0
  0
CIRCLE
  5
3B2
330
17
100
AcDbEntity
  8
0
100
AcDbCircle
 10
598.0832267491138
 20
358.6744598242303
 30
0.0
 40
8.0
  0
CIRCLE
  5
3B3
330
17
100
AcDbEntity
  8
0
100
AcDbCircle
 10
285.52591480679126
 20
890.0426991609397
 30
0.0
 40
8.0
  0
CIRCLE
  5
3B4
330
17
100
AcDbEntity
  8
0
100
AcDbCircle
 10
901.5448715991403
 20
621.7112329589795
 30
0.0
 40
8.0
  0
CIRCLE
  5
3B5
330
17
100
AcDbEntity
  8
0
100
AcDbCircle
 10
968.3265607178116
 20
424.991471619794
 30
0.0
 40
8.0
  0
CIRCLE
  5
3B6
330
17
100
AcDbEntity
  8
0
100
AcDbCircle
 10
351.36816253604314
 20
280.22339427308054
 30
0.0
 40
8.0
  0
CIRCLE
  5
3B7
330
17
100
AcDbEntity
  8
0
100
AcDbCircle
 10
137.24943907120456
 20
754.7825203774303
 30
0.0
 40
8.0
  0
CIRCLE
  5
3B8
330
17
100
AcDbEntity
  8
0
100
AcDbCircle
 10
223.3412551676598
 20
138.0743291193773
 30
0.0
 40
8.0
  0
CIRCLE
  5
3B9
330
17
100
AcDbEntity
  8
0
100
AcDbCircle
 10
515.2854740973485
 20
176.99014474819424
 30
0.0
 40
8.0
  0
CIRCLE
  5
3BA
330
17
100
AcDbEntity
  8
0
100
AcDbCircle
 10
603.9713837295169
 20
220.39181159686115
 30
0.0
 40
8.0
  0
CIRCLE
  5
3BB
330
17
100
AcDbEntity
  8
0
100
AcDbCircle
 10
192.38228777852638
 20
315.3404712171128
 30
0.0
 40
8.0
  0
CIRCLE
  5
3BC
330
17
100
AcDbEntity
  8
0
100
AcDbCircle
 10
270.4289324604128
 20
663.4649276001229
 30
0.0
 40
8.0
  0
CIRCLE
  5
3BD
330
17
100
AcDbEntity
  8
0
100
AcDbCircle
 10
716.786477194668
 20
973.0326230991184
 30
0.0
 40
8.0
  0
CIRCLE
  5
3BE
330
17
100
AcDbEntity
  8
0
100
AcDbCircle
 10
546.2951458519651
 20
81.93276849445662
 30
0.0
 40
8.0
  0
CIRCLE
  5
3BF
330
17
100
AcDbEntity
  8
0
100
AcDbCircle
 10
307.184677738302
 20
972.6474682034714
 30
0.0
 40
8.0
  0
CIRCLE
  5
3C0
330
17
100
AcDbEntity
  8
0
100
AcDbCircle
 10
118.63762993094079
 20
160.69424398475755
 30
0.0
 40
8.0
  0
CIRCLE
  5
3C1
330
17
100
AcDbEntity
  8
0
100
AcDbCircle
 10
352.422272520208
 20
593.4884876705885
 30
0.0
 40
8.0
  0
CIRCLE
  5
3C2
330
17
100
AcDbEntity
  8
0
100
AcDbCircle
 10
365.972553132454
 20
324.12058928232966
 30
0.0
 40
8.0
  0
CIRCLE
  5
3C3
330
17
100
AcDbEntity
  8
0
100
AcDbCircle
 10
262.3414229059129
 20
701.7676580964815
 30
0.0
 40
8.0
  0
CIRCLE
  5
3C4
330
17
100
AcDbEntity
  8
0
100
AcDbCircle
 10
750.5332327453391
 20
101.55260039236732
 30
0.0
 40
8.0
  0
CIRCLE
  5
3C5
330
17
100
AcDbEntity
  8
0
100
AcDbCircle
 10
100.97014635384458
 20
580.095081438254
 30
0.0
 40
8.0
  0
CIRCLE
  5
3C6
330
17
100
AcDbEntity
  8
0
100
AcDbCircle
 10
888.4586212596006
 20
207.62087743682633
 30
0.0
 40
8.0
  0
CIRCLE
  5
3C7
330
17
100
AcDbEntity
  8
0
100
AcDbCircle
 10
319.44707739943397
 20
892.1891073552196
 30
0.0
 40
8.0
  0
CIRCLE
  5
3C8
330
17
100
AcDbEntity
  8
0
100
AcDbCircle
 10
708.8463120783452
 20
295.5502478672925
 30
0.0
 40
8.0
  0
CIRCLE
  5
3C9
330
17
100
AcDbEntity
  8
0
100
AcDbCircle
 10
138.30262101744296
 20
503.28765453868033
 30
0.0
 40
8.0
  0
CIRCLE
  5
3CA
330
17
100
AcDbEntity
  8
0
100
AcDbCircle
 10
912.5749645868658
 20
979.2431136186062
 30
0.0
 40
8.0
  0
CIRCLE
  5
3CB
330
17
100
AcDbEntity
  8
0
100
AcDbCircle
 10
847.8775422264275
 20
842.1441056354856
 30
0.0
 40
8.0
  0
CIRCLE
  5
3CC
330
17
100
AcDbEntity
  8
0
100
AcDbCircle
 10
12.081176798525776
 20
240.32998418987614
 30
0.0
 40
8.0
  0
CIRCLE
  5
3CD
330
17
100
AcDbEntity
  8
0
100
AcDbCircle
 10
684.9951759706546
 20
288.7898130619134
 30
0.0
 40
8.0
  0
CIRCLE
  5
3CE
330
17
100
AcDbEntity
  8
0
100
AcDbCircle
 10
707.4098326247531
 20
173.9706579717803
 30
0.0
 40
8.0
  0
CIRCLE
  5
3CF
330
17
100
AcDbEntity
  8
0
100
AcDbCircle
 10
103.20424877000391
 20
168.9278977273182
 30
0.0
 40
8.0
  0
CIRCLE
  5
3D0
330
17
100
AcDbEntity
  8
0
100
AcDbCircle
 10
444.63453811345715
 20
455.4773580382881
 30
0.0
 40
8.0
  0
CIRCLE
  5
3D1
330
17
100
AcDbEntity
  8
0
100
AcDbCircle
 10
30.132037991243035
 20
156.09241107538378
 30
0.0
 40
8.0
  0
CIRCLE
  5
3D2
330
17
100
AcDbEntity
  8
0
100
AcDbCircle
 10
714.1999089575077
 20
604.7380754704988
 30
0.0
 40
8.0
  0
CIRCLE
  5
3D3
330
17
100
AcDbEntity
  8
0
100
AcDbCircle
 10
976.1151788928818
 20
112.27588049848981
 30
0.0
 40
8.0
  0
CIRCLE
  5
3D4
330
17
100
AcDbEntity
  8
0
100
AcDbCircle
 10
482.8876682737114
 20
377.69346437115024
 30
0.0
 40
8.0
  0
CIRCLE
  5
3D5
330
17
100
AcDbEntity
  8
0
100
AcDbCircle
 10
878.2261608649713
 20
297.84976993087696
 30
0.0
 40
8.0
  0
CIRCLE
  5
3D6
330
17
100
AcDbEntity
  8
0
100
AcDbCircle
 10
79.76836157608005
 20
893.8672836098983
 30
0.0
 40
8.0
  0
CIRCLE
  5
3D7
330
17
100
AcDbEntity
  8
0
100
AcDbCircle
 10
11.988490789713747
 20
123.78623665227607
 30
0.0
 40
8.0
  0
CIRCLE
  5
3D8
330
17
100
AcDbEntity
  8
0
100
AcDbCircle
 10
60.69959841994496
 20
479.96502514393023
 30
0.0
 40
8.0
  0
CIRCLE
  5
3D9
330
17
100
AcDbEntity
  8
0
100
AcDbCircle
 10
783.3651394091601
 20
129.2697837713919
 30
0.0
 40
8.0
  0
CIRCLE
  5
3DA
330
17
100
AcDbEntity
  8
0
100
AcDbCircle
 10
587.16380949629
 20
33.86445328060486
 30
0.0
 40
8.0
  0
CIRCLE
  5
3DB
330
17
100
AcDbEntity
  8
0
100
AcDbCircle
 10
13.998497554846196
 20
956.8033534084643
 30
0.0
 40
8.0
  0
CIRCLE
  5
3DC
330
17
100
AcDbEntity
  8
0
100
AcDbCircle
 10
707.7841921996285
 20
586.9003164105019
 30
0.0
 40
8.0
  0
CIRCLE
  5
3DD
330
17
100
AcDbEntity
  8
0
100
AcDbCircle
 10
10.317225434912807
 20
479.39912169251863
 30
0.0
 40
8.0
  0
CIRCLE
  5
3DE
330
17
100
AcDbEntity
  8
0
100
AcDbCircle
 10
33.60238921994468
 20
933.0257700715168
 30
0.0
 40
8.0
  0
CIRCLE
  5
3DF
330
17
100
AcDbEntity
  8
0
100
AcDbCircle
 10
733.2698031588436
 20
938.6623719924735
 30
0.0
 40
8.0
  0
CIRCLE
  5
3E0
330
17
100
AcDbEntity
  8
0
100
AcDbCircle
 10
307.52389110046494
 20
336.90430583186617
 30
0.0
 40
8.0
  0
CIRCLE
  5
3E1
330
17
100
AcDbEntity
  8
0
100
AcDbCircle
 10
988.519219129603
 20
597.5429587241446
 30
0.0
 40
8.0
  0
CIRCLE
  5
3E2
330
17
100
AcDbEntity
  8
0
100
AcDbCircle
 10
441.26899505524733
 20
720.6522594579174
 30
0.0
 40
8.0
  0
CIRCLE
  5
3E3
330
17
100
AcDbEntity
  8
0
100
AcDbCircle
 10
323.6516343062163
 20
412.08274758894385
 30
0.0
 40
8.0
  0
CIRCLE
  5
3E4
330
17
100
AcDbEntity
  8
0
100
AcDbCircle
 10
298.4938662839857
 20
805.0643276568024
 30
0.0
 40
8.0
  0
CIRCLE
  5
3E5
330
17
100
AcDbEntity
  8
0
100
AcDbCircle
 10
708.2164669475771
 20
669.13041662409
 30
0.0
 40
8.0
  0
CIRCLE
  5
3E6
330
17
100
AcDbEntity
  8
0
100
AcDbCircle
 10
781.2800661753477
 20
290.8296472767837
 30
0.0
 40
8.0
  0
CIRCLE
  5
3E7
330
17
100
AcDbEntity
  8
0
100
AcDbCircle
 10
826.7762386076608
 20
289.4539799925311
 30
0.0
 40
8.0
  0
CIRCLE
  5
3E8
330
17
100
AcDbEntity
  8
0
100
AcDbCircle
 10
15.334533701495946
 20
616.8145361428501
 30
0.0
 40
8.0
  0
CIRCLE
  5
3E9
330
17
100
AcDbEntity
  8
0
100
AcDbCircle
 10
937.1879318184814
 20
978.630787217094
 30
0.0
 40
8.0
  0
CIRCLE
  5
3EA
330
17
100
AcDbEntity
  8
0
100
AcDbCircle
 10
601.2927384070958
 20
628.8224946624559
 30
0.0
 40
8.0
  0
CIRCLE
  5
3EB
330
17
100
AcDbEntity
  8
0
100
AcDbCircle
 10
967.9214201018353
 20
184.64716488265165
 30
0.0
 40
8.0
  0
CIRCLE
  5
3EC
330
17
100
AcDbEntity
  8
0
100
AcDbCircle
 10
214.31518808890817
 20
727.1304396479107
 30
0.0
 40
8.0
  0
CIRCLE
  5
3ED
330
17
100
AcDbEntity
  8
0
100
AcDbCircle
 10
986.7531015554105
 20
852.4262173212626
 30
0.0
 40
8.0
  0
CIRCLE
  5
3EE
330
17
100
AcDbEntity
  8
0
100
AcDbCircle
 10
602.6424146324048
 20
914.063977819399
 30
0.0
 40
8.0
  0
CIRCLE
  5
3EF
330
17
100
AcDbEntity
  8
0
100
AcDbCircle
 10
193.30310593097744
 20
450.689414070862
 30
0.0
 40
8.0
  0
CIRCLE
  5
3F0
330
17
100
AcDbEntity
  8
0
100
AcDbCircle
 10
561.2354611195993
 20
410.90900018961423
 30
0.0
 40
8.0
  0
CIRCLE
  5
3F1
330
17
100
AcDbEntity
  8
0
100
AcDbCircle
 10
116.01900767221133
 20
970.5607747065426
 30
0.0
 40
8.0
  0
CIRCLE
  5
3F2
330
17
100
AcDbEntity
  8
0
100
AcDbCircle
 10
820.1211943264659
 20
629.4707634289573
 30
0.0
 40
8.0
  0
CIRCLE
  5
3F3
330
17
100
AcDbEntity
  8
0
100
AcDbCircle
 10
867.1243746455015
 20
485.780718692436
 30
0.0
 40
8.0
  0
CIRCLE
  5
3F4
330
17
100
AcDbEntity
  8
0
100
AcDbCircle
 10
700.0501936578996
 20
897.5660741982746
 30
0.0
 40
8.0
  0
CIRCLE
  5
3F5
330
17
100
AcDbEntity
  8
0
100
AcDbCircle
 10
475.1194617612759
 20
480.6106954542532
 30
0.0
 40
8.0
  0
CIRCLE
  5
3F6
330
17
100
AcDbEntity
  8
0
100
AcDbCircle
 10
924.7644071030213
 20
990.9787955080913
 30
0.0
 40
8.0
  0
CIRCLE
  5
3F7
330
17
100
AcDbEntity
  8
0
100
AcDbCircle
 10
207.63767343128598
 20
906.1517617998848
 30
0.0
 40
8.0
  0
CIRCLE
  5
3F8
330
17
100
AcDbEntity
  8
0
100
AcDbCircle
 10
281.186331439832
 20
519.8893416141065
 30
0.0
 40
8.0
  0
CIRCLE
  5
3F9
330
17
100
AcDbEntity
  8
0
100
AcDbCircle
 10
294.2232488403312
 20
365.8867047581903
 30
0.0
 40
8.0
  0
CIRCLE
  5
3FA
330
17
100
AcDbEntity
  8
0
100
AcDbCircle
 10
698.1157448914965
 20
945.4344739571325
 30
0.0
 40
8.0
  0
CIRCLE
  5
3FB
330
17
100
AcDbEntity
  8
0
100
AcDbCircle
 10
836.7411573804072
 20
39.45203127700758
 30
0.0
 40
8.0
  0
CIRCLE
  5
3FC
330
17
100
AcDbEntity
  8
0
100
AcDbCircle
 10
421.3199339531767
 20
87.4088888763401
 30
0.0
 40
8.0
  0
CIRCLE
  5
3FD
330
17
100
AcDbEntity
  8
0
100
AcDbCircle
 10
986.2908139807647
 20
535.9711754184171
 30
0.0
 40
8.0
  0
CIRCLE
  5
3FE
330
17
100
AcDbEntity
  8
0
100
AcDbCircle
 10
10.60362746180284
 20
83.47728867808935
 30
0.0
 40
8.0
  0
CIRCLE
  5
3FF
330
17
100
AcDbEntity
  8
0
100
AcDbCircle
 10
111.27924828117833
 20
202.85868586845177
 30
0.0
 40
8.0
  0
CIRCLE
  5
400
330
17
100
AcDbEntity
  8
0
100
AcDbCircle
 10
251.35571228839797
 20
393.44062639267463
 30
0.0
 40
8.0
  0
CIRCLE
  5
401
330
17
100
AcDbEntity
  8
0
100
AcDbCircle
 10
556.2800631968279
 20
390.4028927852648
 30
0.0
 40
8.0
  0
CIRCLE
  5
402
330
17
100
AcDbEntity
  8
0
100
AcDbCircle
 10
43.511165395278226
 20
278.2594332875669
 30
0.0
 40
8.0
  0
CIRCLE
  5
403
330
17
100
AcDbEntity
  8
0
100
AcDbCircle
 10
645.2970971052297
 20
736.5977954364657
 30
0.0
 40
8.0
  0
CIRCLE
  5
404
330
17
100
AcDbEntity
  8
0
100
AcDbCircle
 10
487.6523329886446
 20
783.1464934950101
 30
0.0
 40
8.0
  0
CIRCLE
  5
405
330
17
100
AcDbEntity
  8
0
100
AcDbCircle
 10
588.7842457637339
 20
752.1849011216913
 30
0.0
 40
8.0
  0
CIRCLE
  5
406
330
17
100
AcDbEntity
  8
0
100
AcDbCircle
 10
513.6580551539489
 20
360.1129145348007
 30
0.0
 40
8.0
  0
CIRCLE
  5
407
330
17
100
AcDbEntity
  8
0
100
AcDbCircle
 10
773.5870366508324
 20
458.3356646994461
 30
0.0
 40
8.0
  0
CIRCLE
  5
408
330
17
100
AcDbEntity
  8
0
100
AcDbCircle
 10
643.6212021238765
 20
990.747487624641
 30
0.0
 40
8.0
  0
CIRCLE
  5
409
330
17
100
AcDbEntity
  8
0
100
AcDbCircle
 10
895.1135042980567
 20
331.61927934383925
 30
0.0
 40
8.0
  0
CIRCLE
  5
40A
330
17
100
AcDbEntity
  8
0
100
AcDbCircle
 10
980.5493156035986
 20
956.3435658395297
 30
0.0
 40
8.0
  0
CIRCLE
  5
40B
330
17
100
AcDbEntity
  8
0
100
AcDbCircle
 10
511.4392914259838
 20
494.23817074671
 30
0.0
 40
8.0
  0
CIRCLE
  5
40C
330
17
100
AcDbEntity
  8
0
100
AcDbCircle
 10
527.3349045271508
 20
529.7049526216182
 30
0.0
 40
8.0
  0
CIRCLE
  5
40D
330
17
100
AcDbEntity
  8
0
100
AcDbCircle
 10
484.72682779743855
 20
448.60460124988106
 30
0.0
 40
8.0
  0
CIRCLE
  5
40E
330
17
100
AcDbEntity
  8
0
100
AcDbCircle
 10
967.8186768342979
 20
970.2976874004531
 30
0.0
 40
8.0
  0
CIRCLE
  5
40F
330
17
100
AcDbEntity
  8
0
100
AcDbCircle
 10
452.41472571081675
 20
779.4084623424707
 30
0.0
 40
8.0
  0
CIRCLE
  5
410
330
17
100
AcDbEntity
  8
0
100
AcDbCircle
 10
800.1074917738983
 20
57.62385321916087
 30
0.0
 40
8.0
  0
CIRCLE
  5
411
330
17
100
AcDbEntity
  8
0
100
AcDbCircle
 10
464.14333985772856
 20
579.5735289839389
 30
0.0
 40
8.0
  0
CIRCLE
  5
412
330
17
100
AcDbEntity
  8
0
100
AcDbCircle
 10
535.2485150419482
 20
354.8299107324089
 30
0.0
 40
8.0
  0
CIRCLE
  5
413
330
17
100
AcDbEntity
  8
0
100
AcDbCircle
 10
740.0743875604121
 20
810.6379695360431
 30
0.0
 40
8.0
  0
CIRCLE
  5
414
330
17
100
AcDbEntity
  8
0
100
AcDbCircle
 10
797.5519908128555
 20
740.4656886876131
 30
0.0
 40
8.0
  0
CIRCLE
  5
415
330
17
100
AcDbEntity
  8
0
100
AcDbCircle
 10
857.7067943313368
 20
619.8029208178166
 30
0.0
 40
8.0
  0
CIRCLE
  5
416
330
17
100
AcDbEntity
  8
0
100
AcDbCircle
 10
827.1991466794351
 20
841.1832564457925
 30
0.0
 40
8.0
  0
CIRCLE
  5
417
330
17
100
AcDbEntity
  8
0
100
AcDbCircle
 10
973.1155569264487
 20
281.8664316513864
 30
0.0
 40
8.0
  0
CIRCLE
  5
418
330
17
100
AcDbEntity
  8
0
100
AcDbCircle
 10
916.6532378200629
 20
919.2721140549172
 30
0.0
 40
8.0
  0
CIRCLE
  5
419
330
17
100
AcDbEntity
  8
0
100
AcDbCircle
 10
426.79849814801764
 20
521.8089853297399
 30
0.0
 40
8.0
  0
CIRCLE
  5
41A
330
17
100
AcDbEntity
  8
0
100
AcDbCircle
 10
812.4348031678522
 20
14.39162499390119
 30
0.0
 40
8.0
  0
CIRCLE
  5
41B
330
17
100
AcDbEntity
  8
0
100
AcDbCircle
 10
403.7900113632768
 20
272.943196111084
 30
0.0
 40
8.0
  0
CIRCLE
  5
41C
330
17
100
AcDbEntity
  8
0
100
AcDbCircle
 10
759.5127814155344
 20
683.316578866233
 30
0.0
 40
8.0
  0
CIRCLE
  5
41D
330
17
100
AcDbEntity
  8
0
100
AcDbCircle
 10
115.05297500268719
 20
37.01111054555837
 30
0.0
 40
8.0
  0
CIRCLE
  5
41E
330
17
100
AcDbEntity
  8
0
100
AcDbCircle
 10
148.0334590202991
 20
346.6440268117654
 30
0.0
 40
8.0
  0
CIRCLE
  5
41F
330
17
100
AcDbEntity
  8
0
100
AcDbCircle
 10
631.3992919811487
 20
579.9291019044001
 30
0.0
 40
8.0
  0
CIRCLE
  5
420
330
17
100
AcDbEntity
  8
0
100
AcDbCircle
 10
378.40751702755193
 20
564.8871233877572
 30
0.0
 40
8.0
  0
CIRCLE
  5
421
330
17
100
AcDbEntity
  8
0
100
AcDbCircle
 10
568.9644639543955
 20
369.70540719242314
 30
0.0
 40
8.0
  0
CIRCLE
  5
422
330
17
100
AcDbEntity
  8
0
100
AcDbCircle
 10
792.220186122059
 20
722.2983978997391
 30
0.0
 40
8.0
  0
CIRCLE
  5
423
330
17
100
AcDbEntity
  8
0
100
AcDbCircle
 10
387.41258031294103
 20
484.7762610403631
 30
0.0
 40
8.0
  0
CIRCLE
  5
424
330
17
100
AcDbEntity
  8
0
100
AcDbCircle
 10
86.48186793012061
 20
48.25651053786556
 30
0.0
 40
8.0
  0
CIRCLE
  5
425
330
17
100
AcDbEntity
  8
0
100
AcDbCircle
 10
176.77689375603939
 20
905.2009646213556
 30
0.0
 40
8.0
  0
CIRCLE
  5
426
330
17
100
AcDbEntity
  8
0
100
AcDbCircle
 10
193.48983342451913
 20
744.8769418844155
 30
0.0
 40
8.0
  0
CIRCLE
  5
427
330
17
100
AcDbEntity
  8
0
100
AcDbCircle
 10
51.4137111555175
 20
56.817452521719964
 30
0.0
 40
8.0
  0
CIRCLE
  5
428
330
17
100
AcDbEntity
  8
0
100
AcDbCircle
 10
299.11545207458454
 20
114.59486336960114
 30
0.0
 40
8.0
  0
CIRCLE
  5
429
330
17
100
AcDbEntity
  8
0
100
AcDbCircle
 10
14.527709323630168
 20
169.08912332791627
 30
0.0
 40
8.0
  0
CIRCLE
  5
42A
330
17
100
AcDbEntity
  8
0
100
AcDbCircle
 10
501.2854842096659
 20
629.3999250691488
 30
0.0
 40
8.0
  0
CIRCLE
  5
42B
330
17
100
AcDbEntity
  8
0
100
AcDbCircle
 10
673.077442211884
 20
481.5898135610104
 30
0.0
 40
8.0
  0
CIRCLE
  5
42C
330
17
100
AcDbEntity
  8
0
100
AcDbCircle
 10
857.2252991657456
 20
27.459542583225087
 30
0.0
 40
8.0
  0
CIRCLE
  5
42D
330
17
100
AcDbEntity
  8
0
100
AcDbCircle
 10
396.60185020408164
 20
149.15656908352292
 30
0.0
 40
8.0
  0
CIRCLE
  5
42E
330
17
100
AcDbEntity
  8
0
100
AcDbCircle
 10
337.3523177058189
 20
8.62597068709243
 30
0.0
 40
8.0
  0
CIRCLE
  5
42F
330
17
100
AcDbEntity
  8
0
100
AcDbCircle
 10
779.9577270037955
 20
477.3623869069829
 30
0.0
 40
8.0
  0
CIRCLE
  5
430
330
17
100
AcDbEntity
  8
0
100
AcDbCircle
 10
778.2786971089015
 20
11.767080395099532
 30
0.0
 40
8.0
  0
CIRCLE
  5
431
330
17
100
AcDbEntity
  8
0
100
AcDbCircle
 10
403.8021921174348
 20
762.5409577045001
 30
0.0
 40
8.0
  0
CIRCLE
  5
432
330
17
100
AcDbEntity
  8
0
100
AcDbCircle
 10
379.0548679511722
 20
414.7178734443657
 30
0.0
 40
8.0
  0
CIRCLE
  5
433
330
17
100
AcDbEntity
  8
0
100
AcDbCircle
 10
15.13194899804067
 20
576.4879784154705
 30
0.0
 40
8.0
  0
CIRCLE
  5
434
330
17
100
AcDbEntity
  8
0
100
AcDbCircle
 10
715.8976916468301
 20
778.6466640073436
 30
0.0
 40
8.0
  0
CIRCLE
  5
435
330
17
100
AcDbEntity
  8
0
100
AcDbCircle
 10
787.6707168033207
 20
212.12692651687533
 30
0.0
 40
8.0
  0
CIRCLE
  5
436
330
17
100
AcDbEntity
  8
0
100
AcDbCircle
 10
42.94941806435029
 20
248.77663094981816
 30
0.0
 40
8.0
  0
CIRCLE
  5
437
330
17
100
AcDbEntity
  8
0
100
AcDbCircle
 10
770.6757141891292
 20
248.60212082041227
 30
0.0
 40
8.0
  0
CIRCLE
  5
438
330
17
100
AcDbEntity
  8
0
100
AcDbCircle
 10
657.7608170889637
 20
578.2630656865164
 30
0.0
 40
8.0
  0
CIRCLE
  5
439
330
17
100
AcDbEntity
  8
0
100
AcDbCircle
 10
889.5178098518086
 20
974.9522710613553
 30
0.0
 40
8.0
  0
CIRCLE
  5
43A
330
17
100
AcDbEntity
  8
0
100
AcDbCircle
 10
93.12416416462837
 20
740.9951411762707
 30
0.0
 40
8.0
  0
CIRCLE
  5
43B
330
17
100
AcDbEntity
  8
0
100
AcDbCircle
 10
746.7347995629002
 20
280.38271970507907
 30
0.0
 40
8.0
  0
CIRCLE
  5
43C
330
17
100
AcDbEntity
  8
0
100
AcDbCircle
 10
329.38496447084776
 20
180.44096478503343
 30
0.0
 40
8.0
  0
CIRCLE
  5
43D
330
17
100
AcDbEntity
  8
0
100
AcDbCircle
 10
618.7732062623436
 20
792.0583762164385
 30
0.0
 40
8.0
  0
CIRCLE
  5
43E
330
17
100
AcDbEntity
  8
0
100
AcDbCircle
 10
200.05214211151957
 20
487.14287094719936
 30
0.0
 40
8.0
  0
CIRCLE
  5
43F
330
17
100
AcDbEntity
  8
0
100
AcDbCircle
 10
618.6305230498012
 20
562.2791645893687
 30
0.0
 40
8.0
  0
CIRCLE
  5
440
330
17
100
AcDbEntity
  8
0
100
AcDbCircle
 10
181.4214027926749
 20
119.80014672037383
 30
0.0
 40
8.0
  0
CIRCLE
  5
441
330
17
100
AcDbEntity
  8
0
100
AcDbCircle
 10
50.211214155117624
 20
911.4166255287172
 30
0.0
 40
8.0
  0
CIRCLE
  5
442
330
17
100
AcDbEntity
  8
0
100
AcDbCircle
 10
541.4770521658363
 20
989.2703657244534
 30
0.0
 40
8.0
  0
CIRCLE
  5
443
330
17
100
AcDbEntity
  8
0
100
AcDbCircle
 10
827.5116784506555
 20
427.9340645012538
 30
0.0
 40
8.0
  0
CIRCLE
  5
444
330
17
100
AcDbEntity
  8
0
100
AcDbCircle
 10
128.81121997232773
 20
836.465743087869
 30
0.0
 40
8.0
  0
CIRCLE
  5
445
330
17
100
AcDbEntity
  8
0
100
AcDbCircle
 10
683.6547079302215
 20
694.4205175646698
 30
0.0
 40
8.0
  0
CIRCLE
  5
446
330
17
100
AcDbEntity
  8
0
100
AcDbCircle
 10
154.0966436619538
 20
451.87171096939994
 30
0.0
 40
8.0
  0
CIRCLE
  5
447
330
17
100
AcDbEntity
  8
0
100
AcDbCircle
 10
933.0752454218429
 20
115.152990586258
 30
0.0
 40
8.0
  0
CIRCLE
  5
448
330
17
100
AcDbEntity
  8
0
100
AcDbCircle
 10
601.0755687506941
 20
8.38953261072585
 30
0.0
 40
8.0
  0
CIRCLE
  5
449
330
17
100
AcDbEntity
  8
0
100
AcDbCircle
 10
13.09828380711117
 20
538.4506371316846
 30
0.0
 40
8.0
  0
CIRCLE
  5
44A
330
17
100
AcDbEntity
  8
0
100
AcDbCircle
 10
392.00954876862784
 20
530.8986574959022
 30
0.0
 40
8.0
  0
CIRCLE
  5
44B
330
17
100
AcDbEntity
  8
0
100
AcDbCircle
 10
403.7290832279279
 20
725.7162701474498
 30
0.0
 40
8.0
  0
CIRCLE
  5
44C
330
17
100
AcDbEntity
  8
0
100
AcDbCircle
 10
644.0108641984349
 20
25.129385452183236
 30
0.0
 40
8.0
  0
CIRCLE
  5
44D
330
17
100
AcDbEntity
  8
0
100
AcDbCircle
 10
249.3814773809232
 20
44.09738977561737
 30
0.0
 40
8.0
  0
CIRCLE
  5
44E
330
17
100
AcDbEntity
  8
0
100
AcDbCircle
 10
610.4478167284369
 20
970.157367206603
 30
0.0
 40
8.0
  0
CIRCLE
  5
44F
330
17
100
AcDbEntity
  8
0
100
AcDbCircle
 10
390.9245367988417
 20
708.617579289866
 30
0.0
 40
8.0
  0
CIRCLE
  5
450
330
17
100
AcDbEntity
  8
0
100
AcDbCircle
 10
324.2818505849282
 20
876.6259181543668
 30
0.0
 40
8.0
  0
CIRCLE
  5
451
330
17
100
AcDbEntity
  8
0
100
AcDbCircle
 10
490.1069859645462
 20
392.6768676773651
 30
0.0
 40
8.0
  0
CIRCLE
  5
452
330
17
100
AcDbEntity
  8
0
100
AcDbCircle
 10
325.42838986913404
 20
742.0162286290372
 30
0.0
 40
8.0
  0
CIRCLE
  5
453
330
17
100
AcDbEntity
  8
0
100
AcDbCircle
 10
260.3622926854602
 20
486.16641573248756
 30
0.0
 40
8.0
  0
CIRCLE
  5
454
330
17
100
AcDbEntity
  8
0
100
AcDbCircle
 10
941.8958750290586
 20
413.21861886576124
 30
0.0
 40
8.0
  0
CIRCLE
  5
455
330
17
100
AcDbEntity
  8
0
100
AcDbCircle
 10
241.45826394487113
 20
422.9333782613925
 30
0.0
 40
8.0
  0
CIRCLE
  5
456
330
17
100
AcDbEntity
  8
0
100
AcDbCircle
 10
654.6863238682564
 20
318.1448795676588
 30
0.0
 40
8.0
  0
CIRCLE
  5
457
330
17
100
AcDbEntity
  8
0
100
AcDbCircle
 10
772.0270818888356
 20
823.8387675145211
 30
0.0
 40
8.0
  0
CIRCLE
  5
458
330
17
100
AcDbEntity
  8
0
100
AcDbCircle
 10
586.9974081313545
 20
586.0314082623108
 30
0.0
 40
8.0
  0
CIRCLE
  5
459
330
17
100
AcDbEntity
  8
0
100
AcDbCircle
 10
655.74299322876
 20
955.3560826625478
 30
0.0
 40
8.0
  0
CIRCLE
  5
45A
330
17
100
AcDbEntity
  8
0
100
AcDbCircle
 10
48.04014129631464
 20
556.4159874428449
 30
0.0
 40
8.0
  0
CIRCLE
  5
45B
330
17
100
AcDbEntity
  8
0
100
AcDbCircle
 10
789.919430886637
 20
352.1907881981768
 30
0.0
 40
8.0
  0
CIRCLE
  5
45C
330
17
100
AcDbEntity
  8
0
100
AcDbCircle
 10
582.6327202585321
 20
847.2809079158193
 30
0.0
 40
8.0
  0
CIRCLE
  5
45D
330
17
100
AcDbEntity
  8
0
100
AcDbCircle
 10
13.061128615586693
 20
823.8910881022342
 30
0.0
 40
8.0
  0
CIRCLE
  5
45E
330
17
100
AcDbEntity
  8
0
100
AcDbCircle
 10
113.69132308482185
 20
356.69980695183057
 30
0.0
 40
8.0
  0
CIRCLE
  5
45F
330
17
100
AcDbEntity
  8
0
100
AcDbCircle
 10
665.0141439792351
 20
424.19466544797865
 30
0.0
 40
8.0
  0
CIRCLE
  5
460
330
17
100
AcDbEntity
  8
0
100
AcDbCircle
 10
9.140046818531328
 20
693.3560210736443
 30
0.0
 40
8.0
  0
CIRCLE
  5
461
330
17
100
AcDbEntity
  8
0
100
AcDbCircle
 10
199.69707545620847
 20
12.998444073873072
 30
0.0
 40
8.0
  0
CIRCLE
  5
462
330
17
100
AcDbEntity
  8
0
100
AcDbCircle
 10
767.1673468929259
 20
519.7190321450112
 30
0.0
 40
8.0
  0
CIRCLE
  5
463
330
17
100
AcDbEntity
  8
0
100
AcDbCircle
 10
537.153929501265
 20
210.1664494180061
 30
0.0
 40
8.0
  0
CIRCLE
  5
464
330
17
100
AcDbEntity
  8
0
100
AcDbCircle
 10
680.250097254624
 20
412.3430615682457
 30
0.0
 40
8.0
  0
CIRCLE
  5
465
330
17
100
AcDbEntity
  8
0
100
AcDbCircle
 10
905.8470478577923
 20
526.6461768908382
 30
0.0
 40
8.0
  0
CIRCLE
  5
466
330
17
100
AcDbEntity
  8
0
100
AcDbCircle
 10
433.30947970960466
 20
98.40054997709176
 30
0.0
 40
8.0
  0
CIRCLE
  5
467
330
17
100
AcDbEntity
  8
0
100
AcDbCircle
 10
33.86823751719635
 20
950.8829566623392
 30
0.0
 40
8.0
  0
CIRCLE
  5
468
330
17
100
AcDbEntity
  8
0
100
AcDbCircle
 10
672.1338113603076
 20
728.5639672691967
 30
0.0
 40
8.0
  0
CIRCLE
  5
469
330
17
100
AcDbEntity
  8
0
100
AcDbCircle
 10
894.8562488808531
 20
305.9224708961658
 30
0.0
 40
8.0
  0
CIRCLE
  5
46A
330
17
100
AcDbEntity
  8
0
100
AcDbCircle
 10
646.8705718988427
 20
852.6128292122021
 30
0.0
 40
8.0
  0
CIRCLE
  5
46B
330
17
100
AcDbEntity
  8
0
100
AcDbCircle
 10
951.1741345873348
 20
970.02858372402
 30
0.0
 40
8.0
  0
CIRCLE
  5
46C
330
17
100
AcDbEntity
  8
0
100
AcDbCircle
 10
676.3115045014232
 20
973.4310065555233
 30
0.0
 40
8.0
  0
CIRCLE
  5
46D
330
17
100
AcDbEntity
  8
0
100
AcDbCircle
 10
583.1462100004002
 20
479.6679653144823
 30
0.0
 40
8.0
  0
CIRCLE
  5
46E
330
17
100
AcDbEntity
  8
0
100
AcDbCircle
 10
681.41636436896
 20
466.1134331739344
 30
0.0
 40
8.0
  0
CIRCLE
  5
46F
330
17
100
AcDbEntity
  8
0
100
AcDbCircle
 10
350.47546829806447
 20
19.484843462417956
 30
0.0
 40
8.0
  0
CIRCLE
  5
470
330
17
100
AcDbEntity
  8
0
100
AcDbCircle
 10
121.03034278601972
 20
718.861887015894
 30
0.0
 40
8.0
  0
CIRCLE
  5
471
330
17
100
AcDbEntity
  8
0
100
AcDbCircle
 10
991.4113857904332
 20
683.9310694204257
 30
0.0
 40
8.0
  0
CIRCLE
  5
472
330
17
100
AcDbEntity
  8
0
100
AcDbCircle
 10
323.41670316088533
 20
932.6931962532251
 30
0.0
 40
8.0
  0
CIRCLE
  5
473
330
17
100
AcDbEntity
  8
0
100
AcDbCircle
 10
875.252160522222
 20
739.2495144768982
 30
0.0
 40
8.0
  0
CIRCLE
  5
474
330
17
100
AcDbEntity
  8
0
100
AcDbCircle
 10
217.77641736813146
 20
339.2702970536174
 30
0.0
 40
8.0
  0
CIRCLE
  5
475
330
17
100
AcDbEntity
  8
0
100
AcDbCircle
 10
887.0049209004007
 20
450.9426547501559
 30
0.0
 40
8.0
  0
CIRCLE
  5
476
330
17
100
AcDbEntity
  8
0
100
AcDbCircle
 10
554.2970578743473
 20
874.209417480414
 30
0.0
 40
8.0
  0
CIRCLE
  5
477
330
17
100
AcDbEntity
  8
0
100
AcDbCircle
 10
847.5350998295977
 20
536.6029431398313
 30
0.0
 40
8.0
  0
CIRCLE
  5
478
330
17
100
AcDbEntity
  8
0
100
AcDbCircle
 10
666.7808201260178
 20
46.14308254547385
 30
0.0
 40
8.0
  0
CIRCLE
  5
479
330
17
100
AcDbEntity
  8
0
100
AcDbCircle
 10
721.7257933710824
 20
259.0929359162351
 30
0.0
 40
8.0
  0
CIRCLE
  5
47A
330
17
100
AcDbEntity
  8
0
100
AcDbCircle
 10
405.77896155857474
 20
348.87219284145294
 30
0.0
 40
8.0
  0
CIRCLE
  5
47B
330
17
100
AcDbEntity
  8
0
100
AcDbCircle
 10
69.44159819981928
 20
27.577539990411356
 30
0.0
 40
8.0
  0
CIRCLE
  5
47C
330
17
100
AcDbEntity
  8
0
100
AcDbCircle
 10
954.4939889598747
 20
567.7045088915779
 30
0.0
 40
8.0
  0
CIRCLE
  5
47D
330
17
100
AcDbEntity
  8
0
100
AcDbCircle
 10
772.5585586844456
 20
393.8349019205905
 30
0.0
 40
8.0
  0
CIRCLE
  5
47E
330
17
100
AcDbEntity
  8
0
100
AcDbCircle
 10
890.1451142279634
 20
817.4813742037142
 30
0.0
 40
8.0
  0
CIRCLE
  5
47F
330
17
100
AcDbEntity
  8
0
100
AcDbCircle
 10
422.03747161060744
 20
581.2883433446715
 30
0.0
 40
8.0
  0
CIRCLE
  5
480
330
17
100
AcDbEntity
  8
0
100
AcDbCircle
 10
714.9894053610333
 20
909.1991932544812
 30
0.0
 40
8.0
  0
CIRCLE
  5
481
330
17
100
AcDbEntity
  8
0
100
AcDbCircle
 10
951.0256461726125
 20
122.69703902534793
 30
0.0
 40
8.0
  0
CIRCLE
  5
482
330
17
100
AcDbEntity
  8
0
100
AcDbCircle
 10
78.72910113380571
 20
397.45196808857105
 30
0.0
 40
8.0
  0
CIRCLE
  5
483
330
17
100
AcDbEntity
  8
0
100
AcDbCircle
 10
581.0650961216877
 20
242.1218247298151
 30
0.0
 40
8.0
  0
CIRCLE
  5
484
330
17
100
AcDbEntity
  8
0
100
AcDbCircle
 10
933.5087759001221
 20
917.6221762924495
 30
0.0
 40
8.0
  0
CIRCLE
  5
485
330
17
100
AcDbEntity
  8
0
100
AcDbCircle
 10
394.1810688682483
 20
178.23416544454474
 30
0.0
 40
8.0
  0
CIRCLE
  5
486
330
17
100
AcDbEntity
  8
0
100
AcDbCircle
 10
701.5897765364533
 20
61.18744983798347
 30
0.0
 40
8.0
  0
CIRCLE
  5
487
330
17
100
AcDbEntity
  8
0
100
AcDbCircle
 10
339.3922204308316
 20
429.2588905173887
 30
0.0
 40
8.0
  0
CIRCLE
  5
488
330
17
100
AcDbEntity
  8
0
100
AcDbCircle
 10
341.9402802097028
 20
869.7668437192827
 30
0.0
 40
8.0
  0
CIRCLE
  5
489
330
17
100
AcDbEntity
  8
0
100
AcDbCircle
 10
82.20592686834836
 20
990.286284420203
 30
0.0
 40
8.0
  0
CIRCLE
  5
48A
330
17
100
AcDbEntity
  8
0
100
AcDbCircle
 10
459.77993807560466
 20
444.2344290497388
 30
0.0
 40
8.0
  0
CIRCLE
  5
48B
330
17
100
AcDbEntity
  8
0
100
AcDbCircle
 10
53.86373304287329
 20
300.0704772184484
 30
0.0
 40
8.0
  0
CIRCLE
  5
48C
330
17
100
AcDbEntity
  8
0
100
AcDbCircle
 10
254.93738700707806
 20
230.19638200583813
 30
0.0
 40
8.0
  0
CIRCLE
  5
48D
330
17
100
AcDbEntity
  8
0
100
AcDbCircle
 10
110.94600766265775
 20
334.2580441748501
 30
0.0
 40
8.0
  0
CIRCLE
  5
48E
330
17
100
AcDbEntity
  8
0
100
AcDbCircle
 10
285.565275533522
 20
669.2786893570692
 30
0.0
 40
8.0
  0
CIRCLE
  5
48F
330
17
100
AcDbEntity
  8
0
100
AcDbCircle
 10
820.4131800815037
 20
739.2165594912549
 30
0.0
 40
8.0
  0
CIRCLE
  5
490
330
17
100
AcDbEntity
  8
0
100
AcDbCircle
 10
255.86810316302692
 20
565.6407909165639
 30
0.0
 40
8.0
  0
CIRCLE
  5
491
330
17
100
AcDbEntity
  8
0
100
AcDbCircle
 10
918.130015681298
 20
105.73493996083403
 30
0.0
 40
8.0
  0
CIRCLE
  5
492
330
17
100
AcDbEntity
  8
0
100
AcDbCircle
 10
536.7575555304053
 20
566.788738738833
 30
0.0
 40
8.0
  0
CIRCLE
  5
493
330
17
100
AcDbEntity
  8
0
100
AcDbCircle
 10
682.9373793911313
 20
865.0834327802537
 30
0.0
 40
8.0
  0
CIRCLE
  5
494
330
17
100
AcDbEntity
  8
0
100
AcDbCircle
 10
434.2605742835847
 20
765.7780869584478
 30
0.0
 40
8.0
  0
CIRCLE
  5
495
330
17
100
AcDbEntity
  8
0
100
AcDbCircle
 10
179.10265149758075
 20
839.0782541428382
 30
0.0
 40
8.0
  0
CIRCLE
  5
496
330
17
100
AcDbEntity
  8
0
100
AcDbCircle
 10
341.8616552092391
 20
68.53157719853029
 30
0.0
 40
8.0
  0
CIRCLE
  5
497
330
17
100
AcDbEntity
  8
0
100
AcDbCircle
 10
589.878433716869
 20
300.80936998530325
 30
0.0
 40
8.0
  0
CIRCLE
  5
498
330
17
100
AcDbEntity
  8
0
100
AcDbCircle
 10
28.236723409938524
 20
389.2945867152142
 30
0.0
 40
8.0
  0
CIRCLE
  5
499
330
17
100
AcDbEntity
  8
0
100
AcDbCircle
 10
244.4723042252564
 20
507.33664334886095
 30
0.0
 40
8.0
  0
CIRCLE
  5
49A
330
17
100
AcDbEntity
  8
0
100
AcDbCircle
 10
654.9420763204528
 20
117.32332581602057
 30
0.0
 40
8.0
  0
CIRCLE
  5
49B
330
17
100
AcDbEntity
  8
0
100
AcDbCircle
 10
689.6268501356101
 20
724.1058822244456
 30
0.0
 40
8.0
  0
CIRCLE
  5
49C
330
17
100
AcDbEntity
  8
0
100
AcDbCircle
 10
575.0544104158574
 20
333.8157914679656
 30
0.0
 40
8.0
  0
CIRCLE
  5
49D
330
17
100
AcDbEntity
  8
0
100
AcDbCircle
 10
974.8277549458071
 20
782.672284165101
 30
0.0
 40
8.0
  0
CIRCLE
  5
49E
330
17
100
AcDbEntity
  8
0
100
AcDbCircle
 10
480.79344538893497
 20
678.3870248917935
 30
0.0
 40
8.0
  0
CIRCLE
  5
49F
330
17
100
AcDbEntity
  8
0
100
AcDbCircle
 10
32.04275775338665
 20
94.11591440978513
 30
0.0
 40
8.0
  0
CIRCLE
  5
4A0
330
17
100
AcDbEntity
  8
0
100
AcDbCircle
 10
707.2105481510466
 20
645.4382379314866
 30
0.0
 40
8.0
  0
CIRCLE
  5
4A1
330
17
100
AcDbEntity
  8
0
100
AcDbCircle
 10
624.4739975334944
 20
143.75375180562122
 30
0.0
 40
8.0
  0
CIRCLE
  5
4A2
330
17
100
AcDbEntity
  8
0
100
AcDbCircle
 10
990.8172004463341
 20
226.23532453851365
 30
0.0
 40
8.0
  0
CIRCLE
  5
4A3
330
17
100
AcDbEntity
  8
0
100
AcDbCircle
 10
168.8233579014768
 20
108.55487321425827
 30
0.0
 40
8.0
  0
CIRCLE
  5
4A4
330
17
100
AcDbEntity
  8
0
100
AcDbCircle
 10
494.22204675693933
 20
970.4339464373121
 30
0.0
 40
8.0
  0
CIRCLE
  5
4A5
330
17
100
AcDbEntity
  8
0
100
AcDbCircle
 10
923.3455990155098
 20
8.154862751887979
 30
0.0
 40
8.0
  0
CIRCLE
  5
4A6
330
17
100
AcDbEntity
  8
0
100
AcDbCircle
 10
204.79215882678884
 20
180.05753126954923
 30
0.0
 40
8.0
  0
CIRCLE
  5
4A7
330
17
100
AcDbEntity
  8
0
100
AcDbCircle
 10
73.01019420686349
 20
147.01590533468496
 30
0.0
 40
8.0
  0
CIRCLE
  5
4A8
330
17
100
AcDbEntity
  8
0
100
AcDbCircle
 10
553.9888167165644
 20
665.8020879219088
 30
0.0
 40
8.0
  0
CIRCLE
  5
4A9
330
17
100
AcDbEntity
  8
0
100
AcDbCircle
 10
73.67970099974154
 20
252.12538697238318
 30
0.0
 40
8.0
  0
CIRCLE
  5
4AA
330
17
100
AcDbEntity
  8
0
100
AcDbCircle
 10
807.9893693173948
 20
916.2606767241214
 30
0.0
 40
8.0
  0
CIRCLE
  5
4AB
330
17
100
AcDbEntity
  8
0
100
AcDbCircle
 10
441.5785990759834
 20
978.313749137368
 30
0.0
 40
8.0
  0
CIRCLE
  5
4AC
330
17
100
AcDbEntity
  8
0
100
AcDbCircle
 10
52.82428443178889
 20
768.3010948489457
 30
0.0
 40
8.0
  0
CIRCLE
  5
4AD
330
17
100
AcDbEntity
  8
0
100
AcDbCircle
 10
517.7856770596248
 20
944.6120066307409
 30
0.0
 40
8.0
  0
CIRCLE
  5
4AE
330
17
100
AcDbEntity
  8
0
100
AcDbCircle
 10
929.4901259644481
 20
398.3054049819471
 30
0.0
 40
8.0
  0
CIRCLE
  5
4AF
330
17
100
AcDbEntity
  8
0
100
AcDbCircle
 10
94.52647275533975
 20
874.8724220882398
 30
0.0
 40
8.0
  0
CIRCLE
  5
4B0
330
17
100
AcDbEntity
  8
0
100
AcDbCircle
 10
540.9973993800144
 20
194.06653572612151
 30
0.0
 40
8.0
  0
CIRCLE
  5
4B1
330
17
100
AcDbEntity
  8
0
100
AcDbCircle
 10
163.0970280952528
 20
753.7597144232732
 30
0.0
 40
8.0
  0
CIRCLE
  5
4B2
330
17
100
AcDbEntity
  8
0
100
AcDbCircle
 10
721.9051651191846
 20
166.34888311325943
 30
0.0
 40
8.0
  0
CIRCLE
  5
4B3
330
17
100
AcDbEntity
  8
0
100
AcDbCircle
 10
298.1121860087343
 20
989.9106779872592
 30
0.0
 40
8.0
  0
CIRCLE
  5
4B4
330
17
100
AcDbEntity
  8
0
100
AcDbCircle
 10
796.5567606432129
 20
152.7370472341287
 30
0.0
 40
8.0
  0
CIRCLE
  5
4B5
330
17
100
AcDbEntity
  8
0
100
AcDbCircle
 10
72.01719839611141
 20
707.5276434449842
 30
0.0
 40
8.0
  0
CIRCLE
  5
4B6
330
17
100
AcDbEntity
  8
0
100
AcDbCircle
 10
354.1051628070466
 20
609.9131125413894
 30
0.0
 40
8.0
  0
CIRCLE
  5
4B7
330
17
100
AcDbEntity
  8
0
100
AcDbCircle
 10
969.1930262310403
 20
508.8419977427278
 30
0.0
 40
8.0
  0
CIRCLE
  5
4B8
330
17
100
AcDbEntity
  8
0
100
AcDbCircle
 10
855.1620476711297
 20
196.52844870874495
 30
0.0
 40
8.0
  0
CIRCLE
  5
4B9
330
17
100
AcDbEntity
  8
0
100
AcDbCircle
 10
991.0343210950898
 20
144.98615530531146
 30
0.0
 40
8.0
  0
CIRCLE
  5
4BA
330
17
100
AcDbEntity
  8
0
100
AcDbCircle
 10
258.29537525008504
 20
18.937117562427886
 30
0.0
 40
8.0
  0
CIRCLE
  5
4BB
330
17
100
AcDbEntity
  8
0
100
AcDbCircle
 10
193.14695633693663
 20
868.8382692267394
 30
0.0
 40
8.0
  0
CIRCLE
  5
4BC
330
17
100
AcDbEntity
  8
0
100
AcDbCircle
 10
802.7658248578941
 20
808.5446839706866
 30
0.0
 40
8.0
  0
CIRCLE
  5
4BD
330
17
100
AcDbEntity
  8
0
100
AcDbCircle
 10
8.400074897170313
 20
208.23549281386914
 30
0.0
 40
8.0
  0
CIRCLE
  5
4BE
330
17
100
AcDbEntity
  8
0
100
AcDbCircle
 10
342.72193987880513
 20
988.9394246613292
 30
0.0
 40
8.0
  0
CIRCLE
  5
4BF
330
17
100
AcDbEntity
  8
0
100
AcDbCircle
 10
10.892555732112148
 20
499.65240603706434
 30
0.0
 40
8.0
  0
CIRCLE
  5
4C0
330
17
100
AcDbEntity
  8
0
100
AcDbCircle
 10
168.84510952562212
 20
932.7370867784571
 30
0.0
 40
8.0
  0
CIRCLE
  5
4C1
330
17
100
AcDbEntity
  8
0
100
AcDbCircle
 10
403.60462905310374
 20
475.76016950859497
 30
0.0
 40
8.0
  0
CIRCLE
  5
4C2
330
17
100
AcDbEntity
  8
0
100
AcDbCircle
 10
71.0151132774359
 20
300.9834418542082
 30
0.0
 40
8.0
  0
CIRCLE
  5
4C3
330
17
100
AcDbEntity
  8
0
100
AcDbCircle
 10
779.0823158100161
 20
840.3572139271294
 30
0.0
 40
8.0
  0
CIRCLE
  5
4C4
330
17
100
AcDbEntity
  8
0
100
AcDbCircle
 10
374.9901949358299
 20
283.0060076922691
 30
0.0
 40
8.0
  0
CIRCLE
  5
4C5
330
17
100
AcDbEntity
  8
0
100
AcDbCircle
 10
589.3016819898404
 20
667.8536454869777
 30
0.0
 40
8.0
  0
CIRCLE
  5
4C6
330
17
100
AcDbEntity
  8
0
100
AcDbCircle
 10
373.428736097057
 20
500.82523271858196
 30
0.0
 40
8.0
  0
CIRCLE
  5
4C7
330
17
100
AcDbEntity
  8
0
100
AcDbCircle
 10
263.8877538944083
 20
124.5125772035393
 30
0.0
 40
8.0
  0
CIRCLE
  5
4C8
330
17
100
AcDbEntity
  8
0
100
AcDbCircle
 10
594.5490273105432
 20
735.7862665951077
 30
0.0
 40
8.0
  0
CIRCLE
  5
4C9
330
17
100
AcDbEntity
  8
0
100
AcDbCircle
 10
54.051049762247224
 20
462.70332303715236
 30
0.0
 40
8.0
  0
CIRCLE
  5
4CA
330
17
100
AcDbEntity
  8
0
100
AcDbCircle
 10
873.149704248543
 20
263.91767889374927
 30
0.0
 40
8.0
  0
CIRCLE
  5
4CB
330
17
100
AcDbEntity
  8
0
100
AcDbCircle
 10
802.7831271664759
 20
550.8944047352825
 30
0.0
 40
8.0
  0
CIRCLE
  5
4CC
330
17
100
AcDbEntity
  8
0
100
AcDbCircle
 10
399.91373163470746
 20
328.5512168577348
 30
0.0
 40
8.0
  0
CIRCLE
  5
4CD
330
17
100
AcDbEntity
  8
0
100
AcDbCircle
 10
991.744826822696
 20
15.047420572229242
 30
0.0
 40
8.0
  0
CIRCLE
  5
4CE
330
17
100
AcDbEntity
  8
0
100
AcDbCircle
 10
135.93034463682193
 20
60.844812302180685
 30
0.0
 40
8.0
  0
CIRCLE
  5
4CF
330
17
100
AcDbEntity
  8
0
100
AcDbCircle
 10
789.1156351694368
 20
755.9793940935198
 30
0.0
 40
8.0
  0
CIRCLE
  5
4D0
330
17
100
AcDbEntity
  8
0
100
AcDbCircle
 10
539.6982784612255
 20
905.6023394939153
 30
0.0
 40
8.0
  0
CIRCLE
  5
4D1
330
17
100
AcDbEntity
  8
0
100
AcDbCircle
 10
948.8874959326224
 20
912.3817118273289
 30
0.0
 40
8.0
  0
CIRCLE
  5
4D2
330
17
100
AcDbEntity
  8
0
100
AcDbCircle
 10
254.95897872206635
 20
346.53918415817253
 30
0.0
 40
8.0
  0
CIRCLE
  5
4D3
330
17
100
AcDbEntity
  8
0
100
AcDbCircle
 10
110.4078237769578
 20
185.6941567949794
 30
0.0
 40
8.0
  0
CIRCLE
  5
4D4
330
17
100
AcDbEntity
  8
0
100
AcDbCircle
 10
157.33089383551822
 20
250.38537742157567
 30
0.0
 40
8.0
  0
CIRCLE
  5
4D5
330
17
100
AcDbEntity
  8
0
100
AcDbCircle
 10
85.50093636006486
 20
697.8109144655812
 30
0.0
 40
8.0
  0
CIRCLE
  5
4D6
330
17
100
AcDbEntity
  8
0
100
AcDbCircle
 10
463.64484690510807
 20
89.65388782485687
 30
0.0
 40
8.0
  0
CIRCLE
  5
4D7
330
17
100
AcDbEntity
  8
0
100
AcDbCircle
 10
257.8184271373903
 20
991.9369449103469
 30
0.0
 40
8.0
  0
CIRCLE
  5
4D8
330
17
100
AcDbEntity
  8
0
100
AcDbCircle
 10
989.3946250533611
 20
578.6093095036825
 30
0.0
 40
8.0
  0
CIRCLE
  5
4D9
330
17
100
AcDbEntity
  8
0
100
AcDbCircle
 10
142.11511934222634
 20
331.34710056848115
 30
0.0
 40
8.0
  0
CIRCLE
  5
4DA
330
17
100
AcDbEntity
  8
0
100
AcDbCircle
 10
455.4530702861648
 20
991.8997796443558
 30
0.0
 40
8.0
  0
CIRCLE
  5
4DB
330
17
100
AcDbEntity
  8
0
100
AcDbCircle
 10
458.177286805229
 20
724.0514775490502
 30
0.0
 40
8.0
  0
CIRCLE
  5
4DC
330
17
100
AcDbEntity
  8
0
100
AcDbCircle
 10
840.2738727671788
 20
133.8064126497485
 30
0.0
 40
8.0
  0
CIRCLE
  5
4DD
330
17
100
AcDbEntity
  8
0
100
AcDbCircle
 10
247.78240102126483
 20
96.18935761778559
 30
0.0
 40
8.0
  0
CIRCLE
  5
4DE
330
17
100
AcDbEntity
  8
0
100
AcDbCircle
 10
979.9795649129591
 20
440.06680902969646
 30
0.0
 40
8.0
  0
CIRCLE
  5
4DF
330
17
100
AcDbEntity
  8
0
100
AcDbCircle
 10
8.76289370654951
 20
425.90555701939235
 30
0.0
 40
8.0
  0
CIRCLE
  5
4E0
330
17
100
AcDbEntity
  8
0
100
AcDbCircle
 10
606.6250418093832
 20
201.67968048400422
 30
0.0
 40
8.0
  0
CIRCLE
  5
4E1
330
17
100
AcDbEntity
  8
0
100
AcDbCircle
 10
313.42253301170695
 20
793.8346989233645
 30
0.0
 40
8.0
  0
CIRCLE
  5
4E2
330
17
100
AcDbEntity
  8
0
100
AcDbCircle
 10
790.1154791725068
 20
449.45395628632446
 30
0.0
 40
8.0
  0
CIRCLE
  5
4E3
330
17
100
AcDbEntity
  8
0
100
AcDbCircle
 10
584.16634897601
 20
434.64972621266924
 30
0.0
 40
8.0
  0
CIRCLE
  5
4E4
330
17
100
AcDbEntity
  8
0
100
AcDbCircle
 10
428.7156216901653
 20
707.0404492444604
 30
0.0
 40
8.0
  0
CIRCLE
  5
4E5
330
17
100
AcDbEntity
  8
0
100
AcDbCircle
 10
22.41757771965417
 20
902.286152878553
 30
0.0
 40
8.0
  0
CIRCLE
  5
4E6
330
17
100
AcDbEntity
  8
0
100
AcDbCircle
 10
446.9693221581464
 20
64.32720231099745
 30
0.0
 40
8.0
  0
CIRCLE
  5
4E7
330
17
100
AcDbEntity
  8
0
100
AcDbCircle
 10
202.84318776066308
 20
330.07143353020524
 30
0.0
 40
8.0
  0
CIRCLE
  5
4E8
330
17
100
AcDbEntity
  8
0
100
AcDbCircle
 10
970.8044682315083
 20
748.2241219051112
 30
0.0
 40
8.0
  0
CIRCLE
  5
4E9
330
17
100
AcDbEntity
  8
0
100
AcDbCircle
 10
363.2540007903276
 20
8.319084022174096
 30
0.0
 40
8.0
  0
CIRCLE
  5
4EA
330
17
100
AcDbEntity
  8
0
100
AcDbCircle
 10
408.4513322965948
 20
861.4987770369829
 30
0.0
 40
8.0
  0
CIRCLE
  5
4EB
330
17
100
AcDbEntity
  8
0
100
AcDbCircle
 10
825.967042801139
 20
712.6563188441104
 30
0.0
 40
8.0
  0
CIRCLE
  5
4EC
330
17
100
AcDbEntity
  8
0
100
AcDbCircle
 10
507.2306896137388
 20
582.0029771773909
 30
0.0
 40
8.0
  0
CIRCLE
  5
4ED
330
17
100
AcDbEntity
  8
0
100
AcDbCircle
 10
659.9239573709393
 20
989.1409981066186
 30
0.0
 40
8.0
  0
CIRCLE
  5
4EE
330
17
100
AcDbEntity
  8
0
100
AcDbCircle
 10
798.3934449626846
 20
36.41687180907215
 30
0.0
 40
8.0
  0
CIRCLE
  5
4EF
330
17
100
AcDbEntity
  8
0
100
AcDbCircle
 10
544.0650876245678
 20
34.0317969149693
 30
0.0
 40
8.0
  0
CIRCLE
  5
4F0
330
17
100
AcDbEntity
  8
0
100
AcDbCircle
 10
990.7023119564602
 20
388.37563175440147
 30
0.0
 40
8.0
  0
CIRCLE
  5
4F1
330
17
100
AcDbEntity
  8
0
100
AcDbCircle
 10
600.8944472134092
 20
713.1511300999006
 30
0.0
 40
8.0
  0
CIRCLE
  5
4F2
330
17
100
AcDbEntity
  8
0
100
AcDbCircle
 10
776.4868964017924
 20
982.4239392290939
 30
0.0
 40
8.0
  0
CIRCLE
  5
4F3
330
17
100
AcDbEntity
  8
0
100
AcDbCircle
 10
519.8795942398837
 20
759.7760254195498
 30
0.0
 40
8.0
  0
CIRCLE
  5
4F4
330
17
100
AcDbEntity
  8
0
100
AcDbCircle
 10
790.9089271076339
 20
368.4483888388823
 30
0.0
 40
8.0
  0
CIRCLE
  5
4F5
330
17
100
AcDbEntity
  8
0
100
AcDbCircle
 10
907.2229151825783
 20
939.9244561633743
 30
0.0
 40
8.0
  0
CIRCLE
  5
4F6
330
17
100
AcDbEntity
  8
0
100
AcDbCircle
 10
666.9855717093411
 20
8.935515677356099
 30
0.0
 40
8.0
  0
CIRCLE
  5
4F7
330
17
100
AcDbEntity
  8
0
100
AcDbCircle
 10
262.28498924165035
 20
380.7600041297928
 30
0.0
 40
8.0
  0
CIRCLE
  5
4F8
330
17
100
AcDbEntity
  8
0
100
AcDbCircle
 10
681.2225386147113
 20
430.2299607259279
 30
0.0
 40
8.0
  0
CIRCLE
  5
4F9
330
17
100
AcDbEntity
  8
0
100
AcDbCircle
 10
466.77487374599735
 20
204.46349254148632
 30
0.0
 40
8.0
  0
CIRCLE
  5
4FA
330
17
100
AcDbEntity
  8
0
100
AcDbCircle
 10
313.4256722244236
 20
581.9494798330464
 30
0.0
 40
8.0
  0
CIRCLE
  5
4FB
330
17
100
AcDbEntity
  8
0
100
AcDbCircle
 10
593.8655633513141
 20
394.1639325997519
 30
0.0
 40
8.0
  0
CIRCLE
  5
4FC
330
17
100
AcDbEntity
  8
0
100
AcDbCircle
 10
903.8306012416105
 20
213.75577440865925
 30
0.0
 40
8.0
  0
CIRCLE
  5
4FD
330
17
100
AcDbEntity
  8
0
100
AcDbCircle
 10
975.2544190133843
 20
867.4159153152256
 30
0.0
 40
8.0
  0
CIRCLE
  5
4FE
330
17
100
AcDbEntity
  8
0
100
AcDbCircle
 10
690.2844588504486
 20
839.52338247892
 30
0.0
 40
8.0
  0
CIRCLE
  5
4FF
330
17
100
AcDbEntity
  8
0
100
AcDbCircle
 10
279.3890438215115
 20
537.432997282752
 30
0.0
 40
8.0
  0
CIRCLE
  5
500
330
17
100
AcDbEntity
  8
0
100
AcDbCircle
 10
276.42021490982796
 20
351.4154273192428
 30
0.0
 40
8.0
  0
CIRCLE
  5
501
330
17
100
AcDbEntity
  8
0
100
AcDbCircle
 10
873.6074276423432
 20
217.55392712564918
 30
0.0
 40
8.0
  0
CIRCLE
  5
502
330
17
100
AcDbEntity
  8
0
100
AcDbCircle
 10
25.96191242964143
 20
472.5076183213546
 30
0.0
 40
8.0
  0
CIRCLE
  5
503
330
17
100
AcDbEntity
  8
0
100
AcDbCircle
 10
141.22053801856578
 20
470.9417835876123
 30
0.0
 40
8.0
  0
CIRCLE
  5
504
330
17
100
AcDbEntity
  8
0
100
AcDbCircle
 10
491.64794508705864
 20
178.1274485314008
 30
0.0
 40
8.0
  0
CIRCLE
  5
505
330
17
100
AcDbEntity
  8
0
100
AcDbCircle
 10
537.3846498216951
 20
232.65277682281192
 30
0.0
 40
8.0
  0
CIRCLE
  5
506
330
17
100
AcDbEntity
  8
0
100
AcDbCircle
 10
746.7244117492844
 20
472.90302826104187
 30
0.0
 40
8.0
  0
CIRCLE
  5
507
330
17
100
AcDbEntity
  8
0
100
AcDbCircle
 10
676.078655125635
 20
32.77376066873168
 30
0.0
 40
8.0
  0
CIRCLE
  5
508
330
17
100
AcDbEntity
  8
0
100
AcDbCircle
 10
40.81488697919289
 20
699.1253884543578
 30
0.0
 40
8.0
  0
CIRCLE
  5
509
330
17
100
AcDbEntity
  8
0
100
AcDbCircle
 10
581.1306959278207
 20
91.67667553991217
 30
0.0
 40
8.0
  0
CIRCLE
  5
50A
330
17
100
AcDbEntity
  8
0
100
AcDbCircle
 10
375.92648037205606
 20
582.3686894512134
 30
0.0
 40
8.0
  0
CIRCLE
  5
50B
330
17
100
AcDbEntity
  8
0
100
AcDbCircle
 10
193.87365088551437
 20
164.19303026906596
 30
0.0
 40
8.0
  0
CIRCLE
  5
50C
330
17
100
AcDbEntity
  8
0
100
AcDbCircle
 10
140.48143862874838
 20
990.9581813062526
 30
0.0
 40
8.0
  0
CIRCLE
  5
50D
330
17
100
AcDbEntity
  8
0
100
AcDbCircle
 10
437.4781079497528
 20
289.5320229951191
 30
0.0
 40
8.0
  0
CIRCLE
  5
50E
330
17
100
AcDbEntity
  8
0
100
AcDbCircle
 10
30.270396379555923
 20
438.2267840701158
 30
0.0
 40
8.0
  0
CIRCLE
  5
50F
330
17
100
AcDbEntity
  8
0
100
AcDbCircle
 10
724.7151186712841
 20
530.5783516286252
 30
0.0
 40
8.0
  0
CIRCLE
  5
510
330
17
100
AcDbEntity
  8
0
100
AcDbCircle
 10
382.3937358476305
 20
724.5062264679822
 30
0.0
 40
8.0
  0
CIRCLE
  5
511
330
17
100
AcDbEntity
  8
0
100
AcDbCircle
 10
698.1091702061942
 20
462.09924729160497
 30
0.0
 40
8.0
  0
CIRCLE
  5
512
330
17
100
AcDbEntity
  8
0
100
AcDbCircle
 10
117.21048660792769
 20
700.0542510484886
 30
0.0
 40
8.0
  0
CIRCLE
  5
513
330
17
100
AcDbEntity
  8
0
100
AcDbCircle
 10
740.5551489375844
 20
655.3381881813632
 30
0.0
 40
8.0
  0
CIRCLE
  5
514
330
17
100
AcDbEntity
  8
0
100
AcDbCircle
 10
339.2863819225584
 20
954.0558765828237
 30
0.0
 40
8.0
  0
CIRCLE
  5
515
330
17
100
AcDbEntity
  8
0
100
AcDbCircle
 10
673.5549556481102
 20
583.6638573528153
 30
0.0
 40
8.0
  0
CIRCLE
  5
516
330
17
100
AcDbEntity
  8
0
100
AcDbCircle
 10
604.546868080346
 20
651.9350613972391
 30
0.0
 40
8.0
  0
CIRCLE
  5
517
330
17
100
AcDbEntity
  8
0
100
AcDbCircle
 10
289.8319271424701
 20
917.5070383016573
 30
0.0
 40
8.0
  0
CIRCLE
  5
518
330
17
100
AcDbEntity
  8
0
100
AcDbCircle
 10
571.2979553422851
 20
195.72460999690364
 30
0.0
 40
8.0
  0
CIRCLE
  5
519
330
17
100
AcDbEntity
  8
0
100
AcDbCircle
 10
135.23759508940324
 20
405.75745106134843
 30
0.0
 40
8.0
  0
CIRCLE
  5
51A
330
17
100
AcDbEntity
  8
0
100
AcDbCircle
 10
828.5943605656273
 20
871.7748241013387
 30
0.0
 40
8.0
  0
CIRCLE
  5
51B
330
17
100
AcDbEntity
  8
0
100
AcDbCircle
 10
765.8038271187896
 20
944.1635053344307
 30
0.0
 40
8.0
  0
CIRCLE
  5
51C
330
17
100
AcDbEntity
  8
0
100
AcDbCircle
 10
415.5897152079856
 20
961.2634345117774
 30
0.0
 40
8.0
  0
CIRCLE
  5
51D
330
17
100
AcDbEntity
  8
0
100
AcDbCircle
 10
350.1838051203846
 20
469.3958035546584
 30
0.0
 40
8.0
  0
CIRCLE
  5
51E
330
17
100
AcDbEntity
  8
0
100
AcDbCircle
 10
400.83520729093544
 20
515.2507587869205
 30
0.0
 40
8.0
  0
CIRCLE
  5
51F
330
17
100
AcDbEntity
  8
0
100
AcDbCircle
 10
473.7460416342788
 20
652.8933850571442
 30
0.0
 40
8.0
  0
CIRCLE
  5
520
330
17
100
AcDbEntity
  8
0
100
AcDbCircle
 10
31.82920584542849
 20
758.1772073840536
 30
0.0
 40
8.0
  0
CIRCLE
  5
521
330
17
100
AcDbEntity
  8
0
100
AcDbCircle
 10
504.2098179970899
 20
700.2860585519206
 30
0.0
 40
8.0
  0
CIRCLE
  5
522
330
17
100
AcDbEntity
  8
0
100
AcDbCircle
 10
102.62446518095379
 20
50.79679404892687
 30
0.0
 40
8.0
  0
CIRCLE
  5
523
330
17
100
AcDbEntity
  8
0
100
AcDbCircle
 10
970.7948100123468
 20
457.27552001304804
 30
0.0
 40
8.0
  0
CIRCLE
  5
524
330
17
100
AcDbEntity
  8
0
100
AcDbCircle
 10
990.4955400411527
 20
36.528312710494745
 30
0.0
 40
8.0
  0
CIRCLE
  5
525
330
17
100
AcDbEntity
  8
0
100
AcDbCircle
 10
602.6210807678003
 20
119.27904318697829
 30
0.0
 40
8.0
  0
CIRCLE
  5
526
330
17
100
AcDbEntity
  8
0
100
AcDbCircle
 10
872.7717867978868
 20
526.8214211261239
 30
0.0
 40
8.0
  0
CIRCLE
  5
527
330
17
100
AcDbEntity
  8
0
100
AcDbCircle
 10
854.2386484095576
 20
281.5401527386933
 30
0.0
 40
8.0
  0
CIRCLE
  5
528
330
17
100
AcDbEntity
  8
0
100
AcDbCircle
 10
638.0046290722997
 20
605.623265521515
 30
0.0
 40
8.0
  0
CIRCLE
  5
529
330
17
100
AcDbEntity
  8
0
100
AcDbCircle
 10
26.5622134135182
 20
138.7799350368527
 30
0.0
 40
8.0
  0
CIRCLE
  5
52A
330
17
100
AcDbEntity
  8
0
100
AcDbCircle
 10
524.4669457884117
 20
404.2283308586688
 30
0.0
 40
8.0
  0
CIRCLE
  5
52B
330
17
100
AcDbEntity
  8
0
100
AcDbCircle
 10
120.97141218175175
 20
873.0092446041436
 30
0.0
 40
8.0
  0
CIRCLE
  5
52C
330
17
100
AcDbEntity
  8
0
100
AcDbCircle
 10
370.3548457822567
 20
456.37107967975487
 30
0.0
 40
8.0
  0
CIRCLE
  5
52D
330
17
100
AcDbEntity
  8
0
100
AcDbCircle
 10
130.18865291015103
 20
238.62593506608422
 30
0.0
 40
8.0
  0
CIRCLE
  5
52E
330
17
100
AcDbEntity
  8
0
100
AcDbCircle
 10
202.85258903948568
 20
592.3984702752807
 30
0.0
 40
8.0
  0
CIRCLE
  5
52F
330
17
100
AcDbEntity
  8
0
100
AcDbCircle
 10
29.16869877962378
 20
791.0068375804221
 30
0.0
 40
8.0
  0
CIRCLE
  5
530
330
17
100
AcDbEntity
  8
0
100
AcDbCircle
 10
659.2897496748203
 20
601.2529516293373
 30
0.0
 40
8.0
  0
CIRCLE
  5
531
330
17
100
AcDbEntity
  8
0
100
AcDbCircle
 10
487.2921857759305
 20
8.421308077227302
 30
0.0
 40
8.0
  0
CIRCLE
  5
532
330
17
100
AcDbEntity
  8
0
100
AcDbCircle
 10
480.34599388148894
 20
633.2255141118173
 30
0.0
 40
8.0
  0
CIRCLE
  5
533
330
17
100
AcDbEntity
  8
0
100
AcDbCircle
 10
253.52843163871182
 20
252.9846766977378
 30
0.0
 40
8.0
  0
CIRCLE
  5
534
330
17
100
AcDbEntity
  8
0
100
AcDbCircle
 10
618.3097358107088
 20
590.9019718236426
 30
0.0
 40
8.0
  0
CIRCLE
  5
535
330
17
100
AcDbEntity
  8
0
100
AcDbCircle
 10
443.73495166268424
 20
471.75721674183256
 30
0.0
 40
8.0
  0
CIRCLE
  5
536
330
17
100
AcDbEntity
  8
0
100
AcDbCircle
 10
355.2178372068196
 20
837.3101553323175
 30
0.0
 40
8.0
  0
CIRCLE
  5
537
330
17
100
AcDbEntity
  8
0
100
AcDbCircle
 10
9.792231857078326
 20
284.10393262227274
 30
0.0
 40
8.0
  0
CIRCLE
  5
538
330
17
100
AcDbEntity
  8
0
100
AcDbCircle
 10
881.6233204561188
 20
493.57610862696947
 30
0.0
 40
8.0
  0
CIRCLE
  5
539
330
17
100
AcDbEntity
  8
0
100
AcDbCircle
 10
718.9610462678153
 20
946.2887991394387
 30
0.0
 40
8.0
  0
CIRCLE
  5
53A
330
17
100
AcDbEntity
  8
0
100
AcDbCircle
 10
284.87140965727224
 20
630.0382738759481
 30
0.0
 40
8.0
  0
CIRCLE
  5
53B
330
17
100
AcDbEntity
  8
0
100
AcDbCircle
 10
47.86101494345192
 20
788.9089094978192
 30
0.0
 40
8.0
  0
CIRCLE
  5
53C
330
17
100
AcDbEntity
  8
0
100
AcDbCircle
 10
406.8001524765306
 20
743.5327470370095
 30
0.0
 40
8.0
  0
CIRCLE
  5
53D
330
17
100
AcDbEntity
  8
0
100
AcDbCircle
 10
838.1337850612904
 20
910.7344986306008
 30
0.0
 40
8.0
  0
CIRCLE
  5
53E
330
17
100
AcDbEntity
  8
0
100
AcDbCircle
 10
659.6688132057002
 20
746.8913514483959
 30
0.0
 40
8.0
  0
CIRCLE
  5
53F
330
17
100
AcDbEntity
  8
0
100
AcDbCircle
 10
256.916368866238
 20
548.8446075194363
 30
0.0
 40
8.0
  0
CIRCLE
  5
540
330
17
100
AcDbEntity
  8
0
100
AcDbCircle
 10
828.710807303179
 20
570.502617323511
 30
0.0
 40
8.0
  0
CIRCLE
  5
541
330
17
100
AcDbEntity
  8
0
100
AcDbCircle
 10
991.4416039928277
 20
633.5688161837603
 30
0.0
 40
8.0
  0
CIRCLE
  5
542
330
17
100
AcDbEntity
  8
0
100
AcDbCircle
 10
216.6716749066763
 20
700.110235879446
 30
0.0
 40
8.0
  0
CIRCLE
  5
543
330
17
100
AcDbEntity
  8
0
100
AcDbCircle
 10
472.44639893992263
 20
988.5632804181009
 30
0.0
 40
8.0
  0
CIRCLE
  5
544
330
17
100
AcDbEntity
  8
0
100
AcDbCircle
 10
24.200585717568043
 20
669.7834845182721
 30
0.0
 40
8.0
  0
CIRCLE
  5
545
330
17
100
AcDbEntity
  8
0
100
AcDbCircle
 10
991.9774166275183
 20
802.6395211668589
 30
0.0
 40
8.0
  0
CIRCLE
  5
546
330
17
100
AcDbEntity
  8
0
100
AcDbCircle
 10
599.4444032057125
 20
897.1758739527211
 30
0.0
 40
8.0
  0
CIRCLE
  5
547
330
17
100
AcDbEntity
  8
0
100
AcDbCircle
 10
685.2426253408427
 20
934.3003752154304
 30
0.0
 40
8.0
  0
CIRCLE
  5
548
330
17
100
AcDbEntity
  8
0
100
AcDbCircle
 10
800.0740755618168
 20
586.5665858137841
 30
0.0
 40
8.0
  0
CIRCLE
  5
549
330
17
100
AcDbEntity
  8
0
100
AcDbCircle
 10
241.16512253956995
 20
578.9675301286557
 30
0.0
 40
8.0
  0
CIRCLE
  5
54A
330
17
100
AcDbEntity
  8
0
100
AcDbCircle
 10
609.8014224627514
 20
160.86638451597275
 30
0.0
 40
8.0
  0
CIRCLE
  5
54B
330
17
100
AcDbEntity
  8
0
100
AcDbCircle
 10
366.1309270081773
 20
825.2734818019267
 30
0.0
 40
8.0
  0
CIRCLE
  5
54C
330
17
100
AcDbEntity
  8
0
100
AcDbCircle
 10
29.530466503609567
 20
239.57924870634855
 30
0.0
 40
8.0
  0
CIRCLE
  5
54D
330
17
100
AcDbEntity
  8
0
100
AcDbCircle
 10
244.45641797209996
 20
675.8495425891695
 30
0.0
 40
8.0
  0
CIRCLE
  5
54E
330
17
100
AcDbEntity
  8
0
100
AcDbCircle
 10
429.2913371489814
 20
460.70574555574075
 30
0.0
 40
8.0
  0
CIRCLE
  5
54F
330
17
100
AcDbEntity
  8
0
100
AcDbCircle
 10
179.5768904606306
 20
462.6310380088421
 30
0.0
 40
8.0
  0
CIRCLE
  5
550
330
17
100
AcDbEntity
  8
0
100
AcDbCircle
 10
33.926504352221954
 20
27.56868489220667
 30
0.0
 40
8.0
  0
CIRCLE
  5
551
330
17
100
AcDbEntity
  8
0
100
AcDbCircle
 10
452.4969939405621
 20
321.22045288104266
 30
0.0
 40
8.0
  0
CIRCLE
  5
552
330
17
100
AcDbEntity
  8
0
100
AcDbCircle
 10
991.9533074210977
 20
334.1316913635748
 30
0.0
 40
8.0
  0
CIRCLE
  5
553
330
17
100
AcDbEntity
  8
0
100
AcDbCircle
 10
73.06359576515578
 20
932.0600731805592
 30
0.0
 40
8.0
  0
CIRCLE
  5
554
330
17
100
AcDbEntity
  8
0
100
AcDbCircle
 10
854.189656236207
 20
496.0525619851023
 30
0.0
 40
8.0
  0
CIRCLE
  5
555
330
17
100
AcDbEntity
  8
0
100
AcDbCircle
 10
492.6443084498849
 20
426.164664251981
 30
0.0
 40
8.0
  0
CIRCLE
  5
556
330
17
100
AcDbEntity
  8
0
100
AcDbCircle
 10
521.8160942470319
 20
253.98303041208118
 30
0.0
 40
8.0
  0
CIRCLE
  5
557
330
17
100
AcDbEntity
  8
0
100
AcDbCircle
 10
689.9242618263662
 20
215.47655448922956
 30
0.0
 40
8.0
  0
CIRCLE
  5
558
330
17
100
AcDbEntity
  8
0
100
AcDbCircle
 10
650.6850556714735
 20
9.53309486970953
 30
0.0
 40
8.0
  0
CIRCLE
  5
559
330
17
100
AcDbEntity
  8
0
100
AcDbCircle
 10
761.1896379671404
 20
504.6366128152214
 30
0.0
 40
8.0
  0
CIRCLE
  5
55A
330
17
100
AcDbEntity
  8
0
100
AcDbCircle
 10
588.0540267399741
 20
215.68187285875433
 30
0.0
 40
8.0
  0
CIRCLE
  5
55B
330
17
100
AcDbEntity
  8
0
100
AcDbCircle
 10
482.07681433610355
 20
579.3026066849192
 30
0.0
 40
8.0
  0
CIRCLE
  5
55C
330
17
100
AcDbEntity
  8
0
100
AcDbCircle
 10
872.3450979534888
 20
154.51745944290164
 30
0.0
 40
8.0
  0
CIRCLE
  5
55D
330
17
100
AcDbEntity
  8
0
100
AcDbCircle
 10
199.55628363964806
 20
842.7191339164964
 30
0.0
 40
8.0
  0
CIRCLE
  5
55E
330
17
100
AcDbEntity
  8
0
100
AcDbCircle
 10
430.6739064969836
 20
991.8237179677831
 30
0.0
 40
8.0
  0
CIRCLE
  5
55F
330
17
100
AcDbEntity
  8
0
100
AcDbCircle
 10
333.78784173315
 20
811.216033949656
 30
0.0
 40
8.0
  0
CIRCLE
  5
560
330
17
100
AcDbEntity
  8
0
100
AcDbCircle
 10
975.006557668404
 20
686.8527295547208
 30
0.0
 40
8.0
  0
CIRCLE
  5
561
330
17
100
AcDbEntity
  8
0
100
AcDbCircle
 10
579.2991466846902
 20
62.51144226235857
 30
0.0
 40
8.0
  0
CIRCLE
  5
562
330
17
100
AcDbEntity
  8
0
100
AcDbCircle
 10
639.4038738753576
 20
311.75229236936144
 30
0.0
 40
8.0
  0
CIRCLE
  5
563
330
17
100
AcDbEntity
  8
0
100
AcDbCircle
 10
464.8371095529839
 20
106.68674887338128
 30
0.0
 40
8.0
  0
CIRCLE
  5
564
330
17
100
AcDbEntity
  8
0
100
AcDbCircle
 10
155.63390076531286
 20
501.9406217451756
 30
0.0
 40
8.0
  0
CIRCLE
  5
565
330
17
100
AcDbEntity
  8
0
100
AcDbCircle
 10
302.73336241666476
 20
886.1274721028805
 30
0.0
 40
8.0
  0
CIRCLE
  5
566
330
17
100
AcDbEntity
  8
0
100
AcDbCircle
 10
395.21436452787674
 20
691.3178144589459
 30
0.0
 40
8.0
  0
CIRCLE
  5
567
330
17
100
AcDbEntity
  8
0
100
AcDbCircle
 10
774.4770893400852
 20
179.27957807505064
 30
0.0
 40
8.0
  0
CIRCLE
  5
568
330
17
100
AcDbEntity
  8
0
100
AcDbCircle
 10
163.4856942265788
 20
48.61626492566711
 30
0.0
 40
8.0
  0
CIRCLE
  5
569
330
17
100
AcDbEntity
  8
0
100
AcDbCircle
 10
488.85993975823135
 20
133.86086900255364
 30
0.0
 40
8.0
  0
CIRCLE
  5
56A
330
17
100
AcDbEntity
  8
0
100
AcDbCircle
 10
15.307332935096142
 20
991.9707650416049
 30
0.0
 40
8.0
  0
CIRCLE
  5
56B
330
17
100
AcDbEntity
  8
0
100
AcDbCircle
 10
464.98174964804355
 20
622.6603209682368
 30
0.0
 40
8.0
  0
CIRCLE
  5
56C
330
17
100
AcDbEntity
  8
0
100
AcDbCircle
 10
916.3304688926567
 20
386.4825460196807
 30
0.0
 40
8.0
  0
CIRCLE
  5
56D
330
17
100
AcDbEntity
  8
0
100
AcDbCircle
 10
269.4378036036513
 20
971.2823638500066
 30
0.0
 40
8.0
  0
CIRCLE
  5
56E
330
17
100
AcDbEntity
  8
0
100
AcDbCircle
 10
507.60918538040056
 20
897.9434811037863
 30
0.0
 40
8.0
  0
CIRCLE
  5
56F
330
17
100
AcDbEntity
  8
0
100
AcDbCircle
 10
297.09195645300156
 20
579.9207371194026
 30
0.0
 40
8.0
  0
CIRCLE
  5
570
330
17
100
AcDbEntity
  8
0
100
AcDbCircle
 10
834.9889820917504
 20
547.2063770929585
 30
0.0
 40
8.0
  0
CIRCLE
  5
571
330
17
100
AcDbEntity
  8
0
100
AcDbCircle
 10
136.11978773259963
 20
9.281594502808101
 30
0.0
 40
8.0
  0
CIRCLE
  5
572
330
17
100
AcDbEntity
  8
0
100
AcDbCircle
 10
58.14550578982842
 20
419.96583741789897
 30
0.0
 40
8.0
  0
CIRCLE
  5
573
330
17
100
AcDbEntity
  8
0
100
AcDbCircle
 10
706.2549166847731
 20
765.5838753472888
 30
0.0
 40
8.0
  0
CIRCLE
  5
574
330
17
100
AcDbEntity
  8
0
100
AcDbCircle
 10
963.7474205135131
 20
588.9770960768469
 30
0.0
 40
8.0
  0
CIRCLE
  5
575
330
17
100
AcDbEntity
  8
0
100
AcDbCircle
 10
861.8343925312086
 20
298.82863477669883
 30
0.0
 40
8.0
  0
CIRCLE
  5
576
330
17
100
AcDbEntity
  8
0
100
AcDbCircle
 10
878.6523595636825
 20
47.42865743375231
 30
0.0
 40
8.0
  0
CIRCLE
  5
577
330
17
100
AcDbEntity
  8
0
100
AcDbCircle
 10
920.124646023864
 20
284.6292127924947
 30
0.0
 40
8.0
  0
CIRCLE
  5
578
330
17
100
AcDbEntity
  8
0
100
AcDbCircle
 10
962.2209260976681
 20
371.69325470403527
 30
0.0
 40
8.0
  0
CIRCLE
  5
579
330
17
100
AcDbEntity
  8
0
100
AcDbCircle
 10
113.9361929707642
 20
8.319850450411334
 30
0.0
 40
8.0
  0
CIRCLE
  5
57A
330
17
100
AcDbEntity
  8
0
100
AcDbCircle
 10
412.1013802495128
 20
8.112905769681984
 30
0.0
 40
8.0
  0
CIRCLE
  5
57B
330
17
100
AcDbEntity
  8
0
100
AcDbCircle
 10
781.2668786142438
 20
235.99044330338242
 30
0.0
 40
8.0
  0
CIRCLE
  5
57C
330
17
100
AcDbEntity
  8
0
100
AcDbCircle
 10
160.34999618112363
 20
534.8116505760821
 30
0.0
 40
8.0
  0
CIRCLE
  5
57D
330
17
100
AcDbEntity
  8
0
100
AcDbCircle
 10
564.3930919222074
 20
886.9341784649253
 30
0.0
 40
8.0
  0
CIRCLE
  5
57E
330
17
100
AcDbEntity
  8
0
100
AcDbCircle
 10
628.9415535650204
 20
765.9352989325748
 30
0.0
 40
8.0
  0
CIRCLE
  5
57F
330
17
100
AcDbEntity
  8
0
100
AcDbCircle
 10
604.5956032510941
 20
310.21331842126773
 30
0.0
 40
8.0
  0
CIRCLE
  5
580
330
17
100
AcDbEntity
  8
0
100
AcDbCircle
 10
281.0259303030329
 20
700.9855753702877
 30
0.0
 40
8.0
  0
CIRCLE
  5
581
330
17
100
AcDbEntity
  8
0
100
AcDbCircle
 10
425.7060582262911
 20
113.87040283942349
 30
0.0
 40
8.0
  0
CIRCLE
  5
582
330
17
100
AcDbEntity
  8
0
100
AcDbCircle
 10
381.6432624351227
 20
328.93564805451956
 30
0.0
 40
8.0
  0
CIRCLE
  5
583
330
17
100
AcDbEntity
  8
0
100
AcDbCircle
 10
944.7112671733549
 20
776.3224552535822
 30
0.0
 40
8.0
  0
CIRCLE
  5
584
330
17
100
AcDbEntity
  8
0
100
AcDbCircle
 10
228.5177685399597
 20
469.6863051758273
 30
0.0
 40
8.0
  0
CIRCLE
  5
585
330
17
100
AcDbEntity
  8
0
100
AcDbCircle
 10
818.0468379002945
 20
856.5117879702219
 30
0.0
 40
8.0
  0
CIRCLE
  5
586
330
17
100
AcDbEntity
  8
0
100
AcDbCircle
 10
78.75266879822343
 20
8.27712986105314
 30
0.0
 40
8.0
  0
CIRCLE
  5
587
330
17
100
AcDbEntity
  8
0
100
AcDbCircle
 10
896.2863951649923
 20
240.72674650746336
 30
0.0
 40
8.0
  0
CIRCLE
  5
588
330
17
100
AcDbEntity
  8
0
100
AcDbCircle
 10
47.34486285584158
 20
576.0194691553567
 30
0.0
 40
8.0
  0
CIRCLE
  5
589
330
17
100
AcDbEntity
  8
0
100
AcDbCircle
 10
473.95726376429474
 20
391.2193292635427
 30
0.0
 40
8.0
  0
CIRCLE
  5
58A
330
17
100
AcDbEntity
  8
0
100
AcDbCircle
 10
334.98914426854344
 20
773.6481162476839
 30
0.0
 40
8.0
  0
CIRCLE
  5
58B
330
17
100
AcDbEntity
  8
0
100
AcDbCircle
 10
52.4491905021124
 20
23.781924277779495
 30
0.0
 40
8.0
  0
CIRCLE
  5
58C
330
17
100
AcDbEntity
  8
0
100
AcDbCircle
 10
422.8985542470904
 20
913.5871382049273
 30
0.0
 40
8.0
  0
CIRCLE
  5
58D
330
17
100
AcDbEntity
  8
0
100
AcDbCircle
 10
600.5876023029181
 20
186.04107062558873
 30
0.0
 40
8.0
  0
CIRCLE
  5
58E
330
17
100
AcDbEntity
  8
0
100
AcDbCircle
 10
290.1424518820988
 20
974.3343615767667
 30
0.0
 40
8.0
  0
CIRCLE
  5
58F
330
17
100
AcDbEntity
  8
0
100
AcDbCircle
 10
277.6159360925973
 20
580.7322876791058
 30
0.0
 40
8.0
  0
CIRCLE
  5
590
330
17
100
AcDbEntity
  8
0
100
AcDbCircle
 10
98.57770554579135
 20
990.6534406423409
 30
0.0
 40
8.0
  0
CIRCLE
  5
591
330
17
100
AcDbEntity
  8
0
100
AcDbCircle
 10
766.3694994144248
 20
913.2416788699225
 30
0.0
 40
8.0
  0
CIRCLE
  5
592
330
17
100
AcDbEntity
  8
0
100
AcDbCircle
 10
8.754454519708872
 20
601.6277372815023
 30
0.0
 40
8.0
  0
CIRCLE
  5
593
330
17
100
AcDbEntity
  8
0
100
AcDbCircle
 10
8.042847522379727
 20
677.1747956878642
 30
0.0
 40
8.0
  0
CIRCLE
  5
594
330
17
100
AcDbEntity
  8
0
100
AcDbCircle
 10
584.963416180049
 20
991.6406212819047
 30
0.0
 40
8.0
  0
CIRCLE
  5
595
330
17
100
AcDbEntity
  8
0
100
AcDbCircle
 10
158.84735379021467
 20
849.1203943408557
 30
0.0
 40
8.0
  0
CIRCLE
  5
596
330
17
100
AcDbEntity
  8
0
100
AcDbCircle
 10
801.1625285599703
 20
521.6095714523746
 30
0.0
 40
8.0
  0
CIRCLE
  5
597
330
17
100
AcDbEntity
  8
0
100
AcDbCircle
 10
309.71755786647884
 20
151.52535446626763
 30
0.0
 40
8.0
  0
CIRCLE
  5
598
330
17
100
AcDbEntity
  8
0
100
AcDbCircle
 10
435.34225435616776
 20
221.18593691692797
 30
0.0
 40
8.0
  0
CIRCLE
  5
599
330
17
100
AcDbEntity
  8
0
100
AcDbCircle
 10
815.44894764634
 20
52.268410214913914
 30
0.0
 40
8.0
  0
CIRCLE
  5
59A
330
17
100
AcDbEntity
  8
0
100
AcDbCircle
 10
619.7492182425098
 20
808.3305739879967
 30
0.0
 40
8.0
  0
CIRCLE
  5
59B
330
17
100
AcDbEntity
  8
0
100
AcDbCircle
 10
243.86458123149455
 20
709.1997553474463
 30
0.0
 40
8.0
  0
CIRCLE
  5
59C
330
17
100
AcDbEntity
  8
0
100
AcDbCircle
 10
329.51517371106246
 20
306.8819418644915
 30
0.0
 40
8.0
  0
CIRCLE
  5
59D
330
17
100
AcDbEntity
  8
0
100
AcDbCircle
 10
300.6787488683949
 20
389.44212322733233
 30
0.0
 40
8.0
  0
CIRCLE
  5
59E
330
17
100
AcDbEntity
  8
0
100
AcDbCircle
 10
506.0114803989844
 20
645.0019011306131
 30
0.0
 40
8.0
  0
CIRCLE
  5
59F
330
17
100
AcDbEntity
  8
0
100
AcDbCircle
 10
46.498498945722034
 20
495.1936122830016
 30
0.0
 40
8.0
  0
CIRCLE
  5
5A0
330
17
100
AcDbEntity
  8
0
100
AcDbCircle
 10
326.05941692036487
 20
725.5753320321575
 30
0.0
 40
8.0
  0
CIRCLE
  5
5A1
330
17
100
AcDbEntity
  8
0
100
AcDbCircle
 10
139.35542651252567
 20
83.75346673152666
 30
0.0
 40
8.0
  0
CIRCLE
  5
5A2
330
17
100
AcDbEntity
  8
0
100
AcDbCircle
 10
111.69494273929024
 20
639.5793223093762
 30
0.0
 40
8.0
  0
CIRCLE
  5
5A3
330
17
100
AcDbEntity
  8
0
100
AcDbCircle
 10
971.3149160039993
 20
885.7697480164124
 30
0.0
 40
8.0
  0
CIRCLE
  5
5A4
330
17
100
AcDbEntity
  8
0
100
AcDbCircle
 10
784.7408755572714
 20
257.11353671675073
 30
0.0
 40
8.0
  0
CIRCLE
  5
5A5
330
17
100
AcDbEntity
  8
0
100
AcDbCircle
 10
991.8230509441082
 20
905.4234925310413
 30
0.0
 40
8.0
  0
CIRCLE
  5
5A6
330
17
100
AcDbEntity
  8
0
100
AcDbCircle
 10
953.447297147863
 20
521.2577883888423
 30
0.0
 40
8.0
  0
ENDSEC
  0
SECTION
  2
OBJECTS
  0
DICTIONARY
  5
A
330
0
100
AcDbDictionary
281
1
  3
ACAD_COLOR
350
B
  3
ACAD_GROUP
350
C
  3
ACAD_LAYOUT
350
D
  3
ACAD_MATERIAL
350
E
  3
ACAD_MLEADERSTYLE
350
F
  3
ACAD_MLINESTYLE
350
10
  3
ACAD_PLOTSETTINGS
350
11
  3
ACAD_PLOTSTYLENAME
350
12
  3
ACAD_SCALELIST
350
14
  3
ACAD_TABLESTYLE
350
15
  3
ACAD_VISUALSTYLE
350
16
  3
EZDXF_META
350
2D
  0
DICTIONARY
  5
B
330
A
100
AcDbDictionary
281
1
  0
DICTIONARY
  5
C
330
A
100
AcDbDictionary
281
1
  0
DICTIONARY
  5
D
330
A
100
AcDbDictionary
281
1
  3
Model
350
1A
  3
Layout1
350
1E
  0
DICTIONARY
  5
E
330
A
100
AcDbDictionary
281
1
  3
ByBlock
350
1F
  3
ByLayer
350
20
  3
Global
350
21
  0
DICTIONARY
  5
F
330
A
100
AcDbDictionary
281
1
  3
Standard
350
2C
  0
DICTIONARY
  5
10
330
A
100
AcDbDictionary
281
1
  3
Standard
350
22
  0
DICTIONARY
  5
11
330
A
100
AcDbDictionary
281
1
  0
ACDBDICTIONARYWDFLT
  5
12
330
A
100
AcDbDictionary
281
1
  3
Normal
350
13
100
AcDbDictionaryWithDefault
340
13
  0
ACDBPLACEHOLDER
  5
13
330
12
  0
DICTIONARY
  5
14
330
A
100
AcDbDictionary
281
1
  0
DICTIONARY
  5
15
330
A
100
AcDbDictionary
281
1
  0
DICTIONARY
  5
16
330
A
100
AcDbDictionary
281
1
  0
LAYOUT
  5
1A
330
D
100
AcDbPlotSettings
  1

  4
A3
  6

 40
7.5
 41
20.0
 42
7.5
 43
20.0
 44
420.0
 45
297.0
 46
0.0
 47
0.0
 48
0.0
 49
0.0
140
0.0
141
0.0
142
1.0
143
1.0
 70
1024
 72
1
 73
0
 74
5
  7

 75
16
 76
0
 77
2
 78
300
147
1.0
148
0.0
149
0.0
100
AcDbLayout
  1
Model
 70
1
 71
0
 10
0.0
 20
0.0
 11
420.0
 21
297.0
 12
0.0
 22
0.0
 32
0.0
 14
1e+20
 24
1e+20
 34
1e+20
 15
-1e+20
 25
-1e+20
 35
-1e+20
146
0.0
 13
0.0
 23
0.0
 33
0.0
 16
1.0
 26
0.0
 36
0.0
 17
0.0
 27
1.0
 37
0.0
 76
1
330
17
  0
LAYOUT
  5
1E
330
D
100
AcDbPlotSettings
  1

  4
A3
  6

 40
7.5
 41
20.0
 42
7.5
 43
20.0
 44
420.0
 45
297.0
 46
0.0
 47
0.0
 48
0.0
 49
0.0
140
0.0
141
0.0
142
1.0
143
1.0
 70
0
 72
1
 73
0
 74
5
  7

 75
16
 76
0
 77
2
 78
300
147
1.0
148
0.0
149
0.0
100
AcDbLayout
  1
Layout1
 70
1
 71
1
 10
0.0
 20
0.0
 11
420.0
 21
297.0
 12
0.0
 22
0.0
 32
0.0
 14
1e+20
 24
1e+20
 34
1e+20
 15
-1e+20
 25
-1e+20
 35
-1e+20
146
0.0
 13
0.0
 23
0.0
 33
0.0
 16
1.0
 26
0.0
 36
0.0
 17
0.0
 27
1.0
 37
0.0
 76
1
330
1B
  0
MATERIAL
  5
1F
102
{ACAD_REACTORS
330
E
102
}
330
E
100
AcDbMaterial
  1
ByBlock
  2

 70
0
 40
1.0
 71
1
 41
1.0
 91
-1023410177
 42
1.0
 72
1
  3

 73
1
 74
1
 75
1
 44
0.5
 73
0
 45
1.0
 46
1.0
 77
1
  4

 78
1
 79
1
170
1
 48
1.0
171
1
  6

172
1
173
1
174
1
140
1.0
141
1.0
175
1
  7

176
1
177
1
178
1
143
1.0
179
1
  8

270
1
271
1
272
1
145
1.0
146
1.0
273
1
  9

274
1
275
1
276
1
 42
1.0
 72
1
  3

 73
1
 74
1
 75
1
 94
63
  0
MATERIAL
  5
20
102
{ACAD_REACTORS
330
E
102
}
330
E
100
AcDbMaterial
  1
ByLayer
  2

 70
0
 40
1.0
 71
1
 41
1.0
 91
-1023410177
 42
1.0
 72
1
  3

 73
1
 74
1
 75
1
 44
0.5
 73
0
 45
1.0
 46
1.0
 77
1
  4

 78
1
 79
1
170
1
 48
1.0
171
1
  6

172
1
173
1
174
1
140
1.0
141
1.0
175
1
  7

176
1
177
1
178
1
143
1.0
179
1
  8

270
1
271
1
272
1
145
1.0
146
1.0
273
1
  9

274
1
275
1
276
1
 42
1.0
 72
1
  3

 73
1
 74
1
 75
1
 94
63
  0
MATERIAL
  5
21
102
{ACAD_REACTORS
330
E
102
}
330
E
100
AcDbMaterial
  1
Global
  2

 70
0
 40
1.0
 71
1
 41
1.0
 91
-1023410177
 42
1.0
 72
1
  3

 73
1
 74
1
 75
1
 44
0.5
 73
0
 45
1.0
 46
1.0
 77
1
  4

 78
1
 79
1
170
1
 48
1.0
171
1
  6

172
1
173
1
174
1
140
1.0
141
1.0
175
1
  7

176
1
177
1
178
1
143
1.0
179
1
  8

270
1
271
1
272
1
145
1.0
146
1.0
273
1
  9

274
1
275
1
276
1
 42
1.0
 72
1
  3

 73
1
 74
1
 75
1
 94
63
  0
MLINESTYLE
  5
22
102
{ACAD_REACTORS
330
10
102
}
330
10
100
AcDbMlineStyle
  2
Standard
 70
0
  3

 62
256
 51
90.0
 52
90.0
 71
2
 49
0.5
 62
256
  6
BYLAYER
 49
-0.5
 62
256
  6
BYLAYER
  0
MLEADERSTYLE
  5
2C
102
{ACAD_REACTORS
330
F
102
}
330
F
100
AcDbMLeaderStyle
179
2
170
2
171
1
172
0
 90
2
 40
0.0
 41
0.0
173
1
 91
-1056964608
 92
-2
290
1
 42
2.0
291
1
 43
8.0
  3
Standard
 44
4.0
300

342
29
174
1
175
1
176
0
178
1
 93
-1056964608
 45
4.0
292
0
297
0
 46
4.0
 94
-1056964608
 47
1.0
 49
1.0
140
1.0
294
1
141
0.0
177
0
142
1.0
295
0
296
0
143
3.75
271
0
272
9
273
9
  0
DICTIONARY
  5
2D
330
A
100
AcDbDictionary
280
1
281
1
  3
CREATED_BY_EZDXF
350
2E
  3
WRITTEN_BY_EZDXF
350
5A9
  0
DICTIONARYVAR
  5
2E
330
2D
100
DictionaryVariables
280
0
  1
1.4.4 @ 2026-10-10T13:15:11.756690+00:00
  0
DICTIONARYVAR
  5
5A9
330
2D
100
DictionaryVariables
280
0
  1
1.4.4 @ 2026-10-10T13:15:11.770397+00:00
  0
ENDSEC
  0
EOF
